<svg width="87" height="87" viewBox="0 0 87 87" fill="none" xmlns="http://www.w3.org/2000/svg">
<g clip-path="url(#clip0_1715_1029)">
<g clip-path="url(#clip1_1715_1029)">
<g clip-path="url(#clip2_1715_1029)">
<path d="M42.6016 1V10.2136" stroke="#494849" stroke-width="2" stroke-linecap="round" stroke-linejoin="bevel"/>
<path d="M42.6016 75.873V85.0867" stroke="#494849" stroke-width="2" stroke-linecap="round" stroke-linejoin="bevel"/>
<path d="M85.0926 42.8604H75.8789" stroke="#494849" stroke-width="2" stroke-linecap="round" stroke-linejoin="bevel"/>
<path d="M10.2136 42.8604H1" stroke="#494849" stroke-width="2" stroke-linecap="round" stroke-linejoin="bevel"/>
<path d="M77.774 20.1641L70.0352 25.1629" stroke="#494849" stroke-width="2" stroke-linecap="round" stroke-linejoin="bevel"/>
<path d="M14.899 60.8145L7.16016 65.821" stroke="#494849" stroke-width="2" stroke-linecap="round" stroke-linejoin="bevel"/>
<path d="M65.7839 78.4576L60.7773 70.7266" stroke="#494849" stroke-width="2" stroke-linecap="round" stroke-linejoin="bevel"/>
<path d="M25.0534 15.6315L20.0391 7.90039" stroke="#494849" stroke-width="2" stroke-linecap="round" stroke-linejoin="bevel"/>
<path d="M61.3717 5.42383L57.2578 13.6672" stroke="#494849" stroke-width="2" stroke-linecap="round" stroke-linejoin="bevel"/>
<path d="M27.9459 72.4189L23.8242 80.6623" stroke="#494849" stroke-width="2" stroke-linecap="round" stroke-linejoin="bevel"/>
<path d="M80.3603 61.5362L72.0781 57.4844" stroke="#494849" stroke-width="2" stroke-linecap="round" stroke-linejoin="bevel"/>
<path d="M13.1182 28.6026L4.84375 24.5508" stroke="#494849" stroke-width="2" stroke-linecap="round" stroke-linejoin="bevel"/>
<path d="M42.5 79C62.6584 79 79 62.6584 79 42.5C79 22.3416 62.6584 6 42.5 6C22.3416 6 6 22.3416 6 42.5C6 62.6584 22.3416 79 42.5 79Z" fill="#E6FFE4"/>
<path d="M70 12.1671C66.3992 8.3192 62.0582 5.25514 57.2433 3.1629C52.4285 1.07066 47.2413 -0.00564326 42 2.22509e-05V39L70 12.1671Z" fill="#0066FF" fill-opacity="0.64"/>
</g>
</g>
</g>
<defs>
<clipPath id="clip0_1715_1029">
<rect width="87" height="87" fill="white"/>
</clipPath>
<clipPath id="clip1_1715_1029">
<rect width="87" height="87" fill="white"/>
</clipPath>
<clipPath id="clip2_1715_1029">
<rect width="87" height="87" fill="white"/>
</clipPath>
</defs>
</svg>
