<svg width="70" height="70" viewBox="0 0 70 70" fill="none" xmlns="http://www.w3.org/2000/svg">
<g clip-path="url(#clip0_504_13144)">
<rect x="3" y="5.99971" width="64" height="64" rx="32" fill="#EDF8FF"/>
<mask id="mask0_504_13144" style="mask-type:luminance" maskUnits="userSpaceOnUse" x="30" y="10" width="39" height="39">
<path d="M68.6923 10.6966H30.4219V48.967H68.6923V10.6966Z" fill="white"/>
</mask>
<g mask="url(#mask0_504_13144)">
<path d="M49.5525 44.8264C57.6988 44.8264 64.316 38.2211 64.316 30.063C64.316 21.9048 57.7106 15.2995 49.5525 15.2995C41.3944 15.2995 34.7891 21.9048 34.7891 30.063C34.7891 38.2211 41.3944 44.8264 49.5525 44.8264Z" fill="#0066FF" stroke="black" stroke-width="0.625333" stroke-linecap="round"/>
<path d="M49.5495 37.4483C53.6225 37.4483 56.9192 34.1516 56.9192 30.0785C56.9192 26.0054 53.6225 22.7087 49.5495 22.7087C45.4763 22.7087 42.1797 26.0054 42.1797 30.0785C42.1797 34.1516 45.4763 37.4483 49.5495 37.4483Z" fill="white"/>
<path d="M49.5547 44.0586V15.6067" stroke="#FFCC02" stroke-width="0.625333" stroke-linecap="round"/>
<path d="M35.2656 30.0615H63.8252" stroke="#FFCC02" stroke-width="0.625333" stroke-linecap="round"/>
<path d="M49.5525 44.8264C57.6988 44.8264 64.316 38.2211 64.316 30.063C64.316 21.9048 57.7107 15.2995 49.5525 15.2995C41.3944 15.2995 34.7891 21.9048 34.7891 30.063C34.7891 38.2211 41.3944 44.8264 49.5525 44.8264Z" stroke="black" stroke-width="0.625333" stroke-linecap="round"/>
</g>
<path d="M32.5739 121.566L54.4087 118.997C51.9361 101.559 49.4636 84.1196 47.003 66.6805C46.2983 61.6518 42.2968 58.1163 37.9133 58.6418C33.5057 59.1554 30.209 63.575 30.424 68.6872L32.5859 121.566H32.5739Z" fill="#0066FF" stroke="black" stroke-width="0.625333" stroke-linecap="round" stroke-linejoin="round"/>
<path d="M15.0859 121.625L37.0281 121.589C36.0845 102.226 35.1289 82.8526 34.1853 63.4785C33.9226 57.8884 30.2555 53.5287 25.8479 53.5406C21.4166 53.5406 17.7615 57.9601 17.5226 63.574L15.0979 121.637L15.0859 121.625Z" fill="#0066FF" stroke="black" stroke-width="0.625333" stroke-linecap="round" stroke-linejoin="round"/>
<path d="M34.6877 30.4807L27.0312 32.0932L28.5124 39.1524L36.1688 37.5399L34.6877 30.4807Z" fill="white" stroke="black" stroke-width="0.625333" stroke-linecap="round" stroke-linejoin="round"/>
<path d="M21.622 24.8643C20.6545 24.7448 19.7587 25.2226 19.4123 25.9871C18.9704 27.0024 19.6511 28.1371 20.4992 28.603C21.5026 29.1524 22.5537 28.6866 22.6851 28.6388" fill="white"/>
<path d="M21.622 24.8643C20.6545 24.7448 19.7587 25.2226 19.4123 25.9871C18.9704 27.0024 19.6511 28.1371 20.4992 28.603C21.5026 29.1524 22.5537 28.6866 22.6851 28.6388" stroke="black" stroke-width="0.625333" stroke-linecap="round" stroke-linejoin="round"/>
<path d="M36.1953 21.7997C37.0315 21.298 38.0348 21.3817 38.6679 21.9431C39.4801 22.6956 39.3128 24.0095 38.7275 24.774C38.0348 25.6817 36.8761 25.6817 36.7448 25.6817" fill="white"/>
<path d="M36.1953 21.7997C37.0315 21.298 38.0348 21.3817 38.6679 21.9431C39.4801 22.6956 39.3128 24.0095 38.7275 24.774C38.0348 25.6817 36.8761 25.6817 36.7448 25.6817" stroke="black" stroke-width="0.625333" stroke-linecap="round" stroke-linejoin="round"/>
<path d="M35.8781 21.6197C35.054 17.7018 31.2078 15.1935 27.2899 16.0176C23.3722 16.8418 20.8638 20.6879 21.688 24.6058L22.2852 27.4486C23.1094 31.3664 26.9555 33.8748 30.8734 33.0506C34.7911 32.2264 37.2995 28.3803 36.4753 24.4624L35.8781 21.6197Z" fill="white" stroke="black" stroke-width="0.625333" stroke-linecap="round" stroke-linejoin="round"/>
<path d="M27.8764 23.8555C27.3389 23.8794 26.8133 24.0825 26.3833 24.4647C26.2161 24.62 25.9533 24.608 25.798 24.4408C25.2963 23.748 27.1 22.7805 27.6973 22.673C28.5573 22.4819 28.7484 23.7958 27.8764 23.8674V23.8555Z" fill="black"/>
<path d="M32.3587 21.7126C32.9201 21.5454 35.1179 21.641 34.7834 22.5487C34.6998 22.7279 34.4848 22.8115 34.3176 22.7518C33.7681 22.5965 33.1947 22.6443 32.717 22.8713C31.8808 23.2057 31.4986 21.9037 32.3706 21.7246L32.3587 21.7126Z" fill="black"/>
<path d="M30.0391 24.7796C30.5885 25.6634 31.1499 26.5592 31.6994 27.4432C31.1738 27.5029 30.6482 27.5627 30.1226 27.6223" fill="white"/>
<path d="M30.4381 24.1769L32.2179 26.7689C32.3373 26.9361 32.2179 27.1869 32.0148 27.1989L30.4381 27.3781C30.0798 27.4139 30.0081 26.8525 30.3784 26.8167L31.9551 26.6375L31.7519 27.0674L30.1992 24.3322C30.1037 24.1769 30.3545 24.0336 30.45 24.1769H30.4381Z" fill="black"/>
<path d="M28.1504 18.2365L27.6367 21.6407C27.577 21.7362 27.2545 22.226 26.6216 22.3693C25.9287 22.5366 25.3793 22.1901 25.2957 22.1304C24.9971 21.2943 24.7104 20.4581 24.4118 19.6221C24.3043 20.3985 24.1012 21.3779 23.6831 22.4649C23.289 23.4802 22.0109 24.1252 21.5928 24.7462C20.5895 25.0927 20.2432 25.2837 19.2398 25.6302C18.6426 24.806 18.2245 24.3043 17.6273 23.4802C17.5317 23.3488 16.17 21.2704 17.1495 19.0487C17.8303 17.5198 19.18 16.9106 19.5145 16.7673C18.9173 16.3492 18.5948 15.7042 18.7382 15.2503C18.9292 14.6411 19.9923 14.1634 21.127 14.7009C21.5451 12.8017 22.8829 11.3564 24.5313 11.0339C25.6898 10.795 26.6812 11.2011 27.1112 11.4042C27.4576 11.1175 29.7868 9.26612 32.7849 9.85141C35.6038 10.4009 37.8494 12.8734 38.3152 16.0268C38.1599 18.2485 37.8972 19.3354 37.718 21.5451C37.2163 21.6287 36.5355 21.8199 36.0338 21.9035C35.2096 20.8763 34.6364 20.8643 33.8121 19.8251C33.6211 20.0162 32.5818 21.0673 30.9574 21.0315C29.8823 21.0195 29.1179 20.5179 28.8194 20.3149L28.1266 18.2246L28.1504 18.2365Z" fill="#080808"/>
<path d="M39.6991 36.6198C39.6513 36.4527 39.4363 36.3332 39.1855 36.3332H24.3861C24.1353 36.3332 23.9204 36.4646 23.8845 36.6198L22.8811 40.6452C22.8333 40.8602 23.0723 41.0513 23.3828 41.0513H40.1887C40.5113 41.0513 40.7502 40.8602 40.6905 40.6452L39.6872 36.6198H39.6991Z" fill="#FFE067" stroke="black" stroke-width="0.625333" stroke-linecap="round" stroke-linejoin="round"/>
<path d="M45.1096 40.8705H17.7207C16.5143 51.9073 15.308 62.9322 14.1016 73.9689L49.5052 73.7658C48.048 62.8007 46.5789 51.8356 45.1096 40.8586V40.8705Z" fill="#FFE067" stroke="black" stroke-width="0.625333" stroke-linecap="round" stroke-linejoin="round"/>
<path d="M10.5638 66.2053L9.93073 81.4346C9.84713 82.2109 10.3726 82.7484 10.7788 82.7365C11.1013 82.7245 11.4358 82.3543 11.5432 81.8526C11.6029 81.9482 11.6627 82.0438 11.7343 82.1274C11.7224 82.5454 12.033 82.9157 12.451 82.8918C12.8691 82.9037 13.2393 82.5574 13.2513 82.1632C13.2513 82.4499 13.2393 82.7962 13.2393 83.0949C13.2393 83.5488 13.5976 83.9549 14.0635 83.9668C14.4935 83.9668 14.8281 83.489 14.9355 83.1427C14.9594 83.059 14.9713 82.9754 14.9833 82.9157C15.1505 83.2501 15.473 83.4651 15.7955 83.4651C16.2613 83.4651 16.7033 83.0352 16.7272 82.4499C16.8108 81.2912 16.8944 80.1445 16.966 78.9859C17.0736 79.0934 17.1811 79.2009 17.2766 79.3084C17.4319 79.4757 17.7783 79.5353 18.053 79.5353C18.1844 79.5353 18.483 79.5354 18.6861 79.3921C19.0563 79.1292 19.128 78.4007 18.7936 77.6362L17.3482 76.1909C18.6263 67.1011 19.9045 58.0113 21.1825 48.9334L10.2412 48.3362C10.3487 54.2965 10.4563 60.2569 10.5638 66.2053Z" fill="white" stroke="black" stroke-width="0.625333" stroke-miterlimit="10" stroke-linecap="round"/>
<path d="M36.5625 58.5154C37.0404 58.5631 37.53 58.6229 38.0197 58.6707L36.5625 58.5154Z" fill="white"/>
<path d="M26.1124 36.3432L25.5391 40.7388M28.5969 36.3432V40.7388M31.6547 36.5343V40.7388M34.3302 36.3432L34.5214 40.7388M36.8147 36.3432L37.7703 40.7388" stroke="black" stroke-width="0.625333" stroke-linecap="round" stroke-linejoin="round"/>
<path d="M28.6474 25.4958C28.5639 24.8747 28.2175 24.4088 27.8591 24.4566C27.5008 24.5044 27.2858 25.0419 27.3575 25.6631C27.441 26.2841 27.7875 26.75 28.1459 26.7022C28.5042 26.6544 28.7191 26.1169 28.6474 25.4958Z" fill="black"/>
<path d="M33.9912 24.32C33.9076 23.6988 33.5612 23.233 33.2029 23.2808C32.8446 23.3286 32.6296 23.8661 32.7012 24.4872C32.7849 25.1084 33.1312 25.5742 33.4895 25.5264C33.8479 25.4786 34.0629 24.9411 33.9912 24.32Z" fill="black"/>
<path d="M31.5095 28.5655C31.2348 28.5058 30.9003 28.6371 30.6375 28.8761C30.5061 28.9836 30.4105 29.115 30.3509 29.2224C30.2912 29.3419 30.2912 29.4136 30.3031 29.4255C30.3031 29.4375 30.339 29.4852 30.4345 29.545C30.53 29.6047 30.6614 29.6406 30.8167 29.6644C31.1392 29.7121 31.4975 29.6643 31.7603 29.5091C31.7603 29.5091 31.8917 29.4255 31.9753 29.3299C32.0589 29.2344 32.1068 29.1507 32.1068 29.0672C32.1068 28.9716 32.047 28.8641 31.9276 28.7566C31.8081 28.6491 31.6528 28.5775 31.5214 28.5536L31.5095 28.5655Z" stroke="black" stroke-width="0.625333" stroke-miterlimit="10"/>
<path d="M54.9501 55.9133C49.8736 57.3705 48.2611 57.8005 43.1847 59.2577C39.458 49.5708 38.6338 46.0112 41.5005 42.404C42.3128 41.3767 44.2 40.672 46.1947 40.6004C50.65 40.457 52.7762 46.6085 54.9501 55.9133Z" fill="#FFCC02"/>
<path d="M54.9501 55.9133C49.8736 57.3705 48.2611 57.8005 43.1847 59.2577C39.458 49.5708 38.6338 46.0112 41.5005 42.404C42.3128 41.3767 44.2 40.672 46.1947 40.6004C50.65 40.457 52.7762 46.6085 54.9501 55.9133Z" stroke="black" stroke-width="0.625333" stroke-miterlimit="10" stroke-linecap="round"/>
<path d="M16.0751 40.4779C18.1176 40.3824 20.0885 40.9557 20.9963 41.9352C24.2093 45.3871 23.6599 49.078 20.626 59.2309C15.3465 58.1439 13.6742 57.8453 8.38281 56.7584C9.85199 47.1191 11.5242 40.6809 16.0751 40.4779Z" fill="#FFCC02"/>
<path d="M16.0751 40.4779C18.1176 40.3824 20.0885 40.9557 20.9963 41.9352C24.2093 45.3871 23.6599 49.078 20.626 59.2309C15.3465 58.1439 13.6742 57.8453 8.38281 56.7584C9.85199 47.1191 11.5242 40.6809 16.0751 40.4779Z" stroke="black" stroke-width="0.625333" stroke-miterlimit="10" stroke-linecap="round"/>
<path d="M37.2439 36.2612C36.9214 34.8399 36.8736 34.7562 36.5512 33.3349C36.4317 32.8213 35.8823 32.5226 35.4284 32.6779C35.0102 32.8212 34.7595 33.311 34.9028 33.7648L34.3773 33.1796L32.9439 31.6029C32.5736 31.3162 32.0719 31.34 31.7614 31.6029C31.3911 31.9253 31.3433 32.5704 31.7494 32.9884C31.618 33.0123 31.3672 33.0959 31.1761 33.3229C30.8894 33.6693 30.8655 34.1948 31.1164 34.6607C31.0805 34.6607 30.6266 34.5651 30.328 34.8638C30.0294 35.1623 30.0175 35.6879 30.3519 36.082C30.2683 36.082 30.0055 36.0701 29.7786 36.2493C29.5158 36.4643 29.4202 36.8346 29.5278 37.1929C30.7222 38.7815 31.9287 40.3701 33.135 41.9588C35.4762 47.9191 37.8053 53.8675 40.1345 59.8279C42.7145 62.4438 46.5368 62.1809 48.1135 60.222C49.2244 58.8364 49.2602 56.5909 48.1971 54.6439C44.6376 48.9583 41.0781 43.2727 37.5187 37.5871L37.2439 36.2493V36.2612Z" fill="white"/>
<path d="M31.7344 33.0019L33.4543 34.7576C33.7171 35.4027 33.9918 36.0477 34.2547 36.7047" fill="white"/>
<path d="M31.7344 33.0019L33.4543 34.7576C33.6813 35.116 33.9082 35.4863 34.1351 35.8446" stroke="black" stroke-width="0.625333" stroke-linecap="round" stroke-linejoin="round"/>
<path d="M31.1172 34.6817C31.4994 35.0639 31.8817 35.4461 32.2639 35.8283C32.4909 36.2345 32.7178 36.6406 32.9328 37.0586" fill="white"/>
<path d="M31.1172 34.6817C31.4994 35.0639 31.8817 35.4461 32.2639 35.8283C32.4909 36.2345 32.7178 36.6406 32.9328 37.0586" stroke="black" stroke-width="0.625333" stroke-linecap="round" stroke-linejoin="round"/>
<path d="M30.3516 36.0907C30.6621 36.4133 30.9727 36.7357 31.2952 37.0582C31.4744 37.333 31.6535 37.6077 31.8327 37.8705" fill="white"/>
<path d="M30.3516 36.0907C30.6621 36.4133 30.9727 36.7357 31.2952 37.0582C31.4744 37.333 31.6535 37.6077 31.8327 37.8705" stroke="black" stroke-width="0.625333" stroke-linecap="round" stroke-linejoin="round"/>
<path d="M35.3873 34.9842C35.1723 34.4944 34.9572 34.0047 34.7422 33.515" stroke="black" stroke-width="0.625333" stroke-linecap="round" stroke-linejoin="round"/>
<path d="M33.7578 43.2704C35.6093 42.4104 37.4487 41.3832 39.3 40.5231L40.2318 42.1237L34.4028 45.0979C34.1878 44.429 33.9848 43.9274 33.7578 43.2704Z" fill="#0066FF" stroke="#0066FF" stroke-width="0.625333" stroke-linecap="round" stroke-linejoin="round"/>
<path d="M37.5325 40.8598C36.5052 40.5851 35.4422 41.1942 35.1675 42.2214C34.8927 43.2486 35.5018 44.3117 36.529 44.5865C37.5563 44.8612 38.6194 44.2521 38.8941 43.2248C39.1689 42.1975 38.5597 41.1345 37.5325 40.8598Z" fill="#FF55EB"/>
<path d="M40.4115 61.1978C38.0823 55.2374 35.4665 47.9274 33.1253 41.967C31.9189 40.3784 30.7244 38.7897 29.5181 37.2011C29.4106 36.8428 29.5181 36.4726 29.769 36.2575C29.9959 36.0664 30.2586 36.0783 30.3422 36.0903C30.0197 35.6961 30.0317 35.1586 30.3184 34.872C30.605 34.5853 31.0709 34.6689 31.1067 34.6689C30.8558 34.2031 30.8797 33.6656 31.1664 33.3311C31.3575 33.1042 31.6084 33.0205 31.7398 32.9966C31.3337 32.5786 31.3814 31.9336 31.7516 31.6111C32.0623 31.3483 32.564 31.3244 32.9343 31.6111L34.3675 33.1878L34.8931 33.7731C34.8334 33.3072 35.0603 32.8652 35.4187 32.6861C35.8965 32.4472 36.6012 32.6861 36.8759 33.3311C37.079 34.3345 37.2701 35.3259 37.4732 36.3292C37.4851 36.7472 37.4971 37.1772 37.5209 37.5954C41.0804 43.2809 44.6399 48.9665 48.1994 54.6521C48.6772 55.5122 48.9519 56.1691 49.0116 56.8619C49.0474 57.3396 48.9757 57.7457 48.916 58.0205" stroke="black" stroke-width="0.625333" stroke-linecap="round" stroke-linejoin="round"/>
<path d="M49.5497 32.3284C51.001 32.3284 52.1775 31.1519 52.1775 29.7006C52.1775 28.2493 51.001 27.0728 49.5497 27.0728C48.0984 27.0728 46.9219 28.2493 46.9219 29.7006C46.9219 31.1519 48.0984 32.3284 49.5497 32.3284Z" fill="#FF55EB"/>
<path d="M59.9605 15.0514C59.9008 14.4661 59.841 13.8928 59.7812 13.3075C60.3904 12.5669 61.0117 11.8264 61.6209 11.0858C61.6209 11.6711 61.6327 12.2564 61.6446 12.8536C62.0627 13.1761 62.4807 13.4867 62.8988 13.8092L64.6188 13.4986C63.9977 14.2869 63.3646 15.0634 62.7436 15.8517C62.2299 15.9114 61.7163 15.9592 61.2147 16.0189L59.9605 15.0634V15.0514Z" fill="#FF55EB"/>
<path d="M61.6426 12.8495L62.8968 13.805L51.0837 29.2016C50.5701 29.4165 50.0683 29.6196 49.5547 29.8347C49.6503 29.3091 49.7458 28.7716 49.8294 28.2461L61.6426 12.8495Z" fill="#08F8C3"/>
<path d="M37.3906 44.1162C38.7762 44.582 40.1497 45.0598 41.5353 45.5256C41.7025 45.1673 41.8698 44.8089 42.0369 44.4506C43.8884 44.4984 45.7518 44.5462 47.6151 44.594C48.9171 48.4878 50.2071 52.3937 51.5091 56.2877C51.5091 59.1304 49.9801 61.6388 47.639 62.7138C45.2023 63.8246 41.404 63.3946 40.2334 60.8863C39.3137 58.9155 40.1975 56.2518 42.7298 54.6035C40.9501 51.1156 39.1703 47.6159 37.3906 44.1281V44.1162Z" fill="white" stroke="black" stroke-width="0.625333" stroke-linecap="round" stroke-linejoin="round"/>
</g>
<defs>
<clipPath id="clip0_504_13144">
<rect x="3" y="5.99971" width="64" height="64" rx="32" fill="white"/>
</clipPath>
</defs>
</svg>