<svg width="70" height="70" viewBox="0 0 70 70" fill="none" xmlns="http://www.w3.org/2000/svg">
    <g clip-path="url(#clip0_504_13425)">
        <g clip-path="url(#clip1_504_13425)">
            <path
                d="M34.176 63.8235C50.777 63.8235 64.2348 50.9188 64.2348 35C64.2348 19.0812 50.777 6.17647 34.176 6.17647C17.575 6.17647 4.11719 19.0812 4.11719 35C4.11719 50.9188 17.575 63.8235 34.176 63.8235Z"
                fill="#DEF9FF" />
            <mask id="mask0_504_13425" style="mask-type:alpha" maskUnits="userSpaceOnUse" x="0" y="-15" width="71"
                height="79">
                <path
                    d="M70.142 24.7059C70.142 46.3099 54.4402 63.8235 35.071 63.8235C15.7018 63.8235 0 46.3099 0 24.7059C0 3.1018 15.7018 -14.4118 35.071 -14.4118C54.4402 -14.4118 70.142 3.1018 70.142 24.7059Z"
                    fill="#D9D9D9" />
            </mask>
            <g mask="url(#mask0_504_13425)">
                <path d="M17.0156 65.2259V63.4077H24.5373V65.2259H17.0156Z" fill="#0066FF" stroke="black"
                    stroke-width="0.551765" stroke-linecap="round" />
                <path d="M61.379 63.1528V65.2275H52.0391V63.1528H61.379Z" fill="#0066FF" stroke="black"
                    stroke-width="0.551765" stroke-linecap="round" />
                <path
                    d="M56.1898 53.5445C56.1898 56.2681 53.9793 58.471 51.2634 58.471H25.5746C22.8511 58.471 20.6406 56.2681 20.6406 53.5445V48.8746H56.1898V53.5445Z"
                    fill="black" stroke="black" stroke-width="0.551765" stroke-linecap="round" />
                <path
                    d="M23.502 16.9668C24.1358 16.9668 24.5432 17.3667 24.5432 17.7438V37.729C24.5432 38.1062 24.1358 38.5061 23.502 38.5061C22.8683 38.5061 22.4609 38.1062 22.4609 37.729V17.7438C22.4609 17.3667 22.8683 16.9668 23.502 16.9668Z"
                    fill="#0066FF" stroke="black" stroke-width="0.551765" stroke-linecap="round" />
                <path
                    d="M53.0802 16.9668C53.714 16.9668 54.1213 17.3667 54.1213 17.7438V37.729C54.1213 38.1062 53.714 38.5061 53.0802 38.5061C52.4465 38.5061 52.0391 38.1062 52.0391 37.729V17.7438C52.0391 17.3667 52.4465 16.9668 53.0802 16.9668Z"
                    fill="#0066FF" stroke="black" stroke-width="0.551765" stroke-linecap="round" />
                <path
                    d="M20.6562 28.6351C20.6562 25.9116 22.8668 23.7087 25.5828 23.7087H51.2714C53.995 23.7087 56.2055 25.9192 56.2055 28.6351V49.6539H20.6562V28.6351Z"
                    fill="#66A3FF" stroke="black" stroke-width="0.551765" stroke-linecap="round" />
                <path
                    d="M26.9375 49.859L28.5294 42.39H48.2279L50.1969 49.8666C46.0173 51.5942 42.6601 52.4844 39.1293 52.5071C35.591 52.5297 31.8564 51.6696 26.9375 49.8514V49.859Z"
                    fill="#FFCC02" stroke="black" stroke-width="0.551765" stroke-linecap="round" />
                <path d="M40.5236 19.2661L35.25 19.8093V24.7434L41.029 24.1322L40.531 19.2661H40.5236Z" fill="white"
                    stroke="black" stroke-width="0.551765" stroke-linecap="round" stroke-linejoin="round" />
                <path
                    d="M40.8029 12.5946C39.7543 10.0899 36.8648 8.91298 34.36 9.96158C31.8552 11.0103 30.6783 13.8998 31.727 16.4045L32.489 18.2227C33.5376 20.7275 36.4271 21.9044 38.9319 20.8557C41.4367 19.807 42.6136 16.9251 41.5649 14.4203L40.8029 12.6021V12.5946Z"
                    fill="white" stroke="black" stroke-width="0.551765" stroke-linecap="round"
                    stroke-linejoin="round" />
                <path
                    d="M36.2293 16.1036C36.599 15.983 37.2478 17.1976 37.0441 16.5487C36.8329 15.9 36.3651 15.4699 35.9879 15.5831C35.6182 15.7038 35.4824 16.33 35.6937 16.9788C35.9049 17.6276 35.8596 16.2244 36.2293 16.1036Z"
                    fill="black" />
                <path
                    d="M35.7079 15.1604C35.3684 15.2887 35.0666 15.53 34.878 15.862C34.8026 15.9978 34.6291 16.0431 34.4933 15.9677C34.0255 15.6281 34.9836 14.6247 35.3458 14.4286C35.8588 14.1268 36.2587 14.934 35.7079 15.1604Z"
                    fill="black" />
                <path
                    d="M40.2144 15.4021C40.0559 14.7533 39.6335 14.3006 39.2638 14.3911C38.8941 14.4817 38.7206 15.0777 38.879 15.7264C39.0375 16.3753 39.128 15.0324 39.4977 14.9419C39.8673 14.8514 40.3728 16.0509 40.2144 15.4096V15.4021Z"
                    fill="black" />
                <path
                    d="M38.0547 14.8179C38.5375 15.3385 39.0204 15.859 39.5033 16.3796C39.1637 16.4852 38.8167 16.5908 38.4772 16.6965"
                    fill="white" />
                <path
                    d="M37.8871 15.2572L39.4035 16.7586C39.5091 16.8567 39.4563 17.0378 39.3205 17.0679L38.2945 17.3848C38.0606 17.4602 37.9475 17.0905 38.1813 17.0226L39.2074 16.7058L39.1244 17.0151L37.7437 15.393C37.6608 15.3025 37.8041 15.1743 37.8871 15.2572Z"
                    fill="black" />
                <path
                    d="M43.475 23.3868C43.4448 23.2737 43.3015 23.1908 43.1279 23.1908H33.0939C32.9204 23.1908 32.777 23.2737 32.7469 23.3868L32.0679 26.118C32.0301 26.2613 32.1961 26.3895 32.4149 26.3895H43.8069C44.0182 26.3895 44.1842 26.2613 44.1465 26.118L43.4675 23.3868H43.475Z"
                    fill="#FFE067" stroke="black" stroke-width="0.551765" stroke-linecap="round"
                    stroke-linejoin="round" />
                <path
                    d="M48.1481 25.5238H28.427C27.0011 32.0798 26.4731 38.553 25.0547 45.1166C29.1588 45.3052 35.0737 45.5768 39.1778 45.7654L51.6487 45.1166L48.1481 25.5238Z"
                    fill="#FFE067" />
                <path
                    d="M48.1481 25.5238H28.427C27.0011 32.0798 26.4731 38.553 25.0547 45.1166C29.1588 45.3052 35.0737 45.5768 39.1778 45.7654L51.6487 45.1166L48.1481 25.5238Z"
                    stroke="black" stroke-width="0.551765" stroke-linecap="round" stroke-linejoin="round" />
                <path
                    d="M10.8182 23.9766L11.0218 24.3312C10.886 24.0973 10.7654 24.0369 10.4183 24.1954C10.2297 24.3085 10.2297 24.5726 10.3428 24.7612C10.9992 25.8627 11.6631 26.9868 12.3196 28.1486C13.255 29.8009 14.1378 31.4305 14.96 33.0223L15.7748 34.5991C16.2653 35.7308 17.5477 36.274 18.6945 35.859L25.9296 33.6259L24.6772 30.7288L23.4551 27.8921L18.951 30.4346C17.7138 28.8729 16.4765 27.3037 15.2392 25.7345C15.3901 25.1988 15.541 24.6631 15.6994 24.1275C15.7296 23.9162 15.6164 23.5994 15.3373 23.4787C15.1336 23.3882 14.8846 23.4259 14.7035 23.5692C14.6206 23.7729 14.5376 23.9841 14.447 24.1878C14.0472 23.5843 13.6548 22.9732 13.255 22.3696C13.1268 22.1509 12.8476 22.0829 12.6364 22.2037C12.4176 22.3319 12.3497 22.6111 12.4704 22.8223C12.3949 22.7016 12.3271 22.5734 12.2516 22.4526C12.1082 22.1961 11.7839 22.1131 11.5273 22.264C11.2708 22.4073 11.1879 22.7318 11.3387 22.9882C11.4368 23.1543 11.5349 23.3278 11.633 23.4937C11.4972 23.2674 11.2105 23.192 10.9841 23.3278C10.7578 23.456 10.6824 23.7503 10.8106 23.9766H10.8182Z"
                    fill="white" stroke="black" stroke-width="0.551765" stroke-miterlimit="10" stroke-linecap="round" />
                <path d="M12.4688 22.8296C12.7403 23.3125 13.0119 23.7877 13.2761 24.2706L12.4688 22.8296Z"
                    fill="white" />
                <path d="M12.4688 22.8296C12.7403 23.3125 13.0119 23.7877 13.2761 24.2706" stroke="black"
                    stroke-width="0.551765" stroke-linecap="round" stroke-linejoin="round" />
                <path d="M11.6484 23.5052C11.8446 23.8522 12.0333 24.2068 12.2219 24.5539L11.6484 23.5052Z"
                    fill="white" />
                <path d="M11.6484 23.5052C11.8446 23.8522 12.0333 24.2068 12.2219 24.5539" stroke="black"
                    stroke-width="0.551765" stroke-linecap="round" stroke-linejoin="round" />
                <path d="M11.0391 24.3641C11.1371 24.5376 11.2428 24.7186 11.3485 24.8922L11.0391 24.3641Z"
                    fill="white" />
                <path d="M11.0391 24.3641C11.1371 24.5376 11.2428 24.7186 11.3485 24.8922" stroke="black"
                    stroke-width="0.551765" stroke-linecap="round" stroke-linejoin="round" />
                <path
                    d="M54.7748 15.1725C55.0313 13.392 55.3256 11.5738 55.6726 9.70274C55.9065 8.39004 56.163 7.10747 56.4195 5.85513C56.4648 5.63632 56.3215 5.42508 56.1027 5.37979C55.8838 5.33458 55.6726 5.47787 55.6273 5.69668L55.7103 5.26664C55.7632 5.01011 55.5897 4.76115 55.3331 4.70837C55.0766 4.65558 54.8277 4.82909 54.7748 5.08562C54.8125 4.88946 54.8502 4.70079 54.888 4.50467C54.9483 4.21799 54.7597 3.93884 54.4731 3.88603C54.1864 3.82567 53.9072 4.01429 53.8544 4.30097C53.8242 4.43677 53.8016 4.58014 53.7714 4.72344C53.8167 4.48203 53.6583 4.24062 53.4093 4.19535C53.1678 4.15009 52.9265 4.30852 52.8812 4.54992L52.4059 6.97167L52.0136 6.4134C51.8476 6.17202 51.5157 6.11915 51.2742 6.28518C51.0328 6.45112 50.98 6.78308 51.146 7.01697L52.1041 8.38246C51.4477 10.2686 50.799 12.1547 50.1426 14.0333L46.4609 24.6935L53.1151 26.1873L54.7673 15.18L54.7748 15.1725Z"
                    fill="white" stroke="black" stroke-width="0.551765" stroke-miterlimit="10" stroke-linecap="round" />
                <path d="M53.763 4.71676C53.6649 5.25996 53.5668 5.80316 53.4688 6.33887L53.763 4.71676Z"
                    fill="white" />
                <path d="M53.763 4.71676C53.6649 5.25996 53.5668 5.80316 53.4688 6.33887" stroke="black"
                    stroke-width="0.551765" stroke-linecap="round" stroke-linejoin="round" />
                <path d="M54.7662 5.08678C54.6983 5.47902 54.6304 5.87135 54.5625 6.26368L54.7662 5.08678Z"
                    fill="white" />
                <path d="M54.7662 5.08678C54.6983 5.47902 54.6304 5.87135 54.5625 6.26368" stroke="black"
                    stroke-width="0.551765" stroke-linecap="round" stroke-linejoin="round" />
                <path d="M55.6211 5.70837C55.5833 5.90454 55.5455 6.10828 55.5078 6.30445L55.6211 5.70837Z"
                    fill="white" />
                <path d="M55.6211 5.70837C55.5833 5.90454 55.5455 6.10828 55.5078 6.30445" stroke="black"
                    stroke-width="0.551765" stroke-linecap="round" stroke-linejoin="round" />
                <path
                    d="M49.0611 30.0082C47.7258 29.9177 46.4809 29.4046 45.9529 28.703C44.1045 26.2208 44.7382 23.8444 47.4467 17.4316C50.819 18.518 51.8903 18.8424 55.2626 19.9364C53.6029 26.1303 52.0412 30.2118 49.0611 30.0157V30.0082Z"
                    fill="#FFCC02" />
                <path
                    d="M31.3183 26.6488C32.1105 27.7277 32.5179 29.0102 32.3142 29.8703C31.605 32.8805 29.3794 33.9292 22.7252 35.9737C21.3898 32.6919 20.9523 31.6659 19.6094 28.384C25.4186 25.6681 29.5453 24.2346 31.3183 26.6488Z"
                    fill="#FFCC02" />
                <path
                    d="M47.5843 29.729C48.0369 29.8799 48.55 29.978 49.063 30.0157C52.0505 30.2118 53.6123 26.1303 55.2644 19.9364C51.8921 18.85 50.8208 18.5255 47.4485 17.4316C46.1056 20.6003 45.2757 22.7806 44.9965 24.4781C44.9362 24.8478 44.8984 25.1948 44.8984 25.5268"
                    stroke="black" stroke-width="0.551765" stroke-miterlimit="10" stroke-linecap="round" />
                <path
                    d="M32.0577 27.9615C31.8766 27.5164 31.6276 27.0637 31.3183 26.6488C29.5453 24.2346 25.4186 25.6681 19.6094 28.384C20.9447 31.6659 21.3898 32.6919 22.7252 35.9737C26.0145 34.9628 28.2176 34.1933 29.6963 33.3181C30.0207 33.1219 30.3074 32.9258 30.5639 32.722"
                    stroke="black" stroke-width="0.551765" stroke-miterlimit="10" stroke-linecap="round" />
                <path
                    d="M16.3888 53.9484H17.5508V76.1139H16.3888C15.0233 76.1139 13.9219 75.0048 13.9219 73.6468V56.423C13.9219 55.0575 15.0309 53.9484 16.3888 53.9484Z"
                    fill="black" />
                <path
                    d="M15.9997 51.9389C15.9997 51.8031 16.0978 51.6975 16.2261 51.6748H17.0257C17.1691 51.6748 17.2898 51.7956 17.2898 51.9389V78.3745H15.9922V51.9389H15.9997Z"
                    fill="#0066FF" stroke="black" stroke-width="0.551765" stroke-linecap="round" />
                <path
                    d="M20.6 48.9622H21.3695C21.5128 48.9622 21.6336 49.0829 21.6336 49.2262V74.1681H20.3359V49.2262C20.3359 49.0829 20.4567 48.9622 20.6 48.9622Z"
                    fill="#0066FF" stroke="black" stroke-width="0.551765" stroke-linecap="round" />
                <path
                    d="M24.4044 48.9622H25.1663C25.3097 48.9622 25.4304 49.0829 25.4304 49.2262V74.1681H24.1328V49.2262C24.1328 49.0829 24.2535 48.9622 24.3968 48.9622H24.4044Z"
                    fill="#0066FF" stroke="black" stroke-width="0.551765" stroke-linecap="round" />
                <path
                    d="M60.2321 75.9302H59.0703V53.7723H60.2321C61.5901 53.7723 62.6991 54.8813 62.6991 56.2393V73.4632C62.6991 74.8212 61.5901 75.9302 60.2321 75.9302Z"
                    fill="black" />
                <path
                    d="M60.6179 78.2H59.3203V51.7644C59.3203 51.621 59.441 51.5003 59.5843 51.5003H60.3538C60.4972 51.5003 60.6179 51.621 60.6179 51.7644V78.2Z"
                    fill="#0066FF" stroke="black" stroke-width="0.551765" stroke-linecap="round" />
                <path
                    d="M56.2898 73.9758H54.9922V49.034C54.9922 48.8907 55.1129 48.77 55.2563 48.77H56.0258C56.1692 48.77 56.2898 48.8907 56.2898 49.034V73.9758Z"
                    fill="#0066FF" stroke="black" stroke-width="0.551765" stroke-linecap="round" />
                <path
                    d="M52.5868 74.0804H51.2891V49.1386C51.2891 48.9952 51.4098 48.8746 51.5532 48.8746H52.3227C52.4661 48.8746 52.5868 48.9952 52.5868 49.1386V74.0804Z"
                    fill="#0066FF" stroke="black" stroke-width="0.551765" stroke-linecap="round" />
                <path
                    d="M26.5 71.5094L39.3858 71.2679C38.6766 62.3127 37.9524 53.3575 37.2432 44.4023C37.0395 41.8221 34.8517 39.8379 32.2639 39.8908C29.6611 39.9436 27.5487 42.0183 27.4581 44.621L26.5075 71.5094H26.5Z"
                    fill="#FFCC02" stroke="black" stroke-width="0.551765" stroke-linecap="round"
                    stroke-linejoin="round" />
                <path
                    d="M37.8984 71.3101L50.7843 71.5514C50.4071 62.5736 50.0299 53.6033 49.6602 44.6255C49.5546 42.0377 47.4422 39.9781 44.8544 39.9253C42.2516 39.8725 40.0637 41.8718 39.8751 44.467L37.906 71.3025L37.8984 71.3101Z"
                    fill="#FFCC02" stroke="black" stroke-width="0.551765" stroke-linecap="round"
                    stroke-linejoin="round" />
                <path
                    d="M39.8818 17.7316L37.6562 18.5087C37.6562 18.5087 39.0444 19.3537 39.5272 18.9086C39.9346 18.5313 39.8818 17.7316 39.8818 17.7316Z"
                    stroke="black" stroke-width="0.247059" stroke-linecap="round" stroke-linejoin="round" />
                <path
                    d="M38.323 13.2073C38.7078 13.0941 40.194 13.1469 39.9752 13.758C39.9149 13.8788 39.7791 13.9391 39.6584 13.9013C39.2811 13.7958 38.8964 13.8335 38.572 13.9844C38.0061 14.2107 37.7421 13.328 38.3381 13.2073H38.323Z"
                    fill="black" />
                <path
                    d="M32.5119 16.3347C31.8556 16.3799 31.3199 16.81 31.1841 17.3682C31.0181 18.1 31.6217 18.7639 32.2403 18.9677C32.9797 19.2091 33.621 18.7639 33.6964 18.7112"
                    fill="white" />
                <path
                    d="M32.5119 16.3347C31.8556 16.3799 31.3199 16.81 31.1841 17.3682C31.0181 18.1 31.6217 18.7639 32.2403 18.9677C32.9797 19.2091 33.621 18.7639 33.6964 18.7112"
                    stroke="black" stroke-width="0.551765" stroke-linecap="round" stroke-linejoin="round" />
                <path
                    d="M20.0069 47.8387H24.9334C25.4313 47.8387 25.8387 48.2461 25.8387 48.744C25.8387 49.2419 25.4313 49.6493 24.9334 49.6493H20.0069C19.509 49.6493 19.1016 49.2419 19.1016 48.744C19.1016 48.2461 19.509 47.8387 20.0069 47.8387Z"
                    fill="#0066FF" stroke="black" stroke-width="0.551765" stroke-linecap="round" />
                <path
                    d="M51.3975 47.8387H56.324C56.8219 47.8387 57.2293 48.2461 57.2293 48.744C57.2293 49.2419 56.8219 49.6493 56.324 49.6493H51.3975C50.8996 49.6493 50.4922 49.2419 50.4922 48.744C50.4922 48.2461 50.8996 47.8387 51.3975 47.8387Z"
                    fill="#0066FF" stroke="black" stroke-width="0.551765" stroke-linecap="round" />
                <path
                    d="M55.6443 5.70319C58.0208 5.70319 59.9371 3.77936 59.9371 1.41041C59.9371 -0.958532 58.0133 -2.88235 55.6443 -2.88235C53.2753 -2.88235 51.3516 -0.958532 51.3516 1.41041C51.3516 3.77936 53.2753 5.70319 55.6443 5.70319Z"
                    fill="#FF55EB" stroke="black" stroke-width="0.551765" stroke-miterlimit="10" />
                <path d="M13.2095 16.327L6.74219 18.4683L8.88353 24.9356L15.3509 22.7942L13.2095 16.327Z" fill="#FF55EB"
                    stroke="black" stroke-width="0.551765" stroke-miterlimit="10" />
                <path
                    d="M35.7912 11.805L35.7535 13.8948C35.7233 13.9627 35.5649 14.2795 35.1801 14.4305C34.7652 14.604 34.3955 14.4455 34.3352 14.4153C34.0787 13.9476 33.8297 13.4723 33.5807 12.997C33.5807 13.4723 33.5355 14.0834 33.3619 14.7699C33.2035 15.4112 32.4566 15.9242 32.2529 16.3392C31.6569 16.6485 31.4532 16.7918 30.8572 17.1012C30.4196 16.6635 30.1178 16.4071 29.6803 15.9695C29.6123 15.9016 28.5939 14.785 29.0163 13.3591C29.3106 12.3784 30.1027 11.8804 30.3064 11.7597C29.8991 11.5636 29.6501 11.2165 29.6953 10.9223C29.7633 10.5376 30.3894 10.1527 31.1288 10.364C31.2344 9.18705 31.9436 8.19123 32.947 7.83662C33.6486 7.58767 34.2974 7.73096 34.5841 7.81398C34.7727 7.61032 36.0704 6.27496 37.9866 6.33525C39.7822 6.39561 41.3892 7.65553 41.9324 9.50394C42.0153 10.8469 41.9399 11.5258 42.0229 12.8687C41.7136 12.9668 41.3137 13.1479 41.0044 13.246C40.4084 12.7103 40.0463 12.7556 39.4503 12.2199C39.3522 12.3482 38.7864 13.08 37.7754 13.2233C37.104 13.3138 36.5909 13.0951 36.3873 12.997L35.7837 11.805H35.7912Z"
                    fill="#080808" />
                <path
                    d="M41.3438 12.6707C41.8342 12.2331 42.5207 12.1501 43.0111 12.4519C43.6524 12.8442 43.7051 13.742 43.4109 14.3305C43.0639 15.0246 42.2944 15.1754 42.2038 15.1905"
                    fill="white" />
                <path
                    d="M41.3438 12.6707C41.8342 12.2331 42.5207 12.1501 43.0111 12.4519C43.6524 12.8442 43.7051 13.742 43.4109 14.3305C43.0639 15.0246 42.2944 15.1754 42.2038 15.1905"
                    stroke="black" stroke-width="0.551765" stroke-linecap="round" stroke-linejoin="round" />
            </g>
        </g>
    </g>
    <defs>
        <clipPath id="clip0_504_13425">
            <rect width="70" height="70" fill="white" />
        </clipPath>
        <clipPath id="clip1_504_13425">
            <rect width="70" height="77.4118" fill="white" transform="translate(0 -3.70588)" />
        </clipPath>
    </defs>
</svg>