<svg width="70" height="70" viewBox="0 0 70 70" fill="none" xmlns="http://www.w3.org/2000/svg">
    <g clip-path="url(#clip0_504_13513)">
        <g clip-path="url(#clip1_504_13513)">
            <mask id="mask0_504_13513" style="mask-type:alpha" maskUnits="userSpaceOnUse" x="0" y="-4" width="70"
                height="78">
                <path
                    d="M0 -3.68421H70V39.6053C70 58.4265 54.7423 73.6842 35.9211 73.6842H34.0789C15.2577 73.6842 0 58.4265 0 39.6053V-3.68421Z"
                    fill="#D9D9D9" />
            </mask>
            <g mask="url(#mask0_504_13513)">
                <path
                    d="M35.2106 73.8278C54.6568 73.8278 70.4211 58.9393 70.4211 40.5734C70.4211 22.2075 54.6568 7.31896 35.2106 7.31896C15.7643 7.31896 0 22.2075 0 40.5734C0 58.9393 15.7643 73.8278 35.2106 73.8278Z"
                    fill="#FFF8D8" />
                <path opacity="0.75"
                    d="M55.4173 64.8943L56.5389 64.002C51.5424 58.4616 46.5288 52.9126 41.5152 47.3637C42.4924 47.3637 43.4696 47.3553 44.4469 47.3467C43.6991 43.6248 42.9513 39.9029 42.195 36.1809C43.6736 35.7645 45.1012 35.1952 46.3163 34.5153C48.7892 33.1218 49.9278 31.5412 50.2677 31.0483C51.6868 28.9494 51.9928 26.8421 52.0692 25.7798C51.5169 25.338 50.956 24.9046 50.4122 24.4627L52.3497 23.3495C52.2987 22.6102 52.2562 21.8709 52.2137 21.1316C51.4659 21.4801 50.2762 21.9559 48.8232 22.2703C49.0781 21.4376 49.333 20.5623 49.5964 19.6531C49.0866 19.4831 48.6192 19.3217 48.1944 19.1772L49.0695 13.8662C49.4095 11.6993 49.7918 9.49845 50.2253 7.23809C50.5312 5.63205 50.871 4.10245 51.2024 2.58988C51.2619 2.33495 51.0835 2.05453 50.8286 2.02054C50.5736 1.96106 50.2933 2.1395 50.2593 2.38594L50.3612 1.85059C50.4292 1.53618 50.2422 1.22177 49.9278 1.17928C49.6134 1.1113 49.2905 1.32374 49.231 1.61265C49.265 1.39172 49.3245 1.13679 49.367 0.92435C49.4349 0.575943 49.2225 0.227546 48.8741 0.168064C48.5258 0.108582 48.1773 0.312522 48.1178 0.660928C48.0838 0.82238 48.0499 1.00933 48.0243 1.16229C48.0923 0.881861 47.9054 0.55895 47.591 0.524963C47.3106 0.45698 46.9877 0.643926 46.9197 0.958337L46.3163 3.88152L45.8575 3.18471C45.6365 2.89579 45.2627 2.82782 44.9822 3.01476C44.6934 3.20171 44.6253 3.60959 44.8123 3.89001L45.9594 5.57255C45.1437 7.85842 44.3279 10.1102 43.4781 12.4046L41.8041 17.0443C41.3112 16.8828 40.7844 16.7044 40.1896 16.5005C39.6457 17.7326 39.1784 18.8288 38.7705 19.84C38.4985 19.5086 38.2946 19.1262 38.1842 18.7013C38.1247 18.4719 38.1076 18.2595 38.1162 18.0641C38.1927 16.5174 38.8725 15.3873 39.1529 14.9284C40.538 12.6935 40.436 8.56367 38.5835 6.73667C38.2522 6.40528 37.6488 5.93793 36.5866 5.69146C36.2552 5.21563 35.7113 4.55283 34.8531 4.00898V4.02598C32.3463 2.41993 29.4571 3.30368 29.1172 3.40565C26.568 4.17893 25.0979 6.38833 24.1801 8.58918C23.9932 8.6147 23.8232 8.6742 23.6618 8.76759C22.8715 9.2435 22.812 10.3396 23.1604 11.0365C23.1944 11.113 23.2454 11.1725 23.2878 11.2404C23.1944 11.5803 23.1009 11.9032 23.0244 12.2006C22.4466 14.3421 22.5486 15.7187 22.812 16.7724C23.1604 18.1405 23.8147 19.0582 24.265 19.6786C24.8005 20.4093 25.2848 21.0636 25.7351 21.65H24.6475C24.486 21.65 24.3245 21.7859 24.299 21.9134L23.6787 25.032H23.1264C23.0584 24.3692 22.914 23.6469 22.6845 22.8396C22.1917 21.0381 21.3164 18.8288 20.0928 15.9566C19.498 16.152 18.9625 16.322 18.4697 16.475L16.8552 11.7928C16.0394 9.49845 15.2491 7.22953 14.4674 4.92672L15.6315 3.26119C15.8184 2.97227 15.7589 2.57289 15.4701 2.38594C15.1812 2.19899 14.8072 2.25848 14.5864 2.54739L14.1104 3.23569L13.5411 0.304021C13.4816 -0.0103897 13.1672 -0.197336 12.8783 -0.137854C12.5639 -0.103858 12.3769 0.210552 12.4364 0.490967C12.4024 0.329516 12.3769 0.142569 12.3429 -0.0103899C12.2834 -0.358787 11.9351 -0.571228 11.5867 -0.511746C11.2468 -0.452265 11.0258 -0.103858 11.0853 0.244539C11.1193 0.465481 11.1787 0.72041 11.2127 0.932851C11.1533 0.643926 10.8389 0.431485 10.5244 0.490967C10.2101 0.524963 10.0231 0.839373 10.0826 1.15378L10.1761 1.68914C10.1421 1.43421 9.86163 1.24726 9.60668 1.31524C9.35182 1.34923 9.16484 1.62965 9.23282 1.87608C9.54727 3.38865 9.86163 4.92672 10.1506 6.53275C10.5584 8.80167 10.9068 11.0025 11.2213 13.1694L12.0285 18.5144C11.5951 18.6503 11.1363 18.8033 10.6265 18.9647C12.0115 24.1228 13.3371 28.0741 15.2152 29.9606C16.0564 30.8104 17.0082 31.2438 18.1214 31.1758C18.1214 31.1758 18.1383 31.1758 18.1468 31.1758C18.1553 31.1758 18.1638 31.1758 18.1808 31.1758C18.4442 31.1588 18.6991 31.1249 18.9541 31.0823L16.7787 45.0949L16.3963 47.5082H16.4133C16.5323 47.5082 16.6597 47.5082 16.7787 47.5082C17.4755 47.5082 18.1723 47.4997 18.8691 47.4912L24.1546 78.9324L26.0325 78.516C24.8259 80.2579 24.2566 82.4248 24.554 84.6597L41.7277 80.8018C41.0563 78.6519 39.5948 76.9269 37.7423 75.8647L39.1529 75.5418C37.5978 70.1543 36.0258 64.7669 34.4622 59.3709L44.5913 73.5873L46.1039 72.3806C45.781 74.4711 46.2144 76.6719 47.455 78.5499L61.2126 67.5796C59.6661 65.9394 57.6012 65.0217 55.4768 64.8773L55.4173 64.8943Z"
                    fill="#0066FF" />
                <path opacity="0.75"
                    d="M65.2376 64.8943L66.3593 64.002C61.3626 58.4616 56.3491 52.9126 51.3355 47.3637C52.3127 47.3637 53.29 47.3553 54.2672 47.3467C53.5194 43.6248 52.7716 39.9029 52.0153 36.1809C53.4939 35.7645 54.9215 35.1952 56.1367 34.5153C58.6094 33.1218 59.7481 31.5412 60.088 31.0483C61.5071 28.9494 61.813 26.8421 61.8895 25.7798C61.3372 25.338 60.7763 24.9046 60.2325 24.4627L62.1699 23.3495C62.119 22.6102 62.0765 21.8709 62.034 21.1316C61.2862 21.4801 60.0966 21.9559 58.6434 22.2703C58.8984 21.4376 59.1533 20.5623 59.4167 19.6531C58.9068 19.4831 58.4395 19.3217 58.0146 19.1772L58.8899 13.8662C59.2298 11.6993 59.6122 9.49845 60.0455 7.23809C60.3515 5.63205 60.6914 4.10245 61.0228 2.58988C61.0823 2.33495 60.9038 2.05453 60.6489 2.02054C60.394 1.96106 60.1135 2.1395 60.0795 2.38594L60.1815 1.85059C60.2495 1.53618 60.0626 1.22177 59.7481 1.17928C59.4338 1.1113 59.1109 1.32374 59.0513 1.61265C59.0853 1.39172 59.1448 1.13679 59.1873 0.92435C59.2553 0.575943 59.0429 0.227546 58.6944 0.168064C58.346 0.108582 57.9977 0.312522 57.9382 0.660928C57.9042 0.82238 57.8702 1.00933 57.8447 1.16229C57.9127 0.881861 57.7257 0.55895 57.4113 0.524963C57.1309 0.45698 56.8079 0.643926 56.74 0.958337L56.1367 3.88152L55.6778 3.18471C55.4569 2.89579 55.083 2.82782 54.8025 3.01476C54.5136 3.20171 54.4456 3.60959 54.6326 3.89001L55.7798 5.57255C54.964 7.85842 54.1482 10.1102 53.2985 12.4046L51.6244 17.0443C51.1316 16.8828 50.6047 16.7044 50.0098 16.5005C49.466 17.7326 48.9987 18.8288 48.5908 19.84C48.3189 19.5086 48.115 19.1262 48.0044 18.7013C47.9449 18.4719 47.928 18.2595 47.9365 18.0641C48.0129 16.5174 48.6927 15.3873 48.9732 14.9284C50.3583 12.6935 50.2563 8.56367 48.4038 6.73667C48.0724 6.40528 47.4691 5.93793 46.4069 5.69146C46.0755 5.21563 45.5317 4.55283 44.6734 4.00898V4.02598C42.1666 2.41993 39.2775 3.30368 38.9375 3.40565C36.3882 4.17893 34.9181 6.38833 34.0004 8.58918C33.8135 8.6147 33.6435 8.6742 33.482 8.76759C32.6917 9.2435 32.6322 10.3396 32.9807 11.0365C33.0147 11.113 33.0657 11.1725 33.1082 11.2404C33.0147 11.5803 32.9212 11.9032 32.8447 12.2006C32.2669 14.3421 32.3688 15.7187 32.6322 16.7724C32.9807 18.1405 33.635 19.0582 34.0854 19.6786C34.6207 20.4093 35.1051 21.0636 35.5555 21.65H34.4678C34.3064 21.65 34.1449 21.7859 34.1194 21.9134L33.4991 25.032H32.9467C32.8787 24.3692 32.7343 23.6469 32.5049 22.8396C32.012 21.0381 31.1367 18.8288 29.913 15.9566C29.3182 16.152 28.7829 16.322 28.29 16.475L26.6754 11.7928C25.8597 9.49845 25.0694 7.22953 24.2876 4.92672L25.4518 3.26119C25.6388 2.97227 25.5793 2.57289 25.2904 2.38594C25.0014 2.19899 24.6276 2.25848 24.4066 2.54739L23.9308 3.23569L23.3614 0.304021C23.3019 -0.0103897 22.9875 -0.197336 22.6986 -0.137854C22.3842 -0.103858 22.1973 0.210552 22.2567 0.490967C22.2227 0.329516 22.1973 0.142569 22.1633 -0.0103899C22.1038 -0.358787 21.7554 -0.571228 21.4069 -0.511746C21.067 -0.452265 20.8461 -0.103858 20.9056 0.244539C20.9396 0.465481 20.9991 0.72041 21.0331 0.932851C20.9736 0.643926 20.6592 0.431485 20.3448 0.490967C20.0303 0.524963 19.8434 0.839373 19.9028 1.15378L19.9963 1.68914C19.9623 1.43421 19.682 1.24726 19.427 1.31524C19.1721 1.34923 18.9851 1.62965 19.0532 1.87608C19.3675 3.38865 19.682 4.92672 19.9709 6.53275C20.3787 8.80167 20.7272 11.0025 21.0415 13.1694L21.8488 18.5144C21.4155 18.6503 20.9566 18.8033 20.4467 18.9647C21.8318 24.1228 23.1575 28.0741 25.0354 29.9606C25.8767 30.8104 26.8284 31.2438 27.9416 31.1758C27.9416 31.1758 27.9586 31.1758 27.9671 31.1758C27.9756 31.1758 27.9841 31.1758 28.0011 31.1758C28.2645 31.1588 28.5195 31.1249 28.7744 31.0823L26.599 45.0949L26.2166 47.5082H26.2336C26.3526 47.5082 26.48 47.5082 26.599 47.5082C27.2958 47.5082 27.9926 47.4997 28.6894 47.4912L33.975 78.9324L35.8529 78.516C34.6462 80.2579 34.0769 82.4248 34.3743 84.6597L51.5479 80.8018C50.8766 78.6519 49.415 76.9269 47.5626 75.8647L48.9732 75.5418C47.4181 70.1543 45.846 64.7669 44.2825 59.3709L54.4116 73.5873L55.9242 72.3806C55.6013 74.4711 56.0347 76.6719 57.2754 78.5499L71.033 67.5796C69.4864 65.9394 67.4215 65.0217 65.2971 64.8773L65.2376 64.8943Z"
                    fill="#FF55EB" />
                <path
                    d="M39.1219 3.83099C39.9717 4.37484 40.524 5.03765 40.8554 5.51351C41.9176 5.76846 42.5124 6.2358 42.8524 6.55873C44.7048 8.38573 44.7983 12.5155 43.4217 14.7504C43.1413 15.2008 42.4699 16.331 42.3849 17.886C42.3849 18.0815 42.3849 18.2939 42.4529 18.5234C42.9628 20.5797 45.7925 21.5145 46.8207 21.8544C50.9421 23.2056 54.834 21.7269 56.5249 20.9537C56.576 21.6929 56.6184 22.4322 56.661 23.1716L54.7234 24.2848C55.2758 24.7266 55.8366 25.1599 56.3805 25.6019C56.3041 26.664 56.0067 28.7715 54.579 30.8704C54.2476 31.3632 53.1089 32.9438 50.6276 34.3374C46.0049 36.9376 38.3486 37.9488 36.0118 34.6857C34.7456 32.9182 36.4027 32.0175 35.247 28.7289C34.3463 26.1712 32.9017 25.5339 28.5339 19.5176C28.0835 18.8972 27.4292 17.9795 27.0808 16.6114C26.8174 15.5577 26.7069 14.1811 27.2932 12.0396C28.0155 9.33745 29.3327 4.46831 33.386 3.24466C33.7259 3.14269 36.6236 2.25893 39.1304 3.86498V3.84798L39.1219 3.83099Z"
                    fill="black" />
                <path
                    d="M28.4039 78.7717L43.4021 75.3813C40.4365 65.1076 37.4199 54.817 34.4542 44.518C33.596 41.5352 30.5623 39.7508 27.5541 40.456C24.5375 41.1359 22.5661 44.0761 23.0929 47.1267L28.4209 78.7717H28.4039Z"
                    fill="#FFCC02" stroke="black" stroke-width="0.617105" stroke-linecap="round"
                    stroke-linejoin="round" />
                <path
                    d="M53.5999 66.6314C57.2028 63.7592 62.3779 64.1416 65.4625 67.4217L51.7049 78.3921C49.2066 74.6107 49.9799 69.5206 53.6083 66.6314H53.5999Z"
                    fill="#08F8C3" stroke="black" stroke-width="0.617105" stroke-linecap="round"
                    stroke-linejoin="round" />
                <path
                    d="M48.8388 73.4283L60.8459 63.8261C53.6824 55.8893 46.4849 47.944 39.3044 39.9733C37.231 37.6704 33.7216 37.3816 31.3167 39.3359C28.9034 41.2649 28.4191 44.7745 30.2205 47.2897L48.8388 73.4283Z"
                    fill="#FFCC02" stroke="black" stroke-width="0.617105" stroke-linecap="round"
                    stroke-linejoin="round" />
                <path d="M29.9219 22.7489L36.9408 23.5052V17.5314L30.5507 16.8686L29.9219 22.7574V22.7489Z" fill="white"
                    stroke="black" stroke-width="0.617105" stroke-linecap="round" stroke-linejoin="round" />
                <path
                    d="M28.8747 11.8959C28.7728 11.8959 27.838 11.709 27.4216 10.8592C27.0732 10.1709 27.1326 9.0662 27.923 8.59029C28.5263 8.24195 29.3421 8.33543 29.9369 8.87922"
                    fill="white" />
                <path
                    d="M28.8747 11.8959C28.7728 11.8959 27.838 11.709 27.4216 10.8592C27.0732 10.1709 27.1326 9.0662 27.923 8.59029C28.5263 8.24195 29.3421 8.33543 29.9369 8.87922"
                    stroke="black" stroke-width="0.617105" stroke-linecap="round" stroke-linejoin="round" />
                <path
                    d="M29.3052 10.9725C28.039 13.9891 29.4667 17.4901 32.5088 18.7733C35.5254 20.0649 39.0604 18.6458 40.3096 15.5952L41.2273 13.3943C42.4935 10.3777 41.0659 6.84259 38.0152 5.59346C34.9986 4.30185 31.4636 5.72094 30.2145 8.77155L29.2967 10.9725H29.3052Z"
                    fill="white" stroke="black" stroke-width="0.617105" stroke-linecap="round"
                    stroke-linejoin="round" />
                <path
                    d="M36.0307 13.1781C36.3791 12.4218 36.3196 11.64 35.8692 11.4445C35.4189 11.2491 34.7986 11.6995 34.4502 12.4473C34.1017 13.2036 35.0535 11.844 35.4869 12.0394C35.9287 12.2603 35.6484 13.9259 36.0222 13.1696L36.0307 13.1781Z"
                    fill="black" />
                <path
                    d="M36.3006 10.7175C35.6718 10.3691 36.2666 9.45138 36.8359 9.90168C37.2438 10.1906 38.255 11.5418 37.6262 11.8817C37.4648 11.9412 37.2523 11.8817 37.1843 11.6947C37.0229 11.2529 36.683 10.9384 36.309 10.7175H36.3006Z"
                    fill="black" />
                <path
                    d="M31.7637 10.1813C32.2056 10.3428 32.1122 11.9743 32.3926 11.2181C32.6815 10.4617 32.5541 9.70541 32.1037 9.55251C31.6533 9.39952 31.1009 9.86687 30.812 10.6231C30.5231 11.3794 31.3134 9.99434 31.7552 10.1813H31.7637Z"
                    fill="black" />
                <path
                    d="M32.5252 14.2479C32.1513 14.1375 31.7944 14.0355 31.4375 13.925C31.9559 13.3811 32.4403 12.8374 32.9501 12.3019"
                    fill="white" />
                <path
                    d="M33.4678 11.3513C33.5698 11.2578 33.7568 11.4107 33.6293 11.5382L31.9637 13.4927L31.8702 13.1188L33.1364 13.4927C33.4254 13.5946 33.2979 14.028 33.0089 13.9346L31.7428 13.5607C31.5813 13.5267 31.5218 13.3057 31.6408 13.1868L33.4678 11.3598V11.3513Z"
                    fill="black" />
                <path
                    d="M27.8702 25.2637C27.8108 25.4678 28.0062 25.6377 28.2186 25.6377H39.9878C40.2002 25.6377 40.3617 25.4338 40.3362 25.2637L39.6394 21.7373C39.6139 21.5673 39.4779 21.4739 39.2909 21.4739H28.9154C28.7539 21.4739 28.5926 21.6098 28.567 21.7373L27.8702 25.2637Z"
                    fill="#F9E07A" stroke="black" stroke-width="0.617105" stroke-linecap="round"
                    stroke-linejoin="round" />
                <path
                    d="M20.6641 47.3369C29.85 47.2774 39.0444 47.2179 48.2388 47.1584C46.7687 39.7231 45.2986 32.2962 43.8285 24.8522H24.1566L20.6641 47.3369Z"
                    fill="#FFE067" />
                <path
                    d="M20.6562 47.3369C30.0206 47.2774 39.3849 47.2179 48.7493 47.1584C47.2538 39.7231 45.7582 32.2962 44.2626 24.8522H24.2168L20.6562 47.3369Z"
                    stroke="black" stroke-width="0.617105" stroke-linecap="round" stroke-linejoin="round" />
                <path
                    d="M15.4791 13.0011L17.493 26.3764L25.5827 24.5494L21.113 11.6075C20.2972 9.31313 19.5069 7.0443 18.7252 4.74143L19.8893 3.0759C20.0763 2.78699 20.0168 2.3876 19.7279 2.20064C19.439 2.0137 19.065 2.07318 18.8442 2.3621L18.3683 3.05041L17.7989 0.118733C17.7394 -0.195677 17.425 -0.382623 17.1361 -0.323142C16.8217 -0.289146 16.6347 0.0252649 16.6942 0.305679C16.6603 0.144228 16.6347 -0.0427181 16.5923 -0.195677C16.5328 -0.544075 16.1843 -0.756515 15.836 -0.697034C15.496 -0.637552 15.2751 -0.289146 15.3346 0.0592518C15.3686 0.280194 15.4365 0.535113 15.4621 0.747554C15.4026 0.458638 15.0882 0.246198 14.7738 0.305679C14.4594 0.339675 14.2724 0.654086 14.3319 0.968496L14.4339 1.50384C14.3999 1.24892 14.1194 1.06196 13.8645 1.12995C13.6096 1.16394 13.4227 1.44436 13.4906 1.69079C13.805 3.20337 14.1194 4.74992 14.4084 6.34743C14.8162 8.61636 15.1646 10.8172 15.4791 12.9841V13.0011Z"
                    fill="white" stroke="black" stroke-width="0.617105" stroke-miterlimit="10" stroke-linecap="round" />
                <path d="M17.0516 2.30105C16.9496 1.63824 16.8306 0.975422 16.7031 0.321106L17.0516 2.30105Z"
                    fill="white" />
                <path d="M17.0516 2.30105C16.9496 1.63824 16.8306 0.975422 16.7031 0.321106" stroke="black"
                    stroke-width="0.617105" stroke-linecap="round" stroke-linejoin="round" />
                <path d="M15.7158 2.17555C15.6138 1.69968 15.5543 1.23231 15.4609 0.756451L15.7158 2.17555Z"
                    fill="white" />
                <path d="M15.7158 2.17555C15.6138 1.69968 15.5543 1.23231 15.4609 0.756451" stroke="black"
                    stroke-width="0.617105" stroke-linecap="round" stroke-linejoin="round" />
                <path d="M14.5833 2.24869C14.5238 1.99377 14.4813 1.77283 14.4219 1.5264L14.5833 2.24869Z"
                    fill="white" />
                <path d="M14.5833 2.24869C14.5238 1.99377 14.4813 1.77283 14.4219 1.5264" stroke="black"
                    stroke-width="0.617105" stroke-linecap="round" stroke-linejoin="round" />
                <path
                    d="M14.8828 18.7978C18.9787 17.4722 20.2703 17.0982 24.3577 15.7811C27.6632 23.5564 28.4195 26.4201 26.1847 29.4368C25.5219 30.2865 24.0432 30.9153 22.4032 31.0088C18.7833 31.2298 16.8883 26.2842 14.8828 18.7978Z"
                    fill="#FFCC02" />
                <path
                    d="M27.4423 25.6043C27.4423 25.2305 27.3829 24.7886 27.3148 24.3382C27.0005 22.2563 25.9892 19.6135 24.3577 15.7811C20.2619 17.1067 18.9702 17.4807 14.8828 18.7978C16.8968 26.2926 18.7918 31.2638 22.4032 31.0088C23.0321 30.9748 23.6354 30.8473 24.1962 30.6605"
                    stroke="black" stroke-width="0.617105" stroke-miterlimit="10" stroke-linecap="round" />
                <path
                    d="M53.349 13.6832C53.6889 11.5163 54.0713 9.31543 54.5046 7.05508C54.8105 5.44902 55.1505 3.91946 55.4819 2.40689C55.5414 2.15196 55.3629 1.87153 55.1079 1.83755C54.8531 1.77806 54.5726 1.95651 54.5386 2.20294L54.6406 1.66759C54.7086 1.35318 54.5217 1.03877 54.2072 0.996285C53.8928 0.928302 53.57 1.14074 53.5105 1.42966C53.5444 1.20873 53.6124 0.953797 53.6464 0.741356C53.7144 0.39295 53.5019 0.0445523 53.1535 -0.0149293C52.8051 -0.0744109 52.4568 0.129529 52.3973 0.477926C52.3633 0.639386 52.3293 0.826333 52.2953 0.979292C52.3633 0.698868 52.1763 0.375956 51.8619 0.34197C51.5815 0.273987 51.2586 0.460933 51.1906 0.775343L50.5872 3.69852L50.1283 3.00171C49.9075 2.7128 49.5335 2.64481 49.2532 2.83176C48.9642 3.01871 48.8963 3.42659 49.0831 3.70702L50.2303 5.38954C49.4146 7.67541 48.5988 9.92729 47.7491 12.2216L43.1094 25.0955L51.1736 27.0244L53.3659 13.6747L53.349 13.6832Z"
                    fill="white" stroke="black" stroke-width="0.617105" stroke-miterlimit="10" stroke-linecap="round" />
                <path d="M52.2879 0.983112C52.152 1.64593 52.016 2.30025 51.9141 2.96305L52.2879 0.983112Z"
                    fill="white" />
                <path d="M52.2879 0.983112C52.152 1.64593 52.016 2.30025 51.9141 2.96305" stroke="black"
                    stroke-width="0.617105" stroke-linecap="round" stroke-linejoin="round" />
                <path d="M53.4985 1.43735C53.405 1.91321 53.3285 2.38058 53.2266 2.85644L53.4985 1.43735Z"
                    fill="white" />
                <path d="M53.4985 1.43735C53.405 1.91321 53.3285 2.38058 53.2266 2.85644" stroke="black"
                    stroke-width="0.617105" stroke-linecap="round" stroke-linejoin="round" />
                <path d="M54.5215 2.20009C54.4621 2.45502 54.4195 2.67596 54.3516 2.92239L54.5215 2.20009Z"
                    fill="white" />
                <path d="M54.5215 2.20009C54.4621 2.45502 54.4195 2.67596 54.3516 2.92239" stroke="black"
                    stroke-width="0.617105" stroke-linecap="round" stroke-linejoin="round" />
                <path
                    d="M46.198 31.5843C44.5664 31.4654 43.0964 30.8195 42.4421 29.9613C40.2412 26.9106 41.04 24.0554 44.4475 16.3226C48.5178 17.6992 49.8009 18.0901 53.8883 19.4667C51.7725 26.9276 49.818 31.8477 46.2065 31.5843H46.198Z"
                    fill="#FFCC02" />
                <path
                    d="M44.4118 31.2099C44.9812 31.4053 45.5675 31.5413 46.2048 31.5752C49.8163 31.8727 51.7707 26.9271 53.8867 19.4577C49.8163 18.0811 48.5331 17.6902 44.4458 16.3136C42.7548 20.1291 41.7181 22.7633 41.3782 24.8367C41.3102 25.2786 41.2422 25.7119 41.2422 26.0943"
                    stroke="black" stroke-width="0.617105" stroke-miterlimit="10" stroke-linecap="round" />
                <path
                    d="M31.4746 15.7854C32.078 16.3207 33.7434 15.3095 33.7434 15.3095L31.0413 14.3663C31.0413 14.3663 30.9818 15.3434 31.4831 15.7854H31.4746Z"
                    stroke="black" stroke-width="0.617105" stroke-linecap="round" stroke-linejoin="round" />
                <path
                    d="M38.5906 8.3008C40.5111 12.8386 42.6525 13.8413 43.0009 13.7478C43.9186 13.5269 43.2559 7.17067 39.8228 4.93578C36.9251 3.04932 32.5829 2.70091 30.1016 7.13668C34.5118 7.39163 35.4465 8.42827 38.5992 8.3008H38.5906Z"
                    fill="black" />
                <path
                    d="M33.4124 8.25705C34.1007 8.47802 33.6673 9.52323 32.9705 9.13233C32.5967 8.91137 32.1548 8.81788 31.6789 8.87738C31.5515 8.91137 31.39 8.81788 31.3305 8.65642C31.1691 7.90015 32.9705 8.05313 33.4124 8.24858V8.25705Z"
                    fill="black" />
                <path
                    d="M37.5 16.3816C37.585 16.4325 38.2564 16.8999 39.0126 16.6535C39.6584 16.4411 40.2873 15.7357 40.1258 14.971C39.9899 14.3761 39.4205 13.9427 38.7492 13.8832"
                    fill="white" />
                <path
                    d="M38.8438 16.1958C38.9457 16.2553 39.7275 16.7991 40.6112 16.5102C41.3675 16.2553 42.0898 15.4395 41.9028 14.5558C41.7414 13.8675 41.0871 13.366 40.2968 13.2896"
                    fill="white" />
                <path
                    d="M38.8438 16.1958C38.9457 16.2553 39.7275 16.7991 40.6112 16.5102C41.3675 16.2553 42.0898 15.4395 41.9028 14.5558C41.7414 13.8675 41.0871 13.366 40.2968 13.2896"
                    stroke="black" stroke-width="0.617105" stroke-linecap="round" stroke-linejoin="round" />
                <path d="M9.17969 40.2898H21.8497" stroke="black" stroke-width="0.617105" stroke-linecap="round"
                    stroke-linejoin="round" />
                <path d="M10.0995 43.4646L4.60156 40.2865L10.0995 37.1084V43.4646Z" fill="black" />
                <path d="M60.6862 40.2898H48.0078" stroke="black" stroke-width="0.617105" stroke-linecap="round"
                    stroke-linejoin="round" />
                <path d="M59.75 37.1075L65.2564 40.2856L59.75 43.4636V37.1075Z" fill="black" />
            </g>
        </g>
    </g>
    <defs>
        <clipPath id="clip0_504_13513">
            <rect width="70" height="70" fill="white" />
        </clipPath>
        <clipPath id="clip1_504_13513">
            <rect width="70" height="77.3684" fill="white" transform="translate(0 -3.68421)" />
        </clipPath>
    </defs>
</svg>