<svg width="58" height="62" viewBox="0 0 58 62" fill="none" xmlns="http://www.w3.org/2000/svg">
    <g clip-path="url(#clip0_504_13222)">
        <path
            d="M28.3438 60.9092C43.9976 60.9092 56.6876 48.9242 56.6876 34.1401C56.6876 19.3559 43.9976 7.37093 28.3438 7.37093C12.6899 7.37093 0 19.3559 0 34.1401C0 48.9242 12.6899 60.9092 28.3438 60.9092Z"
            fill="#FFF1F1" />
        <path
            d="M14.6782 46.6308C16.9978 49.1311 17.0159 52.933 14.8288 55.4153L5.92969 45.8233C8.56865 43.829 12.3585 44.1363 14.6782 46.6368V46.6308Z"
            fill="#08F8C3" stroke="black" stroke-width="0.496757" stroke-linecap="round" stroke-linejoin="round" />
        <path
            d="M9.35156 43.3876L17.2565 51.883C22.8358 46.0266 28.409 40.1642 33.9883 34.3078C35.5969 32.6207 35.615 29.9637 34.0244 28.2525C32.4278 26.5354 29.7647 26.3667 27.9631 27.8669L9.35156 43.3816V43.3876Z"
            fill="#FFCC02" stroke="black" stroke-width="0.496757" stroke-linecap="round" stroke-linejoin="round" />
        <path
            d="M34.8596 54.3811C38.2517 54.0256 41.3004 56.2971 41.9752 59.5326L28.961 60.8882C28.9489 57.5804 31.4674 54.7305 34.8596 54.3811Z"
            fill="#08F8C3" stroke="black" stroke-width="0.496757" stroke-linecap="round" stroke-linejoin="round" />
        <path
            d="M28.8679 56.9629L40.406 55.7459C39.0745 47.7686 37.7368 39.7914 36.4053 31.8141C36.0197 29.5125 33.9049 27.9038 31.5852 28.1509C29.2475 28.3979 27.5183 30.4223 27.6387 32.7661L28.8679 56.969V56.9629Z"
            fill="#FFCC02" stroke="black" stroke-width="0.496757" stroke-linecap="round" stroke-linejoin="round" />
        <path d="M34.4792 11.8492L30.593 10.837L29.4844 15.1027L33.3706 16.115L34.4792 11.8492Z" fill="white"
            stroke="black" stroke-width="0.496757" stroke-linecap="round" stroke-linejoin="round" />
        <path
            d="M38.9407 7.00661C39.3866 4.60259 37.7959 2.28895 35.3919 1.84309C32.9879 1.39722 30.6743 2.98786 30.2284 5.39188L29.903 7.13314C29.4571 9.53715 31.0478 11.8508 33.4518 12.2967C35.8558 12.7425 38.1694 11.1519 38.6153 8.7479L38.9347 7.00661H38.9407Z"
            fill="white" stroke="black" stroke-width="0.496757" stroke-linecap="round" stroke-linejoin="round" />
        <path
            d="M36.2874 9.21085C36.5525 9.25296 36.8357 9.06019 36.908 8.59628C36.9803 8.1323 36.8237 7.72866 36.5585 7.68647C36.2935 7.64429 36.0223 7.98772 35.956 8.45163C35.8838 8.91561 36.0283 9.16866 36.2934 9.21085H36.2874Z"
            fill="black" />
        <path
            d="M36.8656 7.34971C36.6427 7.22921 36.3775 7.17498 36.1125 7.22318C36.004 7.24126 35.9015 7.17498 35.8835 7.06653C35.8533 6.66285 36.8234 6.7231 37.0946 6.83155C37.4862 6.97013 37.2391 7.54857 36.8656 7.35573V7.34971Z"
            fill="black" />
        <path
            d="M37.8087 8.17389C37.9051 8.80648 38.0016 9.43914 38.092 10.0718C37.7846 9.97541 37.4774 9.88503 37.1641 9.78857"
            fill="white" />
        <path
            d="M38.0649 8.15276L38.4325 10.0387C38.4626 10.1651 38.33 10.2736 38.2095 10.2254L37.2816 9.9422C37.0708 9.87592 37.1672 9.55058 37.3841 9.61086L38.3119 9.89401L38.089 10.0808L37.8842 8.17086C37.8721 8.06238 38.0408 8.03829 38.0589 8.14075L38.0649 8.15276Z"
            fill="black" />
        <path
            d="M35.5 10.0788C35.5482 10.1933 35.6868 10.5066 36.0363 10.7235C36.2953 10.8862 36.5484 10.9164 36.6749 10.9284"
            stroke="black" stroke-width="0.496757" stroke-linecap="round" stroke-linejoin="round" />
        <path
            d="M48.3334 18.6496C48.2309 18.4387 47.9778 18.3484 47.767 18.4508L48.1827 18.252C48.4358 18.1314 48.5382 17.8302 48.4177 17.5831C48.2973 17.3301 47.9959 17.2277 47.7489 17.3482C47.9357 17.2578 48.1225 17.1674 48.3093 17.077C48.5864 16.9445 48.7009 16.6071 48.5683 16.33C48.4297 16.0528 48.0984 15.9383 47.8213 16.0708C47.6887 16.1371 47.5501 16.2034 47.4115 16.2697C47.6465 16.1552 47.749 15.866 47.6345 15.631C47.52 15.3961 47.2308 15.2936 46.9958 15.4081L44.652 16.5408L44.875 15.86C44.9714 15.5708 44.8087 15.2514 44.5195 15.155C44.2303 15.0586 43.911 15.2213 43.8145 15.5105L43.2662 17.1855C41.2599 17.8242 39.2535 18.4628 37.2472 19.1075L34.807 14.2211L32.0655 15.9805L29.2578 17.788L34.2708 24.018C35.0239 25.0604 36.4699 25.3435 37.5725 24.6446L39.2113 23.7469C40.8743 22.8431 42.6035 21.9393 44.405 21.0416C45.6642 20.4149 46.9054 19.8125 48.1285 19.2401C48.3394 19.1376 48.4297 18.8846 48.3274 18.6737L48.3334 18.6496Z"
            fill="white" stroke="black" stroke-width="0.496757" stroke-miterlimit="10" stroke-linecap="round" />
        <path d="M47.4217 16.2681C46.9035 16.5271 46.3853 16.7862 45.8672 17.0513L47.4217 16.2681Z" fill="white" />
        <path d="M47.4217 16.2681C46.9035 16.5271 46.3853 16.7862 45.8672 17.0513" stroke="black"
            stroke-width="0.496757" stroke-linecap="round" stroke-linejoin="round" />
        <path d="M47.7439 17.3483C47.3703 17.5411 46.9968 17.7339 46.6172 17.9267L47.7439 17.3483Z" fill="white" />
        <path d="M47.7439 17.3483C47.3703 17.5411 46.9968 17.7339 46.6172 17.9267" stroke="black"
            stroke-width="0.496757" stroke-linecap="round" stroke-linejoin="round" />
        <path d="M47.7582 18.4482C47.5653 18.5385 47.3725 18.6349 47.1797 18.7253L47.7582 18.4482Z" fill="white" />
        <path d="M47.7582 18.4482C47.5653 18.5385 47.3725 18.6349 47.1797 18.7253" stroke="black"
            stroke-width="0.496757" stroke-linecap="round" stroke-linejoin="round" />
        <path
            d="M37.024 16.3055L27.9501 14.4738C25.9257 19.6253 23.9013 24.7768 21.8828 29.9343C24.5761 30.6393 27.2753 31.3442 29.9685 32.0431L37.1384 33.4891L37.03 16.3055H37.024Z"
            fill="#0066FF" stroke="black" stroke-width="0.496757" stroke-linecap="round" stroke-linejoin="round" />
        <path
            d="M37.3603 36.0273C37.4748 35.8285 37.4086 35.5634 37.2037 35.4489L37.6074 35.6778C37.8484 35.8164 38.1557 35.7321 38.2942 35.4911C38.4328 35.25 38.3485 34.9428 38.1075 34.8042C38.2882 34.9066 38.469 35.0091 38.6497 35.1115C38.9148 35.2621 39.2583 35.1717 39.4089 34.9066C39.5596 34.6415 39.4692 34.2981 39.204 34.1475C39.0715 34.0752 38.939 33.9969 38.8124 33.9245C39.0414 34.0511 39.3306 33.9728 39.4632 33.7498C39.5957 33.5209 39.5114 33.2317 39.2824 33.0991L37.023 31.8037L37.7158 31.6049C38.0111 31.5145 38.1798 31.2073 38.0955 30.912C38.0051 30.6168 37.6978 30.448 37.4025 30.5324L35.7095 31.0265C34.0466 29.7311 32.3896 28.4417 30.7267 27.1463L33.3777 22.3744L30.3773 21.1091L27.3105 19.8137L25.0029 27.4656C24.5691 28.6767 25.1474 30.0323 26.3525 30.5384L28.0154 31.3819C29.7024 32.2435 31.4256 33.1594 33.185 34.1355C34.4141 34.8223 35.6131 35.5092 36.7759 36.196C36.9748 36.3105 37.2398 36.2442 37.3543 36.0394V36.0273H37.3603Z"
            fill="white" stroke="black" stroke-width="0.496757" stroke-miterlimit="10" stroke-linecap="round" />
        <path d="M38.8134 33.9313C38.3013 33.6541 37.7952 33.371 37.2891 33.0878L38.8134 33.9313Z" fill="white" />
        <path d="M38.8134 33.9313C38.3013 33.6541 37.7952 33.371 37.2891 33.0878" stroke="black" stroke-width="0.496757"
            stroke-linecap="round" stroke-linejoin="round" />
        <path d="M38.1069 34.8118C37.7333 34.613 37.3658 34.4082 36.9922 34.2093L38.1069 34.8118Z" fill="white" />
        <path d="M38.1069 34.8118C37.7333 34.613 37.3658 34.4082 36.9922 34.2093" stroke="black" stroke-width="0.496757"
            stroke-linecap="round" stroke-linejoin="round" />
        <path d="M37.2087 35.4533C37.022 35.3448 36.8352 35.2424 36.6484 35.1339L37.2087 35.4533Z" fill="white" />
        <path d="M37.2087 35.4533C37.022 35.3448 36.8352 35.2424 36.6484 35.1339" stroke="black" stroke-width="0.496757"
            stroke-linecap="round" stroke-linejoin="round" />
        <path
            d="M35.8834 14.1293C35.8834 14.0511 35.8171 13.9848 35.7267 13.9667L30.4005 12.8942C30.3101 12.8762 30.2198 12.9123 30.1957 12.9846L29.4786 14.6716C29.4425 14.756 29.5088 14.8645 29.6233 14.8825L35.6664 16.0996C35.7809 16.1237 35.8834 16.0574 35.8834 15.961V14.1293Z"
            fill="#0066FF" stroke="black" stroke-width="0.496757" stroke-linecap="round" stroke-linejoin="round" />
        <path
            d="M38.8994 6.92355C38.2727 6.73075 37.3991 6.65846 36.3567 6.00774C35.7663 5.64021 34.9348 4.78464 34.6999 4.35083C34.3384 5.21845 34.4709 5.94749 33.3743 6.67051C32.796 7.05009 32.5489 7.11034 32.2597 7.11034C31.9584 7.47184 31.9946 7.21276 32.0126 7.86947C32.0307 8.31536 32.1934 8.34547 32.2597 8.48404C32.5368 9.07451 32.1271 10.6049 30.187 13.0089C30.2232 13.0993 30.5184 13.8102 30.1449 14.3646C29.8497 14.8044 29.3074 14.8827 29.1085 14.9129C27.9096 15.0816 24.65 13.0571 24.0836 11.593C23.3184 9.64089 26.3069 8.34547 28.2409 5.28472C28.8193 4.37493 29.3435 3.65795 29.699 3.19401C29.3616 2.92288 29.1206 2.56137 29.1989 2.29627C29.3074 1.94078 30.0003 1.66363 30.88 1.94681C30.5787 1.31417 30.6992 0.68756 30.9944 0.512831C31.3198 0.320028 32.0608 0.567057 32.4344 1.35032C35.3807 0.964715 37.9534 2.18781 38.7788 4.15803C39.2127 5.20037 39.0741 6.2367 38.8873 6.92958L38.8994 6.92355Z"
            fill="#020202" />
        <path
            d="M33.7791 7.04879C33.261 6.75958 32.6464 6.81381 32.2729 7.17532C31.7848 7.64526 31.9113 8.44659 32.2789 8.9045C32.7127 9.45279 33.4236 9.43477 33.502 9.42869"
            fill="white" />
        <path
            d="M33.9897 7.06722C33.5861 6.62739 32.9835 6.49483 32.5196 6.71776C31.911 7.01299 31.7845 7.8143 31.9894 8.36259C32.2304 9.01935 32.9112 9.2182 32.9896 9.24229"
            stroke="black" stroke-width="0.496757" stroke-linecap="round" stroke-linejoin="round" />
        <path
            d="M31.6614 15.0819C32.8544 15.2446 33.9449 15.7869 34.3667 16.4556C35.867 18.8055 35.15 20.8962 32.3001 26.4815C29.3418 25.2885 28.4019 24.927 25.4375 23.734C27.3233 18.2813 28.9863 14.7144 31.6554 15.0819H31.6614Z"
            fill="#0066FF" stroke="black" stroke-width="0.496757" stroke-linecap="round" stroke-linejoin="round" />
        <path
            d="M31.6614 15.0819C32.8544 15.2446 33.9449 15.7869 34.3667 16.4556C35.867 18.8055 35.15 20.8962 32.3001 26.4815C29.3418 25.2885 28.4019 24.927 25.4375 23.734C27.3233 18.2813 28.9863 14.7144 31.6554 15.0819H31.6614Z"
            stroke="black" stroke-width="0.496757" stroke-miterlimit="10" stroke-linecap="round" />
        <path
            d="M45.0891 58.1321C48.879 58.1321 51.9517 55.0592 51.9517 51.2694C51.9517 47.4797 48.879 44.4068 45.0891 44.4068C41.2993 44.4068 38.2266 47.4797 38.2266 51.2694C38.2266 55.0592 41.2993 58.1321 45.0891 58.1321Z"
            fill="#0066FF" stroke="black" stroke-width="0.496757" stroke-miterlimit="10" />
        <path opacity="0.75"
            d="M33.43 48.0018C35.553 48.0018 37.274 46.2808 37.274 44.1578C37.274 42.0348 35.553 40.3138 33.43 40.3138C31.307 40.3138 29.5859 42.0348 29.5859 44.1578C29.5859 46.2808 31.307 48.0018 33.43 48.0018Z"
            fill="#FF55EB" />
        <path opacity="0.75"
            d="M21.8674 43.2716C23.9905 43.2716 25.7115 41.5506 25.7115 39.4276C25.7115 37.3046 23.9905 35.5835 21.8674 35.5835C19.7444 35.5835 18.0234 37.3046 18.0234 39.4276C18.0234 41.5506 19.7444 43.2716 21.8674 43.2716Z"
            fill="#FF55EB" />
        <path opacity="0.75"
            d="M36.9299 37.3489C39.053 37.3489 40.774 35.6278 40.774 33.5049C40.774 31.3819 39.053 29.6608 36.9299 29.6608C34.8069 29.6608 33.0859 31.3819 33.0859 33.5049C33.0859 35.6278 34.8069 37.3489 36.9299 37.3489Z"
            fill="#FF55EB" />
        <path opacity="0.75"
            d="M46.3674 21.0323C48.4905 21.0323 50.2115 19.3113 50.2115 17.1883C50.2115 15.0653 48.4905 13.3443 46.3674 13.3443C44.2444 13.3443 42.5234 15.0653 42.5234 17.1883C42.5234 19.3113 44.2444 21.0323 46.3674 21.0323Z"
            fill="#FF55EB" />
    </g>
    <defs>
        <clipPath id="clip0_504_13222">
            <rect width="57.09" height="61.5386" fill="white" transform="translate(0 -0.00428772)" />
        </clipPath>
    </defs>
</svg>