<svg width="70" height="70" viewBox="0 0 70 70" fill="none" xmlns="http://www.w3.org/2000/svg">
    <g clip-path="url(#clip0_504_13593)">
        <path
            d="M36.6819 67.4697C51.4006 67.4697 63.3325 55.5378 63.3325 40.8191C63.3325 26.1004 51.4006 14.1685 36.6819 14.1685C21.9631 14.1685 10.0312 26.1004 10.0312 40.8191C10.0312 55.5378 21.9631 67.4697 36.6819 67.4697Z"
            fill="#FFE5FF" />
        <mask id="mask0_504_13593" style="mask-type:alpha" maskUnits="userSpaceOnUse" x="1" y="-2" width="70"
            height="70">
            <path
                d="M36.2658 67.4699C55.3629 67.4699 70.8441 51.9886 70.8441 32.8916C70.8441 13.7945 55.3629 -1.68675 36.2658 -1.68675C17.1687 -1.68675 1.6875 13.7945 1.6875 32.8916C1.6875 51.9886 17.1687 67.4699 36.2658 67.4699Z"
                fill="#D9D9D9" />
        </mask>
        <g mask="url(#mask0_504_13593)">
            <path
                d="M50.8331 21.838C51.4497 22.0638 52.0664 22.2896 52.683 22.5155C52.9783 22.6283 53.0131 22.6891 52.9001 22.9931C52.4832 24.1395 52.0664 25.2773 51.6495 26.4237C51.6061 26.5453 51.5539 26.6755 51.5192 26.8058C51.4584 27.0316 51.4931 27.2313 51.6755 27.3876C51.8579 27.544 52.0664 27.5614 52.3008 27.4745C53.0131 27.214 53.6731 27.3095 54.2202 27.8393C54.7239 28.3343 54.889 28.9423 54.6805 29.6197C54.4634 30.3405 53.9423 30.7748 53.2041 30.8617C52.4832 30.9398 51.8839 30.6705 51.4844 30.0279C51.2065 29.585 50.972 29.4807 50.6333 29.6458C50.4422 29.7413 50.3902 29.915 50.3294 30.0887C49.9038 31.2351 49.4869 32.3902 49.07 33.5453C48.9427 33.8985 48.6995 34.0084 48.3405 33.8753C47.1767 33.4497 46.0217 33.0328 44.8579 32.6073C44.5973 32.5118 44.3628 32.5031 44.1457 32.7202C43.9373 32.9287 43.972 33.1371 44.0588 33.3802C44.4496 34.4746 43.8764 35.5254 42.7561 35.7687C41.9571 35.9423 41.0799 35.4733 40.7673 34.6917C40.4546 33.8927 40.7673 32.946 41.4707 32.5205C41.5837 32.451 41.7052 32.3902 41.8007 32.2946C42.0873 31.9994 41.9397 31.539 41.5142 31.3827C40.6457 31.0614 39.7771 30.7487 38.9086 30.4361C38.5265 30.2971 38.1445 30.1495 37.7536 30.0192C37.5104 29.941 37.467 29.8107 37.5538 29.5763C38.0141 28.3343 38.457 27.0924 38.9086 25.8417C39.0303 25.5117 38.9695 25.2946 38.7437 25.1296C38.5526 24.9906 38.3529 25.008 38.1358 25.0861C37.302 25.3988 36.4769 25.1296 35.9819 24.4087C35.5129 23.714 35.6519 22.6717 36.2772 22.1246C36.9545 21.5427 37.9447 21.5253 38.596 22.0725C38.7871 22.2288 38.926 22.4112 39.0389 22.6283C39.1692 22.8715 39.3777 22.9931 39.6556 22.9583C39.9075 22.9323 40.029 22.7412 40.1072 22.5241C40.5501 21.3169 40.993 20.101 41.4273 18.8938C41.575 18.4857 41.6184 18.4683 42.0353 18.6246C43.2251 19.0588 44.4236 19.4844 45.6135 19.9273C45.8827 20.0316 46.1172 20.0402 46.3256 19.8318C46.5254 19.6234 46.4906 19.3801 46.4038 19.137C46.0563 18.2077 46.4907 17.2263 47.4025 16.8616C48.245 16.5228 49.2525 16.905 49.6433 17.7213C50.0602 18.5898 49.7475 19.5886 48.9311 20.0489C48.7053 20.1705 48.5142 20.3181 48.5403 20.6221C48.5663 20.9174 48.7313 21.0737 49.0092 21.1606C49.6259 21.369 50.2251 21.6035 50.8417 21.8206L50.8331 21.838Z"
                fill="#08F8C3" />
            <path
                d="M54.6883 18.0635C54.2106 19.3663 53.7503 20.643 53.2899 21.9196C53.2032 22.1628 53.0729 22.1976 52.8384 22.1107C51.6225 21.6591 50.4066 21.2248 49.182 20.7732C49.1299 20.7558 49.043 20.7558 49.0344 20.6864C49.0257 20.5996 49.1125 20.5822 49.1733 20.5474C50.5716 19.7745 50.7019 17.777 49.4339 16.7868C48.2353 15.8576 46.5244 16.3352 45.9252 17.7075C45.708 18.2199 45.6733 18.7757 45.8731 19.3142C45.8991 19.3837 45.9686 19.4705 45.8991 19.5313C45.8296 19.5921 45.7514 19.5313 45.682 19.4965C44.5008 19.0623 43.3111 18.6368 42.1298 18.2025C41.8085 18.0809 41.7738 18.0114 41.8867 17.6901C43.1634 14.164 44.4488 10.6467 45.7255 7.12054C45.7428 7.06843 45.7689 7.025 45.7863 6.9729C45.8644 6.72103 46.0034 6.67761 46.2465 6.77315C48.7043 7.67637 51.1709 8.57095 53.6287 9.46543C54.7491 9.87362 55.8607 10.2818 56.9897 10.6813C57.2243 10.7682 57.2938 10.8724 57.2069 11.1156C56.7553 12.3402 56.3123 13.5647 55.8694 14.798C55.852 14.8414 55.852 14.9109 55.7912 14.9283C55.713 14.9457 55.7044 14.8588 55.6696 14.8154C54.9053 13.6429 53.455 13.3129 52.3433 14.1206C51.223 14.937 51.0232 16.6826 52.213 17.6814C52.8297 18.2025 53.5592 18.3588 54.3496 18.1243C54.4538 18.0983 54.5493 18.0549 54.6883 18.0635Z"
                fill="#FF55EB" />
            <path
                d="M55.0363 36.3306C53.2646 35.6879 51.4929 35.0452 49.7298 34.4026C49.3651 34.2723 49.3477 34.2288 49.4866 33.8554C49.9122 32.6829 50.3378 31.5191 50.7634 30.3467C50.7894 30.2685 50.798 30.147 50.8936 30.1296C51.0065 30.1122 51.0152 30.2424 51.0586 30.3033C51.9531 31.6494 53.8118 31.7363 54.7931 30.4683C55.3577 29.7475 55.4011 28.6444 54.8973 27.8888C54.3503 27.0638 53.3775 26.6816 52.4656 26.8988C52.3179 26.9336 52.1182 27.0898 52.0313 26.9856C51.9358 26.8727 52.0921 26.6729 52.1442 26.5254C52.5437 25.4136 52.9519 24.302 53.3514 23.1903C53.4383 22.9472 53.5252 22.8777 53.7944 22.9818C55.0016 23.4335 56.2088 23.8677 57.4247 24.3107C57.5029 24.3367 57.6244 24.3367 57.6244 24.4496C57.6244 24.5452 57.5115 24.5539 57.4507 24.5972C56.5475 25.1444 56.148 26.2213 56.4694 27.2288C56.782 28.2015 57.7547 28.8616 58.7535 28.7921C59.8217 28.7139 60.6729 27.9323 60.8465 26.8901C60.9073 26.508 60.864 26.1519 60.7597 25.7871C60.7423 25.7177 60.6642 25.6395 60.7423 25.57C60.8032 25.5179 60.8812 25.57 60.9421 25.596C62.1927 26.0477 63.4433 26.508 64.7027 26.9596C64.8763 27.0203 64.8937 27.1159 64.8416 27.2636C64.7721 27.4459 64.7113 27.6283 64.6419 27.8107C63.4086 31.2065 62.1666 34.6023 60.9334 38.0068C60.7857 38.4063 60.7684 38.415 60.3776 38.276C58.5971 37.6333 56.8254 36.982 55.045 36.3393L55.0363 36.3306Z"
                fill="#0066FF" />
            <path
                d="M22.7613 27.085C22.961 26.4597 23.1695 25.8344 23.3692 25.2091C23.4647 24.9051 23.5342 24.8704 23.8382 24.9746C24.9933 25.348 26.1484 25.7301 27.3121 26.1036C27.4424 26.147 27.564 26.1905 27.6943 26.2165C27.9201 26.2686 28.1198 26.2252 28.2675 26.0429C28.4151 25.8518 28.4325 25.6434 28.337 25.4175C28.0504 24.714 28.1199 24.054 28.6409 23.4895C29.1186 22.9683 29.7178 22.786 30.404 22.9683C31.1335 23.1681 31.5852 23.6632 31.6893 24.4014C31.7936 25.1222 31.5417 25.7301 30.9164 26.147C30.4822 26.4424 30.3866 26.6855 30.5603 27.0155C30.6645 27.1979 30.8383 27.2501 31.0206 27.3108C32.1845 27.693 33.3481 28.0751 34.5206 28.4486C34.8738 28.5644 34.9926 28.8047 34.8768 29.1694C34.4946 30.3419 34.1125 31.5143 33.7304 32.6955C33.6435 32.956 33.6435 33.1905 33.8693 33.3989C34.0777 33.5987 34.2948 33.5553 34.5293 33.4597C35.6063 33.0342 36.6745 33.5727 36.9611 34.6756C37.1696 35.466 36.7179 36.3692 35.9537 36.6992C35.1633 37.0379 34.208 36.7687 33.765 36.0653C33.6955 35.9523 33.626 35.8307 33.5306 35.7439C33.2265 35.4746 32.775 35.631 32.6273 36.0653C32.3407 36.9425 32.0542 37.8196 31.7675 38.6968C31.6373 39.0876 31.507 39.4697 31.3941 39.8605C31.3246 40.1124 31.1943 40.1559 30.9598 40.0777C29.7006 39.6608 28.4411 39.2613 27.1819 38.8531C26.8431 38.7489 26.6347 38.8097 26.4784 39.0441C26.3481 39.2439 26.3742 39.4436 26.4611 39.6521C26.7998 40.4685 26.5652 41.311 25.8531 41.8233C25.1757 42.3097 24.1248 42.2141 23.5603 41.6062C22.9523 40.9549 22.9003 39.9648 23.43 39.2874C23.5777 39.0963 23.7601 38.9487 23.9685 38.8271C24.2116 38.6881 24.3246 38.471 24.2811 38.2017C24.2464 37.9585 24.0553 37.8369 23.8295 37.7674C22.6049 37.3679 21.3803 36.9684 20.1558 36.5689C19.7476 36.4387 19.7302 36.3953 19.8605 35.9784C20.2513 34.7712 20.6421 33.564 21.0416 32.3568C21.1372 32.0876 21.1372 31.8443 20.92 31.6533C20.7116 31.4622 20.4685 31.5056 20.2166 31.6012C19.296 31.9746 18.3059 31.5838 17.9064 30.6806C17.533 29.8468 17.889 28.8307 18.688 28.4138C19.5479 27.9709 20.5554 28.2401 21.0416 29.0478C21.1719 29.265 21.3283 29.456 21.6323 29.4212C21.9275 29.3865 22.0752 29.2129 22.162 28.9349C22.3531 28.3183 22.5615 27.7017 22.7613 27.085Z"
                fill="#08F8C3" />
            <path
                d="M18.8458 23.3721C20.1659 23.7976 21.4599 24.2232 22.754 24.6401C22.9972 24.7183 23.0406 24.8486 22.9625 25.083C22.5543 26.3163 22.1548 27.5496 21.7553 28.7828C21.7379 28.8349 21.7466 28.9218 21.6684 28.9304C21.5815 28.9478 21.5641 28.861 21.5294 28.8002C20.7043 27.4279 18.7068 27.3671 17.7602 28.6699C16.8656 29.9032 17.4041 31.588 18.8024 32.1439C19.3148 32.3436 19.8706 32.361 20.4091 32.1439C20.4786 32.1179 20.5567 32.0397 20.6261 32.1092C20.6956 32.1699 20.6262 32.2568 20.6002 32.3263C20.2094 33.5248 19.8184 34.7233 19.4276 35.9218C19.3235 36.2518 19.254 36.2866 18.9239 36.1823C15.3544 35.0272 11.7937 33.8635 8.22414 32.7084C8.17203 32.691 8.12857 32.665 8.07645 32.6563C7.8246 32.5868 7.77249 32.4566 7.85934 32.2046C8.67571 29.7121 9.48341 27.2195 10.2911 24.727C10.6559 23.5979 11.0293 22.4689 11.3941 21.3311C11.4723 21.088 11.5765 21.0185 11.8196 21.1053C13.0616 21.5135 14.3035 21.913 15.5455 22.3212C15.5976 22.3386 15.6584 22.3386 15.6758 22.3994C15.6932 22.4776 15.615 22.4863 15.5629 22.5209C14.4165 23.3286 14.1386 24.7878 14.9809 25.8647C15.8408 26.9589 17.5865 27.0979 18.5504 25.8647C19.0542 25.2307 19.1845 24.5012 18.9153 23.7195C18.8805 23.624 18.8458 23.5284 18.8458 23.3808V23.3721Z"
                fill="#FF55EB" />
            <path
                d="M37.0815 22.3817C36.4997 24.1707 35.9178 25.9599 35.3358 27.7576C35.2143 28.1224 35.1796 28.1484 34.7974 28.0182C33.6163 27.6361 32.435 27.2539 31.2452 26.863C31.1671 26.8371 31.0455 26.8371 31.0281 26.7415C31.0108 26.6286 31.1324 26.6112 31.2019 26.5678C32.5219 25.6212 32.5394 23.7712 31.2366 22.8246C30.4984 22.2861 29.3867 22.2861 28.6572 22.8073C27.8581 23.3804 27.5021 24.3619 27.754 25.265C27.7973 25.4127 27.9624 25.6038 27.8581 25.6993C27.7453 25.7948 27.5455 25.6472 27.3891 25.6038C26.2688 25.239 25.1398 24.8655 24.0194 24.5181C23.7763 24.44 23.7068 24.3532 23.7936 24.0839C24.2105 22.868 24.5926 21.6347 24.9921 20.4102C25.0182 20.332 25.0095 20.2104 25.1224 20.2017C25.218 20.2017 25.2353 20.306 25.27 20.3668C25.8432 21.2526 26.9375 21.6173 27.9363 21.2526C28.9003 20.9052 29.5257 19.9152 29.4214 18.9164C29.3086 17.8481 28.5008 17.0231 27.4413 16.8928C27.0591 16.8407 26.7031 16.9015 26.3383 17.0231C26.2688 17.0491 26.1906 17.1273 26.1212 17.0491C26.0604 16.9883 26.1211 16.9101 26.1385 16.8493C26.5467 15.5814 26.9636 14.3134 27.3718 13.0454C27.4239 12.8717 27.5194 12.8456 27.6757 12.8977C27.8581 12.9585 28.0493 13.0193 28.2316 13.0801C31.6709 14.2005 35.1101 15.3121 38.5493 16.4325C38.9575 16.5628 38.9662 16.5801 38.8359 16.9796C38.2541 18.7775 37.6635 20.5752 37.0815 22.373V22.3817Z"
                fill="#0066FF" />
            <path d="M41.1873 21.4146H34.5781V27.5114H41.1873V21.4146Z" fill="white" stroke="black"
                stroke-width="0.566452" stroke-linecap="round" stroke-linejoin="round" />
            <path
                d="M31.289 15.2705C30.516 15.0012 29.691 15.2357 29.2655 15.8176C28.7183 16.5818 29.0917 17.6327 29.7084 18.1712C30.4379 18.8052 31.3932 18.6054 31.5062 18.5793"
                fill="white" />
            <path
                d="M31.289 15.2705C30.516 15.0012 29.691 15.2357 29.2655 15.8176C28.7183 16.5818 29.0917 17.6327 29.7084 18.1712C30.4379 18.8052 31.3932 18.6054 31.5062 18.5793"
                stroke="black" stroke-width="0.566452" stroke-linecap="round" stroke-linejoin="round" />
            <path
                d="M43.8812 15.2705C44.6542 15.0012 45.4792 15.2357 45.9047 15.8176C46.4519 16.5818 46.0785 17.6327 45.4618 18.1712C44.7323 18.8052 43.777 18.6054 43.6641 18.5793"
                fill="white" />
            <path
                d="M43.8812 15.2705C44.6542 15.0012 45.4792 15.2357 45.9047 15.8176C46.4519 16.5818 46.0785 17.6327 45.4618 18.1712C44.7323 18.8052 43.777 18.6054 43.6641 18.5793"
                stroke="black" stroke-width="0.566452" stroke-linecap="round" stroke-linejoin="round" />
            <path
                d="M43.6615 15.0686C43.6615 11.6814 40.9171 8.93697 37.5299 8.93697C34.1429 8.93697 31.3984 11.6814 31.3984 15.0686V17.5263C31.3984 20.9135 34.1429 23.6579 37.5299 23.6579C40.9171 23.6579 43.6615 20.9135 43.6615 17.5263V15.0686Z"
                fill="white" stroke="black" stroke-width="0.566452" stroke-linecap="round" stroke-linejoin="round" />
            <path
                d="M36.0896 17.5309C36.4717 17.5135 36.8453 18.8336 36.8192 18.1648C36.7931 17.4961 36.4631 16.975 36.0896 16.9837C35.7075 17.0011 35.4209 17.5482 35.447 18.2169C35.473 18.8771 35.7075 17.5482 36.0896 17.5309Z"
                fill="black" />
            <path
                d="M36.3435 16.0405C35.8919 16.084 35.449 16.2664 35.1103 16.6051C34.9713 16.744 34.7542 16.744 34.6152 16.6051C34.1636 16.0405 35.6574 15.1633 36.1524 15.0505C36.8646 14.8681 37.0818 15.9624 36.3435 16.0492V16.0405Z"
                fill="black" />
            <path
                d="M41.3136 18.1652C41.3397 17.5312 41.0618 17.0014 40.697 16.984C40.3322 16.9666 40.0196 17.4791 39.9935 18.113C39.9674 18.7471 40.3322 17.4965 40.697 17.5051C41.0618 17.5225 41.2876 18.7992 41.3136 18.1652Z"
                fill="black" />
            <path
                d="M40.6982 15.3709C41.1845 15.4751 42.7826 16.4304 42.166 16.9689C42.027 17.0644 41.8446 17.047 41.7317 16.9342C41.3843 16.5955 40.9414 16.4044 40.4898 16.3696C39.7429 16.2741 39.9773 15.1537 40.6982 15.3796V15.3709Z"
                fill="black" />
            <path
                d="M38.2615 16.6706C38.5655 17.5044 38.8694 18.3295 39.1734 19.1632C38.7304 19.1198 38.2876 19.0763 37.8359 19.0329"
                fill="white" />
            <path
                d="M38.3813 16.6287L39.3974 19.0866C39.4669 19.2428 39.3193 19.4339 39.1543 19.3992L37.8168 19.2689C37.5128 19.2428 37.5563 18.7652 37.8602 18.8L39.1977 18.9302L38.9545 19.2428L38.1468 16.7156C38.0947 16.5679 38.3205 16.4897 38.3813 16.6287Z"
                fill="black" />
            <path
                d="M37.2266 20.0235C37.3569 20.1452 37.7043 20.4578 38.2601 20.536C38.677 20.5967 39.0157 20.4925 39.1807 20.4317"
                stroke="black" stroke-width="0.283226" stroke-linecap="round" stroke-linejoin="round" />
            <path
                d="M37.8596 10.9337L36.8435 13.6608C36.774 13.7302 36.4265 14.069 35.8794 14.0864C35.2714 14.1036 34.8894 13.7215 34.8286 13.6608C34.7243 12.9225 34.6288 12.1756 34.5332 11.4374C34.3075 12.0541 33.9774 12.8357 33.439 13.6608C32.9439 14.4337 31.7627 14.7377 31.3111 15.1806C30.4166 15.2936 30.1039 15.389 29.2094 15.502C28.862 14.7203 28.6014 14.2339 28.2541 13.4523C28.2019 13.3307 27.429 11.3679 28.6275 9.7004C29.4526 8.554 30.6772 8.28479 30.9811 8.22399C30.5555 7.77238 30.4079 7.19049 30.6077 6.83441C30.8682 6.36543 31.8322 6.15699 32.6747 6.79098C33.3521 5.29718 34.707 4.33315 36.1313 4.35052C37.1301 4.3592 37.877 4.86293 38.1983 5.1148C38.5284 4.9411 40.7864 3.81205 43.1661 4.81951C45.3981 5.76617 46.8311 8.19794 46.6661 10.8903C46.1451 12.6967 45.7455 13.5479 45.2157 15.3543C44.7815 15.3369 44.1909 15.3717 43.7566 15.3543C43.2529 14.3556 42.7839 14.2513 42.2802 13.2526C42.0978 13.3741 41.0469 14.0603 39.7095 13.7563C38.8236 13.5566 38.2765 13.0181 38.068 12.7923L37.8596 10.9337Z"
                fill="#080808" />
            <path
                d="M44.8774 26.0822C44.8428 25.9433 44.6603 25.839 44.4519 25.839H31.9456C31.7372 25.839 31.5548 25.9433 31.5201 26.0822L30.6776 29.4867C30.6342 29.6603 30.8427 29.8341 31.1032 29.8341H45.3031C45.5723 29.8341 45.7808 29.6777 45.7286 29.4867L44.8862 26.0822H44.8774Z"
                fill="#FFE067" stroke="black" stroke-width="0.566452" stroke-linecap="round" stroke-linejoin="round" />
            <path
                d="M26.6115 67.7236C31.4403 67.7236 35.4006 71.406 35.8001 76.0871H17.4141C17.8136 71.406 21.774 67.7236 26.6028 67.7236H26.6115Z"
                fill="#08F8C3" stroke="black" stroke-width="0.566452" stroke-linecap="round" stroke-linejoin="round" />
            <path
                d="M27.9529 42.8875C26.4242 47.586 24.8958 52.2846 23.3672 56.9744C27.2494 58.998 31.1315 61.0129 35.005 63.0278C42.1266 60.379 45.5138 59.6233 52.6354 56.9744L47.5373 41.9669L27.9442 42.8788L27.9529 42.8875Z"
                fill="#FFCC02" stroke="black" stroke-width="0.566452" stroke-linecap="round" stroke-linejoin="round" />
            <path
                d="M49.4317 29.6926H26.2864C24.4452 37.2833 24.8968 44.8566 23.0469 52.4472C28.3621 52.6643 33.6859 52.8901 39.0011 53.0985H52.9839L49.423 29.6926H49.4317Z"
                fill="#FFE067" stroke="black" stroke-width="0.566452" stroke-linecap="round" stroke-linejoin="round" />
            <path
                d="M30.0966 49.4502C30.2963 48.8597 30.4873 48.2604 30.6958 47.6698C30.7999 47.3832 30.7479 47.1661 30.5221 46.9663C30.331 46.7926 30.1313 46.8621 29.9315 46.9315C29.1151 47.2356 28.3335 47.0184 27.8471 46.2976C27.1089 45.212 27.7602 43.7789 29.1325 43.6487C29.8099 43.5879 30.3571 43.8745 30.7131 44.4651C30.8608 44.7082 31.0171 44.8907 31.3471 44.8212C31.6597 44.7604 31.738 44.5084 31.8161 44.2827C32.1635 43.2753 32.4935 42.2678 32.8323 41.2604C32.8843 41.0953 32.9625 40.939 32.9886 40.774C33.0407 40.5047 33.2057 40.4787 33.4228 40.5394C33.5966 40.5916 33.7702 40.6437 33.9353 40.7045C34.9861 41.0519 36.037 41.3906 37.0879 41.7467C37.3137 41.8248 37.5221 41.8422 37.6785 41.6686C37.8434 41.4861 37.8956 41.243 37.774 40.9998C37.4526 40.3397 37.6437 39.7057 38.0258 39.1933C38.3385 38.7765 38.8682 38.5506 39.4415 38.6114C40.3968 38.7157 40.9875 39.3236 41.0482 40.2442C41.0916 40.9216 40.7703 41.4601 40.1623 41.8161C39.867 41.9899 39.7802 42.3286 39.9365 42.6238C40.006 42.7541 40.1276 42.7628 40.2318 42.7976C41.3609 43.1884 42.4898 43.5618 43.619 43.944C44.2355 44.1524 44.2355 44.1524 44.0271 44.7691C43.6624 45.8633 43.2976 46.9489 42.9329 48.0433C42.8894 48.1648 42.8547 48.2777 42.8721 48.4167C42.9241 48.8162 43.2455 49.0333 43.6103 48.8597C44.1053 48.6338 44.5743 48.6512 45.0606 48.8423C45.6512 49.0681 46.1028 49.8323 46.0681 50.4577C46.0247 51.3348 45.3819 51.9775 44.609 52.0991C43.9316 52.2033 43.2629 51.8994 42.846 51.2306C42.6636 50.9353 42.4378 50.8398 42.1685 50.9614C41.9688 51.0482 41.8646 51.222 41.7951 51.4217C41.4043 52.6028 41.0048 53.784 40.6139 54.9651C40.5098 55.2865 40.4663 55.3126 40.1363 55.1996C39.1723 54.8783 38.217 54.5569 37.2529 54.2356C36.975 54.1487 36.7057 54.0532 36.4192 53.9924C35.9588 53.8969 35.6549 54.2616 35.8199 54.7046C35.9415 55.0172 35.9762 55.3299 35.9675 55.66C35.9675 56.0508 35.7764 56.3982 35.5333 56.6152C34.7951 57.2927 34.1523 57.3448 33.3012 56.8585C32.7367 56.5371 32.5109 55.9552 32.563 55.3126C32.6151 54.7133 32.9017 54.253 33.4315 53.9577C33.6574 53.8274 33.7702 53.619 33.7441 53.3584C33.7181 53.0979 33.5097 52.9849 33.3012 52.9068C32.2764 52.5507 31.2429 52.212 30.2094 51.8646C30.0009 51.7951 29.7838 51.7517 29.5754 51.6562C29.4191 51.578 29.3757 51.5172 29.4364 51.3435C29.6536 50.7182 29.862 50.0929 30.0705 49.4676L30.0966 49.4502Z"
                fill="#0066FF" />
            <path
                d="M12.4745 18.1703C12.6742 17.5624 14.1594 13.0897 14.2375 12.8639C14.5936 11.8303 14.9323 10.7882 15.2797 9.75463C15.3318 9.58966 15.41 9.42461 15.4447 9.25096C15.4969 8.97299 15.6705 8.94693 15.8876 9.01642C16.0613 9.06854 16.2438 9.12935 16.4174 9.18147C17.503 9.53754 25.2326 12.1169 26.3877 12.5078C27.0217 12.7162 27.0217 12.7162 26.8133 13.3589C26.4398 14.4793 26.0664 15.5996 25.6929 16.72C25.6495 16.8416 25.6147 16.9631 25.6321 17.1021C25.6842 17.5103 26.0142 17.7361 26.3877 17.5537C26.8914 17.3193 27.3777 17.3366 27.8815 17.5364C28.4895 17.7708 28.9498 18.5524 28.915 19.1952C28.8716 20.0984 28.2116 20.7585 27.4212 20.8801C26.7264 20.9929 26.0316 20.6716 25.6147 19.9855C25.4236 19.6816 25.1979 19.5773 24.9113 19.7076C24.7115 19.7944 24.5986 19.9768 24.5291 20.1852C24.121 21.4011 23.7214 22.6083 23.3133 23.8242C23.2003 24.1543 23.1569 24.1803 22.8182 24.0674C21.8282 23.7374 20.8467 23.4073 19.8566 23.0773C19.57 22.9818 19.2921 22.8863 18.9968 22.8255C18.5279 22.7212 18.2065 23.1034 18.3802 23.555C18.5018 23.8763 18.5366 24.1977 18.5366 24.5364C18.5366 24.9446 18.3368 25.292 18.0936 25.5178C17.338 26.2126 16.6779 26.2647 15.8008 25.7697C15.2276 25.4396 14.9844 24.8404 15.0452 24.1803C15.0973 23.5637 15.3925 23.0947 15.9397 22.7821C16.1742 22.6517 16.2872 22.4347 16.2611 22.1654C16.2351 21.8962 16.0179 21.7832 15.8008 21.7051C14.7412 21.3404 13.6817 20.9842 12.6221 20.6282C12.405 20.5587 12.1792 20.5066 11.9707 20.4111C11.8058 20.3329 11.7622 20.2634 11.823 20.0897C12.0489 19.447 12.2573 18.8044 12.4745 18.1616V18.1703Z"
                fill="#FFCC02" />
            <path
                d="M29.8763 80.3019L23.9531 65.3725C34.5835 61.8812 45.2225 58.3985 55.8616 54.9071C58.9273 53.8997 62.2624 55.4543 63.4435 58.4593C64.642 61.4817 63.2699 64.9035 60.3256 66.2584L29.8763 80.3019Z"
                fill="#0066FF" stroke="black" stroke-width="0.566452" stroke-linecap="round" stroke-linejoin="round" />
            <path
                d="M53.127 67.7236C57.9558 67.7236 61.9161 71.406 62.3157 76.0871H43.9297C44.3292 71.406 48.2896 67.7236 53.1184 67.7236H53.127Z"
                fill="#08F8C3" stroke="black" stroke-width="0.566452" stroke-linecap="round" stroke-linejoin="round" />
            <path
                d="M49.0749 78.8297L53.7735 63.4748C42.8913 60.8519 32.0091 58.2291 21.1269 55.6062C17.9915 54.8506 14.7955 56.6658 13.8489 59.7576C12.8935 62.8668 14.5436 66.1671 17.5833 67.2875L49.0662 78.8384L49.0749 78.8297Z"
                fill="#0066FF" stroke="black" stroke-width="0.566452" stroke-linecap="round" stroke-linejoin="round" />
            <path
                d="M33.4082 25.8522L32.9219 29.5693M35.5099 25.8522V29.5693M38.098 26.0085V29.5693M40.3648 25.8522L40.5299 29.5693M42.4666 25.8522L43.2743 29.5693"
                stroke="black" stroke-width="0.566452" stroke-linecap="round" stroke-linejoin="round" />
            <path
                d="M34.6288 56.0016C34.707 55.741 34.5506 55.4544 34.2813 55.3849L34.8111 55.5326C35.1239 55.6282 35.4539 55.4457 35.5494 55.1244C35.6362 54.8118 35.4539 54.4817 35.1412 54.3862C35.3757 54.4556 35.6102 54.5164 35.8533 54.5859C36.2008 54.6815 36.5742 54.4817 36.6697 54.1343C36.7652 53.7869 36.5655 53.4135 36.2181 53.3179C36.0444 53.2745 35.8708 53.2224 35.7057 53.1703C36.001 53.2572 36.3223 53.0834 36.4092 52.7795C36.496 52.4841 36.3223 52.1715 36.0184 52.0759L33.0568 51.2249L33.7951 50.7993C34.1077 50.6169 34.2206 50.2174 34.0382 49.8961C33.8559 49.5834 33.4564 49.4705 33.135 49.6529L31.3285 50.6951C29.0531 49.6789 26.7776 48.6541 24.5109 47.6379L26.2131 41.4022L22.4091 40.7943L18.5183 40.1689L18.0232 49.6182C17.8668 51.1293 18.9178 52.5276 20.4376 52.7708L22.5915 53.2745C24.7714 53.7869 27.0121 54.3601 29.3049 54.9854C30.9116 55.4284 32.4749 55.88 34.0121 56.3403C34.2727 56.4185 34.5593 56.2621 34.6288 55.9929V56.0016Z"
                fill="white" stroke="black" stroke-width="0.566452" stroke-miterlimit="10" stroke-linecap="round" />
            <path d="M35.7076 53.1727C35.0475 52.999 34.3788 52.8166 33.7188 52.6343" stroke="black"
                stroke-width="0.566452" stroke-linecap="round" stroke-linejoin="round" />
            <path d="M35.1457 54.386C34.6594 54.2644 34.1817 54.1342 33.6953 54.0039" stroke="black"
                stroke-width="0.566452" stroke-linecap="round" stroke-linejoin="round" />
            <path d="M34.292 55.3778C34.0488 55.3083 33.8056 55.2388 33.5625 55.1693" stroke="black"
                stroke-width="0.566452" stroke-linecap="round" stroke-linejoin="round" />
            <path
                d="M41.6577 56.8618C41.7619 57.1224 42.0572 57.244 42.309 57.1398C43.7855 56.5145 45.288 55.8892 46.8426 55.2812C49.0572 54.404 51.2198 53.5963 53.3302 52.8494L55.4145 52.1112C56.8997 51.703 57.7942 50.2005 57.4729 48.7154L55.953 39.3791L52.149 40.43L48.4319 41.4548L50.8029 47.4648C48.6577 48.7241 46.5039 49.9834 44.3587 51.2514L42.448 50.4089C42.1179 50.2613 41.7271 50.4089 41.5795 50.7477C41.4318 51.0777 41.5795 51.4686 41.9182 51.6161L42.6998 51.9636L39.8512 53.1361C39.5646 53.2576 39.4256 53.5876 39.5385 53.8743C39.6601 54.1609 39.9902 54.2998 40.2767 54.1869C40.1117 54.2564 39.9467 54.3259 39.7817 54.3866C39.443 54.5256 39.2867 54.9077 39.4256 55.2464C39.5646 55.5851 39.9467 55.7415 40.2854 55.6025C40.5113 55.5071 40.737 55.4202 40.9715 55.3246C40.6676 55.4462 40.5199 55.7936 40.6502 56.0976C40.7718 56.4015 41.1192 56.5492 41.4231 56.4189L41.9356 56.2105C41.675 56.3147 41.5534 56.61 41.6577 56.8618Z"
                fill="white" stroke="black" stroke-width="0.566452" stroke-miterlimit="10" stroke-linecap="round" />
            <path d="M42.1929 53.4027C41.5501 53.6545 40.9161 53.9064 40.2734 54.1582" stroke="black"
                stroke-width="0.566452" stroke-linecap="round" stroke-linejoin="round" />
            <path d="M42.3671 54.7674C41.8981 54.9411 41.4377 55.1235 40.9688 55.3058" stroke="black"
                stroke-width="0.566452" stroke-linecap="round" stroke-linejoin="round" />
            <path d="M42.6254 55.9081C42.3909 56.0036 42.1564 56.0992 41.9219 56.1946" stroke="black"
                stroke-width="0.566452" stroke-linecap="round" stroke-linejoin="round" />
            <path
                d="M26.5222 30.0157C25.0284 29.2689 23.3609 29.0431 22.3535 29.4773C18.81 30.9885 17.9937 33.9413 16.8906 42.5481C21.2071 43.4948 22.5619 43.8161 26.8697 44.7628C28.9714 37.0593 29.8572 31.6833 26.5136 30.0157H26.5222Z"
                fill="#FFE067" />
            <path
                d="M49.2558 29.624C50.7757 28.9292 52.4432 28.7643 53.4333 29.2245C56.9246 30.8573 57.6368 33.8362 58.4445 42.4777C54.102 43.2767 52.7385 43.546 48.3873 44.345C46.5548 36.572 45.86 31.17 49.2471 29.624H49.2558Z"
                fill="#FFE067" />
            <path
                d="M28.0769 31.5096C27.7208 30.8582 27.2083 30.3631 26.5222 30.0157C25.0284 29.2689 23.3609 29.0431 22.3535 29.4773C18.81 30.9885 17.9937 33.9413 16.8906 42.5481C21.2071 43.4948 22.5619 43.8161 26.8697 44.7628C27.356 42.965 27.7815 41.3062 28.1029 39.7776"
                stroke="black" stroke-width="0.566452" stroke-miterlimit="10" stroke-linecap="round" />
            <path
                d="M47.6495 31.0657C48.0316 30.4317 48.5527 29.9454 49.2562 29.624C50.7761 28.9292 52.4436 28.7643 53.4336 29.2245C56.925 30.8573 57.6371 33.8362 58.4448 42.4777C54.1024 43.2767 52.7389 43.546 48.3877 44.345C47.9622 42.5385 47.5973 40.8537 47.3281 39.3251"
                stroke="black" stroke-width="0.566452" stroke-miterlimit="10" stroke-linecap="round" />
        </g>
    </g>
    <defs>
        <clipPath id="clip0_504_13593">
            <rect width="70" height="70" fill="white" />
        </clipPath>
    </defs>
</svg>