<svg width="58" height="60" viewBox="0 0 58 60" fill="none" xmlns="http://www.w3.org/2000/svg">
    <g clip-path="url(#clip0_504_13287)">
        <path
            d="M28.5021 56.3076C42.3233 56.3076 53.5277 45.5701 53.5277 32.3248C53.5277 19.0795 42.3233 8.342 28.5021 8.342C14.6809 8.342 3.47656 19.0795 3.47656 32.3248C3.47656 45.5701 14.6809 56.3076 28.5021 56.3076Z"
            fill="#DDFFD5" />
        <path
            d="M45.4706 48.1564C47.8879 45.9405 51.5641 45.9629 53.9142 48.1229L44.7096 56.5665C42.7624 54.0373 43.0533 50.3778 45.4706 48.1564Z"
            fill="#FF55EB" />
        <path
            d="M42.4393 53.5159L50.4689 46.1299C44.9964 40.8532 39.5184 35.5766 34.0403 30.3C32.4624 28.778 29.9667 28.75 28.3496 30.2328C26.7269 31.7269 26.5535 34.2281 27.9524 35.9292L42.4337 53.5159H42.4393Z"
            fill="#FF55EB" />
        <path
            d="M39.6463 50.6271C42.4497 48.9204 46.0475 49.6591 47.9333 52.233L37.2682 58.7294C35.8469 55.8702 36.8429 52.3338 39.6463 50.6271Z"
            fill="#08F8C3" stroke="black" stroke-width="0.442123" stroke-linecap="round" stroke-linejoin="round" />
        <path
            d="M35.6207 55.2996L44.9317 49.6146C40.5839 43.3755 36.2306 37.142 31.8828 30.903C30.6294 29.1013 28.1842 28.592 26.3153 29.7336C24.4296 30.8806 23.7805 33.3035 24.8269 35.2452L35.6263 55.2996H35.6207Z"
            fill="#FFCC00" stroke="black" stroke-width="0.442123" stroke-linecap="round" stroke-linejoin="round" />
        <mask id="mask0_504_13287" style="mask-type:alpha" maskUnits="userSpaceOnUse" x="0" y="0" width="57"
            height="57">
            <path
                d="M28.5013 56.3075C44.2421 56.3075 57.0026 43.7026 57.0026 28.1537C57.0026 12.6049 44.2421 0 28.5013 0C12.7605 0 0 12.6049 0 28.1537C0 43.7026 12.7605 56.3075 28.5013 56.3075Z"
                fill="#FFF8D8" />
        </mask>
        <g mask="url(#mask0_504_13287)">
            <path
                d="M34.7576 12.0088C35.3395 13.2566 35.5857 15.5004 34.9702 18.6787C34.3659 21.8122 34.3882 23.1439 33.2412 24.5541C32.5529 25.399 29.604 26.5629 27.7743 26.7195C25.413 26.9209 24.6576 24.6156 21.1323 24.2966C19.9349 24.1903 18.9333 24.2015 18.8774 23.9049C18.8102 23.5524 20.1755 22.9984 21.4513 22.5564C22.0277 19.3446 22.604 16.1383 23.1804 12.9321C24.098 10.3077 26.5209 8.61229 29.0557 8.7242C31.2827 8.8249 32.4466 8.95364 33.2412 10.6658L34.7576 12.0144V12.0088Z"
                fill="#FF55EB" />
            <path d="M31.3181 17.012H26.7969V21.1583H31.3181V17.012Z" fill="#FF55EB" />
            <path
                d="M33.2682 13.9086C33.7942 13.7295 34.3538 13.8861 34.6391 14.2835C35.0085 14.7982 34.7567 15.5201 34.337 15.8838C33.839 16.3147 33.1899 16.1804 33.1172 16.1635"
                fill="#FF55EB" />
            <path
                d="M33.2682 13.9086C33.7942 13.7295 34.3538 13.8861 34.6391 14.2835C35.0085 14.7982 34.7567 15.5201 34.337 15.8838C33.839 16.3147 33.1899 16.1804 33.1172 16.1635"
                fill="#FF55EB" />
            <path
                d="M33.1074 13.7746C33.1074 11.4748 31.2441 9.61148 28.9443 9.61148C26.6446 9.61148 24.7812 11.4748 24.7812 13.7746V15.4421C24.7812 17.7419 26.6446 19.6052 28.9443 19.6052C31.2441 19.6052 33.1074 17.7419 33.1074 15.4421V13.7746Z"
                fill="#FF55EB" />
            <path
                d="M27.3906 15.3182C27.6479 15.307 27.9054 16.2022 27.8885 15.749C27.8718 15.2957 27.6479 14.9376 27.3906 14.9488C27.1332 14.9601 26.9373 15.3349 26.9541 15.7826C26.9709 16.2358 27.1332 15.3293 27.3906 15.3182Z"
                fill="#FF55EB" />
            <path
                d="M27.5666 14.2988C27.2644 14.3268 26.9623 14.4499 26.7272 14.6793C26.6377 14.7744 26.4866 14.7744 26.3915 14.6793C26.0894 14.2932 27.1021 13.6945 27.4378 13.6217C27.9247 13.4931 28.0701 14.2428 27.5666 14.3044V14.2988Z"
                fill="#FF55EB" />
            <path
                d="M30.943 15.749C30.9597 15.3182 30.7695 14.9601 30.5233 14.9488C30.2771 14.9377 30.0645 15.2846 30.0477 15.7154C30.0309 16.1463 30.2771 15.2958 30.5233 15.3014C30.7695 15.3126 30.9262 16.1799 30.943 15.7434V15.749Z"
                fill="#FF55EB" />
            <path
                d="M30.5218 13.8493C30.8519 13.922 31.9375 14.571 31.5178 14.9348C31.4227 15.0019 31.2996 14.9851 31.2212 14.9124C30.9862 14.683 30.6841 14.5543 30.3819 14.5263C29.8727 14.4647 30.035 13.7038 30.5274 13.8548L30.5218 13.8493Z"
                fill="#FF55EB" />
            <path
                d="M28.8635 14.7333C29.0705 15.2985 29.2775 15.8636 29.4846 16.4288C29.1824 16.3952 28.8803 16.3729 28.5781 16.3393"
                fill="#FF55EB" />
            <path
                d="M28.9438 14.6942L29.6376 16.3617C29.688 16.4736 29.5873 16.5967 29.4698 16.5799L28.5633 16.4904C28.3563 16.468 28.3843 16.149 28.5969 16.1714L29.5034 16.261L29.3355 16.4792L28.7871 14.7614C28.7535 14.6606 28.9046 14.6103 28.9438 14.7054V14.6942Z"
                fill="#FF55EB" />
            <path
                d="M28.1641 17.012C28.248 17.096 28.4886 17.3086 28.8691 17.3589C29.1544 17.3981 29.3839 17.3309 29.4958 17.2918"
                fill="#FF55EB" />
            <path
                d="M27.0682 56.1689C29.3903 55.8612 31.1865 57.1537 31.4663 57.3608C32.6861 58.2616 33.5702 59.5934 33.8724 61.1602L29.6029 61.6078C26.9619 61.5463 24.3207 61.4791 21.6797 61.4175C22.3959 58.5862 24.5446 56.4991 27.0626 56.1633L27.0682 56.1689Z"
                fill="#FF55EB" />
            <path
                d="M21.6398 58.4342L32.484 57.276C31.225 49.7779 29.9548 42.2799 28.6958 34.7818C28.3321 32.6163 26.3457 31.1111 24.1634 31.3406C21.9699 31.5756 20.3416 33.4836 20.4591 35.6827L21.6398 58.4342Z"
                fill="#FF55EB" />
            <path
                d="M34.9952 20.7026H23.2613C22.0414 25.8449 20.7433 31.4293 19.5234 36.5772C26.1374 36.8514 32.8129 36.5772 39.438 36.5772L34.9952 20.7026Z"
                fill="#FF55EB" />
            <path
                d="M15.5312 12.4776C15.7438 12.5392 15.8613 12.7574 15.8053 12.9645C15.8501 12.8078 15.8949 12.6511 15.9397 12.4945C16.0068 12.2594 16.253 12.1251 16.488 12.1923C16.723 12.2594 16.8573 12.5056 16.7901 12.7407C16.7566 12.8582 16.723 12.9701 16.6894 13.0876C16.7454 12.8862 16.958 12.7686 17.1595 12.8302C17.3609 12.8862 17.4784 13.0988 17.4169 13.3002L16.8461 15.281L17.3497 15.0125C17.568 14.9005 17.831 14.9789 17.9484 15.1971C18.0604 15.4098 17.982 15.6783 17.7638 15.7958L16.5272 16.4505C16.2977 18.1012 16.0628 19.7575 15.8333 21.4082L19.974 22.6616L18.9668 25.0397L17.9372 27.4738L12.4032 24.3906C11.4856 23.9374 11.0715 22.8518 11.4744 21.895L11.9556 20.4961C12.4424 19.0748 12.9125 17.6032 13.3713 16.0812C13.6902 15.0125 13.9924 13.9605 14.2778 12.9309C14.3281 12.7518 14.4904 12.5952 14.6639 12.6455C14.9548 12.763 14.9884 12.875 14.9268 13.0932L15.022 12.763C15.0836 12.5504 15.3018 12.4273 15.5144 12.4889L15.5312 12.4776Z"
                fill="#FF55EB" />
            <path d="M14.8047 14.69C14.8047 14.2311 14.8047 13.7723 14.8102 13.3079V14.69H14.8047Z" fill="#FF55EB" />
            <path d="M14.8047 14.69C14.8047 14.2311 14.8047 13.7723 14.8102 13.3079L14.8047 14.69Z" fill="#FF55EB" />
            <path d="M13.9062 14.4525C13.9062 14.1168 13.9175 13.7867 13.9175 13.451L13.9062 14.4525Z" fill="#FF55EB" />
            <path d="M13.9062 14.4525C13.9062 14.1168 13.9175 13.7867 13.9175 13.451L13.9062 14.4525Z" fill="#FF55EB" />
            <path d="M13.1384 14.3442C13.1384 14.1764 13.1384 14.0029 13.1328 13.835V14.3442H13.1384Z" fill="#FF55EB" />
            <path d="M13.1384 14.3442C13.1384 14.1764 13.1384 14.0029 13.1328 13.835L13.1384 14.3442Z" fill="#FF55EB" />
            <path
                d="M32.0259 22.9692C32.6582 23.9093 33.5703 24.5975 34.309 24.6815C36.9109 24.9724 38.3826 23.4952 41.9077 18.7725C39.6695 16.7749 38.9757 16.1315 36.743 14.1283C32.9268 17.9836 30.6103 20.8709 32.0316 22.9692H32.0259Z"
                fill="#FF55EB" />
            <path
                d="M26.4054 25.8161C26.825 24.7641 26.881 23.6226 26.5285 22.968C25.2975 20.657 23.2551 20.2765 17.3629 20.0247C16.9713 23.0015 16.8314 23.9359 16.4453 26.9128C21.7835 27.8864 25.471 28.1774 26.4054 25.8217V25.8161Z"
                fill="#FF55EB" />
            <path
                d="M24.3518 20.7073C23.3614 20.5394 22.3094 20.394 21.2015 20.2765C19.8474 20.1366 18.5604 20.0583 17.3629 20.0247C16.9713 23.0015 16.8314 23.9359 16.4453 26.9128C20.0321 28.3117 23.2831 28.3005 24.5868 26.6778C24.7938 26.4204 24.9785 26.0903 25.1016 25.6538"
                fill="#FF55EB" />
            <path
                d="M24.3518 20.7073C23.3614 20.5394 22.3094 20.394 21.2015 20.2765C19.8474 20.1366 18.5604 20.0583 17.3629 20.0247C16.9713 23.0015 16.8314 23.9359 16.4453 26.9128C20.0321 28.3117 23.2831 28.3005 24.5868 26.6778C24.7938 26.4204 24.9785 26.0903 25.1016 25.6538"
                fill="#FF55EB" />
            <path
                d="M27.0236 11.4879C27.1747 11.7565 27.4825 12.2209 28.0196 12.6014C29.2226 13.4576 31.0972 13.5471 31.4944 12.8532C31.5784 12.7077 31.6847 12.372 31.293 11.6502C31.6176 12.0139 31.9477 12.3832 32.2778 12.7637C32.6135 13.1498 32.9437 13.5303 33.2739 13.9108C33.5033 12.0923 32.8262 10.3129 31.4553 9.39517C29.2675 7.92917 25.9437 9.09301 24.9812 11.1746C24.5504 12.109 24.6735 13.0602 24.791 13.5918C24.9533 13.5806 26.05 13.4688 26.6599 12.5455C26.9285 12.1426 27.0012 11.7341 27.0236 11.4823V11.4879Z"
                fill="#FF55EB" />
            <path
                d="M33.1091 12.0388C32.9021 11.6247 32.0963 10.1419 30.4232 9.58793C28.42 8.93326 25.9916 9.87894 24.5703 12.0108"
                fill="#FF55EB" />
            <path
                d="M37.082 5.83038L37.233 6.13813C37.1323 5.93669 37.1491 5.82478 37.4121 5.65132C37.58 5.56739 37.7646 5.69608 37.843 5.85836C38.3074 6.82077 38.7942 7.80004 39.3034 8.79046C40.0308 10.2005 40.7639 11.5658 41.5025 12.8752L42.2299 14.1622C42.8006 15.0239 42.588 16.1709 41.7711 16.7809L36.8917 20.8209L35.4369 18.6162L34.0156 16.4619L37.8597 14.4755C37.3338 12.892 36.8022 11.3084 36.2762 9.72485L34.9445 9.31084C34.7094 9.23806 34.5807 8.98624 34.6535 8.75687C34.7263 8.52182 34.9725 8.39314 35.2074 8.46586L35.7502 8.63373L34.8326 6.79279C34.7374 6.60815 34.8158 6.37874 35.0004 6.28362C35.1851 6.1885 35.4145 6.26683 35.5096 6.45149C35.4536 6.34517 35.4033 6.23885 35.3473 6.13254C35.2354 5.91431 35.325 5.65132 35.5432 5.53941C35.7614 5.4275 36.0244 5.51702 36.1363 5.73526C36.2091 5.88074 36.2818 6.02622 36.3546 6.17731C36.2594 5.98146 36.3378 5.74645 36.5336 5.64572C36.7295 5.545 36.9701 5.62894 37.0652 5.82478L37.082 5.83038Z"
                fill="#FF55EB" />
            <path d="M32.2109 8.05521C32.5747 8.335 32.9383 8.6204 33.3021 8.90019L32.2109 8.05521Z" fill="#FF55EB" />
            <path d="M32.2109 8.05521C32.5747 8.335 32.9383 8.6204 33.3021 8.90019L32.2109 8.05521Z" fill="#FF55EB" />
            <path d="M32.8672 7.4437C33.1358 7.64509 33.3987 7.84655 33.6618 8.04802L32.8672 7.4437Z" fill="#FF55EB" />
            <path d="M32.8672 7.4437C33.1358 7.64509 33.3987 7.84655 33.6618 8.04802L32.8672 7.4437Z" fill="#FF55EB" />
            <path
                d="M33.7283 24.5007C33.9297 24.5902 34.1256 24.6518 34.3046 24.6686C36.9066 24.9596 38.3782 23.4823 41.9034 18.7597C39.6652 16.7621 38.9713 16.1186 36.7387 14.1153C34.7187 16.1578 33.1184 17.9259 32.2734 19.4479"
                fill="#FF55EB" />
            <path
                d="M33.7283 24.5007C33.9297 24.5902 34.1256 24.6518 34.3046 24.6686C36.9066 24.9596 38.3782 23.4823 41.9034 18.7597C39.6652 16.7621 38.9713 16.1186 36.7387 14.1153C34.7187 16.1578 33.1184 17.9259 32.2734 19.4479"
                fill="#FF55EB" />
            <path
                d="M31.1635 25.8621L31.6733 23.9769C31.7177 23.8128 31.6206 23.6439 31.4565 23.5995L31.2729 23.5498C31.1088 23.5055 30.9398 23.6025 30.8954 23.7666L30.3857 25.6517C30.3414 25.8158 30.4384 25.9848 30.6025 26.0292L30.7862 26.0789C30.9502 26.1232 31.1192 26.0261 31.1635 25.8621Z"
                fill="#FF55EB" />
            <path
                d="M34.9959 26.5049L34.8784 26.6504L33.2109 25.2795L33.3285 25.134C33.6698 24.7255 34.2797 24.6695 34.6938 25.0053L34.8673 25.1508C35.2813 25.4921 35.3373 26.0964 34.9959 26.5105V26.5049Z"
                fill="#FF55EB" />
            <path
                d="M27.4645 23.1437L27.6884 23.1101C28.2144 23.0262 28.7124 23.3843 28.8019 23.9047L28.8299 24.0894L26.698 24.4363L26.67 24.2516C26.5804 23.7256 26.9386 23.2276 27.4645 23.1437Z"
                fill="#FF55EB" />
            <path
                d="M28.9378 33.0866C31.148 33.5901 33.3415 32.2137 33.8451 30.0146C34.3487 27.8155 32.9554 25.6277 30.7507 25.1241C28.5405 24.6205 26.347 25.997 25.8434 28.196C25.3454 30.3951 26.7331 32.583 28.9434 33.0866H28.9378Z"
                fill="#FF55EB" />
            <path
                d="M29.2205 31.8032C30.7201 32.1444 32.2141 31.21 32.5555 29.716C32.8968 28.222 31.9512 26.7336 30.4515 26.3922C28.9519 26.0509 27.4579 26.9854 27.1166 28.4794C26.7753 29.9734 27.7209 31.4618 29.2205 31.8032Z"
                fill="#FF55EB" />
            <path
                d="M29.7254 29.6171C29.9716 29.673 30.2178 29.5219 30.2738 29.2701C30.3298 29.0184 30.1731 28.7777 29.9269 28.7217C29.6807 28.6658 29.4345 28.8169 29.3785 29.0631C29.3226 29.3093 29.4792 29.5555 29.7254 29.6115V29.6171Z"
                fill="#FF55EB" />
            <path
                d="M32.9531 23.0343L30.2306 22.2982C29.995 22.2345 29.7523 22.3739 29.6885 22.6096L29.617 22.8743C29.5533 23.1099 29.6926 23.3526 29.9283 23.4163L32.6508 24.1524C32.8864 24.2161 33.1291 24.0768 33.1929 23.8411L33.2644 23.5764C33.3281 23.3407 33.1887 23.098 32.9531 23.0343Z"
                fill="#FF55EB" />
            <path
                d="M32.1482 10.9874C32.7302 12.2352 32.9764 14.479 32.3608 17.6573C31.7565 20.7908 31.7789 22.1226 30.6318 23.5326C29.9436 24.3775 26.9947 25.5414 25.165 25.6981C22.8036 25.8996 22.0483 23.5942 18.523 23.2753C17.3256 23.1689 16.324 23.1801 16.268 22.8836C16.2009 22.5311 17.5662 21.9771 18.842 21.535C19.4183 18.3232 19.9947 15.1169 20.571 11.9107C21.4887 9.28637 23.9116 7.59092 26.4463 7.70284C28.6734 7.80354 29.8372 7.93222 30.6318 9.64449L32.1482 10.993V10.9874Z"
                fill="black" />
            <path d="M28.7009 16.8296H24.1797V20.976H28.7009V16.8296Z" fill="white" stroke="black"
                stroke-width="0.442123" stroke-linecap="round" stroke-linejoin="round" />
            <path
                d="M30.6511 13.732C31.1771 13.5529 31.7366 13.7096 32.022 14.1069C32.3913 14.6217 32.1396 15.3435 31.7199 15.7072C31.2218 16.1381 30.5728 16.0038 30.5 15.987"
                fill="white" />
            <path
                d="M30.6511 13.732C31.1771 13.5529 31.7366 13.7096 32.022 14.1069C32.3913 14.6217 32.1396 15.3435 31.7199 15.7072C31.2218 16.1381 30.5728 16.0038 30.5 15.987"
                stroke="black" stroke-width="0.442123" stroke-linecap="round" stroke-linejoin="round" />
            <path
                d="M30.5059 13.5916C30.5059 11.2918 28.6425 9.4285 26.3428 9.4285C24.043 9.4285 22.1797 11.2918 22.1797 13.5916V15.259C22.1797 17.5588 24.043 19.4221 26.3428 19.4221C28.6425 19.4221 30.5059 17.5588 30.5059 15.259V13.5916Z"
                fill="white" stroke="black" stroke-width="0.442123" stroke-linecap="round" stroke-linejoin="round" />
            <path
                d="M24.7813 15.1358C25.0386 15.1246 25.296 16.0199 25.2792 15.5666C25.2625 15.1134 25.0386 14.7553 24.7813 14.7664C24.5238 14.7777 24.328 15.1525 24.3448 15.6002C24.3616 16.0534 24.5238 15.147 24.7813 15.1358Z"
                fill="black" />
            <path
                d="M24.9494 14.1235C24.6472 14.1515 24.3451 14.2746 24.1101 14.504C24.0205 14.5992 23.8695 14.5992 23.7743 14.504C23.4722 14.1179 24.485 13.5192 24.8207 13.4465C25.3075 13.3177 25.453 14.0676 24.9494 14.1291V14.1235Z"
                fill="black" />
            <path
                d="M28.3336 15.5666C28.3504 15.1358 28.1602 14.7777 27.914 14.7665C27.6678 14.7553 27.4551 15.1022 27.4383 15.5331C27.4215 15.9639 27.6678 15.1134 27.914 15.119C28.1602 15.1302 28.3169 15.9975 28.3336 15.5611V15.5666Z"
                fill="black" />
            <path
                d="M27.9124 13.6727C28.2425 13.7454 29.3281 14.3945 28.9084 14.7582C28.8133 14.8254 28.6902 14.8085 28.6119 14.7358C28.3768 14.5064 28.0747 14.3777 27.7725 14.3497C27.2633 14.2882 27.4256 13.5272 27.918 13.6783L27.9124 13.6727Z"
                fill="black" />
            <path
                d="M26.2619 14.5503C26.469 15.1154 26.676 15.6806 26.883 16.2458C26.5809 16.2122 26.2787 16.1898 25.9766 16.1562"
                fill="white" />
            <path
                d="M26.3344 14.5202L27.0283 16.1877C27.0786 16.2996 26.9779 16.4227 26.8604 16.4059L25.9539 16.3164C25.7469 16.294 25.7748 15.975 25.9875 15.9975L26.894 16.0869L26.7261 16.3052L26.1778 14.5874C26.1442 14.4867 26.2952 14.4362 26.3344 14.5314V14.5202Z"
                fill="black" />
            <path
                d="M25.5625 16.8296C25.6464 16.9136 25.887 17.1262 26.2675 17.1765C26.5529 17.2157 26.7823 17.1486 26.8942 17.1094"
                stroke="black" stroke-width="0.197966" stroke-linecap="round" stroke-linejoin="round" />
            <path
                d="M23.3575 56.0576C26.6421 56.0911 29.3055 58.6147 29.5517 61.7986L17.0625 61.6811C17.3647 58.5028 20.0785 56.0296 23.3575 56.0576Z"
                fill="#08F8C3" stroke="black" stroke-width="0.442123" stroke-linecap="round" stroke-linejoin="round" />
            <path
                d="M17.7031 57.6865L28.6088 57.7704C28.2116 50.1773 27.8087 42.5841 27.4114 34.9909C27.2995 32.7975 25.4921 31.074 23.2987 31.0572C21.0941 31.0405 19.2587 32.7471 19.1244 34.9462L17.7031 57.6809V57.6865Z"
                fill="#FFCC00" stroke="black" stroke-width="0.442123" stroke-linecap="round" stroke-linejoin="round" />
            <path
                d="M32.3936 20.5266H20.6597C19.4399 25.669 18.1417 31.2533 16.9219 36.4012C23.5358 36.6754 30.2113 36.4012 36.8365 36.4012L32.3936 20.5266Z"
                fill="#0066FF" stroke="black" stroke-width="0.442123" stroke-linecap="round" stroke-linejoin="round" />
            <path
                d="M11.3183 13.2717C11.3183 13.1094 11.3183 12.9415 11.3183 12.7793C11.3183 12.5331 11.5085 12.3372 11.7547 12.3316C12.0009 12.3316 12.1968 12.5218 12.2024 12.7681C12.2024 12.8856 12.2024 13.0086 12.2024 13.1262C12.2024 12.9192 12.3703 12.7457 12.5773 12.7457C12.7843 12.7457 12.9578 12.9136 12.9578 13.1206L12.9802 15.1797L13.3887 14.7825C13.5621 14.609 13.8419 14.6146 14.0154 14.788C14.1888 14.9615 14.1832 15.2413 14.0154 15.4148L13.0193 16.394C13.2711 18.0447 13.523 19.6953 13.7803 21.3404L18.1113 21.3516L17.8315 23.92L17.5405 26.5443L11.3519 25.179C10.3447 25.0112 9.63405 24.0822 9.74597 23.0583L9.80747 21.5811C9.86343 20.0814 9.89702 18.5315 9.89702 16.9424C9.89702 15.8288 9.8858 14.7321 9.86343 13.6633C9.86343 13.4787 9.96973 13.2828 10.1544 13.2828C10.4677 13.3164 10.5293 13.4116 10.5349 13.6353V13.2884C10.5349 12.8701 11.3044 12.728 11.3183 13.2717Z"
                fill="white" stroke="black" stroke-width="0.442123" stroke-miterlimit="10" stroke-linecap="round" />
            <path d="M12.1875 14.5076C12.1875 14.0488 12.1875 13.5899 12.1931 13.1255V14.5076H12.1875Z" fill="white" />
            <path d="M12.1875 14.5076C12.1875 14.0488 12.1875 13.5899 12.1931 13.1255" stroke="black"
                stroke-width="0.442123" stroke-linecap="round" stroke-linejoin="round" />
            <path d="M11.2969 14.2766C11.2969 13.9409 11.308 13.6108 11.308 13.275L11.2969 14.2766Z" fill="white" />
            <path d="M11.2969 14.2766C11.2969 13.9409 11.308 13.6108 11.308 13.275" stroke="black"
                stroke-width="0.442123" stroke-linecap="round" stroke-linejoin="round" />
            <path d="M10.5369 14.1631C10.5369 13.9953 10.5369 13.8218 10.5312 13.6539V14.1631H10.5369Z" fill="white" />
            <path d="M10.5369 14.1631C10.5369 13.9953 10.5369 13.8218 10.5312 13.6539" stroke="black"
                stroke-width="0.442123" stroke-linecap="round" stroke-linejoin="round" />
            <path
                d="M31.525 23.9704C32.3812 24.7091 33.4443 25.1399 34.1773 25.028C36.7681 24.6251 37.7976 22.8178 39.9687 17.3397C37.2885 15.9912 36.4491 15.5547 33.7688 14.2062C31.0942 18.9289 29.6057 22.3142 31.525 23.9704Z"
                fill="#0066FF" />
            <path
                d="M23.796 25.6344C24.2157 24.5824 24.2717 23.4409 23.9192 22.7862C22.6882 20.4752 20.6458 20.0948 14.7536 19.8429C14.3619 22.8198 14.222 23.7542 13.8359 26.7311C19.1741 27.7047 22.8616 27.9957 23.796 25.64V25.6344Z"
                fill="#0066FF" />
            <path
                d="M21.7425 20.5256C20.7521 20.3577 19.7001 20.2123 18.5922 20.0948C17.238 19.9549 15.9511 19.8765 14.7536 19.8429C14.3619 22.8198 14.222 23.7542 13.8359 26.7311C17.4227 28.13 20.6737 28.1188 21.9775 26.496C22.1845 26.2387 22.3692 25.9085 22.4923 25.4721"
                fill="#0066FF" />
            <path
                d="M21.7425 20.5256C20.7521 20.3577 19.7001 20.2123 18.5922 20.0948C17.238 19.9549 15.9511 19.8765 14.7536 19.8429C14.3619 22.8198 14.222 23.7542 13.8359 26.7311C17.4227 28.13 20.6737 28.1188 21.9775 26.496C22.1845 26.2387 22.3692 25.9085 22.4923 25.4721"
                stroke="black" stroke-width="0.442123" stroke-linecap="round" stroke-linejoin="round" />
            <path
                d="M24.4064 11.3062C24.5575 11.5748 24.8652 12.0392 25.4025 12.4197C26.6055 13.2758 28.48 13.3654 28.8773 12.6715C28.9612 12.526 29.0675 12.1903 28.6758 11.4685C29.0003 11.8322 29.3306 12.2015 29.6606 12.582C29.9964 12.9681 30.3265 13.3485 30.6567 13.7291C30.8861 11.9105 30.209 10.1311 28.8381 9.21344C26.6502 7.74744 23.3265 8.91128 22.3641 10.9928C21.9332 11.9273 22.0563 12.8786 22.1738 13.4101C22.3361 13.399 23.4328 13.287 24.0427 12.3637C24.3113 11.9609 24.3841 11.5524 24.4064 11.3006V11.3062Z"
                fill="black" />
            <path
                d="M30.4998 11.8571C30.2928 11.443 29.487 9.96017 27.8139 9.4062C25.8107 8.75153 23.3823 9.69721 21.9609 11.8291"
                stroke="#FF55EB" stroke-width="0.442123" stroke-miterlimit="10" />
            <path
                d="M30.7551 6.64234L31.0237 6.85495C30.8503 6.71506 30.8111 6.60314 30.9846 6.34016C31.1021 6.19467 31.3203 6.23384 31.4658 6.34575C32.2939 7.02283 33.15 7.70548 34.0286 8.39374C35.2819 9.36733 36.5242 10.2962 37.744 11.1747L38.9471 12.0364C39.8255 12.5792 40.1165 13.7095 39.6297 14.6104L36.8991 20.329L34.6496 18.9413L32.4562 17.5873L35.1085 14.1683C33.9614 12.9541 32.8199 11.7399 31.6728 10.5256L30.2907 10.7103C30.0501 10.7439 29.8263 10.5704 29.7927 10.3298C29.7591 10.0892 29.9326 9.86535 30.1732 9.83176L30.7384 9.75904L29.1268 8.47207C28.9645 8.34339 28.9366 8.10273 29.0653 7.94047C29.194 7.7782 29.4346 7.75022 29.5968 7.87896C29.5017 7.80618 29.4122 7.72785 29.3171 7.65513C29.1268 7.50402 29.0933 7.22423 29.2443 7.03398C29.3954 6.84374 29.6752 6.81021 29.8655 6.96687C29.9941 7.06757 30.1228 7.17388 30.2516 7.27464C30.0837 7.13475 30.0557 6.88854 30.19 6.71506C30.3243 6.5416 30.5761 6.51362 30.7496 6.65349L30.7551 6.64234Z"
                fill="white" stroke="black" stroke-width="0.442123" stroke-miterlimit="10" stroke-linecap="round" />
            <path d="M29.6016 7.86708C29.9652 8.14687 30.329 8.43221 30.6927 8.712L29.6016 7.86708Z" fill="white" />
            <path d="M29.6016 7.86708C29.9652 8.14687 30.329 8.43221 30.6927 8.712" stroke="black"
                stroke-width="0.442123" stroke-linecap="round" stroke-linejoin="round" />
            <path d="M30.2578 7.26131C30.5264 7.46277 30.7893 7.66417 31.0524 7.86563L30.2578 7.26131Z" fill="white" />
            <path d="M30.2578 7.26131C30.5264 7.46277 30.7893 7.66417 31.0524 7.86563" stroke="black"
                stroke-width="0.442123" stroke-linecap="round" stroke-linejoin="round" />
            <path d="M31.0391 6.87144C31.1733 6.97775 31.302 7.08406 31.4363 7.19037L31.0391 6.87144Z" fill="white" />
            <path d="M31.0391 6.87144C31.1733 6.97775 31.302 7.08406 31.4363 7.19037" stroke="black"
                stroke-width="0.442123" stroke-linecap="round" stroke-linejoin="round" />
            <path
                d="M33.5766 25.0168C33.7948 25.0504 33.9962 25.056 34.1809 25.028C36.7717 24.6251 37.8012 22.8178 39.9723 17.3397C37.292 15.9912 36.4527 15.5547 33.7724 14.2062C32.3568 16.7018 31.2712 18.8282 30.8516 20.518"
                fill="#0066FF" />
            <path
                d="M33.5766 25.0168C33.7948 25.0504 33.9962 25.056 34.1809 25.028C36.7717 24.6251 37.8012 22.8178 39.9723 17.3397C37.292 15.9912 36.4527 15.5547 33.7724 14.2062C32.3568 16.7018 31.2712 18.8282 30.8516 20.518"
                stroke="black" stroke-width="0.442123" stroke-linecap="round" stroke-linejoin="round" />
            <path
                d="M28.562 25.6842L29.0717 23.799C29.1161 23.635 29.019 23.466 28.855 23.4216L28.6713 23.372C28.5072 23.3276 28.3382 23.4247 28.2939 23.5887L27.7842 25.4739C27.7398 25.638 27.8368 25.8069 28.001 25.8513L28.1846 25.9009C28.3486 25.9453 28.5176 25.8483 28.562 25.6842Z"
                fill="black" />
            <path d="M30.5469 26.8044L31.5541 25.6685" stroke="black" stroke-width="0.442123" stroke-linecap="round" />
            <path
                d="M32.3944 26.327L32.2768 26.4725L30.6094 25.1016L30.7269 24.9561C31.0682 24.5477 31.6781 24.4917 32.0922 24.8274L32.2657 24.9729C32.6798 25.3142 32.7357 25.9186 32.3944 26.3326V26.327Z"
                fill="#FF55EB" />
            <path d="M25.125 23.9324L25.4216 25.4208" stroke="black" stroke-width="0.442123" stroke-linecap="round" />
            <path
                d="M24.8708 22.9691L25.0946 22.9355C25.6206 22.8515 26.1186 23.2097 26.2082 23.73L26.2361 23.9147L24.1042 24.2616L24.0762 24.077C23.9867 23.551 24.3448 23.0529 24.8708 22.9691Z"
                fill="#FF55EB" />
            <path
                d="M26.3362 32.9035C28.5465 33.4071 30.7399 32.0306 31.2435 29.8316C31.7471 27.6325 30.3538 25.4446 28.1492 24.9411C25.9389 24.4375 23.7455 25.814 23.2419 28.013C22.7438 30.212 24.1316 32.4 26.3418 32.9035H26.3362Z"
                fill="#FFCC02" stroke="black" stroke-width="0.442123" stroke-linecap="round" />
            <path
                d="M26.6189 31.6188C28.1185 31.9601 29.6126 31.0257 29.9539 29.5317C30.2952 28.0376 29.3496 26.5493 27.8499 26.2079C26.3503 25.8666 24.8564 26.8011 24.515 28.2951C24.1737 29.7891 25.1193 31.2775 26.6189 31.6188Z"
                fill="white" />
            <path d="M27.2422 28.945L27.7122 27.2048" stroke="black" stroke-width="0.442123" stroke-linecap="round" />
            <path d="M26.0234 29.6096L27.0418 29.1451" stroke="black" stroke-width="0.442123" stroke-linecap="round" />
            <path
                d="M27.1239 29.4321C27.3701 29.4881 27.6163 29.337 27.6722 29.0852C27.7282 28.8334 27.5715 28.5928 27.3253 28.5369C27.0791 28.4809 26.8329 28.632 26.777 28.8782C26.721 29.1244 26.8777 29.3706 27.1239 29.4265V29.4321Z"
                fill="#0066FF" />
            <path
                d="M30.3437 22.8564L27.6213 22.1203C27.3857 22.0567 27.1429 22.196 27.0792 22.4317L27.0076 22.6964C26.9439 22.9321 27.0833 23.1748 27.319 23.2385L30.0414 23.9745C30.2771 24.0383 30.5198 23.8989 30.5835 23.6632L30.6551 23.3985C30.7188 23.1629 30.5794 22.9202 30.3437 22.8564Z"
                fill="#FF55EB" />
        </g>
    </g>
    <defs>
        <clipPath id="clip0_504_13287">
            <rect width="57.41" height="59.3897" fill="white" />
        </clipPath>
    </defs>
</svg>