<svg width="288" height="80" viewBox="0 0 288 80" fill="none" xmlns="http://www.w3.org/2000/svg">
<g filter="url(#filter0_ii_3341_1276)">
<path d="M50.2228 15.0425C43.9366 15.5654 40.2654 20.8798 38.709 23.7955L41.9081 25.5014C43.6462 22.4191 48.7002 15.1915 56.1716 19.1321C63.0488 22.7598 60.7846 30.213 59.0985 33.9163L62.1503 35.4412C63.0247 33.4186 63.9355 30.5474 64.1402 27.0461C64.5581 19.9074 58.9298 14.3181 50.2228 15.0425Z" fill="#00FF08"/>
<path d="M50.2228 15.0425C43.9366 15.5654 40.2654 20.8798 38.709 23.7955L41.9081 25.5014C43.6462 22.4191 48.7002 15.1915 56.1716 19.1321C63.0488 22.7598 60.7846 30.213 59.0985 33.9163L62.1503 35.4412C63.0247 33.4186 63.9355 30.5474 64.1402 27.0461C64.5581 19.9074 58.9298 14.3181 50.2228 15.0425Z" fill="url(#paint0_linear_3341_1276)" fill-opacity="0.04"/>
</g>
<g filter="url(#filter1_ii_3341_1276)">
<path d="M56.1717 19.1315C48.7008 15.1909 43.6468 22.4185 41.9082 25.5008L44.9707 27.1344C44.9707 27.1344 48.3975 17.8006 54.9453 21.2275C61.493 24.6543 56.1283 32.4322 56.1283 32.4322L59.0981 33.9158C60.7847 30.2125 63.0489 22.7587 56.1717 19.1315Z" fill="#0066FF"/>
<path d="M56.1717 19.1315C48.7008 15.1909 43.6468 22.4185 41.9082 25.5008L44.9707 27.1344C44.9707 27.1344 48.3975 17.8006 54.9453 21.2275C61.493 24.6543 56.1283 32.4322 56.1283 32.4322L59.0981 33.9158C60.7847 30.2125 63.0489 22.7587 56.1717 19.1315Z" fill="url(#paint1_linear_3341_1276)" fill-opacity="0.04"/>
</g>
<g filter="url(#filter2_ii_3341_1276)">
<path d="M67.7746 22.1752C65.5613 12.3121 55.6768 7.19325 45.7515 11.6991C39.8633 14.3716 37.0783 18.9525 35.7871 22.2368L38.7098 23.7954C40.2657 20.8802 43.9374 15.5653 50.2236 15.0424C58.9306 14.318 64.5589 19.9078 64.141 27.0459C63.9358 30.5473 63.0255 33.4185 62.1511 35.441L65.998 37.3629C67.4312 34.1777 69.2052 28.5509 67.7746 22.1752Z" fill="#FFEA00"/>
<path d="M67.7746 22.1752C65.5613 12.3121 55.6768 7.19325 45.7515 11.6991C39.8633 14.3716 37.0783 18.9525 35.7871 22.2368L38.7098 23.7954C40.2657 20.8802 43.9374 15.5653 50.2236 15.0424C58.9306 14.318 64.5589 19.9078 64.141 27.0459C63.9358 30.5473 63.0255 33.4185 62.1511 35.441L65.998 37.3629C67.4312 34.1777 69.2052 28.5509 67.7746 22.1752Z" fill="url(#paint2_linear_3341_1276)" fill-opacity="0.04"/>
</g>
<g filter="url(#filter3_ii_3341_1276)">
<path d="M71.1055 20.8384C67.5511 7.82656 55.8369 4.2047 44.831 7.99372C33.8256 11.7827 34.1042 21.3399 34.1042 21.3399L35.7865 22.2368C37.0777 18.9525 39.8627 14.3716 45.7509 11.6992C55.6767 7.1938 65.5613 12.3121 67.774 22.1752C69.2046 28.551 67.4306 34.1777 65.9968 37.3623L68.1517 38.4387C68.1517 38.4398 74.6598 33.8503 71.1055 20.8384Z" fill="#E82D2F"/>
<path d="M71.1055 20.8384C67.5511 7.82656 55.8369 4.2047 44.831 7.99372C33.8256 11.7827 34.1042 21.3399 34.1042 21.3399L35.7865 22.2368C37.0777 18.9525 39.8627 14.3716 45.7509 11.6992C55.6767 7.1938 65.5613 12.3121 67.774 22.1752C69.2046 28.551 67.4306 34.1777 65.9968 37.3623L68.1517 38.4387C68.1517 38.4398 74.6598 33.8503 71.1055 20.8384Z" fill="url(#paint3_linear_3341_1276)" fill-opacity="0.04"/>
</g>
<g filter="url(#filter4_ii_3341_1276)">
<path d="M73.39 20.928C72.3377 21.047 72.1084 25.1216 72.1084 25.1216C72.1084 25.1216 68.7989 25.0101 68.7678 25.9574C68.7367 26.9046 72.1084 27.4072 72.1084 27.4072C72.1084 27.4072 72.6099 30.9728 73.39 30.9728C74.17 30.9728 74.3929 27.4072 74.3929 27.4072C74.3929 27.4072 76.984 26.8071 77.0675 25.9504C77.1511 25.0937 74.0029 24.843 74.0029 24.843C74.0029 24.843 74.2536 20.83 73.39 20.928Z" fill="#FFED83"/>
</g>
<g filter="url(#filter5_ii_3341_1276)">
<path d="M37.2806 6.27763C36.2283 6.39657 35.999 10.4712 35.999 10.4712C35.999 10.4712 32.6895 10.3597 32.6584 11.307C32.6273 12.2542 35.999 12.7568 35.999 12.7568C35.999 12.7568 36.5005 16.3224 37.2806 16.3224C38.0607 16.3224 38.2835 12.7568 38.2835 12.7568C38.2835 12.7568 40.8746 12.1567 40.9581 11.3C41.0417 10.4433 37.8935 10.1926 37.8935 10.1926C37.8935 10.1926 38.1442 6.18012 37.2806 6.27763Z" fill="#FFED83"/>
</g>
<g filter="url(#filter6_ii_3341_1276)">
<path d="M56.228 10.0448C57.2803 9.92581 57.5096 5.85123 57.5096 5.85123C57.5096 5.85123 60.8191 5.96266 60.8502 5.01541C60.8813 4.06815 57.5096 3.5656 57.5096 3.5656C57.5096 3.5656 57.0081 0 56.228 0C55.4479 0 55.2251 3.5656 55.2251 3.5656C55.2251 3.5656 52.634 4.16567 52.5505 5.02237C52.4669 5.87908 55.6151 6.12983 55.6151 6.12983C55.6151 6.12983 55.3644 10.1423 56.228 10.0448Z" fill="#FFED83"/>
</g>
<g filter="url(#filter7_ii_3341_1276)">
<g filter="url(#filter8_ii_3341_1276)">
<path d="M15.6597 58.7302C15.6597 58.7302 18 69.5411 30.3711 68.7604C42.7422 67.9804 43.5223 60.0675 43.5223 60.0675C43.5223 60.0675 49.3178 63.7456 56.4506 61.4048C63.5834 59.0645 67.1501 53.6033 67.1501 53.6033C67.1501 53.6033 73.5585 48.5488 70.9396 40.098C68.3208 31.6477 58.7636 27.0223 50.2238 29.6412C50.2238 29.6412 42.9099 15.4313 26.8055 20.0567C10.7011 24.682 11.9827 37.223 11.9827 37.223C11.9827 37.223 4.36128 38.2924 1.27734 45.3475C3.03952 51.2389 6.95444 57.8295 15.6597 58.7302ZM53.1904 33.4308C53.9978 31.7865 60.17 32.177 63.3043 34.5173C66.4386 36.8576 68.4451 40.0342 67.5675 41.3715C66.6899 42.7088 62.8028 41.4969 59.1252 39.6163C55.4476 37.7357 52.0621 35.7298 53.1904 33.4308ZM28.6925 23.484C35.498 21.5617 43.578 24.5288 43.3273 26.1586C43.0766 27.7885 35.0104 27.7467 28.6925 29.6691C22.3747 31.5914 17.6614 35.9478 17.2478 32.8451C16.9971 30.9651 21.8871 25.4064 28.6925 23.484Z" fill="#E6EDF4"/>
<path d="M15.6597 58.7302C15.6597 58.7302 18 69.5411 30.3711 68.7604C42.7422 67.9804 43.5223 60.0675 43.5223 60.0675C43.5223 60.0675 49.3178 63.7456 56.4506 61.4048C63.5834 59.0645 67.1501 53.6033 67.1501 53.6033C67.1501 53.6033 73.5585 48.5488 70.9396 40.098C68.3208 31.6477 58.7636 27.0223 50.2238 29.6412C50.2238 29.6412 42.9099 15.4313 26.8055 20.0567C10.7011 24.682 11.9827 37.223 11.9827 37.223C11.9827 37.223 4.36128 38.2924 1.27734 45.3475C3.03952 51.2389 6.95444 57.8295 15.6597 58.7302ZM53.1904 33.4308C53.9978 31.7865 60.17 32.177 63.3043 34.5173C66.4386 36.8576 68.4451 40.0342 67.5675 41.3715C66.6899 42.7088 62.8028 41.4969 59.1252 39.6163C55.4476 37.7357 52.0621 35.7298 53.1904 33.4308ZM28.6925 23.484C35.498 21.5617 43.578 24.5288 43.3273 26.1586C43.0766 27.7885 35.0104 27.7467 28.6925 29.6691C22.3747 31.5914 17.6614 35.9478 17.2478 32.8451C16.9971 30.9651 21.8871 25.4064 28.6925 23.484Z" fill="url(#paint4_linear_3341_1276)" fill-opacity="0.04"/>
</g>
<g filter="url(#filter9_ii_3341_1276)">
<path d="M56.4506 61.4046C49.3178 63.7449 43.5223 60.0673 43.5223 60.0673C43.5223 60.0673 42.7422 67.9802 30.3711 68.7603C18 69.5404 15.6597 58.73 15.6597 58.73C6.9544 57.8294 3.03947 51.2388 1.27677 45.3479C0.765635 46.5175 0.374518 47.8462 0.168243 49.3684C-1.2805 60.0678 6.96673 64.6884 11.8707 65.4706C11.8707 65.4706 16.4404 79.4598 29.5915 79.014C42.7427 78.5682 44.3908 68.801 44.3908 68.801C44.3908 68.801 53.4283 71.4912 60.3725 66.9772C67.3172 62.4633 67.1501 53.6032 67.1501 53.6032C67.1501 53.6032 63.5834 59.0643 56.4506 61.4046Z" fill="#C1CBD3"/>
<path d="M56.4506 61.4046C49.3178 63.7449 43.5223 60.0673 43.5223 60.0673C43.5223 60.0673 42.7422 67.9802 30.3711 68.7603C18 69.5404 15.6597 58.73 15.6597 58.73C6.9544 57.8294 3.03947 51.2388 1.27677 45.3479C0.765635 46.5175 0.374518 47.8462 0.168243 49.3684C-1.2805 60.0678 6.96673 64.6884 11.8707 65.4706C11.8707 65.4706 16.4404 79.4598 29.5915 79.014C42.7427 78.5682 44.3908 68.801 44.3908 68.801C44.3908 68.801 53.4283 71.4912 60.3725 66.9772C67.3172 62.4633 67.1501 53.6032 67.1501 53.6032C67.1501 53.6032 63.5834 59.0643 56.4506 61.4046Z" fill="url(#paint5_linear_3341_1276)" fill-opacity="0.04"/>
</g>
<g filter="url(#filter10_ii_3341_1276)">
<path d="M28.6922 29.6699C35.0101 27.7475 43.0763 27.7893 43.327 26.1595C43.5777 24.5296 35.4977 21.5619 28.6922 23.4849C21.8868 25.4072 16.9968 30.9659 17.2475 32.8465C17.6611 35.9486 22.3744 31.5922 28.6922 29.6699Z" fill="white"/>
<path d="M28.6922 29.6699C35.0101 27.7475 43.0763 27.7893 43.327 26.1595C43.5777 24.5296 35.4977 21.5619 28.6922 23.4849C21.8868 25.4072 16.9968 30.9659 17.2475 32.8465C17.6611 35.9486 22.3744 31.5922 28.6922 29.6699Z" fill="url(#paint6_linear_3341_1276)" fill-opacity="0.04"/>
</g>
<g filter="url(#filter11_ii_3341_1276)">
<path d="M59.1261 39.6172C62.8042 41.4978 66.6908 42.7097 67.5684 41.3724C68.446 40.0351 66.44 36.8585 63.3052 34.5182C60.1709 32.1779 53.9982 31.7874 53.1913 33.4317C52.063 35.7307 55.4485 37.7366 59.1261 39.6172Z" fill="white"/>
<path d="M59.1261 39.6172C62.8042 41.4978 66.6908 42.7097 67.5684 41.3724C68.446 40.0351 66.44 36.8585 63.3052 34.5182C60.1709 32.1779 53.9982 31.7874 53.1913 33.4317C52.063 35.7307 55.4485 37.7366 59.1261 39.6172Z" fill="url(#paint7_linear_3341_1276)" fill-opacity="0.04"/>
</g>
</g>
<path d="M36.1665 52.287C32.1337 52.7692 29.3606 56.2228 27.8711 58.682C30.0255 59.865 32.8613 60.4109 36.3894 59.678C40.0091 58.9263 42.598 57.5156 44.3902 55.8386C42.7084 53.9902 39.8998 51.8401 36.1665 52.287Z" fill="#E82D2F"/>
<path d="M46.8381 44.7988C44.5814 41.9152 42.24 44.9242 40.7361 46.4704C39.2316 48.0167 37.1839 49.1825 35.5541 49.3679C29.9043 50.0114 27.7805 45.5923 24.1024 47.8913C21.5178 49.5067 22.7779 55.8846 27.8716 58.6808C29.3605 56.2216 32.1337 52.7679 36.167 52.2857C39.9008 51.8389 42.7088 53.989 44.3906 55.8379C48.477 52.0162 48.4068 46.8031 46.8381 44.7988Z" fill="#191919"/>
<path d="M25.782 41.4871C25.7659 41.4871 25.7504 41.486 25.7343 41.4844C25.5001 41.4582 25.3319 41.2476 25.3582 41.0135C25.468 40.0303 26.2465 38.1707 28.4041 38.1707C30.5884 38.1707 31.219 40.0534 31.2474 41.0488C31.2539 41.284 31.069 41.4802 30.8338 41.4871C30.6007 41.4946 30.4025 41.3087 30.3956 41.0735C30.388 40.8651 30.2691 39.0231 28.4041 39.0231C26.4603 39.0231 26.2143 41.0231 26.2047 41.1083C26.1806 41.3264 25.9963 41.4871 25.782 41.4871Z" fill="#191919"/>
<path d="M38.3941 40.4356C38.3786 40.4399 38.3631 40.4431 38.3475 40.4458C38.115 40.4822 37.8969 40.3231 37.8605 40.0911C37.7073 39.1138 37.9677 37.1149 40.0492 36.5459C42.1558 35.9699 43.2606 37.6195 43.5505 38.5727C43.619 38.7977 43.4921 39.0356 43.267 39.1042C43.0442 39.1728 42.8036 39.0458 42.7355 38.8208C42.6734 38.6214 42.0733 36.8764 40.2742 37.3683C38.3995 37.881 38.6894 39.8752 38.7028 39.9598C38.736 40.1752 38.6004 40.3788 38.3941 40.4356Z" fill="#191919"/>
<path d="M17.2387 47.9418C19.0209 47.9418 20.4657 46.497 20.4657 44.7148C20.4657 42.9326 19.0209 41.4878 17.2387 41.4878C15.4565 41.4878 14.0117 42.9326 14.0117 44.7148C14.0117 46.497 15.4565 47.9418 17.2387 47.9418Z" fill="#F5A8A8"/>
<path d="M53.4501 40.4499C53.4501 38.6674 52.0051 37.2229 50.2231 37.2229C48.4406 37.2229 46.9961 38.6679 46.9961 40.4499C46.9961 42.2324 48.4411 43.6769 50.2231 43.6769C52.0056 43.6774 53.4501 42.2324 53.4501 40.4499Z" fill="#F5A8A8"/>
<g filter="url(#filter12_ii_3341_1276)">
<path d="M84.7051 51.6139C84.7051 49.2505 85.0734 47.102 85.81 45.1684C86.5774 43.204 87.6516 41.5005 89.0328 40.058C90.414 38.6154 92.0714 37.4951 94.0051 36.6971C95.9388 35.899 98.0719 35.4693 100.405 35.4079C102.768 35.3465 105.285 35.7149 107.955 36.5129C107.955 37.802 107.955 39.1065 107.955 40.4263C107.955 41.7154 107.955 43.0045 107.955 44.2936C106.144 43.4342 104.349 42.9431 102.568 42.8203C100.788 42.6976 99.1769 42.9431 97.7343 43.557C96.2917 44.1708 95.1407 45.153 94.2813 46.5035C93.4219 47.8233 92.9922 49.5268 92.9922 51.6139C92.9922 53.7011 93.4219 55.4199 94.2813 56.7704C95.1407 58.0902 96.2917 59.057 97.7343 59.6709C99.1769 60.2847 100.788 60.5303 102.568 60.4075C104.349 60.2847 106.144 59.7936 107.955 58.9342C107.955 60.2233 107.955 61.5278 107.955 62.8476C107.955 64.1367 107.955 65.4258 107.955 66.7149C105.285 67.5131 102.768 67.8814 100.405 67.8199C98.0719 67.7584 95.9388 67.3289 94.0051 66.5308C92.0714 65.7326 90.414 64.6126 89.0328 63.1699C87.6516 61.7273 86.5774 60.0392 85.81 58.1055C85.0734 56.1412 84.7051 53.9773 84.7051 51.6139Z" fill="#FE3905"/>
<path d="M84.7051 51.6139C84.7051 49.2505 85.0734 47.102 85.81 45.1684C86.5774 43.204 87.6516 41.5005 89.0328 40.058C90.414 38.6154 92.0714 37.4951 94.0051 36.6971C95.9388 35.899 98.0719 35.4693 100.405 35.4079C102.768 35.3465 105.285 35.7149 107.955 36.5129C107.955 37.802 107.955 39.1065 107.955 40.4263C107.955 41.7154 107.955 43.0045 107.955 44.2936C106.144 43.4342 104.349 42.9431 102.568 42.8203C100.788 42.6976 99.1769 42.9431 97.7343 43.557C96.2917 44.1708 95.1407 45.153 94.2813 46.5035C93.4219 47.8233 92.9922 49.5268 92.9922 51.6139C92.9922 53.7011 93.4219 55.4199 94.2813 56.7704C95.1407 58.0902 96.2917 59.057 97.7343 59.6709C99.1769 60.2847 100.788 60.5303 102.568 60.4075C104.349 60.2847 106.144 59.7936 107.955 58.9342C107.955 60.2233 107.955 61.5278 107.955 62.8476C107.955 64.1367 107.955 65.4258 107.955 66.7149C105.285 67.5131 102.768 67.8814 100.405 67.8199C98.0719 67.7584 95.9388 67.3289 94.0051 66.5308C92.0714 65.7326 90.414 64.6126 89.0328 63.1699C87.6516 61.7273 86.5774 60.0392 85.81 58.1055C85.0734 56.1412 84.7051 53.9773 84.7051 51.6139Z" fill="url(#paint8_linear_3341_1276)" fill-opacity="0.04"/>
</g>
<path d="M100.416 35.8301C102.639 35.7724 105.011 36.1031 107.533 36.8291V43.6396C105.883 42.9279 104.237 42.5125 102.598 42.3994C100.76 42.2727 99.0811 42.5256 97.5693 43.1689C96.1418 43.7764 94.9829 44.7275 94.0986 46.0146L93.9277 46.2734C93.0114 47.6807 92.5703 49.4715 92.5703 51.6143C92.5704 53.7575 93.0121 55.5612 93.9258 56.9971L93.9277 57.001C94.8326 58.3905 96.0494 59.4118 97.5693 60.0586C99.0811 60.7019 100.76 60.9548 102.598 60.8281C104.237 60.715 105.883 60.2988 107.533 59.5869V66.3975C105.011 67.1236 102.639 67.4562 100.416 67.3984C98.1288 67.3381 96.0469 66.917 94.166 66.1406C92.284 65.3638 90.6765 64.2762 89.3379 62.8779C88.0798 61.5639 87.0819 60.0396 86.3457 58.3008L86.2021 57.9502C85.4872 56.0408 85.127 53.9303 85.127 51.6143C85.127 49.2965 85.4881 47.2007 86.2031 45.3223C86.9515 43.4064 87.997 41.7501 89.3379 40.3496C90.6765 38.9515 92.2841 37.8636 94.166 37.0869C96.0469 36.3107 98.1289 35.8903 100.416 35.8301Z" stroke="#FE3905" stroke-width="0.843664"/>
<g filter="url(#filter13_ii_3341_1276)">
<path d="M113.016 67.2674C113.016 61.712 113.016 56.1105 113.016 50.4629C113.016 44.8154 113.016 39.2139 113.016 33.6584C114.274 33.6584 115.548 33.6584 116.837 33.6584C118.126 33.6584 119.384 33.6584 120.612 33.6584C120.612 39.2139 120.612 44.8154 120.612 50.4629C120.612 56.1105 120.612 61.712 120.612 67.2674C119.384 67.2674 118.126 67.2674 116.837 67.2674C115.548 67.2674 114.274 67.2674 113.016 67.2674Z" fill="#FEB51A"/>
<path d="M113.016 67.2674C113.016 61.712 113.016 56.1105 113.016 50.4629C113.016 44.8154 113.016 39.2139 113.016 33.6584C114.274 33.6584 115.548 33.6584 116.837 33.6584C118.126 33.6584 119.384 33.6584 120.612 33.6584C120.612 39.2139 120.612 44.8154 120.612 50.4629C120.612 56.1105 120.612 61.712 120.612 67.2674C119.384 67.2674 118.126 67.2674 116.837 67.2674C115.548 67.2674 114.274 67.2674 113.016 67.2674Z" fill="url(#paint9_linear_3341_1276)" fill-opacity="0.04"/>
</g>
<path d="M120.19 34.0803V66.8459H113.438V34.0803H120.19Z" stroke="#FEB51A" stroke-width="0.843664"/>
<g filter="url(#filter14_ii_3341_1276)">
<path d="M137.194 68.0038C135.414 68.0038 133.756 67.697 132.222 67.083C130.687 66.4385 129.352 65.5483 128.216 64.4127C127.081 63.2464 126.19 61.8959 125.546 60.3612C124.932 58.8266 124.625 57.1538 124.625 55.3429C124.625 53.532 124.932 51.8592 125.546 50.3246C126.19 48.7899 127.081 47.4548 128.216 46.3191C129.352 45.1835 130.687 44.3087 132.222 43.6949C133.756 43.0503 135.414 42.728 137.194 42.728C139.005 42.728 140.662 43.0503 142.166 43.6949C143.701 44.3087 145.036 45.1835 146.172 46.3191C147.307 47.4548 148.182 48.7899 148.796 50.3246C149.44 51.8592 149.763 53.532 149.763 55.3429C149.763 57.1538 149.44 58.8266 148.796 60.3612C148.182 61.8959 147.307 63.2464 146.172 64.4127C145.036 65.5483 143.701 66.4385 142.166 67.083C140.662 67.697 139.005 68.0038 137.194 68.0038ZM137.194 61.1439C138.698 61.1439 139.895 60.6068 140.785 59.5325C141.706 58.4276 142.166 57.031 142.166 55.3429C142.166 53.6241 141.706 52.2429 140.785 51.1993C139.895 50.1251 138.698 49.5879 137.194 49.5879C135.69 49.5879 134.477 50.1251 133.557 51.1993C132.667 52.2429 132.222 53.6241 132.222 55.3429C132.222 57.031 132.667 58.4276 133.557 59.5325C134.477 60.6068 135.69 61.1439 137.194 61.1439Z" fill="#3ECFB0"/>
<path d="M137.194 68.0038C135.414 68.0038 133.756 67.697 132.222 67.083C130.687 66.4385 129.352 65.5483 128.216 64.4127C127.081 63.2464 126.19 61.8959 125.546 60.3612C124.932 58.8266 124.625 57.1538 124.625 55.3429C124.625 53.532 124.932 51.8592 125.546 50.3246C126.19 48.7899 127.081 47.4548 128.216 46.3191C129.352 45.1835 130.687 44.3087 132.222 43.6949C133.756 43.0503 135.414 42.728 137.194 42.728C139.005 42.728 140.662 43.0503 142.166 43.6949C143.701 44.3087 145.036 45.1835 146.172 46.3191C147.307 47.4548 148.182 48.7899 148.796 50.3246C149.44 51.8592 149.763 53.532 149.763 55.3429C149.763 57.1538 149.44 58.8266 148.796 60.3612C148.182 61.8959 147.307 63.2464 146.172 64.4127C145.036 65.5483 143.701 66.4385 142.166 67.083C140.662 67.697 139.005 68.0038 137.194 68.0038ZM137.194 61.1439C138.698 61.1439 139.895 60.6068 140.785 59.5325C141.706 58.4276 142.166 57.031 142.166 55.3429C142.166 53.6241 141.706 52.2429 140.785 51.1993C139.895 50.1251 138.698 49.5879 137.194 49.5879C135.69 49.5879 134.477 50.1251 133.557 51.1993C132.667 52.2429 132.222 53.6241 132.222 55.3429C132.222 57.031 132.667 58.4276 133.557 59.5325C134.477 60.6068 135.69 61.1439 137.194 61.1439Z" fill="url(#paint10_linear_3341_1276)" fill-opacity="0.04"/>
</g>
<path d="M137.193 43.1499C138.953 43.1499 140.554 43.4628 142 44.0825L142.01 44.0864C143.493 44.6797 144.779 45.5237 145.873 46.6177C146.83 47.5749 147.596 48.6793 148.17 49.9341L148.407 50.4878C149.028 51.9663 149.341 53.5835 149.341 55.3433C149.341 57.1028 149.028 58.7194 148.407 60.1978L148.404 60.2046C147.812 61.6871 146.968 62.9894 145.873 64.1147C144.915 65.0731 143.808 65.8511 142.551 66.4487L142.003 66.6938C140.556 67.2839 138.955 67.5815 137.193 67.5815C135.463 67.5815 133.859 67.2834 132.378 66.6909C131.081 66.1451 129.934 65.4195 128.935 64.5142L128.515 64.1147C127.419 62.9879 126.558 61.6832 125.935 60.1978C125.345 58.7194 125.047 57.1027 125.047 55.3433C125.047 53.5836 125.344 51.9663 125.935 50.4878C126.559 49.0017 127.419 47.7132 128.515 46.6177C129.472 45.6604 130.576 44.8947 131.831 44.3208L132.385 44.0835C133.864 43.4622 135.466 43.15 137.193 43.1499ZM137.193 49.1665C135.576 49.1666 134.243 49.7503 133.236 50.9243L133.235 50.9253C132.265 52.063 131.8 53.5502 131.8 55.3433C131.8 57.1082 132.267 58.6031 133.228 59.7964V59.7974L133.236 59.8071C134.243 60.9813 135.575 61.5658 137.193 61.5659C138.812 61.5659 140.132 60.9803 141.108 59.8013L141.109 59.8022C142.104 58.6089 142.588 57.1117 142.588 55.3433C142.588 53.5469 142.105 52.058 141.102 50.9204H141.101C140.125 49.748 138.807 49.1665 137.193 49.1665Z" stroke="#3ECFB0" stroke-width="0.843664"/>
<g filter="url(#filter15_ii_3341_1276)">
<path d="M175.758 43.4651C175.758 47.3938 175.758 51.3686 175.758 55.3894C175.758 59.3795 175.758 63.3389 175.758 67.2676C174.53 67.2676 173.272 67.2676 171.983 67.2676C170.693 67.2676 169.419 67.2676 168.161 67.2676C168.161 67.0529 168.161 66.8532 168.161 66.6691C168.161 66.4849 168.161 66.2853 168.161 66.0706C167.333 66.6536 166.396 67.0989 165.353 67.4057C164.34 67.7435 163.235 67.9122 162.038 67.9122C160.288 67.9122 158.738 67.5133 157.388 66.7151C156.068 65.917 155.025 64.766 154.257 63.2621C153.521 61.7582 153.152 59.978 153.152 57.9215C153.152 55.5275 153.152 53.1181 153.152 50.6933C153.152 48.2686 153.152 45.8592 153.152 43.4651C154.411 43.4651 155.685 43.4651 156.974 43.4651C158.263 43.4651 159.521 43.4651 160.749 43.4651C160.749 45.675 160.749 47.9156 160.749 50.1869C160.749 52.4582 160.749 54.6988 160.749 56.9087C160.749 58.1364 161.025 59.1339 161.578 59.9013C162.161 60.6379 163.066 61.0062 164.294 61.0062C165.522 61.0062 166.473 60.6532 167.148 59.9473C167.824 59.2413 168.161 58.2285 168.161 56.9087C168.161 54.6988 168.161 52.4582 168.161 50.1869C168.161 47.9156 168.161 45.675 168.161 43.4651C169.419 43.4651 170.693 43.4651 171.983 43.4651C173.272 43.4651 174.53 43.4651 175.758 43.4651Z" fill="#213BD6"/>
<path d="M175.758 43.4651C175.758 47.3938 175.758 51.3686 175.758 55.3894C175.758 59.3795 175.758 63.3389 175.758 67.2676C174.53 67.2676 173.272 67.2676 171.983 67.2676C170.693 67.2676 169.419 67.2676 168.161 67.2676C168.161 67.0529 168.161 66.8532 168.161 66.6691C168.161 66.4849 168.161 66.2853 168.161 66.0706C167.333 66.6536 166.396 67.0989 165.353 67.4057C164.34 67.7435 163.235 67.9122 162.038 67.9122C160.288 67.9122 158.738 67.5133 157.388 66.7151C156.068 65.917 155.025 64.766 154.257 63.2621C153.521 61.7582 153.152 59.978 153.152 57.9215C153.152 55.5275 153.152 53.1181 153.152 50.6933C153.152 48.2686 153.152 45.8592 153.152 43.4651C154.411 43.4651 155.685 43.4651 156.974 43.4651C158.263 43.4651 159.521 43.4651 160.749 43.4651C160.749 45.675 160.749 47.9156 160.749 50.1869C160.749 52.4582 160.749 54.6988 160.749 56.9087C160.749 58.1364 161.025 59.1339 161.578 59.9013C162.161 60.6379 163.066 61.0062 164.294 61.0062C165.522 61.0062 166.473 60.6532 167.148 59.9473C167.824 59.2413 168.161 58.2285 168.161 56.9087C168.161 54.6988 168.161 52.4582 168.161 50.1869C168.161 47.9156 168.161 45.675 168.161 43.4651C169.419 43.4651 170.693 43.4651 171.983 43.4651C173.272 43.4651 174.53 43.4651 175.758 43.4651Z" fill="url(#paint11_linear_3341_1276)" fill-opacity="0.04"/>
</g>
<path d="M160.327 43.887V56.9084C160.327 58.1983 160.618 59.2898 161.235 60.1477L161.247 60.1633C161.933 61.0302 162.98 61.428 164.294 61.428C165.605 61.428 166.679 61.0479 167.453 60.2385C168.226 59.4299 168.583 58.2979 168.583 56.9084V43.887H175.336V66.8459H168.583V65.2581L167.919 65.7258C167.131 66.2805 166.236 66.7065 165.233 67.0012L165.22 67.0051C164.255 67.3269 163.195 67.4905 162.038 67.4905C160.356 67.4905 158.882 67.1075 157.604 66.3528C156.437 65.6462 155.492 64.6452 154.773 63.3362L154.633 63.0706C153.932 61.6373 153.574 59.9248 153.574 57.9211V43.887H160.327Z" stroke="#213BD6" stroke-width="0.843664"/>
<g filter="url(#filter16_ii_3341_1276)">
<path d="M196.694 67.2674C196.694 67.0218 196.694 66.7916 196.694 66.5768C196.694 66.3312 196.694 66.101 196.694 65.8862C195.927 66.5308 195.052 67.0218 194.07 67.3595C193.119 67.7278 192.09 67.912 190.985 67.912C189.42 67.912 187.947 67.6051 186.566 66.9912C185.184 66.3772 183.957 65.5179 182.882 64.413C181.839 63.2773 181.01 61.9422 180.396 60.4075C179.813 58.8728 179.521 57.1847 179.521 55.3431C179.521 53.4709 179.813 51.7674 180.396 50.2327C181.01 48.6981 181.839 47.3783 182.882 46.2733C183.957 45.1684 185.184 44.3243 186.566 43.7411C187.947 43.1273 189.405 42.8203 190.939 42.8203C192.044 42.8203 193.088 43.0045 194.07 43.3728C195.052 43.7105 195.927 44.1862 196.694 44.8001C196.694 42.9585 196.694 41.1015 196.694 39.2292C196.694 37.357 196.694 35.5 196.694 33.6584C197.953 33.6584 199.226 33.6584 200.516 33.6584C201.805 33.6584 203.063 33.6584 204.291 33.6584C204.291 39.2139 204.291 44.8154 204.291 50.4629C204.291 56.1105 204.291 61.712 204.291 67.2674C203.063 67.2674 201.805 67.2674 200.516 67.2674C199.226 67.2674 197.953 67.2674 196.694 67.2674ZM191.998 61.1902C193.472 61.1902 194.653 60.6531 195.543 59.5788C196.434 58.5045 196.878 57.0926 196.878 55.3431C196.878 53.5936 196.434 52.1971 195.543 51.1535C194.653 50.0793 193.472 49.5421 191.998 49.5421C190.494 49.5421 189.297 50.0639 188.407 51.1075C187.548 52.151 187.118 53.5629 187.118 55.3431C187.118 57.1233 187.548 58.5506 188.407 59.6248C189.297 60.6684 190.494 61.1902 191.998 61.1902Z" fill="#FF79D0"/>
<path d="M196.694 67.2674C196.694 67.0218 196.694 66.7916 196.694 66.5768C196.694 66.3312 196.694 66.101 196.694 65.8862C195.927 66.5308 195.052 67.0218 194.07 67.3595C193.119 67.7278 192.09 67.912 190.985 67.912C189.42 67.912 187.947 67.6051 186.566 66.9912C185.184 66.3772 183.957 65.5179 182.882 64.413C181.839 63.2773 181.01 61.9422 180.396 60.4075C179.813 58.8728 179.521 57.1847 179.521 55.3431C179.521 53.4709 179.813 51.7674 180.396 50.2327C181.01 48.6981 181.839 47.3783 182.882 46.2733C183.957 45.1684 185.184 44.3243 186.566 43.7411C187.947 43.1273 189.405 42.8203 190.939 42.8203C192.044 42.8203 193.088 43.0045 194.07 43.3728C195.052 43.7105 195.927 44.1862 196.694 44.8001C196.694 42.9585 196.694 41.1015 196.694 39.2292C196.694 37.357 196.694 35.5 196.694 33.6584C197.953 33.6584 199.226 33.6584 200.516 33.6584C201.805 33.6584 203.063 33.6584 204.291 33.6584C204.291 39.2139 204.291 44.8154 204.291 50.4629C204.291 56.1105 204.291 61.712 204.291 67.2674C203.063 67.2674 201.805 67.2674 200.516 67.2674C199.226 67.2674 197.953 67.2674 196.694 67.2674ZM191.998 61.1902C193.472 61.1902 194.653 60.6531 195.543 59.5788C196.434 58.5045 196.878 57.0926 196.878 55.3431C196.878 53.5936 196.434 52.1971 195.543 51.1535C194.653 50.0793 193.472 49.5421 191.998 49.5421C190.494 49.5421 189.297 50.0639 188.407 51.1075C187.548 52.151 187.118 53.5629 187.118 55.3431C187.118 57.1233 187.548 58.5506 188.407 59.6248C189.297 60.6684 190.494 61.1902 191.998 61.1902Z" fill="url(#paint12_linear_3341_1276)" fill-opacity="0.04"/>
</g>
<path d="M203.869 34.0803V66.8459H197.116V64.9807L196.423 65.5637C195.697 66.1736 194.868 66.6387 193.933 66.9602L193.925 66.9631L193.918 66.9661C193.019 67.3141 192.043 67.4905 190.985 67.4905C189.477 67.4905 188.062 67.1947 186.737 66.6057C185.409 66.0153 184.228 65.189 183.192 64.1252C182.188 63.032 181.387 61.7449 180.791 60.2581C180.228 58.7767 179.943 57.1396 179.943 55.343C179.943 53.5179 180.227 51.8686 180.788 50.3899C181.31 49.0864 181.988 47.9482 182.822 46.9719L183.189 46.5627C184.224 45.4995 185.404 44.6899 186.729 44.1301L186.737 44.1262C188.064 43.5368 189.463 43.2424 190.939 43.2424C191.864 43.2424 192.74 43.3769 193.569 43.6448L193.922 43.7678L193.933 43.7717C194.872 44.0945 195.703 44.5473 196.431 45.1292L197.116 45.678V34.0803H203.869ZM191.998 49.1204C190.384 49.1204 189.065 49.6861 188.086 50.8333L188.081 50.8391C187.142 51.9792 186.696 53.4963 186.696 55.343C186.696 57.1905 187.143 58.7193 188.078 59.8879L188.077 59.8889L188.086 59.8987C189.065 61.0459 190.384 61.6115 191.998 61.6116C193.589 61.6116 194.893 61.0249 195.868 59.8479C196.836 58.6803 197.3 57.1651 197.3 55.343C197.3 53.5237 196.837 52.0226 195.867 50.884H195.868C194.893 49.7071 193.589 49.1204 191.998 49.1204Z" stroke="#FF79D0" stroke-width="0.843664"/>
<g filter="url(#filter17_ii_3341_1276)">
<path d="M227.772 59.9008C227.772 61.8038 227.235 63.3692 226.161 64.5969C225.117 65.7939 223.705 66.6687 221.925 67.2211C220.145 67.7736 218.15 68.0038 215.94 67.9117C213.76 67.8502 211.535 67.4974 209.264 66.8528C209.264 65.6864 209.264 64.4893 209.264 63.2617C209.264 62.034 209.264 60.837 209.264 59.6706C210.553 60.2538 211.842 60.7142 213.131 61.0518C214.42 61.3587 215.587 61.5429 216.63 61.6043C217.674 61.6657 218.518 61.5889 219.163 61.3741C219.807 61.1285 220.129 60.7295 220.129 60.1771C220.129 59.7474 219.853 59.4097 219.301 59.1642C218.779 58.9186 218.088 58.7038 217.229 58.5196C216.37 58.3048 215.449 58.0592 214.466 57.783C213.515 57.4761 212.609 57.0617 211.75 56.5399C210.891 55.9875 210.185 55.2662 209.632 54.3761C209.11 53.4553 208.85 52.2736 208.85 50.831C208.85 49.1122 209.341 47.6543 210.323 46.4572C211.336 45.2295 212.686 44.3087 214.374 43.6949C216.062 43.0503 217.95 42.728 220.037 42.728C222.124 42.728 224.257 43.081 226.437 43.7869C226.437 44.9533 226.437 46.1503 226.437 47.378C226.437 48.6057 226.437 49.8028 226.437 50.9691C224.718 50.1404 223.106 49.5879 221.603 49.3117C220.099 49.0355 218.886 49.0048 217.965 49.2196C217.045 49.4038 216.584 49.8181 216.584 50.4627C216.584 50.8924 216.845 51.23 217.367 51.4756C217.919 51.6904 218.61 51.8899 219.439 52.0741C220.298 52.2582 221.204 52.5038 222.155 52.8107C223.137 53.1176 224.043 53.5474 224.871 54.0998C225.731 54.6216 226.421 55.3583 226.943 56.3097C227.496 57.2305 227.772 58.4276 227.772 59.9008Z" fill="#00FF09"/>
<path d="M227.772 59.9008C227.772 61.8038 227.235 63.3692 226.161 64.5969C225.117 65.7939 223.705 66.6687 221.925 67.2211C220.145 67.7736 218.15 68.0038 215.94 67.9117C213.76 67.8502 211.535 67.4974 209.264 66.8528C209.264 65.6864 209.264 64.4893 209.264 63.2617C209.264 62.034 209.264 60.837 209.264 59.6706C210.553 60.2538 211.842 60.7142 213.131 61.0518C214.42 61.3587 215.587 61.5429 216.63 61.6043C217.674 61.6657 218.518 61.5889 219.163 61.3741C219.807 61.1285 220.129 60.7295 220.129 60.1771C220.129 59.7474 219.853 59.4097 219.301 59.1642C218.779 58.9186 218.088 58.7038 217.229 58.5196C216.37 58.3048 215.449 58.0592 214.466 57.783C213.515 57.4761 212.609 57.0617 211.75 56.5399C210.891 55.9875 210.185 55.2662 209.632 54.3761C209.11 53.4553 208.85 52.2736 208.85 50.831C208.85 49.1122 209.341 47.6543 210.323 46.4572C211.336 45.2295 212.686 44.3087 214.374 43.6949C216.062 43.0503 217.95 42.728 220.037 42.728C222.124 42.728 224.257 43.081 226.437 43.7869C226.437 44.9533 226.437 46.1503 226.437 47.378C226.437 48.6057 226.437 49.8028 226.437 50.9691C224.718 50.1404 223.106 49.5879 221.603 49.3117C220.099 49.0355 218.886 49.0048 217.965 49.2196C217.045 49.4038 216.584 49.8181 216.584 50.4627C216.584 50.8924 216.845 51.23 217.367 51.4756C217.919 51.6904 218.61 51.8899 219.439 52.0741C220.298 52.2582 221.204 52.5038 222.155 52.8107C223.137 53.1176 224.043 53.5474 224.871 54.0998C225.731 54.6216 226.421 55.3583 226.943 56.3097C227.496 57.2305 227.772 58.4276 227.772 59.9008Z" fill="url(#paint13_linear_3341_1276)" fill-opacity="0.04"/>
</g>
<path d="M220.037 43.1499C221.984 43.1499 223.975 43.4671 226.015 44.0991V50.3071C224.493 49.6203 223.047 49.1484 221.679 48.897C220.34 48.6511 219.194 48.5889 218.258 48.7339L217.883 48.8062C217.384 48.906 216.956 49.0775 216.647 49.355C216.324 49.6457 216.162 50.0262 216.162 50.4624C216.162 51.1125 216.577 51.5699 217.188 51.8569L217.2 51.8638L217.214 51.8687C217.793 52.0938 218.506 52.2988 219.348 52.4858L219.351 52.4868C220.194 52.6676 221.086 52.9093 222.025 53.2124L222.029 53.2134C222.975 53.5087 223.843 53.9212 224.638 54.4507L224.645 54.4556L224.652 54.4604C225.443 54.9407 226.084 55.6205 226.573 56.5122L226.577 56.52L226.581 56.5269C227.082 57.3621 227.35 58.4767 227.35 59.9009C227.35 61.7197 226.839 63.1806 225.843 64.3188V64.3198C224.859 65.4482 223.518 66.2845 221.8 66.8179C220.074 67.3536 218.127 67.5812 215.957 67.4907V67.4897H215.951C213.907 67.432 211.82 67.1105 209.686 66.5288V60.314C210.797 60.7848 211.91 61.1675 213.024 61.4595V61.4604L213.033 61.4624C214.34 61.7736 215.532 61.9627 216.605 62.0259C217.677 62.0889 218.581 62.0123 219.296 61.7739L219.305 61.771L219.312 61.7681C219.681 61.6276 219.994 61.4299 220.216 61.1558C220.442 60.8753 220.551 60.5419 220.551 60.1772C220.551 59.5165 220.108 59.064 219.479 58.7827H219.48C218.919 58.5183 218.193 58.2947 217.316 58.1069C216.894 58.0012 216.456 57.8879 216.003 57.7671L214.581 57.3765C213.669 57.0811 212.801 56.684 211.977 56.1841C211.174 55.668 210.514 54.995 209.995 54.1606C209.523 53.3231 209.271 52.2215 209.271 50.8306C209.272 49.1981 209.735 47.8372 210.648 46.7241C211.547 45.6348 212.733 44.7938 214.218 44.2056L214.519 44.0913L214.524 44.0894C216.158 43.4658 217.993 43.1499 220.037 43.1499Z" stroke="#00FF09" stroke-width="0.843664"/>
<g filter="url(#filter18_ii_3341_1276)">
<path d="M257.358 55.3892C257.358 57.3229 257.02 59.0724 256.345 60.6377C255.7 62.1724 254.78 63.4922 253.583 64.5971C252.416 65.7021 251.035 66.5463 249.439 67.1293C247.874 67.7124 246.17 68.0041 244.329 68.0041C242.456 68.0041 240.738 67.7124 239.172 67.1293C237.607 66.5463 236.241 65.7175 235.075 64.6432C233.939 63.5382 233.049 62.2184 232.404 60.6838C231.76 59.1491 231.438 57.4149 231.438 55.4813C231.438 52.2585 231.438 49.005 231.438 45.7209C231.438 42.4367 231.438 39.1832 231.438 35.9604C232.788 35.9604 234.139 35.9604 235.489 35.9604C236.84 35.9604 238.175 35.9604 239.494 35.9604C239.494 39.1218 239.494 42.2986 239.494 45.4907C239.494 48.6828 239.494 51.8595 239.494 55.0209C239.494 56.6783 239.955 58.0135 240.876 59.0263C241.796 60.0392 242.978 60.5456 244.421 60.5456C245.863 60.5456 247.03 60.0392 247.92 59.0263C248.84 58.0135 249.301 56.6783 249.301 55.0209C249.301 51.8595 249.301 48.6828 249.301 45.4907C249.301 42.2986 249.301 39.1218 249.301 35.9604C250.651 35.9604 252.002 35.9604 253.352 35.9604C254.703 35.9604 256.038 35.9604 257.358 35.9604C257.358 39.1525 257.358 42.3906 257.358 45.6748C257.358 48.959 257.358 52.1971 257.358 55.3892Z" fill="#00B0ED"/>
<path d="M257.358 55.3892C257.358 57.3229 257.02 59.0724 256.345 60.6377C255.7 62.1724 254.78 63.4922 253.583 64.5971C252.416 65.7021 251.035 66.5463 249.439 67.1293C247.874 67.7124 246.17 68.0041 244.329 68.0041C242.456 68.0041 240.738 67.7124 239.172 67.1293C237.607 66.5463 236.241 65.7175 235.075 64.6432C233.939 63.5382 233.049 62.2184 232.404 60.6838C231.76 59.1491 231.438 57.4149 231.438 55.4813C231.438 52.2585 231.438 49.005 231.438 45.7209C231.438 42.4367 231.438 39.1832 231.438 35.9604C232.788 35.9604 234.139 35.9604 235.489 35.9604C236.84 35.9604 238.175 35.9604 239.494 35.9604C239.494 39.1218 239.494 42.2986 239.494 45.4907C239.494 48.6828 239.494 51.8595 239.494 55.0209C239.494 56.6783 239.955 58.0135 240.876 59.0263C241.796 60.0392 242.978 60.5456 244.421 60.5456C245.863 60.5456 247.03 60.0392 247.92 59.0263C248.84 58.0135 249.301 56.6783 249.301 55.0209C249.301 51.8595 249.301 48.6828 249.301 45.4907C249.301 42.2986 249.301 39.1218 249.301 35.9604C250.651 35.9604 252.002 35.9604 253.352 35.9604C254.703 35.9604 256.038 35.9604 257.358 35.9604C257.358 39.1525 257.358 42.3906 257.358 45.6748C257.358 48.959 257.358 52.1971 257.358 55.3892Z" fill="url(#paint14_linear_3341_1276)" fill-opacity="0.04"/>
</g>
<path d="M239.072 36.3823V55.021C239.072 56.76 239.558 58.2039 240.563 59.3101C241.569 60.4161 242.867 60.9673 244.421 60.9673C245.975 60.9672 247.26 60.4159 248.236 59.3052L248.235 59.3042C249.238 58.1987 249.723 56.7574 249.723 55.021V36.3823H256.936V55.3892C256.936 57.2729 256.608 58.9644 255.958 60.4702L255.956 60.4741C255.334 61.9544 254.449 63.2245 253.297 64.2876L253.292 64.2905C252.17 65.3536 250.839 66.1685 249.294 66.7329L249.292 66.7339C247.778 67.2977 246.125 67.5825 244.328 67.5825C242.5 67.5825 240.832 67.2974 239.319 66.7339C237.803 66.1689 236.484 65.3679 235.36 64.3325C234.271 63.2707 233.415 62.0013 232.793 60.52C232.173 59.0448 231.859 57.3673 231.859 55.481V36.3823H239.072Z" stroke="#00B0ED" stroke-width="0.843664"/>
<g filter="url(#filter19_ii_3341_1276)">
<path d="M270.011 74.6345C268.783 74.6345 267.524 74.6345 266.235 74.6345C264.946 74.6345 263.673 74.6345 262.414 74.6345C262.414 69.5086 262.414 64.3216 262.414 59.0731C262.414 53.7938 262.414 48.5914 262.414 43.4656C263.673 43.4656 264.946 43.4656 266.235 43.4656C267.524 43.4656 268.783 43.4656 270.011 43.4656C270.011 43.6804 270.011 43.8953 270.011 44.1102C270.011 44.325 270.011 44.5552 270.011 44.8008C270.778 44.1869 271.653 43.7112 272.635 43.3735C273.617 43.0052 274.661 42.821 275.766 42.821C277.3 42.821 278.758 43.128 280.139 43.7418C281.521 44.325 282.733 45.1691 283.776 46.274C284.851 47.379 285.68 48.6988 286.263 50.2334C286.877 51.7681 287.183 53.4716 287.183 55.3438C287.183 57.1854 286.877 58.8735 286.263 60.4082C285.68 61.9429 284.851 63.278 283.776 64.4137C282.733 65.5186 281.521 66.3779 280.139 66.9919C278.758 67.6059 277.285 67.9127 275.72 67.9127C274.615 67.9127 273.571 67.7285 272.589 67.3602C271.637 67.0225 270.778 66.5315 270.011 65.8869C270.011 67.3296 270.011 68.7874 270.011 70.2607C270.011 71.734 270.011 73.1918 270.011 74.6345ZM274.707 61.1909C276.211 61.1909 277.392 60.6691 278.252 59.6255C279.142 58.5513 279.587 57.124 279.587 55.3438C279.587 53.5636 279.142 52.1517 278.252 51.1082C277.392 50.0646 276.211 49.5428 274.707 49.5428C273.233 49.5428 272.052 50.08 271.162 51.1542C270.272 52.1978 269.826 53.5943 269.826 55.3438C269.826 57.0933 270.272 58.5052 271.162 59.5795C272.052 60.6538 273.233 61.1909 274.707 61.1909Z" fill="#EB5923"/>
<path d="M270.011 74.6345C268.783 74.6345 267.524 74.6345 266.235 74.6345C264.946 74.6345 263.673 74.6345 262.414 74.6345C262.414 69.5086 262.414 64.3216 262.414 59.0731C262.414 53.7938 262.414 48.5914 262.414 43.4656C263.673 43.4656 264.946 43.4656 266.235 43.4656C267.524 43.4656 268.783 43.4656 270.011 43.4656C270.011 43.6804 270.011 43.8953 270.011 44.1102C270.011 44.325 270.011 44.5552 270.011 44.8008C270.778 44.1869 271.653 43.7112 272.635 43.3735C273.617 43.0052 274.661 42.821 275.766 42.821C277.3 42.821 278.758 43.128 280.139 43.7418C281.521 44.325 282.733 45.1691 283.776 46.274C284.851 47.379 285.68 48.6988 286.263 50.2334C286.877 51.7681 287.183 53.4716 287.183 55.3438C287.183 57.1854 286.877 58.8735 286.263 60.4082C285.68 61.9429 284.851 63.278 283.776 64.4137C282.733 65.5186 281.521 66.3779 280.139 66.9919C278.758 67.6059 277.285 67.9127 275.72 67.9127C274.615 67.9127 273.571 67.7285 272.589 67.3602C271.637 67.0225 270.778 66.5315 270.011 65.8869C270.011 67.3296 270.011 68.7874 270.011 70.2607C270.011 71.734 270.011 73.1918 270.011 74.6345ZM274.707 61.1909C276.211 61.1909 277.392 60.6691 278.252 59.6255C279.142 58.5513 279.587 57.124 279.587 55.3438C279.587 53.5636 279.142 52.1517 278.252 51.1082C277.392 50.0646 276.211 49.5428 274.707 49.5428C273.233 49.5428 272.052 50.08 271.162 51.1542C270.272 52.1978 269.826 53.5943 269.826 55.3438C269.826 57.0933 270.272 58.5052 271.162 59.5795C272.052 60.6538 273.233 61.1909 274.707 61.1909Z" fill="url(#paint15_linear_3341_1276)" fill-opacity="0.04"/>
</g>
<path d="M275.766 43.2429C277.242 43.2429 278.641 43.5382 279.968 44.1277L279.976 44.1306C281.302 44.6907 282.466 45.5004 283.47 46.5632L283.474 46.5681C284.505 47.6291 285.304 48.8992 285.868 50.3835L285.871 50.3904C286.463 51.8689 286.762 53.518 286.762 55.3435C286.762 57.1376 286.463 58.7723 285.871 60.2517L285.868 60.2585C285.374 61.5582 284.7 62.7059 283.847 63.7048L283.47 64.1238C282.464 65.1883 281.298 66.015 279.968 66.6062C278.643 67.1953 277.228 67.4909 275.72 67.491C274.663 67.491 273.67 67.3151 272.737 66.9656L272.729 66.9626C271.826 66.6417 271.011 66.1759 270.282 65.5642L269.589 64.9822V74.2126H262.836V43.8875H269.589V45.6785L270.274 45.1306C271.002 44.5487 271.834 44.095 272.772 43.7722L272.783 43.7683C273.716 43.4187 274.709 43.2429 275.766 43.2429ZM274.707 49.1208C273.118 49.1208 271.816 49.7067 270.841 50.8806C269.87 52.0195 269.404 53.5221 269.404 55.3435C269.404 57.1657 269.87 58.6809 270.837 59.8484C271.812 61.0254 273.116 61.613 274.707 61.613C276.321 61.6129 277.628 61.0458 278.577 59.8933L278.576 59.8923C279.544 58.7236 280.009 57.1936 280.009 55.3435C280.009 53.4962 279.546 51.9793 278.576 50.8396H278.577C277.628 49.6873 276.321 49.1209 274.707 49.1208Z" stroke="#EB5923" stroke-width="0.843664"/>
<defs>
<filter id="filter0_ii_3341_1276" x="38.709" y="14.9792" width="25.4531" height="24.6238" filterUnits="userSpaceOnUse" color-interpolation-filters="sRGB">
<feFlood flood-opacity="0" result="BackgroundImageFix"/>
<feBlend mode="normal" in="SourceGraphic" in2="BackgroundImageFix" result="shape"/>
<feColorMatrix in="SourceAlpha" type="matrix" values="0 0 0 0 0 0 0 0 0 0 0 0 0 0 0 0 0 0 127 0" result="hardAlpha"/>
<feOffset dy="4.16193"/>
<feGaussianBlur stdDeviation="4.16193"/>
<feComposite in2="hardAlpha" operator="arithmetic" k2="-1" k3="1"/>
<feColorMatrix type="matrix" values="0 0 0 0 1 0 0 0 0 1 0 0 0 0 1 0 0 0 0.16 0"/>
<feBlend mode="normal" in2="shape" result="effect1_innerShadow_3341_1276"/>
<feColorMatrix in="SourceAlpha" type="matrix" values="0 0 0 0 0 0 0 0 0 0 0 0 0 0 0 0 0 0 127 0" result="hardAlpha"/>
<feOffset dy="1.04048"/>
<feComposite in2="hardAlpha" operator="arithmetic" k2="-1" k3="1"/>
<feColorMatrix type="matrix" values="0 0 0 0 1 0 0 0 0 1 0 0 0 0 1 0 0 0 0.1 0"/>
<feBlend mode="normal" in2="effect1_innerShadow_3341_1276" result="effect2_innerShadow_3341_1276"/>
</filter>
<filter id="filter1_ii_3341_1276" x="41.9082" y="17.9841" width="18.9434" height="20.0936" filterUnits="userSpaceOnUse" color-interpolation-filters="sRGB">
<feFlood flood-opacity="0" result="BackgroundImageFix"/>
<feBlend mode="normal" in="SourceGraphic" in2="BackgroundImageFix" result="shape"/>
<feColorMatrix in="SourceAlpha" type="matrix" values="0 0 0 0 0 0 0 0 0 0 0 0 0 0 0 0 0 0 127 0" result="hardAlpha"/>
<feOffset dy="4.16193"/>
<feGaussianBlur stdDeviation="4.16193"/>
<feComposite in2="hardAlpha" operator="arithmetic" k2="-1" k3="1"/>
<feColorMatrix type="matrix" values="0 0 0 0 1 0 0 0 0 1 0 0 0 0 1 0 0 0 0.16 0"/>
<feBlend mode="normal" in2="shape" result="effect1_innerShadow_3341_1276"/>
<feColorMatrix in="SourceAlpha" type="matrix" values="0 0 0 0 0 0 0 0 0 0 0 0 0 0 0 0 0 0 127 0" result="hardAlpha"/>
<feOffset dy="1.04048"/>
<feComposite in2="hardAlpha" operator="arithmetic" k2="-1" k3="1"/>
<feColorMatrix type="matrix" values="0 0 0 0 1 0 0 0 0 1 0 0 0 0 1 0 0 0 0.1 0"/>
<feBlend mode="normal" in2="effect1_innerShadow_3341_1276" result="effect2_innerShadow_3341_1276"/>
</filter>
<filter id="filter2_ii_3341_1276" x="35.7871" y="10.0481" width="32.5156" height="31.4766" filterUnits="userSpaceOnUse" color-interpolation-filters="sRGB">
<feFlood flood-opacity="0" result="BackgroundImageFix"/>
<feBlend mode="normal" in="SourceGraphic" in2="BackgroundImageFix" result="shape"/>
<feColorMatrix in="SourceAlpha" type="matrix" values="0 0 0 0 0 0 0 0 0 0 0 0 0 0 0 0 0 0 127 0" result="hardAlpha"/>
<feOffset dy="4.16193"/>
<feGaussianBlur stdDeviation="4.16193"/>
<feComposite in2="hardAlpha" operator="arithmetic" k2="-1" k3="1"/>
<feColorMatrix type="matrix" values="0 0 0 0 1 0 0 0 0 1 0 0 0 0 1 0 0 0 0.16 0"/>
<feBlend mode="normal" in2="shape" result="effect1_innerShadow_3341_1276"/>
<feColorMatrix in="SourceAlpha" type="matrix" values="0 0 0 0 0 0 0 0 0 0 0 0 0 0 0 0 0 0 127 0" result="hardAlpha"/>
<feOffset dy="1.04048"/>
<feComposite in2="hardAlpha" operator="arithmetic" k2="-1" k3="1"/>
<feColorMatrix type="matrix" values="0 0 0 0 1 0 0 0 0 1 0 0 0 0 1 0 0 0 0.1 0"/>
<feBlend mode="normal" in2="effect1_innerShadow_3341_1276" result="effect2_innerShadow_3341_1276"/>
</filter>
<filter id="filter3_ii_3341_1276" x="34.1035" y="6.57227" width="38.0645" height="36.0284" filterUnits="userSpaceOnUse" color-interpolation-filters="sRGB">
<feFlood flood-opacity="0" result="BackgroundImageFix"/>
<feBlend mode="normal" in="SourceGraphic" in2="BackgroundImageFix" result="shape"/>
<feColorMatrix in="SourceAlpha" type="matrix" values="0 0 0 0 0 0 0 0 0 0 0 0 0 0 0 0 0 0 127 0" result="hardAlpha"/>
<feOffset dy="4.16193"/>
<feGaussianBlur stdDeviation="4.16193"/>
<feComposite in2="hardAlpha" operator="arithmetic" k2="-1" k3="1"/>
<feColorMatrix type="matrix" values="0 0 0 0 1 0 0 0 0 1 0 0 0 0 1 0 0 0 0.16 0"/>
<feBlend mode="normal" in2="shape" result="effect1_innerShadow_3341_1276"/>
<feColorMatrix in="SourceAlpha" type="matrix" values="0 0 0 0 0 0 0 0 0 0 0 0 0 0 0 0 0 0 127 0" result="hardAlpha"/>
<feOffset dy="1.04048"/>
<feComposite in2="hardAlpha" operator="arithmetic" k2="-1" k3="1"/>
<feColorMatrix type="matrix" values="0 0 0 0 1 0 0 0 0 1 0 0 0 0 1 0 0 0 0.1 0"/>
<feBlend mode="normal" in2="effect1_innerShadow_3341_1276" result="effect2_innerShadow_3341_1276"/>
</filter>
<filter id="filter4_ii_3341_1276" x="68.7676" y="20.9263" width="8.30078" height="14.2086" filterUnits="userSpaceOnUse" color-interpolation-filters="sRGB">
<feFlood flood-opacity="0" result="BackgroundImageFix"/>
<feBlend mode="normal" in="SourceGraphic" in2="BackgroundImageFix" result="shape"/>
<feColorMatrix in="SourceAlpha" type="matrix" values="0 0 0 0 0 0 0 0 0 0 0 0 0 0 0 0 0 0 127 0" result="hardAlpha"/>
<feOffset dy="4.16193"/>
<feGaussianBlur stdDeviation="4.16193"/>
<feComposite in2="hardAlpha" operator="arithmetic" k2="-1" k3="1"/>
<feColorMatrix type="matrix" values="0 0 0 0 1 0 0 0 0 1 0 0 0 0 1 0 0 0 0.16 0"/>
<feBlend mode="normal" in2="shape" result="effect1_innerShadow_3341_1276"/>
<feColorMatrix in="SourceAlpha" type="matrix" values="0 0 0 0 0 0 0 0 0 0 0 0 0 0 0 0 0 0 127 0" result="hardAlpha"/>
<feOffset dy="1.04048"/>
<feComposite in2="hardAlpha" operator="arithmetic" k2="-1" k3="1"/>
<feColorMatrix type="matrix" values="0 0 0 0 1 0 0 0 0 1 0 0 0 0 1 0 0 0 0.1 0"/>
<feBlend mode="normal" in2="effect1_innerShadow_3341_1276" result="effect2_innerShadow_3341_1276"/>
</filter>
<filter id="filter5_ii_3341_1276" x="32.6582" y="6.27588" width="8.30078" height="14.2083" filterUnits="userSpaceOnUse" color-interpolation-filters="sRGB">
<feFlood flood-opacity="0" result="BackgroundImageFix"/>
<feBlend mode="normal" in="SourceGraphic" in2="BackgroundImageFix" result="shape"/>
<feColorMatrix in="SourceAlpha" type="matrix" values="0 0 0 0 0 0 0 0 0 0 0 0 0 0 0 0 0 0 127 0" result="hardAlpha"/>
<feOffset dy="4.16193"/>
<feGaussianBlur stdDeviation="4.16193"/>
<feComposite in2="hardAlpha" operator="arithmetic" k2="-1" k3="1"/>
<feColorMatrix type="matrix" values="0 0 0 0 1 0 0 0 0 1 0 0 0 0 1 0 0 0 0.16 0"/>
<feBlend mode="normal" in2="shape" result="effect1_innerShadow_3341_1276"/>
<feColorMatrix in="SourceAlpha" type="matrix" values="0 0 0 0 0 0 0 0 0 0 0 0 0 0 0 0 0 0 127 0" result="hardAlpha"/>
<feOffset dy="1.04048"/>
<feComposite in2="hardAlpha" operator="arithmetic" k2="-1" k3="1"/>
<feColorMatrix type="matrix" values="0 0 0 0 1 0 0 0 0 1 0 0 0 0 1 0 0 0 0.1 0"/>
<feBlend mode="normal" in2="effect1_innerShadow_3341_1276" result="effect2_innerShadow_3341_1276"/>
</filter>
<filter id="filter6_ii_3341_1276" x="52.5488" y="0" width="8.30078" height="14.2083" filterUnits="userSpaceOnUse" color-interpolation-filters="sRGB">
<feFlood flood-opacity="0" result="BackgroundImageFix"/>
<feBlend mode="normal" in="SourceGraphic" in2="BackgroundImageFix" result="shape"/>
<feColorMatrix in="SourceAlpha" type="matrix" values="0 0 0 0 0 0 0 0 0 0 0 0 0 0 0 0 0 0 127 0" result="hardAlpha"/>
<feOffset dy="4.16193"/>
<feGaussianBlur stdDeviation="4.16193"/>
<feComposite in2="hardAlpha" operator="arithmetic" k2="-1" k3="1"/>
<feColorMatrix type="matrix" values="0 0 0 0 1 0 0 0 0 1 0 0 0 0 1 0 0 0 0.16 0"/>
<feBlend mode="normal" in2="shape" result="effect1_innerShadow_3341_1276"/>
<feColorMatrix in="SourceAlpha" type="matrix" values="0 0 0 0 0 0 0 0 0 0 0 0 0 0 0 0 0 0 127 0" result="hardAlpha"/>
<feOffset dy="1.04048"/>
<feComposite in2="hardAlpha" operator="arithmetic" k2="-1" k3="1"/>
<feColorMatrix type="matrix" values="0 0 0 0 1 0 0 0 0 1 0 0 0 0 1 0 0 0 0.1 0"/>
<feBlend mode="normal" in2="effect1_innerShadow_3341_1276" result="effect2_innerShadow_3341_1276"/>
</filter>
<filter id="filter7_ii_3341_1276" x="0" y="19.1309" width="71.5684" height="66.2155" filterUnits="userSpaceOnUse" color-interpolation-filters="sRGB">
<feFlood flood-opacity="0" result="BackgroundImageFix"/>
<feBlend mode="normal" in="SourceGraphic" in2="BackgroundImageFix" result="shape"/>
<feColorMatrix in="SourceAlpha" type="matrix" values="0 0 0 0 0 0 0 0 0 0 0 0 0 0 0 0 0 0 127 0" result="hardAlpha"/>
<feOffset dy="6.32192"/>
<feGaussianBlur stdDeviation="6.32192"/>
<feComposite in2="hardAlpha" operator="arithmetic" k2="-1" k3="1"/>
<feColorMatrix type="matrix" values="0 0 0 0 1 0 0 0 0 1 0 0 0 0 1 0 0 0 0.16 0"/>
<feBlend mode="normal" in2="shape" result="effect1_innerShadow_3341_1276"/>
<feColorMatrix in="SourceAlpha" type="matrix" values="0 0 0 0 0 0 0 0 0 0 0 0 0 0 0 0 0 0 127 0" result="hardAlpha"/>
<feOffset dy="1.58048"/>
<feComposite in2="hardAlpha" operator="arithmetic" k2="-1" k3="1"/>
<feColorMatrix type="matrix" values="0 0 0 0 1 0 0 0 0 1 0 0 0 0 1 0 0 0 0.1 0"/>
<feBlend mode="normal" in2="effect1_innerShadow_3341_1276" result="effect2_innerShadow_3341_1276"/>
</filter>
<filter id="filter8_ii_3341_1276" x="1.27734" y="19.1309" width="70.291" height="53.8319" filterUnits="userSpaceOnUse" color-interpolation-filters="sRGB">
<feFlood flood-opacity="0" result="BackgroundImageFix"/>
<feBlend mode="normal" in="SourceGraphic" in2="BackgroundImageFix" result="shape"/>
<feColorMatrix in="SourceAlpha" type="matrix" values="0 0 0 0 0 0 0 0 0 0 0 0 0 0 0 0 0 0 127 0" result="hardAlpha"/>
<feOffset dy="4.16193"/>
<feGaussianBlur stdDeviation="4.16193"/>
<feComposite in2="hardAlpha" operator="arithmetic" k2="-1" k3="1"/>
<feColorMatrix type="matrix" values="0 0 0 0 1 0 0 0 0 1 0 0 0 0 1 0 0 0 0.16 0"/>
<feBlend mode="normal" in2="shape" result="effect1_innerShadow_3341_1276"/>
<feColorMatrix in="SourceAlpha" type="matrix" values="0 0 0 0 0 0 0 0 0 0 0 0 0 0 0 0 0 0 127 0" result="hardAlpha"/>
<feOffset dy="1.04048"/>
<feComposite in2="hardAlpha" operator="arithmetic" k2="-1" k3="1"/>
<feColorMatrix type="matrix" values="0 0 0 0 1 0 0 0 0 1 0 0 0 0 1 0 0 0 0.1 0"/>
<feBlend mode="normal" in2="effect1_innerShadow_3341_1276" result="effect2_innerShadow_3341_1276"/>
</filter>
<filter id="filter9_ii_3341_1276" x="0" y="45.3479" width="67.1504" height="37.8384" filterUnits="userSpaceOnUse" color-interpolation-filters="sRGB">
<feFlood flood-opacity="0" result="BackgroundImageFix"/>
<feBlend mode="normal" in="SourceGraphic" in2="BackgroundImageFix" result="shape"/>
<feColorMatrix in="SourceAlpha" type="matrix" values="0 0 0 0 0 0 0 0 0 0 0 0 0 0 0 0 0 0 127 0" result="hardAlpha"/>
<feOffset dy="4.16193"/>
<feGaussianBlur stdDeviation="4.16193"/>
<feComposite in2="hardAlpha" operator="arithmetic" k2="-1" k3="1"/>
<feColorMatrix type="matrix" values="0 0 0 0 1 0 0 0 0 1 0 0 0 0 1 0 0 0 0.16 0"/>
<feBlend mode="normal" in2="shape" result="effect1_innerShadow_3341_1276"/>
<feColorMatrix in="SourceAlpha" type="matrix" values="0 0 0 0 0 0 0 0 0 0 0 0 0 0 0 0 0 0 127 0" result="hardAlpha"/>
<feOffset dy="1.04048"/>
<feComposite in2="hardAlpha" operator="arithmetic" k2="-1" k3="1"/>
<feColorMatrix type="matrix" values="0 0 0 0 1 0 0 0 0 1 0 0 0 0 1 0 0 0 0.1 0"/>
<feBlend mode="normal" in2="effect1_innerShadow_3341_1276" result="effect2_innerShadow_3341_1276"/>
</filter>
<filter id="filter10_ii_3341_1276" x="17.2383" y="22.8584" width="26.0938" height="15.2327" filterUnits="userSpaceOnUse" color-interpolation-filters="sRGB">
<feFlood flood-opacity="0" result="BackgroundImageFix"/>
<feBlend mode="normal" in="SourceGraphic" in2="BackgroundImageFix" result="shape"/>
<feColorMatrix in="SourceAlpha" type="matrix" values="0 0 0 0 0 0 0 0 0 0 0 0 0 0 0 0 0 0 127 0" result="hardAlpha"/>
<feOffset dy="4.16193"/>
<feGaussianBlur stdDeviation="4.16193"/>
<feComposite in2="hardAlpha" operator="arithmetic" k2="-1" k3="1"/>
<feColorMatrix type="matrix" values="0 0 0 0 1 0 0 0 0 1 0 0 0 0 1 0 0 0 0.16 0"/>
<feBlend mode="normal" in2="shape" result="effect1_innerShadow_3341_1276"/>
<feColorMatrix in="SourceAlpha" type="matrix" values="0 0 0 0 0 0 0 0 0 0 0 0 0 0 0 0 0 0 127 0" result="hardAlpha"/>
<feOffset dy="1.04048"/>
<feComposite in2="hardAlpha" operator="arithmetic" k2="-1" k3="1"/>
<feColorMatrix type="matrix" values="0 0 0 0 1 0 0 0 0 1 0 0 0 0 1 0 0 0 0.1 0"/>
<feBlend mode="normal" in2="effect1_innerShadow_3341_1276" result="effect2_innerShadow_3341_1276"/>
</filter>
<filter id="filter11_ii_3341_1276" x="52.9707" y="32.4294" width="14.8047" height="13.6712" filterUnits="userSpaceOnUse" color-interpolation-filters="sRGB">
<feFlood flood-opacity="0" result="BackgroundImageFix"/>
<feBlend mode="normal" in="SourceGraphic" in2="BackgroundImageFix" result="shape"/>
<feColorMatrix in="SourceAlpha" type="matrix" values="0 0 0 0 0 0 0 0 0 0 0 0 0 0 0 0 0 0 127 0" result="hardAlpha"/>
<feOffset dy="4.16193"/>
<feGaussianBlur stdDeviation="4.16193"/>
<feComposite in2="hardAlpha" operator="arithmetic" k2="-1" k3="1"/>
<feColorMatrix type="matrix" values="0 0 0 0 1 0 0 0 0 1 0 0 0 0 1 0 0 0 0.16 0"/>
<feBlend mode="normal" in2="shape" result="effect1_innerShadow_3341_1276"/>
<feColorMatrix in="SourceAlpha" type="matrix" values="0 0 0 0 0 0 0 0 0 0 0 0 0 0 0 0 0 0 127 0" result="hardAlpha"/>
<feOffset dy="1.04048"/>
<feComposite in2="hardAlpha" operator="arithmetic" k2="-1" k3="1"/>
<feColorMatrix type="matrix" values="0 0 0 0 1 0 0 0 0 1 0 0 0 0 1 0 0 0 0.1 0"/>
<feBlend mode="normal" in2="effect1_innerShadow_3341_1276" result="effect2_innerShadow_3341_1276"/>
</filter>
<filter id="filter12_ii_3341_1276" x="84.7051" y="35.4014" width="23.25" height="39.1744" filterUnits="userSpaceOnUse" color-interpolation-filters="sRGB">
<feFlood flood-opacity="0" result="BackgroundImageFix"/>
<feBlend mode="normal" in="SourceGraphic" in2="BackgroundImageFix" result="shape"/>
<feColorMatrix in="SourceAlpha" type="matrix" values="0 0 0 0 0 0 0 0 0 0 0 0 0 0 0 0 0 0 127 0" result="hardAlpha"/>
<feOffset dy="6.74932"/>
<feGaussianBlur stdDeviation="6.74932"/>
<feComposite in2="hardAlpha" operator="arithmetic" k2="-1" k3="1"/>
<feColorMatrix type="matrix" values="0 0 0 0 1 0 0 0 0 1 0 0 0 0 1 0 0 0 0.16 0"/>
<feBlend mode="normal" in2="shape" result="effect1_innerShadow_3341_1276"/>
<feColorMatrix in="SourceAlpha" type="matrix" values="0 0 0 0 0 0 0 0 0 0 0 0 0 0 0 0 0 0 127 0" result="hardAlpha"/>
<feOffset dy="1.68733"/>
<feComposite in2="hardAlpha" operator="arithmetic" k2="-1" k3="1"/>
<feColorMatrix type="matrix" values="0 0 0 0 1 0 0 0 0 1 0 0 0 0 1 0 0 0 0.1 0"/>
<feBlend mode="normal" in2="effect1_innerShadow_3341_1276" result="effect2_innerShadow_3341_1276"/>
</filter>
<filter id="filter13_ii_3341_1276" x="113.016" y="33.6584" width="7.5957" height="40.3582" filterUnits="userSpaceOnUse" color-interpolation-filters="sRGB">
<feFlood flood-opacity="0" result="BackgroundImageFix"/>
<feBlend mode="normal" in="SourceGraphic" in2="BackgroundImageFix" result="shape"/>
<feColorMatrix in="SourceAlpha" type="matrix" values="0 0 0 0 0 0 0 0 0 0 0 0 0 0 0 0 0 0 127 0" result="hardAlpha"/>
<feOffset dy="6.74932"/>
<feGaussianBlur stdDeviation="6.74932"/>
<feComposite in2="hardAlpha" operator="arithmetic" k2="-1" k3="1"/>
<feColorMatrix type="matrix" values="0 0 0 0 1 0 0 0 0 1 0 0 0 0 1 0 0 0 0.16 0"/>
<feBlend mode="normal" in2="shape" result="effect1_innerShadow_3341_1276"/>
<feColorMatrix in="SourceAlpha" type="matrix" values="0 0 0 0 0 0 0 0 0 0 0 0 0 0 0 0 0 0 127 0" result="hardAlpha"/>
<feOffset dy="1.68733"/>
<feComposite in2="hardAlpha" operator="arithmetic" k2="-1" k3="1"/>
<feColorMatrix type="matrix" values="0 0 0 0 1 0 0 0 0 1 0 0 0 0 1 0 0 0 0.1 0"/>
<feBlend mode="normal" in2="effect1_innerShadow_3341_1276" result="effect2_innerShadow_3341_1276"/>
</filter>
<filter id="filter14_ii_3341_1276" x="124.625" y="42.728" width="25.1367" height="32.0252" filterUnits="userSpaceOnUse" color-interpolation-filters="sRGB">
<feFlood flood-opacity="0" result="BackgroundImageFix"/>
<feBlend mode="normal" in="SourceGraphic" in2="BackgroundImageFix" result="shape"/>
<feColorMatrix in="SourceAlpha" type="matrix" values="0 0 0 0 0 0 0 0 0 0 0 0 0 0 0 0 0 0 127 0" result="hardAlpha"/>
<feOffset dy="6.74932"/>
<feGaussianBlur stdDeviation="6.74932"/>
<feComposite in2="hardAlpha" operator="arithmetic" k2="-1" k3="1"/>
<feColorMatrix type="matrix" values="0 0 0 0 1 0 0 0 0 1 0 0 0 0 1 0 0 0 0.16 0"/>
<feBlend mode="normal" in2="shape" result="effect1_innerShadow_3341_1276"/>
<feColorMatrix in="SourceAlpha" type="matrix" values="0 0 0 0 0 0 0 0 0 0 0 0 0 0 0 0 0 0 127 0" result="hardAlpha"/>
<feOffset dy="1.68733"/>
<feComposite in2="hardAlpha" operator="arithmetic" k2="-1" k3="1"/>
<feColorMatrix type="matrix" values="0 0 0 0 1 0 0 0 0 1 0 0 0 0 1 0 0 0 0.1 0"/>
<feBlend mode="normal" in2="effect1_innerShadow_3341_1276" result="effect2_innerShadow_3341_1276"/>
</filter>
<filter id="filter15_ii_3341_1276" x="153.152" y="43.4651" width="22.6055" height="31.1963" filterUnits="userSpaceOnUse" color-interpolation-filters="sRGB">
<feFlood flood-opacity="0" result="BackgroundImageFix"/>
<feBlend mode="normal" in="SourceGraphic" in2="BackgroundImageFix" result="shape"/>
<feColorMatrix in="SourceAlpha" type="matrix" values="0 0 0 0 0 0 0 0 0 0 0 0 0 0 0 0 0 0 127 0" result="hardAlpha"/>
<feOffset dy="6.74932"/>
<feGaussianBlur stdDeviation="6.74932"/>
<feComposite in2="hardAlpha" operator="arithmetic" k2="-1" k3="1"/>
<feColorMatrix type="matrix" values="0 0 0 0 1 0 0 0 0 1 0 0 0 0 1 0 0 0 0.16 0"/>
<feBlend mode="normal" in2="shape" result="effect1_innerShadow_3341_1276"/>
<feColorMatrix in="SourceAlpha" type="matrix" values="0 0 0 0 0 0 0 0 0 0 0 0 0 0 0 0 0 0 127 0" result="hardAlpha"/>
<feOffset dy="1.68733"/>
<feComposite in2="hardAlpha" operator="arithmetic" k2="-1" k3="1"/>
<feColorMatrix type="matrix" values="0 0 0 0 1 0 0 0 0 1 0 0 0 0 1 0 0 0 0.1 0"/>
<feBlend mode="normal" in2="effect1_innerShadow_3341_1276" result="effect2_innerShadow_3341_1276"/>
</filter>
<filter id="filter16_ii_3341_1276" x="179.521" y="33.6584" width="24.7695" height="41.0027" filterUnits="userSpaceOnUse" color-interpolation-filters="sRGB">
<feFlood flood-opacity="0" result="BackgroundImageFix"/>
<feBlend mode="normal" in="SourceGraphic" in2="BackgroundImageFix" result="shape"/>
<feColorMatrix in="SourceAlpha" type="matrix" values="0 0 0 0 0 0 0 0 0 0 0 0 0 0 0 0 0 0 127 0" result="hardAlpha"/>
<feOffset dy="6.74932"/>
<feGaussianBlur stdDeviation="6.74932"/>
<feComposite in2="hardAlpha" operator="arithmetic" k2="-1" k3="1"/>
<feColorMatrix type="matrix" values="0 0 0 0 1 0 0 0 0 1 0 0 0 0 1 0 0 0 0.16 0"/>
<feBlend mode="normal" in2="shape" result="effect1_innerShadow_3341_1276"/>
<feColorMatrix in="SourceAlpha" type="matrix" values="0 0 0 0 0 0 0 0 0 0 0 0 0 0 0 0 0 0 127 0" result="hardAlpha"/>
<feOffset dy="1.68733"/>
<feComposite in2="hardAlpha" operator="arithmetic" k2="-1" k3="1"/>
<feColorMatrix type="matrix" values="0 0 0 0 1 0 0 0 0 1 0 0 0 0 1 0 0 0 0.1 0"/>
<feBlend mode="normal" in2="effect1_innerShadow_3341_1276" result="effect2_innerShadow_3341_1276"/>
</filter>
<filter id="filter17_ii_3341_1276" x="208.85" y="42.728" width="18.9219" height="31.9527" filterUnits="userSpaceOnUse" color-interpolation-filters="sRGB">
<feFlood flood-opacity="0" result="BackgroundImageFix"/>
<feBlend mode="normal" in="SourceGraphic" in2="BackgroundImageFix" result="shape"/>
<feColorMatrix in="SourceAlpha" type="matrix" values="0 0 0 0 0 0 0 0 0 0 0 0 0 0 0 0 0 0 127 0" result="hardAlpha"/>
<feOffset dy="6.74932"/>
<feGaussianBlur stdDeviation="6.74932"/>
<feComposite in2="hardAlpha" operator="arithmetic" k2="-1" k3="1"/>
<feColorMatrix type="matrix" values="0 0 0 0 1 0 0 0 0 1 0 0 0 0 1 0 0 0 0.16 0"/>
<feBlend mode="normal" in2="shape" result="effect1_innerShadow_3341_1276"/>
<feColorMatrix in="SourceAlpha" type="matrix" values="0 0 0 0 0 0 0 0 0 0 0 0 0 0 0 0 0 0 127 0" result="hardAlpha"/>
<feOffset dy="1.68733"/>
<feComposite in2="hardAlpha" operator="arithmetic" k2="-1" k3="1"/>
<feColorMatrix type="matrix" values="0 0 0 0 1 0 0 0 0 1 0 0 0 0 1 0 0 0 0.1 0"/>
<feBlend mode="normal" in2="effect1_innerShadow_3341_1276" result="effect2_innerShadow_3341_1276"/>
</filter>
<filter id="filter18_ii_3341_1276" x="231.438" y="35.9604" width="25.9199" height="38.793" filterUnits="userSpaceOnUse" color-interpolation-filters="sRGB">
<feFlood flood-opacity="0" result="BackgroundImageFix"/>
<feBlend mode="normal" in="SourceGraphic" in2="BackgroundImageFix" result="shape"/>
<feColorMatrix in="SourceAlpha" type="matrix" values="0 0 0 0 0 0 0 0 0 0 0 0 0 0 0 0 0 0 127 0" result="hardAlpha"/>
<feOffset dy="6.74932"/>
<feGaussianBlur stdDeviation="6.74932"/>
<feComposite in2="hardAlpha" operator="arithmetic" k2="-1" k3="1"/>
<feColorMatrix type="matrix" values="0 0 0 0 1 0 0 0 0 1 0 0 0 0 1 0 0 0 0.16 0"/>
<feBlend mode="normal" in2="shape" result="effect1_innerShadow_3341_1276"/>
<feColorMatrix in="SourceAlpha" type="matrix" values="0 0 0 0 0 0 0 0 0 0 0 0 0 0 0 0 0 0 127 0" result="hardAlpha"/>
<feOffset dy="1.68733"/>
<feComposite in2="hardAlpha" operator="arithmetic" k2="-1" k3="1"/>
<feColorMatrix type="matrix" values="0 0 0 0 1 0 0 0 0 1 0 0 0 0 1 0 0 0 0.1 0"/>
<feBlend mode="normal" in2="effect1_innerShadow_3341_1276" result="effect2_innerShadow_3341_1276"/>
</filter>
<filter id="filter19_ii_3341_1276" x="262.414" y="42.821" width="24.7695" height="38.5628" filterUnits="userSpaceOnUse" color-interpolation-filters="sRGB">
<feFlood flood-opacity="0" result="BackgroundImageFix"/>
<feBlend mode="normal" in="SourceGraphic" in2="BackgroundImageFix" result="shape"/>
<feColorMatrix in="SourceAlpha" type="matrix" values="0 0 0 0 0 0 0 0 0 0 0 0 0 0 0 0 0 0 127 0" result="hardAlpha"/>
<feOffset dy="6.74932"/>
<feGaussianBlur stdDeviation="6.74932"/>
<feComposite in2="hardAlpha" operator="arithmetic" k2="-1" k3="1"/>
<feColorMatrix type="matrix" values="0 0 0 0 1 0 0 0 0 1 0 0 0 0 1 0 0 0 0.16 0"/>
<feBlend mode="normal" in2="shape" result="effect1_innerShadow_3341_1276"/>
<feColorMatrix in="SourceAlpha" type="matrix" values="0 0 0 0 0 0 0 0 0 0 0 0 0 0 0 0 0 0 127 0" result="hardAlpha"/>
<feOffset dy="1.68733"/>
<feComposite in2="hardAlpha" operator="arithmetic" k2="-1" k3="1"/>
<feColorMatrix type="matrix" values="0 0 0 0 1 0 0 0 0 1 0 0 0 0 1 0 0 0 0.1 0"/>
<feBlend mode="normal" in2="effect1_innerShadow_3341_1276" result="effect2_innerShadow_3341_1276"/>
</filter>
<linearGradient id="paint0_linear_3341_1276" x1="51.4355" y1="20.2084" x2="51.4355" y2="35.4412" gradientUnits="userSpaceOnUse">
<stop stop-color="white"/>
<stop offset="1" stop-color="white" stop-opacity="0"/>
</linearGradient>
<linearGradient id="paint1_linear_3341_1276" x1="51.3797" y1="22.0555" x2="51.3797" y2="33.9158" gradientUnits="userSpaceOnUse">
<stop stop-color="white"/>
<stop offset="1" stop-color="white" stop-opacity="0"/>
</linearGradient>
<linearGradient id="paint2_linear_3341_1276" x1="52.045" y1="17.0285" x2="52.045" y2="37.3629" gradientUnits="userSpaceOnUse">
<stop stop-color="white"/>
<stop offset="1" stop-color="white" stop-opacity="0"/>
</linearGradient>
<linearGradient id="paint3_linear_3341_1276" x1="53.1354" y1="14.7159" x2="53.1354" y2="38.4387" gradientUnits="userSpaceOnUse">
<stop stop-color="white"/>
<stop offset="1" stop-color="white" stop-opacity="0"/>
</linearGradient>
<linearGradient id="paint4_linear_3341_1276" x1="36.4229" y1="31.8243" x2="36.4229" y2="68.8008" gradientUnits="userSpaceOnUse">
<stop stop-color="white"/>
<stop offset="1" stop-color="white" stop-opacity="0"/>
</linearGradient>
<linearGradient id="paint5_linear_3341_1276" x1="33.5752" y1="53.9541" x2="33.5752" y2="79.0244" gradientUnits="userSpaceOnUse">
<stop stop-color="white"/>
<stop offset="1" stop-color="white" stop-opacity="0"/>
</linearGradient>
<linearGradient id="paint6_linear_3341_1276" x1="30.2855" y1="25.6876" x2="30.2855" y2="33.9292" gradientUnits="userSpaceOnUse">
<stop stop-color="white"/>
<stop offset="1" stop-color="white" stop-opacity="0"/>
</linearGradient>
<linearGradient id="paint7_linear_3341_1276" x1="60.373" y1="34.8596" x2="60.373" y2="41.9387" gradientUnits="userSpaceOnUse">
<stop stop-color="white"/>
<stop offset="1" stop-color="white" stop-opacity="0"/>
</linearGradient>
<linearGradient id="paint8_linear_3341_1276" x1="96.3301" y1="43.6878" x2="96.3301" y2="67.8265" gradientUnits="userSpaceOnUse">
<stop stop-color="white"/>
<stop offset="1" stop-color="white" stop-opacity="0"/>
</linearGradient>
<linearGradient id="paint9_linear_3341_1276" x1="116.814" y1="42.2474" x2="116.814" y2="67.2674" gradientUnits="userSpaceOnUse">
<stop stop-color="white"/>
<stop offset="1" stop-color="white" stop-opacity="0"/>
</linearGradient>
<linearGradient id="paint10_linear_3341_1276" x1="137.194" y1="49.1874" x2="137.194" y2="68.0038" gradientUnits="userSpaceOnUse">
<stop stop-color="white"/>
<stop offset="1" stop-color="white" stop-opacity="0"/>
</linearGradient>
<linearGradient id="paint11_linear_3341_1276" x1="164.455" y1="49.7127" x2="164.455" y2="67.9122" gradientUnits="userSpaceOnUse">
<stop stop-color="white"/>
<stop offset="1" stop-color="white" stop-opacity="0"/>
</linearGradient>
<linearGradient id="paint12_linear_3341_1276" x1="191.906" y1="42.4121" x2="191.906" y2="67.912" gradientUnits="userSpaceOnUse">
<stop stop-color="white"/>
<stop offset="1" stop-color="white" stop-opacity="0"/>
</linearGradient>
<linearGradient id="paint13_linear_3341_1276" x1="218.311" y1="49.1689" x2="218.311" y2="67.9315" gradientUnits="userSpaceOnUse">
<stop stop-color="white"/>
<stop offset="1" stop-color="white" stop-opacity="0"/>
</linearGradient>
<linearGradient id="paint14_linear_3341_1276" x1="244.398" y1="44.1494" x2="244.398" y2="68.0041" gradientUnits="userSpaceOnUse">
<stop stop-color="white"/>
<stop offset="1" stop-color="white" stop-opacity="0"/>
</linearGradient>
<linearGradient id="paint15_linear_3341_1276" x1="274.799" y1="50.9511" x2="274.799" y2="74.6345" gradientUnits="userSpaceOnUse">
<stop stop-color="white"/>
<stop offset="1" stop-color="white" stop-opacity="0"/>
</linearGradient>
</defs>
</svg>
