<svg width="316" height="316" viewBox="0 0 316 316" fill="none" xmlns="http://www.w3.org/2000/svg">
<path d="M0 262.045C0 258.354 0.574815 254.998 1.72446 251.978C2.92198 248.909 4.59854 246.249 6.7541 243.996C8.90965 241.742 11.4963 239.993 14.5141 238.746C17.5319 237.5 20.861 236.828 24.5015 236.733C28.1899 236.637 32.1178 237.212 36.2852 238.458C36.2852 240.472 36.2852 242.509 36.2852 244.571C36.2852 246.584 36.2852 248.598 36.2852 250.611C33.459 249.269 30.6568 248.502 27.8786 248.31C25.1002 248.118 22.5854 248.502 20.3341 249.461C18.0827 250.419 16.2864 251.954 14.9452 254.063C13.6039 256.124 12.9334 258.785 12.9334 262.045C12.9334 265.305 13.6039 267.989 14.9452 270.099C16.2864 272.16 18.0827 273.67 20.3341 274.629C22.5854 275.588 25.1002 275.972 27.8786 275.78C30.6568 275.588 33.459 274.821 36.2852 273.479C36.2852 275.492 36.2852 277.53 36.2852 279.591C36.2852 281.604 36.2852 283.618 36.2852 285.631C32.1178 286.878 28.1899 287.453 24.5015 287.357C20.861 287.261 17.5319 286.59 14.5141 285.344C11.4963 284.097 8.90965 282.348 6.7541 280.094C4.59854 277.841 2.92198 275.204 1.72446 272.184C0.574815 269.116 0 265.736 0 262.045ZM44.1844 286.494C44.1844 277.817 44.1844 269.068 44.1844 260.247C44.1844 251.426 44.1844 242.677 44.1844 234C46.1484 234 48.1361 234 50.1479 234C52.1598 234 54.1239 234 56.0398 234C56.0398 242.677 56.0398 251.426 56.0398 260.247C56.0398 269.068 56.0398 277.817 56.0398 286.494C54.1239 286.494 52.1598 286.494 50.1479 286.494C48.1361 286.494 46.1484 286.494 44.1844 286.494ZM81.9178 287.645C79.1397 287.645 76.553 287.166 74.1578 286.207C71.763 285.2 69.6793 283.81 67.9066 282.036C66.1345 280.214 64.7452 278.105 63.7392 275.708C62.7815 273.311 62.3022 270.698 62.3022 267.87C62.3022 265.041 62.7815 262.428 63.7392 260.031C64.7452 257.634 66.1345 255.549 67.9066 253.775C69.6793 252.002 71.763 250.635 74.1578 249.676C76.553 248.67 79.1397 248.166 81.9178 248.166C84.7441 248.166 87.3308 248.67 89.6778 249.676C92.073 250.635 94.1567 252.002 95.9289 253.775C97.7016 255.549 99.0668 257.634 100.024 260.031C101.03 262.428 101.533 265.041 101.533 267.87C101.533 270.698 101.03 273.311 100.024 275.708C99.0668 278.105 97.7016 280.214 95.9289 282.036C94.1567 283.81 92.073 285.2 89.6778 286.207C87.3308 287.166 84.7441 287.645 81.9178 287.645ZM81.9178 276.93C84.2653 276.93 86.1334 276.091 87.5222 274.413C88.9593 272.688 89.6778 270.506 89.6778 267.87C89.6778 265.185 88.9593 263.028 87.5222 261.398C86.1334 259.72 84.2653 258.881 81.9178 258.881C79.5708 258.881 77.6785 259.72 76.2415 261.398C74.8527 263.028 74.1578 265.185 74.1578 267.87C74.1578 270.506 74.8527 272.688 76.2415 274.413C77.6785 276.091 79.5708 276.93 81.9178 276.93ZM142.102 249.317C142.102 255.453 142.102 261.661 142.102 267.942C142.102 274.174 142.102 280.358 142.102 286.494C140.186 286.494 138.222 286.494 136.21 286.494C134.198 286.494 132.21 286.494 130.246 286.494C130.246 286.159 130.246 285.847 130.246 285.56C130.246 285.272 130.246 284.96 130.246 284.625C128.953 285.535 127.492 286.231 125.863 286.71C124.283 287.238 122.558 287.501 120.69 287.501C117.96 287.501 115.54 286.878 113.433 285.631C111.373 284.385 109.744 282.587 108.547 280.238C107.397 277.889 106.823 275.109 106.823 271.897C106.823 268.157 106.823 264.394 106.823 260.607C106.823 256.819 106.823 253.056 106.823 249.317C108.786 249.317 110.775 249.317 112.786 249.317C114.798 249.317 116.762 249.317 118.678 249.317C118.678 252.769 118.678 256.268 118.678 259.816C118.678 263.363 118.678 266.863 118.678 270.315C118.678 272.232 119.109 273.79 119.972 274.989C120.882 276.139 122.294 276.715 124.211 276.715C126.127 276.715 127.611 276.163 128.666 275.061C129.719 273.958 130.246 272.376 130.246 270.315C130.246 266.863 130.246 263.363 130.246 259.816C130.246 256.268 130.246 252.769 130.246 249.317C132.21 249.317 134.198 249.317 136.21 249.317C138.222 249.317 140.186 249.317 142.102 249.317ZM174.778 286.494C174.778 286.111 174.778 285.751 174.778 285.416C174.778 285.032 174.778 284.672 174.778 284.337C173.581 285.344 172.216 286.111 170.683 286.638C169.198 287.213 167.593 287.501 165.869 287.501C163.426 287.501 161.126 287.022 158.971 286.063C156.815 285.104 154.899 283.762 153.223 282.036C151.594 280.262 150.301 278.177 149.343 275.78C148.433 273.383 147.977 270.746 147.977 267.87C147.977 264.945 148.433 262.285 149.343 259.888C150.301 257.491 151.594 255.429 153.223 253.703C154.899 251.978 156.815 250.659 158.971 249.748C161.126 248.789 163.401 248.31 165.797 248.31C167.521 248.31 169.15 248.598 170.683 249.173C172.216 249.7 173.581 250.443 174.778 251.402C174.778 248.526 174.778 245.625 174.778 242.701C174.778 239.777 174.778 236.876 174.778 234C176.742 234 178.73 234 180.742 234C182.754 234 184.718 234 186.634 234C186.634 242.677 186.634 251.426 186.634 260.247C186.634 269.068 186.634 277.817 186.634 286.494C184.718 286.494 182.754 286.494 180.742 286.494C178.73 286.494 176.742 286.494 174.778 286.494ZM167.449 277.002C169.749 277.002 171.593 276.163 172.982 274.485C174.371 272.807 175.066 270.602 175.066 267.87C175.066 265.137 174.371 262.956 172.982 261.326C171.593 259.648 169.749 258.809 167.449 258.809C165.102 258.809 163.234 259.624 161.845 261.254C160.504 262.884 159.833 265.089 159.833 267.87C159.833 270.65 160.504 272.879 161.845 274.557C163.234 276.187 165.102 277.002 167.449 277.002ZM223.278 274.989C223.278 277.961 222.44 280.406 220.763 282.324C219.135 284.193 216.931 285.56 214.153 286.422C211.375 287.285 208.261 287.645 204.812 287.501C201.411 287.405 197.939 286.854 194.394 285.847C194.394 284.025 194.394 282.156 194.394 280.238C194.394 278.321 194.394 276.451 194.394 274.629C196.406 275.54 198.417 276.259 200.429 276.787C202.441 277.266 204.262 277.554 205.89 277.649C207.519 277.745 208.836 277.625 209.842 277.29C210.848 276.906 211.351 276.283 211.351 275.42C211.351 274.749 210.92 274.222 210.057 273.838C209.243 273.455 208.165 273.119 206.824 272.831C205.483 272.496 204.046 272.112 202.513 271.681C201.028 271.202 199.615 270.554 198.274 269.739C196.933 268.876 195.831 267.75 194.969 266.36C194.154 264.921 193.747 263.076 193.747 260.822C193.747 258.138 194.513 255.861 196.046 253.991C197.627 252.073 199.735 250.635 202.369 249.676C205.004 248.67 207.95 248.166 211.207 248.166C214.465 248.166 217.793 248.718 221.195 249.82C221.195 251.642 221.195 253.512 221.195 255.429C221.195 257.347 221.195 259.216 221.195 261.038C218.512 259.744 215.997 258.881 213.65 258.449C211.303 258.018 209.411 257.97 207.974 258.306C206.537 258.593 205.818 259.24 205.818 260.247C205.818 260.918 206.225 261.446 207.04 261.829C207.902 262.165 208.98 262.476 210.273 262.764C211.614 263.052 213.027 263.435 214.512 263.915C216.045 264.394 217.458 265.065 218.752 265.928C220.093 266.743 221.17 267.894 221.985 269.38C222.847 270.818 223.278 272.688 223.278 274.989ZM269.451 267.942C269.451 270.962 268.924 273.694 267.87 276.139C266.864 278.536 265.427 280.598 263.559 282.324C261.739 284.049 259.583 285.368 257.092 286.279C254.649 287.189 251.991 287.645 249.117 287.645C246.195 287.645 243.512 287.189 241.069 286.279C238.626 285.368 236.495 284.074 234.674 282.396C232.902 280.67 231.513 278.608 230.507 276.211C229.501 273.814 228.998 271.106 228.998 268.085C228.998 263.052 228.998 257.97 228.998 252.84C228.998 247.711 228.998 242.629 228.998 237.596C231.106 237.596 233.214 237.596 235.321 237.596C237.429 237.596 239.513 237.596 241.572 237.596C241.572 242.533 241.572 247.495 241.572 252.481C241.572 257.467 241.572 262.428 241.572 267.366C241.572 269.955 242.291 272.04 243.728 273.622C245.165 275.204 247.009 275.996 249.26 275.996C251.512 275.996 253.332 275.204 254.721 273.622C256.158 272.04 256.877 269.955 256.877 267.366C256.877 262.428 256.877 257.467 256.877 252.481C256.877 247.495 256.877 242.533 256.877 237.596C258.985 237.596 261.092 237.596 263.2 237.596C265.307 237.596 267.391 237.596 269.451 237.596C269.451 242.581 269.451 247.639 269.451 252.769C269.451 257.898 269.451 262.956 269.451 267.942ZM289.199 298C287.283 298 285.319 298 283.307 298C281.296 298 279.308 298 277.344 298C277.344 289.994 277.344 281.892 277.344 273.694C277.344 265.449 277.344 257.323 277.344 249.317C279.308 249.317 281.296 249.317 283.307 249.317C285.319 249.317 287.283 249.317 289.199 249.317C289.199 249.652 289.199 249.988 289.199 250.324C289.199 250.659 289.199 251.019 289.199 251.402C290.397 250.443 291.762 249.7 293.295 249.173C294.828 248.598 296.456 248.31 298.181 248.31C300.576 248.31 302.851 248.789 305.007 249.748C307.162 250.659 309.054 251.978 310.683 253.703C312.36 255.429 313.653 257.491 314.563 259.888C315.521 262.285 316 264.945 316 267.87C316 270.746 315.521 273.383 314.563 275.78C313.653 278.177 312.36 280.262 310.683 282.036C309.054 283.762 307.162 285.104 305.007 286.063C302.851 287.022 300.552 287.501 298.109 287.501C296.384 287.501 294.756 287.213 293.223 286.638C291.738 286.111 290.397 285.344 289.199 284.337C289.199 286.59 289.199 288.867 289.199 291.169C289.199 293.47 289.199 295.747 289.199 298ZM296.528 277.002C298.876 277.002 300.72 276.187 302.061 274.557C303.45 272.879 304.144 270.65 304.144 267.87C304.144 265.089 303.45 262.884 302.061 261.254C300.72 259.624 298.876 258.809 296.528 258.809C294.229 258.809 292.385 259.648 290.996 261.326C289.607 262.956 288.912 265.137 288.912 267.87C288.912 270.602 289.607 272.807 290.996 274.485C292.385 276.163 294.229 277.002 296.528 277.002Z" fill="white"/>
<path d="M187.111 54.0703C171.201 55.3937 161.91 68.8437 157.971 76.223L166.067 80.5405C170.466 72.7395 183.257 54.4472 202.166 64.4205C219.572 73.6019 213.841 92.465 209.574 101.838L217.298 105.697C219.511 100.578 221.816 93.3112 222.334 84.4498C223.392 66.3826 209.147 52.237 187.111 54.0703Z" fill="#00FF08"/>
<path d="M202.165 64.4195C183.258 54.4462 170.467 72.7385 166.066 80.5395L173.817 84.6739C173.817 84.6739 182.49 61.0512 199.062 69.7241C215.633 78.397 202.056 98.0819 202.056 98.0819L209.572 101.837C213.841 92.464 219.571 73.5995 202.165 64.4195Z" fill="#0066FF"/>
<path d="M231.531 72.1219C225.929 47.1595 200.912 34.2044 175.793 45.6083C160.891 52.3719 153.842 63.9656 150.574 72.2778L157.971 76.2224C161.909 68.8445 171.201 55.3931 187.111 54.0696C209.147 52.2363 223.392 66.3833 222.334 84.4491C221.815 93.3105 219.511 100.577 217.298 105.696L227.034 110.56C230.661 102.499 235.151 88.2581 231.531 72.1219Z" fill="#FFEA00"/>
<path d="M239.962 68.7387C230.966 35.8073 201.319 26.6408 173.464 36.2303C145.611 45.8199 146.316 70.008 146.316 70.008L150.574 72.2779C153.842 63.9657 160.89 52.372 175.793 45.6083C200.914 34.2058 225.93 47.1596 231.53 72.1219C235.151 88.2582 230.661 102.499 227.033 110.559L232.486 113.283C232.486 113.286 248.957 101.67 239.962 68.7387Z" fill="#841819"/>
<path d="M245.744 68.9654C243.08 69.2664 242.5 79.5787 242.5 79.5787C242.5 79.5787 234.124 79.2967 234.045 81.6941C233.967 84.0914 242.5 85.3634 242.5 85.3634C242.5 85.3634 243.769 94.3874 245.744 94.3874C247.718 94.3874 248.282 85.3634 248.282 85.3634C248.282 85.3634 254.84 83.8447 255.051 81.6764C255.263 79.5082 247.295 78.8736 247.295 78.8736C247.295 78.8736 247.929 68.7173 245.744 68.9654Z" fill="#FFED83"/>
<path d="M154.355 31.8872C151.692 32.1883 151.111 42.5006 151.111 42.5006C151.111 42.5006 142.735 42.2185 142.657 44.6159C142.578 47.0133 151.111 48.2852 151.111 48.2852C151.111 48.2852 152.381 57.3093 154.355 57.3093C156.329 57.3093 156.893 48.2852 156.893 48.2852C156.893 48.2852 163.451 46.7665 163.662 44.5983C163.874 42.43 155.906 41.7954 155.906 41.7954C155.906 41.7954 156.541 31.6404 154.355 31.8872Z" fill="#FFED83"/>
<path d="M202.31 41.422C204.973 41.121 205.553 30.8087 205.553 30.8087C205.553 30.8087 213.929 31.0908 214.008 28.6934C214.086 26.296 205.553 25.0241 205.553 25.0241C205.553 25.0241 204.284 16 202.31 16C200.335 16 199.771 25.0241 199.771 25.0241C199.771 25.0241 193.214 26.5428 193.002 28.711C192.791 30.8792 200.758 31.5138 200.758 31.5138C200.758 31.5138 200.124 41.6688 202.31 41.422Z" fill="#FFED83"/>
<g filter="url(#filter0_ii_890_527)">
<path d="M99.6325 164.638C99.6325 164.638 105.555 191.999 136.865 190.023C168.175 188.049 170.149 168.022 170.149 168.022C170.149 168.022 184.817 177.331 202.869 171.407C220.921 165.484 229.948 151.662 229.948 151.662C229.948 151.662 246.167 138.87 239.539 117.482C232.911 96.0955 208.723 84.3893 187.11 91.0174C187.11 91.0174 168.599 55.0539 127.841 66.7601C87.0829 78.4663 90.3264 110.206 90.3264 110.206C90.3264 110.206 71.0375 112.912 63.2324 130.768C67.6923 145.678 77.6004 162.358 99.6325 164.638ZM194.618 100.608C196.661 96.4467 212.282 97.4352 220.215 103.358C228.147 109.281 233.226 117.321 231.005 120.705C228.783 124.09 218.946 121.023 209.638 116.263C200.331 111.504 191.762 106.427 194.618 100.608ZM132.617 75.4344C149.841 70.5691 170.29 78.0785 169.656 82.2035C169.021 86.3284 148.607 86.2226 132.617 91.0879C116.627 95.9531 104.698 106.979 103.652 99.1262C103.017 94.368 115.393 80.2996 132.617 75.4344Z" fill="#E6EDF4"/>
<path d="M202.869 171.407C184.817 177.33 170.149 168.023 170.149 168.023C170.149 168.023 168.175 188.049 136.865 190.023C105.556 191.998 99.6328 164.638 99.6328 164.638C77.6007 162.359 67.6925 145.679 63.2313 130.77C61.9377 133.73 60.9479 137.092 60.4258 140.945C56.7592 168.024 77.6319 179.718 90.0433 181.698C90.0433 181.698 101.608 217.102 134.893 215.974C168.177 214.846 172.348 190.126 172.348 190.126C172.348 190.126 195.22 196.935 212.795 185.511C230.372 174.087 229.948 151.663 229.948 151.663C229.948 151.663 220.922 165.484 202.869 171.407Z" fill="#C1CBD3"/>
<path d="M132.617 91.0905C148.607 86.2253 169.022 86.331 169.656 82.2061C170.291 78.0812 149.841 70.5704 132.617 75.437C115.394 80.3023 103.018 94.3707 103.652 99.1302C104.699 106.981 116.628 95.9558 132.617 91.0905Z" fill="white"/>
<path d="M209.639 116.266C218.948 121.025 228.784 124.092 231.005 120.708C233.227 117.323 228.15 109.284 220.216 103.361C212.283 97.4377 196.661 96.4492 194.619 100.611C191.763 106.429 200.332 111.506 209.639 116.266Z" fill="white"/>
</g>
<path d="M151.534 148.331C141.327 149.551 134.309 158.292 130.539 164.516C135.991 167.51 143.169 168.891 152.098 167.036C161.259 165.134 167.811 161.564 172.347 157.32C168.09 152.641 160.982 147.2 151.534 148.331Z" fill="#E82D2F"/>
<path d="M178.542 129.38C172.83 122.082 166.904 129.697 163.098 133.611C159.291 137.524 154.108 140.475 149.983 140.944C135.684 142.573 130.309 131.388 121 137.207C114.459 141.295 117.648 157.437 130.54 164.514C134.308 158.29 141.326 149.549 151.534 148.329C160.984 147.198 168.091 152.639 172.347 157.319C182.689 147.647 182.512 134.453 178.542 129.38Z" fill="#191919"/>
<path d="M125.253 120.999C125.213 120.999 125.173 120.996 125.133 120.992C124.54 120.926 124.114 120.393 124.181 119.8C124.459 117.312 126.429 112.605 131.889 112.605C137.418 112.605 139.014 117.37 139.086 119.89C139.102 120.485 138.634 120.981 138.039 120.999C137.449 121.018 136.947 120.547 136.93 119.952C136.911 119.425 136.61 114.763 131.889 114.763C126.97 114.763 126.348 119.825 126.323 120.04C126.262 120.592 125.796 120.999 125.253 120.999Z" fill="#191919"/>
<path d="M157.171 118.337C157.132 118.348 157.092 118.356 157.053 118.363C156.464 118.455 155.913 118.052 155.82 117.465C155.433 114.992 156.092 109.933 161.36 108.493C166.691 107.035 169.487 111.21 170.221 113.623C170.394 114.192 170.073 114.794 169.504 114.968C168.94 115.141 168.331 114.82 168.158 114.25C168.001 113.746 166.482 109.329 161.929 110.574C157.184 111.872 157.918 116.919 157.952 117.133C158.036 117.678 157.693 118.194 157.171 118.337Z" fill="#191919"/>
<path d="M103.63 137.334C108.141 137.334 111.797 133.678 111.797 129.167C111.797 124.657 108.141 121 103.63 121C99.1194 121 95.4629 124.657 95.4629 129.167C95.4629 133.678 99.1194 137.334 103.63 137.334Z" fill="#F5A8A8"/>
<path d="M195.278 118.374C195.278 113.863 191.62 110.207 187.11 110.207C182.599 110.207 178.943 113.864 178.943 118.374C178.943 122.886 182.6 126.541 187.11 126.541C191.622 126.543 195.278 122.886 195.278 118.374Z" fill="#F5A8A8"/>
<defs>
<filter id="filter0_ii_890_527" x="60" y="64.417" width="181.131" height="167.584" filterUnits="userSpaceOnUse" color-interpolation-filters="sRGB">
<feFlood flood-opacity="0" result="BackgroundImageFix"/>
<feBlend mode="normal" in="SourceGraphic" in2="BackgroundImageFix" result="shape"/>
<feColorMatrix in="SourceAlpha" type="matrix" values="0 0 0 0 0 0 0 0 0 0 0 0 0 0 0 0 0 0 127 0" result="hardAlpha"/>
<feOffset dy="16"/>
<feGaussianBlur stdDeviation="16"/>
<feComposite in2="hardAlpha" operator="arithmetic" k2="-1" k3="1"/>
<feColorMatrix type="matrix" values="0 0 0 0 1 0 0 0 0 1 0 0 0 0 1 0 0 0 0.16 0"/>
<feBlend mode="normal" in2="shape" result="effect1_innerShadow_890_527"/>
<feColorMatrix in="SourceAlpha" type="matrix" values="0 0 0 0 0 0 0 0 0 0 0 0 0 0 0 0 0 0 127 0" result="hardAlpha"/>
<feOffset dy="4"/>
<feComposite in2="hardAlpha" operator="arithmetic" k2="-1" k3="1"/>
<feColorMatrix type="matrix" values="0 0 0 0 1 0 0 0 0 1 0 0 0 0 1 0 0 0 0.1 0"/>
<feBlend mode="normal" in2="effect1_innerShadow_890_527" result="effect2_innerShadow_890_527"/>
</filter>
</defs>
</svg>
