<svg width="40" height="21" viewBox="0 0 40 21" fill="none" xmlns="http://www.w3.org/2000/svg">
<path d="M20.0007 5.55768V5.05138C20.0007 4.21251 19.3207 3.53248 18.4818 3.53248C17.6429 3.53248 16.9629 2.85244 16.9629 2.01358V1.00098" fill="#E82D2F"/>
<path d="M20.0007 5.55768V5.05138C20.0007 4.21251 19.3207 3.53248 18.4818 3.53248C17.6429 3.53248 16.9629 2.85244 16.9629 2.01358V1.00098" stroke="#E82D2F" stroke-width="1.5" stroke-linecap="round"/>
<path fill-rule="evenodd" clip-rule="evenodd" d="M14.9377 5.30469C11.722 5.30469 9.11523 7.91149 9.11523 11.1271V15.1775C9.11523 18.3932 11.722 21 14.9377 21H25.0637C28.2793 21 30.8861 18.3932 30.8861 15.1775V11.1271C30.8861 7.91149 28.2793 5.30469 25.0637 5.30469H14.9377ZM27.0889 11.6332C27.0889 12.1924 26.6355 12.6458 26.0763 12.6458C25.517 12.6458 25.0637 12.1924 25.0637 11.6332C25.0637 11.0739 25.517 10.6206 26.0763 10.6206C26.6355 10.6206 27.0889 11.0739 27.0889 11.6332ZM24.0512 15.6828C24.6104 15.6828 25.0638 15.2295 25.0638 14.6702C25.0638 14.111 24.6104 13.6576 24.0512 13.6576C23.4919 13.6576 23.0386 14.111 23.0386 14.6702C23.0386 15.2295 23.4919 15.6828 24.0512 15.6828ZM15.9505 10.3774C16.3648 10.3774 16.7005 10.7132 16.7005 11.1274V12.4014H17.9756C18.3898 12.4014 18.7256 12.7372 18.7256 13.1514C18.7256 13.5656 18.3898 13.9014 17.9756 13.9014H16.7005V15.1778C16.7005 15.592 16.3648 15.9278 15.9505 15.9278C15.5363 15.9278 15.2005 15.592 15.2005 15.1778V13.9014H13.9252C13.511 13.9014 13.1752 13.5656 13.1752 13.1514C13.1752 12.7372 13.511 12.4014 13.9252 12.4014H15.2005V11.1274C15.2005 10.7132 15.5363 10.3774 15.9505 10.3774Z" fill="#E82D2F"/>
</svg>
