<svg width="40" height="22" viewBox="0 0 40 22" fill="none" xmlns="http://www.w3.org/2000/svg">
<path d="M18.8889 4.22172C18.8889 3.66944 18.4398 3.21589 17.891 3.2779C16.486 3.43662 15.1341 3.92891 13.9505 4.71976C12.4887 5.69648 11.3494 7.08474 10.6766 8.70897C10.0039 10.3332 9.82782 12.1204 10.1708 13.8447C10.5138 15.569 11.3604 17.1528 12.6035 18.396C13.8466 19.6391 15.4305 20.4857 17.1548 20.8287C18.879 21.1716 20.6663 20.9956 22.2905 20.3228C23.9147 19.6501 25.303 18.5107 26.2797 17.049C27.0706 15.8654 27.5629 14.5134 27.7216 13.1085C27.7836 12.5597 27.33 12.1106 26.7778 12.1106H20.3889C19.5605 12.1106 18.8889 11.439 18.8889 10.6106V4.22172Z" fill="white" stroke="white" stroke-width="1.5"/>
<path d="M22.2227 1.99998C22.2227 1.4477 22.6722 0.993367 23.22 1.06418C23.8986 1.15192 24.5642 1.32904 25.1991 1.59203C26.1428 1.9829 27.0002 2.55581 27.7224 3.27804C28.4447 4.00027 29.0176 4.85769 29.4084 5.80133C29.6714 6.43625 29.8485 7.10184 29.9363 7.7805C30.0071 8.32823 29.5528 8.77776 29.0005 8.77776H22.4227C22.3123 8.77776 22.2227 8.68821 22.2227 8.57776V1.99998Z" fill="white" stroke="white" stroke-width="1.5"/>
</svg>
