<svg width="40" height="22" viewBox="0 0 40 22" fill="none" xmlns="http://www.w3.org/2000/svg">
<path fill-rule="evenodd" clip-rule="evenodd" d="M17.4162 0.818449C18.2435 0.609088 19.1093 0.498047 20 0.498047C20.8907 0.498047 21.7566 0.609104 22.584 0.818493C23.2593 0.989373 23.6079 1.57253 23.7201 2.0573C23.853 2.63153 24.2133 3.14882 24.7628 3.46602C25.2679 3.75766 25.839 3.82618 26.3657 3.70199C26.8498 3.58785 27.5257 3.64223 27.9781 4.17014C28.8191 5.15165 29.4825 6.29078 29.9179 7.53769C30.1777 8.28212 29.7751 8.95245 29.3499 9.30273C28.8592 9.70706 28.5483 10.3171 28.5483 11.0003C28.5483 11.6836 28.8592 12.2936 29.3499 12.6979C29.7751 13.0482 30.1777 13.7185 29.9179 14.463C29.4826 15.7097 28.8193 16.8488 27.9784 17.8302C27.526 18.3582 26.85 18.4125 26.3658 18.2984C25.8391 18.1741 25.2679 18.2426 24.7627 18.5343C24.2132 18.8515 23.8528 19.3689 23.72 19.9432C23.6079 20.4281 23.2592 21.0113 22.5839 21.1822C21.7565 21.3916 20.8907 21.5026 20 21.5026C19.1093 21.5026 18.2436 21.3916 17.4162 21.1822C16.7409 21.0113 16.3922 20.4281 16.2801 19.9432C16.1472 19.3689 15.7869 18.8515 15.2374 18.5343C14.7322 18.2426 14.161 18.1741 13.6342 18.2984C13.1501 18.4126 12.474 18.3582 12.0216 17.8302C11.1807 16.8488 10.5174 15.7098 10.0821 14.463C9.82225 13.7186 10.2249 13.0482 10.6501 12.6979C11.1408 12.2936 11.4517 11.6836 11.4517 11.0003C11.4517 10.3171 11.1408 9.70705 10.6501 9.30272C10.2249 8.95244 9.82226 8.2821 10.0821 7.53768C10.5174 6.29076 11.1809 5.15162 12.0219 4.1701C12.4743 3.64219 13.1502 3.58782 13.6343 3.70198C14.1611 3.82619 14.7322 3.75768 15.2374 3.46602C15.7868 3.14881 16.1472 2.63152 16.28 2.05728C16.3922 1.5725 16.7409 0.989322 17.4162 0.818449ZM19.9995 13.9312C18.3808 13.9312 17.0686 12.619 17.0686 11.0003C17.0686 9.38166 18.3808 8.06946 19.9995 8.06946C21.6182 8.06946 22.9304 9.38166 22.9304 11.0003C22.9304 12.619 21.6182 13.9312 19.9995 13.9312Z" fill="white"/>
</svg>
