<svg width="247" height="270" viewBox="0 0 247 270" fill="none" xmlns="http://www.w3.org/2000/svg">
    <g clip-path="url(#clip0_1715_3561)">
        <path d="M137.364 54.9238L116.93 57.0512V76.198L139.357 73.7882L137.345 54.9427L137.364 54.9238Z" fill="white"
            stroke="#262626" stroke-width="2" stroke-linecap="round" stroke-linejoin="round" />
        <path
            d="M139.355 29.3449C141.273 27.6317 143.886 27.3116 145.803 28.4224C148.322 29.9474 148.529 33.468 147.401 35.6895C146.085 38.4194 143.078 39.0219 142.758 39.0219"
            fill="white" />
        <path
            d="M139.355 29.3449C141.273 27.6317 143.886 27.3116 145.803 28.4224C148.322 29.9474 148.529 33.468 147.401 35.6895C146.085 38.4194 143.078 39.0219 142.758 39.0219"
            stroke="#262626" stroke-width="2" stroke-linecap="round" stroke-linejoin="round" />
        <path
            d="M138.457 29.001C134.434 19.2111 123.155 14.6926 113.511 18.8157C103.755 22.8446 99.2051 34.1407 103.247 43.8176L106.161 50.8776C110.184 60.6675 121.463 65.186 131.126 61.0629C140.863 56.9398 145.413 45.7379 141.39 36.061L138.476 29.001H138.457Z"
            fill="white" stroke="#262626" stroke-width="2" stroke-linecap="round" stroke-linejoin="round" />
        <path
            d="M118.757 25.4873L119.002 33.3558C118.898 33.6032 118.379 34.8151 117.019 35.4128C115.524 36.0779 114.158 35.5215 113.943 35.4227C112.935 33.6723 111.931 31.9021 110.922 30.1517C110.997 31.9341 110.95 34.2302 110.46 36.8456C109.994 39.2827 107.365 41.2606 106.69 42.8311C104.573 44.0396 103.872 44.5847 101.755 45.7932C100.085 44.1804 98.9373 43.2401 97.2647 41.6346C97.0051 41.3672 93.0793 37.249 94.3841 31.855C95.2837 28.1446 98.0775 26.2141 98.7843 25.7446C97.2622 25.0413 96.2847 23.7361 96.421 22.6504C96.5998 21.2101 98.8006 19.7026 101.553 20.439C101.726 15.9954 104.143 12.2071 107.725 10.7917C110.245 9.78632 112.625 10.2718 113.683 10.5745C114.341 9.79357 118.826 4.66042 125.823 4.74718C132.374 4.83524 138.446 9.45627 140.765 16.3632C141.314 21.4095 141.159 23.9602 141.685 29.0097C140.579 29.4014 139.146 30.1012 138.042 30.4981C135.76 28.5212 134.463 28.7258 132.194 26.7498C131.852 27.2569 129.93 30.0417 126.279 30.6361C123.852 31.043 121.932 30.2495 121.174 29.8968L118.763 25.4728L118.769 25.4883L118.759 25.4925L118.757 25.4873Z"
            fill="#080808" />
        <path
            d="M119.872 45.2643C121.075 47.693 120.192 42.365 121.583 41.6496C122.993 41.0471 126.019 45.3773 124.91 42.9675C123.801 40.5576 121.808 39.1456 120.38 39.7481C118.951 40.3506 118.744 42.8733 119.872 45.2832V45.2643Z"
            fill="#262626" />
        <path
            d="M118.993 37.4001C117.79 38.1155 116.699 39.1133 116.192 40.5253C115.985 41.1278 115.308 41.3349 114.782 41.1278C112.771 40.0358 115.985 35.7057 117.301 34.7832C119.125 33.3523 121.023 36.2705 119.012 37.4001H118.993Z"
            fill="#262626" />
        <path
            d="M133.519 35.6652C134.929 35.0628 137.448 39.4871 136.527 37.0772C135.606 34.6674 133.82 33.1613 132.391 33.6508C130.962 34.1403 130.567 36.5689 131.489 38.9976C132.372 41.4074 132.09 36.1924 133.5 35.6652H133.519Z"
            fill="#262626" />
        <path
            d="M129.688 40.2969C131.342 42.0289 132.882 43.7798 134.537 45.4931C133.409 45.8319 132.281 46.1896 131.059 46.5285"
            fill="white" />
        <path
            d="M133.905 45.2839C134.3 45.6792 134.112 46.3758 133.586 46.4888L129.544 47.6937C128.623 48.0137 128.228 46.6017 129.149 46.2817L133.191 45.0768L132.871 46.2817L127.532 40.0312C127.138 39.6358 127.739 39.1087 128.04 39.4287L133.886 45.2839H133.905Z"
            fill="#262626" />
        <path
            d="M135.843 49.0879L127.195 52.1002C127.195 52.1002 132.534 55.3384 134.452 53.6251C136.068 52.2131 135.862 49.0879 135.862 49.0879H135.843Z"
            stroke="#262626" stroke-width="2" stroke-linecap="round" stroke-linejoin="round" />
        <path
            d="M128.264 29.4911C129.674 28.8886 135.426 28.3991 134.919 30.809C134.712 31.3173 134.205 31.6373 133.81 31.5244C132.287 31.3173 130.896 31.6185 129.674 32.3339C127.475 33.5577 126.065 30.2253 128.264 29.5287V29.4911Z"
            fill="#262626" />
        <path
            d="M111.21 45.4199C109.048 45.6082 107.243 47.0014 106.792 48.9029C106.266 51.3503 108.277 53.5907 110.345 54.2873C112.789 55.078 114.932 53.5907 115.195 53.4213"
            fill="white" />
        <path
            d="M106.232 43.502C103.713 43.7279 101.608 45.3282 101.1 47.5497C100.499 50.3925 102.811 52.9906 105.217 53.8002C108.056 54.7227 110.556 52.9906 110.857 52.8024"
            fill="white" />
        <path
            d="M106.232 43.502C103.713 43.7279 101.608 45.3282 101.1 47.5497C100.499 50.3925 102.811 52.9906 105.217 53.8002C108.056 54.7227 110.556 52.9906 110.857 52.8024"
            stroke="#262626" stroke-width="2" stroke-linecap="round" stroke-linejoin="round" />
        <path
            d="M166.948 268.287L110.684 268.664C111.755 254.28 123.862 242.928 138.6 242.815C153.432 242.72 165.576 253.828 166.948 268.287Z"
            fill="#08F8C3" stroke="#262626" stroke-width="2" stroke-linecap="round" stroke-linejoin="round" />
        <path
            d="M157.908 147.608C157.344 137.705 149.092 129.948 139.185 129.986C129.278 129.948 121.119 137.724 120.593 147.645C118.75 181.948 116.795 216.212 114.953 250.402L164.112 250.176L157.908 147.608Z"
            fill="#FFCC02" stroke="#262626" stroke-width="2" stroke-linecap="round" stroke-linejoin="round" />
        <path
            d="M138.819 268.287L82.5547 268.664C83.6262 254.28 95.7326 242.928 110.471 242.815C125.303 242.72 137.447 253.828 138.819 268.287Z"
            fill="#08F8C3" stroke="#262626" stroke-width="2" stroke-linecap="round" stroke-linejoin="round" />
        <path
            d="M129.76 147.608C129.196 137.705 120.943 129.948 111.036 129.986C101.129 129.948 92.9707 137.724 92.4443 147.645C90.602 181.948 88.647 216.212 86.8047 250.402L135.963 250.176L129.76 147.608Z"
            fill="#FFCC02" stroke="#262626" stroke-width="2" stroke-linecap="round" stroke-linejoin="round" />
        <path
            d="M143.74 70.5367C143.665 70.1226 143.158 69.6895 142.631 69.6895H109.47C108.888 69.6895 108.455 69.9908 108.361 70.5367L106.124 81.8139C106.03 82.341 106.557 82.9999 107.233 82.9999H144.868C145.545 82.9999 146.147 82.4728 145.978 81.8139L143.74 70.5367Z"
            fill="#F9E07A" stroke="#262626" stroke-width="2" stroke-linecap="round" stroke-linejoin="round" />
        <path
            d="M169.024 152.525L157.839 80.5312H94.9194C90.2197 104.347 85.52 128.144 80.8203 151.96C110.203 152.148 139.604 152.336 168.986 152.525H169.005H169.024Z"
            fill="#FFE067" />
        <path
            d="M169.049 152.525L157.657 80.5312H93.5536C88.76 104.347 83.9851 128.144 79.1914 151.96C109.119 152.148 139.084 152.336 169.031 152.525H169.049Z"
            stroke="#262626" stroke-width="2" stroke-linecap="round" stroke-linejoin="round" />
        <path
            d="M204.989 75.2384C210.599 71.0317 216.355 66.8116 222.403 62.6182C226.683 59.6362 230.87 56.8538 234.991 54.1381C235.709 53.7121 235.908 52.6604 235.416 52.0081C234.991 51.2892 233.941 51.0895 233.289 51.5821L234.725 50.5969C235.576 50.0378 235.868 48.8929 235.23 48.0942C234.672 47.2422 233.462 47.0159 232.665 47.5218C233.223 47.0958 233.914 46.6698 234.499 46.2438C235.416 45.6181 235.695 44.3267 235.071 43.4082C234.446 42.4896 233.157 42.1834 232.239 42.8357C231.814 43.102 231.322 43.4614 230.883 43.741C231.654 43.2618 231.947 42.1169 231.309 41.3181C230.804 40.5194 229.674 40.2398 228.81 40.8123L220.914 46.1639L221.392 43.528C221.552 42.3831 220.834 41.398 219.757 41.1717C218.694 40.9587 217.631 41.7308 217.418 42.7958L216.275 49.2124C209.296 52.6338 202.384 55.9885 195.352 59.33L155.979 78.5L170.136 100.958L204.936 75.2384H204.989Z"
            fill="white" stroke="#262626" stroke-width="2" stroke-miterlimit="10" stroke-linecap="round" />
        <path d="M230.891 43.7539C229.123 44.9653 227.342 46.1635 225.627 47.4548L230.891 43.7539Z" fill="white" />
        <path d="M230.891 43.7539C229.123 44.9653 227.342 46.1635 225.627 47.4548" stroke="#262626" stroke-width="2"
            stroke-linecap="round" stroke-linejoin="round" />
        <path d="M232.698 47.5098C231.421 48.3885 230.225 49.2937 228.922 50.1457L232.698 47.5098Z" fill="white" />
        <path d="M232.698 47.5098C231.421 48.3885 230.225 49.2937 228.922 50.1457" stroke="#262626" stroke-width="2"
            stroke-linecap="round" stroke-linejoin="round" />
        <path d="M233.312 51.5918C232.594 52.0178 232.009 52.4437 231.318 52.8697" stroke="#262626" stroke-width="2"
            stroke-linecap="round" stroke-linejoin="round" />
        <path
            d="M149.965 101.688C146.482 97.7474 144.554 92.9948 144.98 89.5602C146.761 77.6588 154.936 72.9062 179.993 62.7754C186.254 75.0096 188.327 78.7904 194.575 91.0645C173.094 103.472 157.648 110.395 149.965 101.688Z"
            fill="#FFCC02" />
        <path
            d="M149.965 101.688C146.482 97.7474 144.554 92.9948 144.98 89.5602C146.761 77.6588 154.936 72.9062 179.993 62.7754C186.254 75.0096 188.327 78.7904 194.575 91.0645C173.094 103.472 157.648 110.395 149.965 101.688Z"
            stroke="#262626" stroke-width="2" stroke-linecap="round" stroke-linejoin="round" />
        <path
            d="M42.7476 75.097L77.8936 100.365L91.7446 77.7329L52.1456 59.082C45.0473 55.8338 38.1084 52.5855 31.1032 49.2441L29.8935 42.8408C29.6676 41.7625 28.6042 41.017 27.5274 41.2433C26.464 41.4563 25.7595 42.4813 25.919 43.5996L26.464 46.2221L18.4884 40.977C17.6244 40.4312 16.4812 40.7241 15.9894 41.5095C15.3646 42.295 15.6703 43.4531 16.4413 43.9324C16.0292 43.6528 15.5241 43.3067 15.0855 43.0271C14.155 42.3881 12.8922 42.6943 12.2541 43.6262C11.6161 44.5581 11.9085 45.8361 12.8523 46.4618C13.4239 46.8745 14.1284 47.2872 14.7133 47.7132C13.9157 47.2073 12.7193 47.4469 12.1478 48.3122C11.5363 49.111 11.8154 50.2425 12.6795 50.815L14.1284 51.7868C13.477 51.2942 12.4269 51.5205 12.0015 52.2394C11.5097 52.8917 11.749 53.9567 12.4535 54.3694C16.6141 57.0186 20.8412 59.7344 25.1613 62.6764C31.2627 66.79 37.0849 70.9169 42.7609 75.0571L42.7476 75.0704V75.097Z"
            fill="white" stroke="#262626" stroke-width="2" stroke-miterlimit="10" stroke-linecap="round" />
        <path d="M21.7585 47.554C20.0304 46.276 18.2492 45.1044 16.4414 43.9062L21.7585 47.554Z" fill="white" />
        <path d="M21.7585 47.554C20.0304 46.276 18.2492 45.1044 16.4414 43.9062" stroke="#262626" stroke-width="2"
            stroke-linecap="round" stroke-linejoin="round" />
        <path d="M18.5494 50.2991C17.2334 49.4604 16.0238 48.5684 14.7344 47.7031L18.5494 50.2991Z" fill="white" />
        <path d="M18.5494 50.2991C17.2334 49.4604 16.0238 48.5684 14.7344 47.7031" stroke="#262626" stroke-width="2"
            stroke-linecap="round" stroke-linejoin="round" />
        <path d="M16.1423 52.9993C15.4245 52.6 14.853 52.1873 14.1484 51.748L16.1423 52.9993Z" fill="white" />
        <path d="M16.1423 52.9993C15.4245 52.6 14.853 52.1873 14.1484 51.748" stroke="#262626" stroke-width="2"
            stroke-linecap="round" stroke-linejoin="round" />
        <path
            d="M54.627 89.397C60.7417 77.043 62.7489 73.2489 68.8502 60.9082C94.0134 70.6929 102.282 75.3789 104.209 87.2404C104.661 90.675 102.8 95.4675 99.3835 99.4213C91.8067 108.208 76.2809 101.498 54.627 89.3704V89.397Z"
            fill="#FFCC02" />
        <path
            d="M54.627 89.397C60.7417 77.043 62.7489 73.2489 68.8502 60.9082C94.0134 70.6929 102.282 75.3789 104.209 87.2404C104.661 90.675 102.8 95.4675 99.3835 99.4214C91.8067 108.208 76.2809 101.498 54.627 89.3704V89.397Z"
            stroke="#262626" stroke-width="2" stroke-linecap="round" stroke-linejoin="round" />
    </g>
    <defs>
        <clipPath id="clip0_1715_3561">
            <rect width="247" height="270" fill="white" />
        </clipPath>
    </defs>
</svg>