<svg width="433" height="196" viewBox="0 0 433 196" fill="none" xmlns="http://www.w3.org/2000/svg">
    <g clip-path="url(#clip0_3979_2654)">
        <g clip-path="url(#clip1_3979_2654)">
            <g clip-path="url(#clip2_3979_2654)">
                <path
                    d="M62.588 63.6421H353.759C370.43 63.6421 383.964 81.3265 383.964 103.111V169.116H32.3828V103.111C32.3828 81.3265 45.9167 63.6421 62.588 63.6421Z"
                    fill="#FFF1F1" />
                <path
                    d="M296.165 160.361L326.543 118.591C329.451 114.548 328.732 108.921 324.84 105.765C320.99 102.641 315.331 103.052 311.967 106.716C300.311 119.404 288.612 132.102 276.945 144.791L296.196 160.361H296.154H296.165Z"
                    fill="#FFCC02" stroke="black" stroke-width="0.925214" stroke-linecap="round"
                    stroke-linejoin="round" />
                <path
                    d="M291.561 148.423C297.453 152.994 298.764 161.207 294.808 167.266L272.469 149.869C277.408 144.571 285.712 143.853 291.561 148.433V148.423Z"
                    fill="#0066FF" stroke="black" stroke-width="0.925214" stroke-miterlimit="10" />
                <path d="M353.367 69.994L362.918 71.8519L364.96 61.3908L355.408 59.533L353.367 69.994Z" fill="white"
                    stroke="black" stroke-width="0.925214" stroke-linecap="round" stroke-linejoin="round" />
                <path
                    d="M350.548 48.1938C348.581 53.7568 351.457 59.8899 357.043 61.885C362.628 63.8801 368.784 60.9878 370.782 55.4142L372.221 51.3817C374.221 45.8187 371.312 39.6856 365.727 37.6906C360.184 35.6955 354.029 38.5878 352.029 44.1614L350.559 48.1938H350.548Z"
                    fill="white" stroke="black" stroke-width="0.925214" stroke-linecap="round"
                    stroke-linejoin="round" />
                <path
                    d="M356.762 50.623C357.481 49.2824 357.439 47.8678 356.646 47.4668C355.895 47.0656 354.72 47.8257 354.002 49.1663C353.283 50.5068 355.207 48.1424 356.001 48.5329C356.751 48.9341 356.075 51.953 356.751 50.623H356.762Z"
                    fill="black" />
                <path
                    d="M356.954 45.8004C355.865 45.1037 357.028 43.5308 358.013 44.3648C358.732 44.9136 360.424 47.4154 359.292 47.9749C358.954 48.091 358.615 47.9221 358.498 47.6054C358.192 46.8137 357.674 46.191 356.987 45.7898H356.944L356.954 45.8004Z"
                    fill="black" />
                <path
                    d="M351.604 50.2423C350.853 49.9784 350.134 49.7144 349.383 49.4611C350.473 48.3633 351.573 47.276 352.662 46.1887"
                    fill="white" />
                <path
                    d="M352.504 46.0302H352.546C352.736 45.8508 353.032 46.1464 352.853 46.3364L349.679 49.746L349.531 49.0599L351.763 49.841C352.25 50.0205 351.986 50.8016 351.457 50.6222L349.267 49.8516C348.961 49.7776 348.855 49.366 349.119 49.1654L352.514 46.0302H352.504Z"
                    fill="black" />
                <path
                    d="M349.898 52.8486C350.12 53.0598 350.575 53.4714 351.295 53.6825C352.236 53.9676 353.029 53.7248 353.336 53.6298"
                    stroke="black" stroke-width="0.462607" stroke-linecap="round" stroke-linejoin="round" />
                <path
                    d="M328.953 53.2003C329.598 56.3989 330.275 59.6712 330.878 63.0175C331.745 67.7888 332.539 72.444 333.184 76.9831L333.861 81.4483C334.083 84.6046 336.727 86.9692 339.858 86.9164L359.214 87.5497L358.612 79.506L358.009 71.6523L345.03 74.0486C343.328 69.235 341.667 64.432 339.975 59.629L342.428 56.1455C342.841 55.5438 342.693 54.6994 342.09 54.2771C341.445 53.8548 340.62 54.0027 340.207 54.6149L339.223 56.04L337.975 49.8647C337.859 49.2419 337.256 48.8407 336.622 48.9569C335.976 49.0835 335.606 49.6958 335.711 50.3186C335.637 49.9597 335.563 49.6008 335.489 49.2419C335.341 48.5135 334.665 48.0385 333.903 48.1757C333.184 48.3129 332.697 49.0308 332.845 49.7591C332.919 50.2553 333.036 50.7514 333.152 51.2369C333.004 50.5825 332.358 50.1497 331.713 50.2764C331.036 50.4031 330.624 51.0364 330.73 51.7014L330.952 52.8098C330.835 52.2609 330.307 51.902 329.746 51.997C329.175 52.1131 328.836 52.6515 328.953 53.211V53.2003Z"
                    fill="white" stroke="black" stroke-width="0.925214" stroke-miterlimit="10" stroke-linecap="round" />
                <path d="M336.469 54.4332C336.204 53.0503 335.941 51.6674 335.719 50.2952L336.469 54.4332Z"
                    fill="white" />
                <path d="M336.469 54.4332C336.204 53.0503 335.941 51.6674 335.719 50.2952" stroke="black"
                    stroke-width="0.925214" stroke-linecap="round" stroke-linejoin="round" />
                <path d="M333.631 54.2326C333.483 53.2298 333.292 52.227 333.102 51.2241L333.631 54.2326Z"
                    fill="white" />
                <path opacity="0.75"
                    d="M335.102 62.3293C340.616 62.3293 345.087 57.8678 345.087 52.3643C345.087 46.8609 340.616 42.3994 335.102 42.3994C329.587 42.3994 325.117 46.8609 325.117 52.3643C325.117 57.8678 329.587 62.3293 335.102 62.3293Z"
                    fill="#FF55EB" />
                <path d="M333.631 54.2326C333.483 53.2298 333.292 52.227 333.102 51.2241" stroke="black"
                    stroke-width="0.925214" stroke-linecap="round" stroke-linejoin="round" />
                <path d="M331.26 54.3181C331.144 53.8115 331.07 53.3047 330.953 52.7981L331.26 54.3181Z" fill="white" />
                <path d="M331.26 54.3181C331.144 53.8115 331.07 53.3047 330.953 52.7981" stroke="black"
                    stroke-width="0.925214" stroke-linecap="round" stroke-linejoin="round" />
                <path
                    d="M320.12 80.3049C329.968 80.3049 337.954 72.3351 337.954 62.5074C337.954 52.6797 329.968 44.7205 320.12 44.7205C310.272 44.7205 302.297 52.6902 302.297 62.5074C302.297 72.3245 310.283 80.3049 320.12 80.3049Z"
                    fill="#08F8C3" stroke="black" stroke-width="0.925214" stroke-linecap="round"
                    stroke-linejoin="round" />
                <path
                    d="M338.953 111.014H356.65C363.366 110.644 370.125 110.254 376.842 109.884C374.504 96.6997 372.166 83.5257 369.861 70.3518H347.405L338.953 111.024V111.014Z"
                    fill="#FFE067" stroke="black" stroke-width="0.925214" stroke-linecap="round"
                    stroke-linejoin="round" />
                <path
                    d="M313.368 82.2693H313.325C312.945 82.7127 313.019 83.3672 313.442 83.7261C315.969 85.8268 318.498 87.9802 321.068 90.2286C324.728 93.4271 328.24 96.6045 331.561 99.7502L334.84 102.854C336.988 105.166 340.541 105.387 342.952 103.413L358.544 91.9281L353.075 85.9956L347.755 80.2004L339.039 90.123C334.734 87.3996 330.397 84.6761 326.092 81.9421L325.87 77.6881C325.796 76.9491 325.193 76.3896 324.431 76.4213C323.681 76.4635 323.109 77.0969 323.152 77.8464L323.268 79.5882L318.477 75.503C317.99 75.0913 317.271 75.1546 316.859 75.6296C316.446 76.1152 316.477 76.8542 316.974 77.2658C316.711 77.0336 316.403 76.7908 316.15 76.5586C315.578 76.073 314.754 76.1363 314.267 76.7063C313.78 77.2763 313.854 78.1209 314.415 78.6064C314.795 78.9231 315.166 79.2609 315.547 79.5776C315.06 79.1448 314.267 79.1975 313.843 79.7148C313.389 80.232 313.463 80.9921 313.96 81.4249L314.828 82.1638C314.373 81.7943 313.738 81.8472 313.389 82.2799L313.368 82.2693Z"
                    fill="white" stroke="black" stroke-width="0.925214" stroke-miterlimit="10" stroke-linecap="round" />
                <path d="M320.127 80.0416C319.069 79.1127 318.012 78.1838 316.953 77.2549L320.127 80.0416Z"
                    fill="white" />
                <path d="M320.127 80.0416C319.069 79.1127 318.012 78.1838 316.953 77.2549" stroke="black"
                    stroke-width="0.925214" stroke-linecap="round" stroke-linejoin="round" />
                <path d="M317.821 81.6259C317.027 80.9397 316.277 80.2748 315.516 79.5886L317.821 81.6259Z"
                    fill="white" />
                <path d="M317.821 81.6259C317.027 80.9397 316.277 80.2748 315.516 79.5886" stroke="black"
                    stroke-width="0.925214" stroke-linecap="round" stroke-linejoin="round" />
                <path d="M316.002 83.1672C315.591 82.84 315.21 82.4916 314.797 82.1538L316.002 83.1672Z" fill="white" />
                <path d="M316.002 83.1672C315.591 82.84 315.21 82.4916 314.797 82.1538" stroke="black"
                    stroke-width="0.925214" stroke-linecap="round" stroke-linejoin="round" />
                <path
                    d="M351.149 65.7081L350.239 70.036C350.198 70.2683 350.43 70.4688 350.694 70.4688H365.64C365.905 70.4688 366.127 70.2577 366.095 70.036L365.185 65.7081C365.185 65.5286 364.963 65.3914 364.772 65.3914H351.604C351.382 65.3914 351.191 65.5286 351.149 65.7081Z"
                    fill="#FFE067" stroke="black" stroke-width="0.925214" stroke-linecap="round"
                    stroke-linejoin="round" />
                <path
                    d="M360.273 53.9792C360.421 54.0847 361.893 54.9819 363.478 54.3697C364.801 53.8524 366.05 52.3324 365.594 50.7595C365.256 49.5562 364.008 48.68 362.58 48.6589"
                    fill="white" />
                <path
                    d="M360.273 53.9792C360.421 54.0847 361.893 54.9819 363.478 54.3697C364.801 53.8524 366.05 52.3324 365.594 50.7595C365.256 49.5562 364.008 48.68 362.58 48.6589"
                    stroke="black" stroke-width="0.925214" stroke-linecap="round" stroke-linejoin="round" />
                <path
                    d="M332.804 121.611C335.639 117.494 334.771 111.889 330.804 108.828C326.838 105.788 321.222 106.347 317.932 110.094C306.572 123.058 295.211 136.041 283.852 149.004L303.473 164.109L332.794 121.611H332.804Z"
                    fill="#FFCC02" stroke="black" stroke-width="0.925214" stroke-linecap="round"
                    stroke-linejoin="round" />
                <path
                    d="M302.283 171.037L279.531 154.179C284.323 148.764 292.584 147.845 298.592 152.279C304.557 156.712 306.102 164.883 302.294 171.037H302.283Z"
                    fill="#0066FF" stroke="black" stroke-width="0.925214" stroke-miterlimit="10" />
                <path
                    d="M351.147 99.3806C346.017 93.6171 344.43 91.7697 339.258 86.0167C349.677 74.9856 353.865 71.6499 360.466 73.1489C362.316 73.5711 364.463 75.5979 365.786 78.1842C368.8 83.9689 362.051 90.6508 351.147 99.3912V99.3806Z"
                    fill="#FFCC02" />
                <path
                    d="M351.147 99.3806C346.017 93.6171 344.43 91.7697 339.258 86.0167C349.677 74.9856 353.865 71.6499 360.466 73.1489C362.316 73.5711 364.463 75.5979 365.786 78.1842C368.8 83.9689 362.051 90.6508 351.147 99.3912V99.3806Z"
                    stroke="black" stroke-width="0.925214" stroke-miterlimit="10" stroke-linecap="round" />
                <path d="M382.173 106.178L374.25 109.187L379.348 73.5068H383.241L382.183 106.178H382.173Z"
                    fill="#66A3FF" />
                <path
                    d="M379.219 149.819L323.18 148.953L324.956 108.671L382.317 106.487C381.303 120.928 380.245 135.379 379.219 149.819Z"
                    fill="#66A3FF" />
                <path fill-rule="evenodd" clip-rule="evenodd"
                    d="M383.788 65.9086L382.012 88.9736H326.353C326.237 88.8258 326.047 88.7308 325.867 88.7308H323.72C323.307 88.7308 323 89.1108 323 89.5859V169.833H326.586V151.434H377.982V147.908H326.576V92.6682H381.716L377.485 146.979L381.028 147.254L387.332 66.1936C387.374 65.7186 387.067 65.307 386.656 65.2752L384.582 65.1169C384.201 65.0853 383.862 65.4442 383.788 65.9192V65.9086Z"
                    fill="#0066FF" />
                <path
                    d="M326.583 131.452L303.303 171.882L300.203 170.087L323.484 129.657C323.6 129.425 324.013 129.393 324.351 129.594L326.203 130.65C326.541 130.851 326.731 131.21 326.583 131.452Z"
                    fill="#0066FF" />
                <path
                    d="M271.668 149.954C271.89 149.606 272.239 149.426 272.419 149.532L304.384 169.208L302.502 172.259L270.536 152.593C270.346 152.477 270.346 152.107 270.579 151.759L271.446 150.292L271.668 149.954Z"
                    fill="black" />
                <path
                    d="M310.234 169.759C310.234 177.781 316.76 184.284 324.799 184.284C332.838 184.284 339.332 177.771 339.332 169.759C339.332 161.736 332.838 155.234 324.799 155.234C316.76 155.234 310.234 161.747 310.234 169.759ZM312.381 169.822C312.381 162.982 317.924 157.44 324.799 157.44C331.674 157.44 337.217 162.992 337.217 169.822C337.217 176.663 331.632 182.205 324.799 182.205C317.934 182.205 312.381 176.652 312.381 169.822Z"
                    fill="black" />
                <path
                    d="M311.555 169.841C311.555 177.135 317.479 183.047 324.798 183.047C332.118 183.047 338.009 177.135 338.009 169.841C338.009 162.547 332.086 156.635 324.798 156.635C317.51 156.635 311.555 162.557 311.555 169.841ZM313.597 169.714C313.597 163.55 318.621 158.556 324.808 158.556C330.996 158.556 335.978 163.55 335.978 169.714C335.978 175.879 330.954 180.883 324.808 180.883C318.663 180.883 313.597 175.889 313.597 169.714Z"
                    fill="#0066FF" />
                <path d="M324.805 183.038V156.627" stroke="#0066FF" stroke-width="0.925214" stroke-miterlimit="10" />
                <path d="M311.555 169.843H338.009" stroke="#0066FF" stroke-width="0.925214" stroke-miterlimit="10" />
                <path d="M334.159 179.165L315.438 160.492" stroke="#0066FF" stroke-width="0.925214"
                    stroke-miterlimit="10" />
                <path d="M315.453 179.165L334.175 160.492" stroke="#0066FF" stroke-width="0.925214"
                    stroke-miterlimit="10" />
                <path
                    d="M327.942 169.832C327.942 168.101 326.545 166.697 324.811 166.697C323.076 166.697 321.68 168.101 321.68 169.832C321.68 171.563 323.076 172.967 324.811 172.967C326.545 172.967 327.942 171.563 327.942 169.832Z"
                    fill="black" />
                <path
                    d="M346.445 152.107C346.445 170.232 361.159 184.926 379.341 184.926C397.492 184.926 412.206 170.232 412.206 152.107C412.206 133.982 397.492 119.289 379.341 119.289C361.159 119.289 346.445 133.982 346.445 152.107ZM351.29 152.255C351.29 136.802 363.825 124.271 379.341 124.271C394.816 124.271 407.36 136.802 407.36 152.255C407.36 167.709 394.827 180.239 379.341 180.239C363.835 180.239 351.29 167.709 351.29 152.255Z"
                    fill="black" />
                <path
                    d="M376.892 49.7992C377.79 47.5824 377.77 44.3206 375.76 42.505C374.977 41.7977 374.11 41.5021 373.507 41.3543C374.194 41.0271 374.607 40.4359 374.523 39.9609C374.406 39.3276 373.37 38.6731 372.111 39.0215C371.931 37.0475 370.736 35.3902 369.065 34.7885C367.88 34.3662 366.801 34.609 366.314 34.7462C365.426 34.0179 363.448 32.6139 360.603 32.2655C359.756 32.16 355.874 31.7167 352.997 34.4084C351.315 35.9707 349.422 39.1165 350.618 41.5338C351.104 42.505 351.95 43.0855 352.585 43.4128C355.039 43.2544 357.493 43.0961 359.947 42.9377C360.825 43.6345 361.703 44.3312 362.591 45.0173C362.739 45.1123 363.374 45.5768 363.533 46.4107C363.691 47.2446 363.31 48.1102 362.57 48.6486C362.813 48.6168 363.3 48.5852 363.829 48.8069C364.738 49.1869 365.109 49.9892 365.183 50.1792C365.267 50.9392 365.362 51.6993 365.447 52.4698C365.426 54.1588 366.6 55.5839 368.144 55.8583C369.466 56.0905 370.841 55.4467 371.571 54.2222C371.994 54.1166 375.506 53.1666 376.881 49.7886L376.892 49.7992Z"
                    fill="#080808" />
                <path opacity="0.75"
                    d="M317.821 90.006C323.335 90.006 327.806 85.5445 327.806 80.0411C327.806 74.5376 323.335 70.0762 317.821 70.0762C312.307 70.0762 307.836 74.5376 307.836 80.0411C307.836 85.5445 312.307 90.006 317.821 90.006Z"
                    fill="#FF55EB" />
                <path opacity="0.75"
                    d="M360.275 88.6119C365.789 88.6119 370.26 84.1505 370.26 78.647C370.26 73.1435 365.789 68.6821 360.275 68.6821C354.76 68.6821 350.289 73.1435 350.289 78.647C350.289 84.1505 354.76 88.6119 360.275 88.6119Z"
                    fill="#FF55EB" />
                <path d="M379.344 124.271V182.118" stroke="#0066FF" stroke-width="0.925214" stroke-miterlimit="10" />
                <path d="M409.245 151.221H351.281" stroke="#0066FF" stroke-width="0.925214" stroke-miterlimit="10" />
                <path d="M398.784 132.031L357.797 172.926" stroke="#0066FF" stroke-width="0.925214"
                    stroke-miterlimit="10" />
                <path d="M400.839 172.194L359.852 131.289" stroke="#0066FF" stroke-width="0.925214"
                    stroke-miterlimit="10" />
                <path
                    d="M349.445 152.289C349.445 168.757 362.816 182.11 379.327 182.11C395.838 182.11 409.219 168.757 409.219 152.289C409.219 135.822 395.817 122.468 379.327 122.468C362.816 122.468 349.445 135.822 349.445 152.289ZM354.057 151.994C354.057 138.07 365.354 126.785 379.327 126.785C393.268 126.785 404.565 138.07 404.565 151.994C404.565 165.917 393.268 177.201 379.327 177.201C365.354 177.201 354.057 165.917 354.057 151.994Z"
                    fill="black" />
                <path
                    d="M386.424 151.221C386.424 147.315 383.251 144.138 379.337 144.138C375.424 144.138 372.219 147.305 372.219 151.221C372.219 155.137 375.391 158.304 379.337 158.304C383.282 158.304 386.424 155.137 386.424 151.221Z"
                    fill="black" />
                <path
                    d="M163.422 121.179L175.978 96.7151L224.112 104.332C227.156 116.034 230.201 127.748 233.246 139.462C209.96 133.374 186.697 127.277 163.422 121.179Z"
                    fill="#0066FF" stroke="black" stroke-width="0.925214" stroke-linecap="round"
                    stroke-linejoin="round" />
                <path
                    d="M151.049 56.4358C154.093 62.1668 157.148 67.8976 160.192 73.6181C165.725 69.7626 171.257 65.907 176.79 62.0515C172.874 57.1273 168.948 52.203 165.032 47.2893C160.613 41.8413 156.308 36.4561 151.962 30.9661L153.526 25.3295C153.768 24.3761 153.201 23.3389 152.245 23.0979C151.29 22.8569 150.324 23.3912 150.009 24.3761L149.379 26.702L145.033 19.2947C144.561 18.509 143.532 18.2889 142.808 18.7395C141.989 19.1376 141.779 20.1644 142.219 20.8663C141.968 20.4682 141.716 19.9757 141.474 19.5986C140.97 18.708 139.816 18.4566 138.944 18.9595C138.072 19.4519 137.81 20.6149 138.304 21.4845C138.608 22.0607 139.028 22.6788 139.311 23.2341C138.86 22.5216 137.81 22.2283 137.012 22.6997C136.193 23.0979 135.983 24.1247 136.456 24.9209L137.232 26.2829C137.191 26.1991 136.928 25.7905 136.393 25.6439C136.351 25.6333 135.805 25.4971 135.333 25.801C134.807 26.1467 134.577 26.9325 134.85 27.6973C137.169 31.49 139.49 35.4189 141.799 39.463C145.096 45.2464 148.172 50.9144 151.037 56.4567L151.049 56.4358Z"
                    fill="white" stroke="black" stroke-width="0.925214" stroke-miterlimit="10" stroke-linecap="round" />
                <path d="M145.111 25.9049C144.208 24.1972 143.232 22.5209 142.266 20.8655L145.111 25.9049Z"
                    fill="white" />
                <path d="M145.111 25.9049C144.208 24.1972 143.232 22.5209 142.266 20.8655" stroke="black"
                    stroke-width="0.925214" stroke-linecap="round" stroke-linejoin="round" />
                <path d="M141.372 26.8165C140.648 25.6221 140.028 24.4173 139.336 23.2229L141.372 26.8165Z"
                    fill="white" />
                <path d="M141.372 26.8165C140.648 25.6221 140.028 24.4173 139.336 23.2229" stroke="black"
                    stroke-width="0.925214" stroke-linecap="round" stroke-linejoin="round" />
                <path d="M138.376 28.0964C137.967 27.4783 137.652 26.9021 137.242 26.2839L138.376 28.0964Z"
                    fill="white" />
                <path d="M138.376 28.0964C137.967 27.4783 137.652 26.9021 137.242 26.2839" stroke="black"
                    stroke-width="0.925214" stroke-linecap="round" stroke-linejoin="round" />
                <path d="M206.503 52.9888L190.031 53.1982L190.23 69.6367L206.702 69.4377L206.503 52.9992V52.9888Z"
                    fill="white" stroke="black" stroke-width="0.925214" stroke-linecap="round"
                    stroke-linejoin="round" />
                <path
                    d="M207.49 59.169C207.437 58.8651 207.154 58.6347 206.839 58.6451L197.979 58.7604H197.107L188.246 58.8756C187.932 58.8756 187.659 59.1166 187.617 59.4204L186.451 66.9429C186.399 67.3306 186.703 67.6868 187.092 67.6868L197.211 67.5506H198.083L208.204 67.4144C208.613 67.4144 208.907 67.0477 208.833 66.6601L207.48 59.1794H207.5L207.49 59.169Z"
                    fill="#FFCC02" stroke="black" stroke-width="0.925214" stroke-linecap="round"
                    stroke-linejoin="round" />
                <path
                    d="M205.984 16.8016L193.523 16.3511C189.503 16.2045 186.122 19.3371 185.975 23.3603L185.114 46.986C184.967 50.9986 188.106 54.3722 192.127 54.5294L204.588 54.9799C208.609 55.1266 211.99 51.994 212.136 47.9708L212.997 24.3451C213.145 20.3324 210.005 16.9588 205.984 16.8016Z"
                    fill="white" stroke="black" stroke-width="0.925214" stroke-linecap="round"
                    stroke-linejoin="round" />
                <path
                    d="M194.967 37.9718C195.019 36.3898 194.337 35.0801 193.434 35.0487C192.531 35.0173 191.744 36.2745 191.691 37.8461C191.628 39.4281 192.427 36.2117 193.33 36.2431C194.232 36.2745 194.914 39.5434 194.967 37.9613V37.9718Z"
                    fill="black" />
                <path
                    d="M206.248 37.9718C206.3 36.3898 205.617 35.0801 204.714 35.0487C203.811 35.0173 203.024 36.2745 202.972 37.8461C202.909 39.4281 203.707 36.2117 204.61 36.2431C205.513 36.2745 206.195 39.5434 206.248 37.9613V37.9718Z"
                    fill="black" />
                <path
                    d="M203.805 30.3854C205.254 30.5635 210.052 32.8579 208.351 34.461C207.963 34.7438 207.428 34.7333 207.082 34.461C206.02 33.6018 204.677 33.1828 203.365 33.1723C201.16 33.078 201.665 29.9454 203.817 30.3958H203.805V30.3854Z"
                    fill="black" />
                <path
                    d="M194.825 30.1069C196.988 29.6669 197.491 32.789 195.277 32.8833C193.965 32.9043 192.62 33.3233 191.56 34.172C191.214 34.4549 190.678 34.4654 190.29 34.172C188.589 32.569 193.387 30.2746 194.835 30.0965H194.825V30.1069Z"
                    fill="black" />
                <path
                    d="M199.879 34.1013C200.236 37.0349 200.604 39.9579 200.961 42.8915C199.973 42.881 198.997 42.881 198 42.8706"
                    fill="white" />
                <path
                    d="M198.887 34.1473L200.22 42.906C200.273 43.2099 200.01 43.5033 199.695 43.4928L196.735 43.4718C196.052 43.4718 196.063 42.4346 196.735 42.4241L199.695 42.4451L199.17 43.0318L198.341 34.2206C198.309 33.8748 198.834 33.812 198.887 34.1473Z"
                    fill="black" />
                <path
                    d="M186.439 35.2513C184.791 34.4866 182.922 34.8113 181.883 35.9848C180.518 37.5249 181.095 39.9241 182.313 41.2338C183.762 42.7948 185.914 42.5643 186.166 42.5434"
                    fill="white" />
                <path
                    d="M186.439 35.2513C184.791 34.4866 182.922 34.8113 181.883 35.9848C180.518 37.5249 181.095 39.9241 182.313 41.2338C183.762 42.7948 185.914 42.5643 186.166 42.5434"
                    stroke="black" stroke-width="0.925214" stroke-linecap="round" stroke-linejoin="round" />
                <path
                    d="M207.445 25.8884C207.697 25.9304 209.818 26.318 211.382 24.8616C212.694 23.6359 213.44 21.289 212.191 19.6546C211.235 18.4183 209.398 17.9469 207.708 18.5859"
                    fill="white" />
                <path
                    d="M207.445 25.8884C207.697 25.9304 209.818 26.318 211.382 24.8616C212.694 23.6359 213.44 21.289 212.191 19.6546C211.235 18.4183 209.398 17.9469 207.708 18.5859"
                    stroke="black" stroke-width="0.925214" stroke-linecap="round" stroke-linejoin="round" />
                <path
                    d="M192.171 24.1053C192.118 24.87 192.034 25.9492 189.903 29.4904C186.029 34.7185 186.805 34.5194 186.029 34.7185C185.599 34.6032 184.276 34.3204 183.834 34.2051C182.764 30.3704 182.197 28.2541 182.365 22.0098C182.448 18.961 183.94 18.0286 185.01 17.5152C186.491 16.8132 187.877 17.5466 188.013 17.6199C188.401 16.7923 189.241 15.3255 190.9 14.2987C194.816 11.8681 199.414 14.3302 199.645 14.4559C200.643 13.7434 202.658 12.5805 205.293 12.5595C211.298 12.5176 214.7 18.5 214.994 19.0448C218.563 25.572 214.647 35.3575 214.427 35.7137L212.232 35.2004C211.97 33.4298 211.949 29.658 211.686 27.8874C209.398 28.558 202.858 30.1714 196.38 26.9655C194.669 26.1168 193.294 25.1005 192.191 24.1157H192.181L192.171 24.1053Z"
                    fill="#020202" />
                <path opacity="0.75"
                    d="M143.266 39.7974C151.093 39.7974 157.44 33.465 157.44 25.6535C157.44 17.842 151.093 11.5095 143.266 11.5095C135.439 11.5095 129.094 17.842 129.094 25.6535C129.094 33.465 135.439 39.7974 143.266 39.7974Z"
                    fill="#FF55EB" />
                <path fill-rule="evenodd" clip-rule="evenodd"
                    d="M225.829 66.335C208.339 66.0521 190.858 65.7692 173.368 65.4863C170.638 81.9512 167.918 98.4163 165.188 114.87C187.432 114.791 209.677 114.7 231.932 114.621L225.829 66.335Z"
                    fill="#FFCC02" />
                <path fill-rule="evenodd" clip-rule="evenodd"
                    d="M225.829 66.335C208.339 66.0521 190.858 65.7692 173.368 65.4863C170.638 81.9512 167.918 98.4163 165.188 114.87C187.432 114.791 209.677 114.7 231.932 114.621L225.829 66.335Z"
                    stroke="black" stroke-width="0.925214" stroke-miterlimit="10" />
                <path
                    d="M170.558 42.3935C161.908 49.1302 153.267 55.846 144.617 62.5827C152.532 77.7953 164.658 86.4284 174.484 84.3749C175.534 84.1549 179.429 83.2853 181.97 80.0269C187.66 72.735 183.545 57.3547 170.558 42.3831V42.3935Z"
                    fill="#FFCC02" />
                <path
                    d="M183.355 71.0049C183.618 70.0305 183.922 68.5532 183.891 66.7302C183.891 66.7302 183.849 64.8443 183.282 62.8118C182.453 59.8468 177.886 52.0624 170.558 42.3921C161.908 49.1288 153.267 55.8446 144.617 62.5814C148.574 70.1876 153.583 76.1491 158.831 79.9523C158.831 79.9523 164.06 83.6612 169.655 84.5621C170.337 84.6774 170.873 84.6669 171.051 84.6564C172.699 84.6145 174.012 84.0068 174.852 83.504"
                    stroke="black" stroke-width="0.925214" stroke-linecap="round" stroke-linejoin="round" />
                <path
                    d="M256.459 38.8338C258.769 34.7897 261.089 30.8713 263.41 27.0681C263.683 26.3034 263.451 25.5176 262.927 25.1718C262.464 24.868 261.918 25.0042 261.866 25.0146C261.331 25.1508 261.068 25.5699 261.026 25.6538L261.803 24.2918C262.275 23.4955 262.065 22.4687 261.246 22.0706C260.449 21.5991 259.399 21.882 258.947 22.6049C259.231 22.0497 259.64 21.421 259.956 20.8552C260.449 19.9857 260.186 18.8332 259.315 18.3303C258.444 17.8274 257.288 18.0893 256.785 18.9694C256.544 19.3466 256.291 19.839 256.039 20.2371C256.481 19.5352 256.26 18.5084 255.452 18.1103C254.738 17.6703 253.699 17.8798 253.226 18.6656L248.88 26.0728L248.25 23.7469C247.934 22.7621 246.969 22.2382 246.014 22.4687C245.058 22.7097 244.502 23.7469 244.733 24.7003L246.297 30.337C241.951 35.827 237.636 41.2226 233.227 46.6602C229.311 51.5844 225.384 56.5085 221.469 61.4222C227.002 65.2778 232.534 69.1334 238.066 72.9889C241.111 67.258 244.166 61.5271 247.21 55.8066C250.076 50.2643 253.153 44.5962 256.449 38.8129L256.459 38.8338Z"
                    fill="white" stroke="black" stroke-width="0.925214" stroke-miterlimit="10" stroke-linecap="round" />
                <path d="M256.009 20.2576C255.043 21.913 254.067 23.5893 253.164 25.297L256.009 20.2576Z"
                    fill="white" />
                <path d="M256.009 20.2576C255.043 21.913 254.067 23.5893 253.164 25.297" stroke="black"
                    stroke-width="0.925214" stroke-linecap="round" stroke-linejoin="round" />
                <path d="M258.943 22.6067C258.24 23.801 257.62 25.0164 256.906 26.2003L258.943 22.6067Z" fill="white" />
                <path d="M258.943 22.6067C258.24 23.801 257.62 25.0164 256.906 26.2003" stroke="black"
                    stroke-width="0.925214" stroke-linecap="round" stroke-linejoin="round" />
                <path d="M261.033 25.6758C260.623 26.294 260.308 26.8702 259.898 27.4884L261.033 25.6758Z"
                    fill="white" />
                <path d="M261.033 25.6758C260.623 26.294 260.308 26.8702 259.898 27.4884" stroke="black"
                    stroke-width="0.925214" stroke-linecap="round" stroke-linejoin="round" />
                <path
                    d="M216.304 79.4201C218.845 82.6785 222.739 83.5481 223.789 83.7681C233.616 85.8111 245.741 77.178 253.657 61.9759C245.006 55.2391 236.367 48.5234 227.716 41.7866C214.73 56.7583 210.614 72.1385 216.304 79.4306V79.4201Z"
                    fill="#FFCC02" />
                <path
                    d="M223.796 83.7681C233.622 85.8111 245.748 77.178 253.663 61.9759C245.013 55.2391 236.373 48.5234 227.722 41.7866C218.641 52.2532 213.907 62.9083 213.812 70.8709"
                    stroke="black" stroke-width="0.925214" stroke-linecap="round" stroke-linejoin="round" />
                <path
                    d="M211.117 35.1838C212.755 34.398 214.624 34.7019 215.684 35.8648C217.069 37.384 216.523 39.7937 215.306 41.1242C213.878 42.7062 211.715 42.4968 211.463 42.4758"
                    fill="white" />
                <path
                    d="M211.117 35.1838C212.755 34.398 214.624 34.7019 215.684 35.8648C217.069 37.384 216.523 39.7937 215.306 41.1242C213.878 42.7062 211.715 42.4968 211.463 42.4758"
                    stroke="black" stroke-width="0.925214" stroke-linecap="round" stroke-linejoin="round" />
                <path opacity="0.6"
                    d="M197.405 36.0977L189.195 36.2192L189.259 40.4933L197.468 40.3718L197.405 36.0977Z"
                    fill="#0066FF" />
                <path opacity="0.6" d="M209.396 36.0977L201.188 36.2192L201.251 40.4933L209.46 40.3718L209.396 36.0977Z"
                    fill="#0066FF" />
                <path d="M189.604 36.8486C187.935 35.8743 186.255 34.9104 184.586 33.936" stroke="black"
                    stroke-width="0.925214" stroke-linecap="round" stroke-linejoin="round" />
                <path d="M209.039 36.7271C210.487 35.6375 211.947 34.5584 213.396 33.4688" stroke="black"
                    stroke-width="0.925214" stroke-linecap="round" stroke-linejoin="round" />
                <path
                    d="M196.328 38.2151C196.549 38.0266 197.641 37.1465 199.216 37.2722C200.538 37.377 201.399 38.1313 201.651 38.3619"
                    stroke="black" stroke-width="0.925214" stroke-linecap="round" stroke-linejoin="round" />
                <path
                    d="M202.242 45.9448L195.859 45.9867C196.206 47.6211 197.697 48.7421 199.282 48.6269C200.731 48.5221 201.959 47.422 202.242 45.9448Z"
                    stroke="black" stroke-width="0.462607" stroke-linecap="round" stroke-linejoin="round" />
                <path opacity="0.75"
                    d="M254.54 40.8473C262.367 40.8473 268.712 34.5148 268.712 26.7033C268.712 18.8918 262.367 12.5593 254.54 12.5593C246.712 12.5593 240.367 18.8918 240.367 26.7033C240.367 34.5148 246.712 40.8473 254.54 40.8473Z"
                    fill="#FF55EB" />
                <path
                    d="M270.068 143.525L198.156 178.738L190.377 151.676L190.303 151.435L182.523 124.373L262.206 116.201C269.113 115.499 275.538 119.826 277.46 126.489L277.533 126.731C279.443 133.394 276.304 140.455 270.079 143.514C270.079 143.514 270.068 143.514 270.058 143.514L270.068 143.525Z"
                    fill="#0066FF" stroke="black" stroke-width="0.925214" stroke-linecap="round"
                    stroke-linejoin="round" />
                <path d="M262.743 130.654C242.04 137.087 221.328 143.53 200.625 149.963" stroke="white"
                    stroke-width="0.925214" stroke-linecap="round" stroke-linejoin="round" />
                <path d="M194.82 130.451L205.707 166.995" stroke="white" stroke-width="0.925214" stroke-linecap="round"
                    stroke-linejoin="round" />
                <path
                    d="M207.509 156.475C220.78 156.475 231.656 166.659 232.59 179.546H182.43C183.364 166.659 194.23 156.475 207.509 156.475Z"
                    fill="#08F8C3" stroke="black" stroke-width="0.925214" stroke-linecap="round"
                    stroke-linejoin="round" />
                <path
                    d="M157.009 150.356C170.29 150.356 181.156 160.539 182.09 173.426H131.93C132.864 160.539 143.73 150.356 157.009 150.356Z"
                    fill="#08F8C3" stroke="black" stroke-width="0.925214" stroke-linecap="round"
                    stroke-linejoin="round" />
                <path
                    d="M148.058 99.6007L217.046 140.22L198.662 161.563L198.497 161.754L180.112 183.096L129.498 121.135C125.113 115.763 125.205 108.024 129.744 102.774L129.909 102.583C134.429 97.3453 142.02 96.0838 147.991 99.5426C148.014 99.5619 148.035 99.5709 148.057 99.5903L148.058 99.6007Z"
                    fill="#0066FF" stroke="black" stroke-width="0.925214" stroke-linecap="round"
                    stroke-linejoin="round" />
                <path d="M141.328 112.802C158.088 126.531 174.86 140.268 191.621 153.997" stroke="white"
                    stroke-width="0.925214" stroke-linecap="round" stroke-linejoin="round" />
                <path d="M178.484 169.554L203.103 140.411" stroke="white" stroke-width="0.925214" stroke-linecap="round"
                    stroke-linejoin="round" />
                <path
                    d="M23.4721 147.382C29.456 153.815 29.498 163.601 23.871 169.992L0.921875 145.298C7.72473 140.174 17.4986 140.949 23.4826 147.382H23.4721Z"
                    fill="#08F8C3" stroke="black" stroke-width="0.925214" stroke-linecap="round"
                    stroke-linejoin="round" />
                <path
                    d="M9.71875 139.03L30.1063 160.895C44.4889 145.819 58.8715 130.732 73.2646 115.666C77.4218 111.318 77.4638 104.487 73.359 100.087C69.2332 95.6653 62.3778 95.2358 57.7272 99.1018L9.71875 139.03Z"
                    fill="#FFCC02" stroke="black" stroke-width="0.925214" stroke-linecap="round"
                    stroke-linejoin="round" />
                <path
                    d="M75.5194 167.326C84.2645 166.415 92.1381 172.25 93.8702 180.59L60.297 184.079C60.2655 175.572 66.7639 168.238 75.5089 167.326H75.5194Z"
                    fill="#08F8C3" stroke="black" stroke-width="0.925214" stroke-linecap="round"
                    stroke-linejoin="round" />
                <path
                    d="M60.0524 173.974L89.8149 170.841C86.3819 150.306 82.928 129.771 79.4951 109.236C78.5083 103.306 73.0492 99.1782 67.0651 99.8068C61.0392 100.436 56.5775 105.653 56.8819 111.688L60.0524 173.974Z"
                    fill="#FFCC02" stroke="black" stroke-width="0.925214" stroke-linecap="round"
                    stroke-linejoin="round" />
                <path d="M74.5403 57.8446L64.5145 55.2358L61.6484 66.2157L71.6742 68.8245L74.5403 57.8446Z" fill="white"
                    stroke="black" stroke-width="0.925214" stroke-linecap="round" stroke-linejoin="round" />
                <path
                    d="M86.0498 45.3893C87.1941 39.1974 83.0998 33.2464 76.8953 32.1045C70.6909 30.9625 64.728 35.0485 63.5836 41.2404L62.7543 45.7246C61.6099 51.9165 65.7042 57.8675 71.9087 59.0095C78.1131 60.1515 84.0761 56.0654 85.2204 49.8735L86.0498 45.3893Z"
                    fill="white" stroke="black" stroke-width="0.925214" stroke-linecap="round"
                    stroke-linejoin="round" />
                <path
                    d="M79.2246 51.0692C79.9069 51.174 80.6418 50.6816 80.8203 49.4977C81.0093 48.3138 80.5998 47.266 79.9175 47.1613C79.2351 47.0565 78.5317 47.9366 78.3532 49.1205C78.1642 50.3044 78.5422 50.9645 79.2246 51.0692Z"
                    fill="black" />
                <path
                    d="M80.7114 46.2763C80.1445 45.9619 79.462 45.8152 78.7692 45.941C78.4962 45.9933 78.2338 45.8152 78.1813 45.5428C78.1078 44.4951 80.6063 44.6628 81.2992 44.9352C82.3071 45.2914 81.6667 46.7791 80.7114 46.2867V46.2657V46.2763Z"
                    fill="black" />
                <path
                    d="M83.1353 48.3943C83.3768 50.0182 83.6287 51.6527 83.8702 53.2766C83.0723 53.0252 82.2849 52.7947 81.4766 52.5432"
                    fill="white" />
                <path
                    d="M83.6299 48.4521L84.6293 53.4724C84.707 53.8085 84.3406 54.1013 84.0297 53.9712L81.5089 53.2121C80.9315 53.0387 81.1981 52.1604 81.7866 52.3339L84.3184 53.0929L83.7187 53.5917L83.1635 48.5171C83.1191 48.2244 83.5966 48.1594 83.641 48.4413L83.6299 48.4521Z"
                    fill="black" />
                <path
                    d="M77.1797 53.2761C77.3056 53.58 77.6626 54.3762 78.5655 54.9315C79.2374 55.3505 79.8883 55.4344 80.2137 55.4554"
                    stroke="black" stroke-width="0.462607" stroke-linecap="round" stroke-linejoin="round" />
                <path
                    d="M110.257 75.351C109.984 74.8167 109.343 74.5758 108.798 74.8377L109.879 74.3139C110.53 73.9996 110.792 73.2347 110.478 72.5851C110.162 71.9355 109.396 71.6737 108.745 71.988C109.228 71.7574 109.711 71.5165 110.194 71.286C110.908 70.9403 111.212 70.0811 110.865 69.3687C110.509 68.6563 109.648 68.3524 108.945 68.6982C108.598 68.8657 108.252 69.0439 107.884 69.201C108.493 68.9077 108.756 68.1638 108.462 67.5562C108.168 66.9485 107.423 66.6866 106.814 66.9799L100.777 69.8925L101.354 68.1324C101.607 67.3781 101.187 66.5713 100.441 66.3198C99.6953 66.0685 98.8765 66.4875 98.6249 67.2314L97.2074 71.5374C92.032 73.1823 86.8563 74.8272 81.6912 76.4826L75.4028 63.8997L68.3375 68.4257L61.0938 73.0776L74.017 89.1074C75.9592 91.7895 79.6861 92.5229 82.5206 90.7209L86.7514 88.4159C91.0451 86.0795 95.5069 83.7536 100.137 81.4486C103.38 79.8247 106.593 78.2951 109.742 76.8074C110.278 76.5455 110.519 75.8959 110.257 75.351Z"
                    fill="white" stroke="black" stroke-width="0.925214" stroke-miterlimit="10" stroke-linecap="round" />
                <path d="M107.901 69.2334C106.568 69.9039 105.224 70.5744 103.891 71.245L107.901 69.2334Z"
                    fill="white" />
                <path d="M107.901 69.2334C106.568 69.9039 105.224 70.5744 103.891 71.245" stroke="black"
                    stroke-width="0.925214" stroke-linecap="round" stroke-linejoin="round" />
                <path d="M108.765 72.0017C107.799 72.4941 106.833 72.9865 105.867 73.4789L108.765 72.0017Z"
                    fill="white" />
                <path d="M108.765 72.0017C107.799 72.4941 106.833 72.9865 105.867 73.4789" stroke="black"
                    stroke-width="0.925214" stroke-linecap="round" stroke-linejoin="round" />
                <path d="M108.79 74.8359C108.286 75.077 107.792 75.3179 107.289 75.5589L108.79 74.8359Z" fill="white" />
                <path d="M108.79 74.8359C108.286 75.077 107.792 75.3179 107.289 75.5589" stroke="black"
                    stroke-width="0.925214" stroke-linecap="round" stroke-linejoin="round" />
                <path
                    d="M81.0952 69.3137L57.6841 64.5991C52.4665 77.863 47.2488 91.1165 42.0312 104.391C48.9811 106.203 55.9309 108.016 62.8808 109.828L81.3681 113.547L81.0952 69.3137Z"
                    fill="#0066FF" stroke="black" stroke-width="0.925214" stroke-linecap="round"
                    stroke-linejoin="round" />
                <path
                    d="M81.9688 120.101C82.2732 119.588 82.0842 118.907 81.5593 118.614L82.5987 119.211C83.218 119.567 84.0054 119.358 84.3728 118.728C84.7298 118.11 84.5093 117.325 83.8899 116.969C84.3518 117.241 84.8243 117.492 85.2862 117.765C85.9791 118.153 86.8609 117.922 87.2493 117.231C87.6378 116.539 87.4068 115.659 86.7139 115.271C86.378 115.083 86.042 114.883 85.6956 114.695C86.2835 115.03 87.0394 114.821 87.3858 114.234C87.7218 113.647 87.5118 112.893 86.9239 112.558L81.1079 109.227L82.8926 108.702C83.6485 108.472 84.0999 107.686 83.8689 106.921C83.638 106.157 82.8506 105.716 82.0842 105.947L77.7275 107.225C73.4442 103.894 69.1609 100.562 64.8777 97.2299L71.7119 84.9404L63.9748 81.6821L56.0591 78.3398L50.1171 98.0367C49.0043 101.159 50.495 104.637 53.592 105.947L57.8858 108.126C62.2426 110.337 66.6833 112.704 71.2081 115.219C74.3785 116.979 77.465 118.75 80.478 120.521C80.9924 120.814 81.6748 120.635 81.9688 120.112V120.09V120.101Z"
                    fill="white" stroke="black" stroke-width="0.925214" stroke-miterlimit="10" stroke-linecap="round" />
                <path d="M85.7154 114.68C84.4032 113.957 83.0908 113.235 81.7891 112.511L85.7154 114.68Z"
                    fill="white" />
                <path d="M85.7154 114.68C84.4032 113.957 83.0908 113.235 81.7891 112.511" stroke="black"
                    stroke-width="0.925214" stroke-linecap="round" stroke-linejoin="round" />
                <path d="M83.8973 116.964C82.942 116.451 81.9866 115.927 81.0312 115.414L83.8973 116.964Z"
                    fill="white" />
                <path d="M83.8973 116.964C82.942 116.451 81.9866 115.927 81.0312 115.414" stroke="black"
                    stroke-width="0.925214" stroke-linecap="round" stroke-linejoin="round" />
                <path d="M81.5632 118.6C81.0908 118.327 80.5974 118.055 80.125 117.783L81.5632 118.6Z" fill="white" />
                <path d="M81.5632 118.6C81.0908 118.327 80.5974 118.055 80.125 117.783" stroke="black"
                    stroke-width="0.925214" stroke-linecap="round" stroke-linejoin="round" />
                <path
                    d="M78.1668 63.7245C78.1668 63.5254 77.9989 63.3473 77.7574 63.3053L64.0258 60.5394C63.7947 60.4975 63.5638 60.5918 63.4903 60.7699L61.6426 65.1074C61.5481 65.3274 61.7266 65.5999 62.0205 65.6522L77.6104 68.7953C77.9043 68.8582 78.1774 68.6905 78.1774 68.4391V63.7245H78.1668Z"
                    fill="#0066FF" stroke="black" stroke-width="0.925214" stroke-linecap="round"
                    stroke-linejoin="round" />
                <path
                    d="M85.9389 45.1787C84.3222 44.6759 82.0651 44.4978 79.3775 42.8214C77.8553 41.8785 75.7136 39.6679 75.1047 38.5573C74.1704 40.7889 74.5168 42.6747 71.6824 44.5291C70.1811 45.514 69.5512 45.6502 68.8058 45.6607C68.029 46.5931 68.113 45.9226 68.1759 47.6095C68.2179 48.7514 68.6483 48.8353 68.8058 49.1915C69.5092 50.7106 68.4594 54.65 63.4622 60.8419C63.5672 61.0724 64.3126 62.8954 63.3572 64.3307C62.5908 65.4727 61.1946 65.6613 60.6802 65.7451C57.5832 66.1747 49.1846 60.9571 47.7149 57.2063C45.7412 52.1879 53.4469 48.8562 58.444 40.9774C59.9243 38.6306 61.2786 36.7971 62.2024 35.5923C61.3311 34.8904 60.7116 33.9684 60.9217 33.2873C61.1946 32.3654 63.0003 31.6529 65.2574 32.3968C64.4806 30.7729 64.7955 29.1489 65.5513 28.6984C66.3912 28.1955 68.3019 28.8346 69.2677 30.8462C76.8685 29.8509 83.5033 32.9939 85.6345 38.0753C86.7578 40.747 86.3904 43.4291 85.918 45.2102V45.1892L85.9389 45.1787Z"
                    fill="#020202" />
                <path
                    d="M72.7435 45.505C71.4102 44.7507 69.8145 44.9078 68.8486 45.8298C67.5993 47.0347 67.9248 49.0987 68.8696 50.2826C69.9929 51.6865 71.8196 51.6446 72.0296 51.6341"
                    fill="white" />
                <path
                    d="M73.2811 45.5463C72.2523 44.4148 70.6881 44.069 69.4808 44.6453C67.9165 45.3996 67.5806 47.4636 68.1056 48.878C68.7355 50.5648 70.4781 51.0886 70.6881 51.141"
                    stroke="black" stroke-width="0.925214" stroke-linecap="round" stroke-linejoin="round" />
                <path
                    d="M67.273 66.1748C70.3595 66.5939 73.152 67.9978 74.2543 69.7056C78.1282 75.7508 76.27 81.136 68.9317 95.5104C61.2995 92.4407 58.8745 91.5187 51.2422 88.4385C56.1029 74.3993 60.3966 65.2214 67.2835 66.1643L67.273 66.1748Z"
                    fill="#0066FF" stroke="black" stroke-width="0.925214" stroke-linecap="round"
                    stroke-linejoin="round" />
                <path
                    d="M67.273 66.1748C70.3595 66.5939 73.152 67.9978 74.2543 69.7056C78.1282 75.7508 76.27 81.136 68.9317 95.5104C61.2995 92.4407 58.8745 91.5187 51.2422 88.4385C56.1029 74.3993 60.3966 65.2214 67.2835 66.1643L67.273 66.1748Z"
                    stroke="black" stroke-width="0.925214" stroke-miterlimit="10" stroke-linecap="round" />
                <path
                    d="M100.236 179.779C110.01 179.779 117.937 171.869 117.937 162.115C117.937 152.361 110.01 144.461 100.236 144.461C90.4625 144.461 82.5469 152.371 82.5469 162.115C82.5469 171.859 90.473 179.779 100.236 179.779Z"
                    fill="#0066FF" stroke="black" stroke-width="0.925214" stroke-miterlimit="10" />
                <path opacity="0.75"
                    d="M71.8478 150.891C77.3211 150.891 81.7582 146.463 81.7582 141.001C81.7582 135.539 77.3211 131.111 71.8478 131.111C66.3745 131.111 61.9375 135.539 61.9375 141.001C61.9375 146.463 66.3745 150.891 71.8478 150.891Z"
                    fill="#FF55EB" />
                <path opacity="0.75"
                    d="M42.0431 138.725C47.5164 138.725 51.9535 134.297 51.9535 128.835C51.9535 123.372 47.5164 118.944 42.0431 118.944C36.5698 118.944 32.1328 123.372 32.1328 128.835C32.1328 134.297 36.5698 138.725 42.0431 138.725Z"
                    fill="#FF55EB" />
                <path opacity="0.75"
                    d="M80.8556 123.48C86.3289 123.48 90.766 119.052 90.766 113.591C90.766 108.128 86.3289 103.7 80.8556 103.7C75.3823 103.7 70.9453 108.128 70.9453 113.591C70.9453 119.052 75.3823 123.48 80.8556 123.48Z"
                    fill="#FF55EB" />
                <path opacity="0.75"
                    d="M105.192 81.4821C110.666 81.4821 115.102 77.054 115.102 71.5918C115.102 66.1295 110.666 61.7014 105.192 61.7014C99.7186 61.7014 95.2812 66.1295 95.2812 71.5918C95.2812 77.054 99.7186 81.4821 105.192 81.4821Z"
                    fill="#FF55EB" />
                <path
                    d="M314.708 59.4937C314.253 61.281 311.714 61.281 311.259 59.4937L310.502 56.5204C310.258 55.5606 309.508 54.811 308.548 54.5666L305.575 53.8096C303.787 53.3546 303.787 50.8156 305.575 50.3605L308.548 49.6035C309.508 49.3591 310.258 48.6096 310.502 47.6497L311.259 44.6764C311.714 42.8891 314.253 42.8891 314.708 44.6764L315.465 47.6497C315.709 48.6096 316.458 49.3591 317.419 49.6035L320.392 50.3605C322.179 50.8156 322.179 53.3546 320.392 53.8096L317.419 54.5666C316.458 54.811 315.709 55.5606 315.465 56.5204L314.708 59.4937Z"
                    fill="white" stroke="black" stroke-width="0.925214" />
                <path d="M416.806 41.6577L413.336 51.318" stroke="#FFCC02" stroke-width="0.925214"
                    stroke-linecap="round" stroke-linejoin="round" />
                <path d="M432.408 62.3733L422.125 62.4647" stroke="#FFCC02" stroke-width="0.925214"
                    stroke-linecap="round" stroke-linejoin="round" />
                <path d="M428.328 49.6826L419.539 55.011" stroke="#FFCC02" stroke-width="0.925214"
                    stroke-linecap="round" stroke-linejoin="round" />
                <path
                    d="M33.8605 47.6087C34.3156 49.396 36.8546 49.396 37.3096 47.6087L38.0666 44.6354C38.311 43.6755 39.0606 42.926 40.0205 42.6816L42.9937 41.9246C44.7811 41.4696 44.7811 38.9306 42.9937 38.4755L40.0204 37.7185C39.0606 37.4741 38.311 36.7246 38.0666 35.7647L37.3096 32.7914C36.8546 31.0041 34.3156 31.0041 33.8605 32.7914L33.1035 35.7647C32.8591 36.7246 32.1096 37.4741 31.1497 37.7185L28.1764 38.4755C26.3891 38.9306 26.3891 41.4696 28.1764 41.9246L31.1497 42.6816C32.1096 42.926 32.8591 43.6755 33.1035 44.6354L33.8605 47.6087Z"
                    fill="white" stroke="black" stroke-width="0.925214" />
                <path d="M22.4688 18.8264L25.9399 28.4867" stroke="#FFCC02" stroke-width="0.925214"
                    stroke-linecap="round" stroke-linejoin="round" />
                <path d="M6.85938 39.5383L17.1423 39.6297" stroke="#FFCC02" stroke-width="0.925214"
                    stroke-linecap="round" stroke-linejoin="round" />
                <path d="M10.9375 26.8513L19.7262 32.1797" stroke="#FFCC02" stroke-width="0.925214"
                    stroke-linecap="round" stroke-linejoin="round" />
            </g>
        </g>
    </g>
    <defs>
        <clipPath id="clip0_3979_2654">
            <rect width="433" height="173.94" fill="white" transform="translate(0 10.905)" />
        </clipPath>
        <clipPath id="clip1_3979_2654">
            <rect width="433" height="173.94" fill="white" transform="translate(0 10.905)" />
        </clipPath>
        <clipPath id="clip2_3979_2654">
            <rect width="433" height="173.94" fill="white" transform="translate(0 10.905)" />
        </clipPath>
    </defs>
</svg>