<svg xmlns="http://www.w3.org/2000/svg" width="433" height="186" fill="none">
    <g clip-path="url(#a)">
        <g clip-path="url(#b)">
            <path fill="#FFF3ED"
                d="M93.558 57.738h242.038c13.859 0 25.109 14.7 25.109 32.809v54.868H68.449V90.547c0-18.108 11.25-32.809 25.109-32.809Z" />
            <path fill="#FF55EB" stroke="#000" stroke-miterlimit="10" stroke-width=".769"
                d="M258.967 141.801H43.868v21.536h215.099v-21.536Z" />
            <path fill="#06F" stroke="#000" stroke-linecap="round" stroke-width=".769"
                d="M348.571 142.576v-3.318h13.789v3.318h-13.789Zm-50.392-3.81v3.797h-17.112v-3.797h17.112Z" />
            <path fill="#000" stroke="#000" stroke-linecap="round" stroke-width=".769"
                d="M290.567 112.656H355.7v8.552c0 4.984-4.041 9.02-9.029 9.02h-47.064c-4.989 0-9.03-4.036-9.03-9.02v-8.552h-.01Z" />
            <path fill="#06F" stroke="#000" stroke-linecap="round" stroke-width=".769"
                d="M352.373 55.657v36.588c0 .688-.748 1.416-1.906 1.416-1.157 0-1.905-.728-1.905-1.416V55.657c0-.687.748-1.415 1.905-1.415 1.158 0 1.906.728 1.906 1.416Zm-54.2 0v36.588c0 .688-.748 1.416-1.906 1.416-1.157 0-1.906-.728-1.906-1.416V55.657c0-.687.749-1.415 1.906-1.415 1.158 0 1.906.728 1.906 1.416Z" />
            <path fill="#66A3FF" stroke="#000" stroke-linecap="round" stroke-width=".769"
                d="M355.7 114.08h-65.133V75.608c0-4.984 4.041-9.02 9.03-9.02h47.064c4.988 0 9.029 4.037 9.029 9.02v38.472h.01Z" />
            <path fill="#FFCC02" stroke="#000" stroke-linecap="round" stroke-width=".769"
                d="M321.838 119.304c-6.466-.04-12.622-1.675-20.284-4.834l3.601-13.695h36.099l2.923 13.665c-9.019 3.319-15.854 4.894-22.339 4.854v.01Z" />
            <path fill="#fff" stroke="#000" stroke-linecap="round" stroke-linejoin="round"
                stroke-width=".769"
                d="m318.369 67.366 10.586 1.116v-9.04l-9.668-.997-.918 8.91v.01Z" />
            <path fill="#fff" stroke="#000" stroke-linecap="round" stroke-linejoin="round"
                stroke-width=".769"
                d="M317.372 49.568c-1.925 4.585.24 9.857 4.829 11.781 4.59 1.924 9.878-.23 11.804-4.824l1.396-3.319c1.926-4.585-.23-9.857-4.829-11.79-4.59-1.924-9.867.239-11.803 4.823l-1.397 3.32v.01Z" />
            <path fill="#000"
                d="M328.15 54.258c.379-1.196.139-2.332-.539-2.551-.678-.22-1.546.568-1.926 1.764-.379 1.196.809-1.027 1.487-.808.678.22.598 2.801.978 1.605v-.01Zm-.057-3.304c-1.007-.418-.269-1.893.669-1.345.658.349 2.425 2.182 1.566 2.81a.51.51 0 0 1-.698-.199 2.906 2.906 0 0 0-1.527-1.285l-.01.02Zm-6.938-.434c.679.16.859 2.622 1.138 1.436.279-1.186-.03-2.273-.708-2.442-.679-.16-1.457.667-1.746 1.854-.29 1.186.638-1.017 1.316-.848Z" />
            <path fill="#fff"
                d="M323.036 53.745c-.628-.2-1.256-.389-1.886-.578.879-.957 1.776-1.904 2.655-2.86" />
            <path fill="#000"
                d="M324.114 51.119c.16-.16.419.08.27.249l-2.535 2.97-.15-.568 1.886.578c.429.13.229.797-.21.668l-1.886-.578a.338.338 0 0 1-.149-.568l2.774-2.741v-.01Z" />
            <path fill="#06F" stroke="#000" stroke-linecap="round" stroke-linejoin="round"
                stroke-width=".769"
                d="M312.638 71.005c-.07.269.239.498.628.498h20.883c.39 0 .699-.25.629-.498L333.531 66c-.05-.209-.32-.358-.629-.358h-18.388c-.309 0-.579.16-.629.358l-1.247 5.004Z" />
            <path fill="#06F" stroke="#000" stroke-linecap="round" stroke-linejoin="round"
                stroke-width=".769"
                d="m298.886 105.768 22.848 1.187c7.513-.349 18.358-.847 25.882-1.187-2.605-12.009-3.572-23.85-6.186-35.86h-36.128l-6.416 35.86Z" />
            <path stroke="#000" stroke-linecap="round" stroke-linejoin="round" stroke-width=".769"
                d="m298.886 105.768 22.848 1.187c7.513-.349 18.358-.847 25.882-1.187-2.605-12.009-3.572-23.85-6.186-35.86h-36.128l-6.416 35.86Z" />
            <path fill="#fff" stroke="#000" stroke-linecap="round" stroke-miterlimit="10"
                stroke-width=".769"
                d="M373.399 65.898a.873.873 0 0 0-1.188.31l.539-.928a.964.964 0 0 0-.349-1.325.965.965 0 0 0-1.327.349c-.129.229-.259.448-.399.677a.83.83 0 0 0-.3-1.136.84.84 0 0 0-1.137.3c-.728 1.106-1.457 2.222-2.185 3.328-.149-.379-.309-.757-.458-1.136-.34-.26-.789-.33-1.168-.16-.519.23-.718.808-.669 1.196.28.977.559 1.954.838 2.94-2.265 2.861-4.53 5.731-6.794 8.602l-8.262-4.655-2.235 5.183-2.284 5.313 13.259 4.086a4.253 4.253 0 0 0 5.359-2.302l1.486-2.88a286.605 286.605 0 0 1 4.84-8.921 306.198 306.198 0 0 1 3.611-6.2c.199-.348.209-.837-.14-1.036-.638-.28-.857-.17-1.107.26l.379-.659a.87.87 0 0 0-.309-1.186v-.02Z" />
            <path fill="#fff" d="M369.189 67.616c.49-.877.989-1.755 1.477-2.632l-1.477 2.632Z" />
            <path stroke="#000" stroke-linecap="round" stroke-linejoin="round" stroke-width=".769"
                d="M369.189 67.616c.49-.877.989-1.755 1.477-2.632" />
            <path fill="#fff" d="M371.145 68.135c.349-.638.708-1.276 1.057-1.924l-1.057 1.924Z" />
            <path stroke="#000" stroke-linecap="round" stroke-linejoin="round" stroke-width=".769"
                d="M371.145 68.135c.349-.638.708-1.276 1.057-1.924" />
            <path fill="#fff" d="M372.737 68.752c.19-.319.379-.638.559-.967l-.559.967Z" />
            <path stroke="#000" stroke-linecap="round" stroke-linejoin="round" stroke-width=".769"
                d="M372.737 68.752c.19-.319.379-.638.559-.967" />
            <path fill="#fff" stroke="#000" stroke-linecap="round" stroke-miterlimit="10"
                stroke-width=".769"
                d="m293.196 50.962 3.024 20.153 12.202-2.731-6.745-19.505-3.592-10.346 1.756-2.502a.962.962 0 0 0-.239-1.345.965.965 0 0 0-1.347.24l-.719 1.026-.867-4.425a.84.84 0 0 0-.969-.658.831.831 0 0 0-.658.966c-.05-.259-.1-.508-.149-.767a.973.973 0 0 0-1.138-.767.966.966 0 0 0-.768 1.136l.209 1.066a.871.871 0 0 0-1.017-.688.871.871 0 0 0-.689 1.017l.16.797a.738.738 0 0 0-1.447.29c.479 2.292.938 4.644 1.377 7.036a281.125 281.125 0 0 1 1.646 10.017l-.03-.01Z" />
            <path fill="#fff" d="M295.548 34.804a308.1 308.1 0 0 1-.528-2.97l.528 2.97Z" />
            <path stroke="#000" stroke-linecap="round" stroke-linejoin="round" stroke-width=".769"
                d="M295.548 34.804a308.1 308.1 0 0 1-.528-2.97" />
            <path fill="#fff" d="M293.55 34.657c-.12-.718-.249-1.435-.369-2.153l.369 2.153Z" />
            <path stroke="#000" stroke-linecap="round" stroke-linejoin="round" stroke-width=".769"
                d="M293.55 34.657c-.12-.718-.249-1.435-.369-2.153" />
            <path fill="#fff" d="m291.823 34.715-.21-1.096.21 1.096Z" />
            <path stroke="#000" stroke-linecap="round" stroke-linejoin="round" stroke-width=".769"
                d="m291.823 34.715-.21-1.096" />
            <path fill="#06F"
                d="M292.282 59.67c6.176-1.993 8.142-2.581 14.318-4.574 4.979 11.73 6.126 16.086 2.744 20.631-.958 1.286-3.243 2.233-5.698 2.392-5.467.359-8.33-7.116-11.364-18.439v-.01Zm65.302 15.47c-2.454 6.01-3.253 7.883-5.707 13.893-12.192-3.747-16.263-5.66-17.571-11.172-.369-1.565.379-3.917 1.826-5.89 3.243-4.416 10.806-1.795 21.452 3.179v-.01Z" />
            <path stroke="#000" stroke-linecap="round" stroke-miterlimit="10" stroke-width=".769"
                d="M311.261 69.897c-.01-.598-.08-1.236-.189-1.914-.509-3.1-2.026-7.096-4.49-12.897-6.176 1.993-8.142 2.581-14.317 4.575 3.042 11.332 5.896 18.797 11.364 18.438.947-.06 1.886-.249 2.714-.518m31.193 5.494c.469.38.997.738 1.587 1.097 2.703 1.615 6.744 3.02 12.77 4.864 2.445-6.01 3.253-7.884 5.708-13.894-10.637-4.974-18.199-7.595-21.452-3.18a10.527 10.527 0 0 0-1.347 2.412" />
            <path fill="#000"
                d="M368.019 126.459v31.515a4.53 4.53 0 0 1-4.53 4.525h-2.135v-40.565h2.135a4.536 4.536 0 0 1 4.53 4.525Z" />
            <path fill="#06F" stroke="#000" stroke-linecap="round" stroke-width=".769"
                d="M364.212 166.655h-2.374v-48.38c0-.269.219-.488.488-.488h1.467c.24.03.419.239.419.478v48.39Zm-66.999-2.233v-5.223h52.292v5.223h-52.292Z" />
            <path stroke="#000" stroke-linecap="round" stroke-miterlimit="10" stroke-width=".769"
                d="M354.689 163.206a3.055 3.055 0 0 1-3.063-3.059v-6.239a3.056 3.056 0 0 1 3.063-3.06h.389a3.056 3.056 0 0 1 3.064 3.06v6.239a3.056 3.056 0 0 1-3.064 3.059h-.389Z" />
            <path fill="#06F" stroke="#000" stroke-linecap="round" stroke-width=".769"
                d="M356.272 113.285v45.658h-2.375v-45.658a.49.49 0 0 1 .49-.488h1.406c.27 0 .489.219.489.488h-.01Zm-6.972 0v45.658h-2.375v-45.658c0-.269.219-.488.489-.488h1.397a.49.49 0 0 1 .489.488Z" />
            <path fill="#06F" stroke="#000" stroke-linecap="round" stroke-width=".769"
                d="M355.511 158.813v8.791a.42.42 0 0 1-.419.418.421.421 0 0 1-.419-.418v-8.791c0-.229.19-.418.419-.418a.42.42 0 0 1 .419.418Z" />
            <path fill="#000"
                d="M278.655 157.636v-31.515a4.537 4.537 0 0 1 4.53-4.525h2.135v40.565h-2.135a4.538 4.538 0 0 1-4.53-4.525Z" />
            <path fill="#06F" stroke="#000" stroke-linecap="round" stroke-width=".769"
                d="M282.459 117.928a.49.49 0 0 1 .488-.489h1.408a.49.49 0 0 1 .488.489v48.379h-2.374v-48.379h-.01Z" />
            <path stroke="#000" stroke-linecap="round" stroke-miterlimit="10" stroke-width=".769"
                d="M291.977 162.855a3.056 3.056 0 0 0 3.063-3.06v-6.239a3.056 3.056 0 0 0-3.063-3.06h-.389a3.056 3.056 0 0 0-3.064 3.06v6.239a3.056 3.056 0 0 0 3.064 3.06h.389Z" />
            <path fill="#06F" stroke="#000" stroke-linecap="round" stroke-width=".769"
                d="M290.39 112.947a.49.49 0 0 1 .489-.488h1.406c.27 0 .49.219.49.488v45.658H290.4v-45.658h-.01Zm6.787.184a.49.49 0 0 1 .489-.488h1.407c.27 0 .489.219.489.488v45.658h-2.375v-45.658h-.01Z" />
            <path fill="#000"
                d="M292.477 158.464a.892.892 0 0 0-.897-.888.892.892 0 0 0-.898.888v8.79a.9.9 0 0 0 .898.897.893.893 0 0 0 .897-.897v-8.79Z" />
            <path fill="#FFCC02" stroke="#000" stroke-linecap="round" stroke-linejoin="round"
                stroke-width=".769"
                d="M343.24 104.864a8.973 8.973 0 0 0-8.81-8.651 8.984 8.984 0 0 0-9.129 8.262l-3.922 49.167 23.606.448-1.745-49.216v-.01Z" />
            <path fill="#08F8C3" stroke="#000" stroke-linecap="round" stroke-linejoin="round"
                stroke-width=".769"
                d="M348.012 160.08h-27.029c.589-6.877 6.415-12.279 13.52-12.279 7.104 0 12.92 5.412 13.519 12.279h-.01Z" />
            <path fill="#FFCC02" stroke="#000" stroke-linecap="round" stroke-linejoin="round"
                stroke-width=".769"
                d="M320.492 104.584a8.971 8.971 0 0 0-9.129-8.313c-4.749.09-8.611 3.857-8.81 8.601l-2.066 49.276 23.607-.439-3.602-49.115v-.01Z" />
            <path fill="#08F8C3" stroke="#000" stroke-linecap="round" stroke-linejoin="round"
                stroke-width=".769"
                d="M325.669 160.08H298.64c.588-6.877 6.415-12.279 13.519-12.279s12.921 5.412 13.52 12.279h-.01Z" />
            <path stroke="#000" stroke-linecap="round" stroke-linejoin="round" stroke-width=".385"
                d="M321.116 57.797c.877.818 3.421-.727 3.421-.727l-4.081-1.425s-.089 1.455.66 2.152Z" />
            <path fill="#000"
                d="M323.289 47.365c1.088.23.598 1.844-.429 1.426a2.965 2.965 0 0 0-1.996-.15.497.497 0 0 1-.578-.26c-.409-1.125 2.314-1.225 3.023-1.016h-.02Z" />
            <path fill="#fff"
                d="M331.765 57.445c.14.1 1.317.917 2.674.469 1.137-.379 2.245-1.595 1.936-2.93-.24-1.027-1.228-1.814-2.425-1.894" />
            <path stroke="#000" stroke-linecap="round" stroke-linejoin="round" stroke-width=".769"
                d="M331.765 57.445c.14.1 1.317.917 2.674.469 1.137-.379 2.245-1.595 1.936-2.93-.24-1.027-1.228-1.814-2.425-1.894" />
            <path fill="#06F" stroke="#000" stroke-linecap="round" stroke-width=".769"
                d="M358.548 112.416c0 .917-.748 1.665-1.667 1.665h-9.029a1.668 1.668 0 0 1-1.666-1.665c0-.916.748-1.664 1.666-1.664h9.029c.919 0 1.667.748 1.667 1.664Zm-57.52 0c0 .917-.748 1.665-1.666 1.665h-9.029a1.669 1.669 0 0 1-1.667-1.665c0-.916.748-1.664 1.667-1.664h9.029c.918 0 1.666.748 1.666 1.664Z" />
            <path fill="#FF55EB" stroke="#000" stroke-miterlimit="10" stroke-width=".769"
                d="M299.453 25.764a7.865 7.865 0 0 0-7.872-7.864 7.865 7.865 0 1 0 0 15.728 7.865 7.865 0 0 0 7.872-7.864Zm65.96 39.156 11.849 3.92 3.924-11.837-11.85-3.919-3.923 11.837Z" />
            <path fill="#080808"
                d="m327.953 44.784-1.108 2.173a4.46 4.46 0 0 1-2.544.408c-1.856-.259-2.883-1.584-3.063-1.834-1.098.987-1.756.897-2.854 1.884-.569-.18-1.297-.508-1.865-.688.139-2.461.01-3.697.159-6.16 1.008-3.378 3.941-5.69 7.234-5.8 3.512-.11 5.887 2.332 6.236 2.711.529-.16 1.706-.418 3.003.04 1.826.648 3.133 2.472 3.332 4.625 1.367-.38 2.505.329 2.635 1.026.089.529-.37 1.166-1.118 1.525.369.22 1.816 1.136 2.354 2.92.789 2.612-1.087 4.655-1.216 4.785-.799.797-1.358 1.265-2.156 2.063-1.088-.559-1.457-.828-2.554-1.386-.379-.757-1.746-1.694-2.035-2.87a14.186 14.186 0 0 1-.399-3.25c-.47.858-.929 1.735-1.387 2.592-.11.05-.778.339-1.547.03-.698-.28-.987-.867-1.047-.977l-.06-3.827v.01Z" />
            <path fill="#fff"
                d="M316.206 50.99c-.16-.03-1.577-.3-2.205-1.576-.529-1.066-.429-2.72.738-3.438.898-.548 2.155-.399 3.053.409" />
            <path stroke="#000" stroke-linecap="round" stroke-linejoin="round" stroke-width=".769"
                d="M316.206 50.99c-.16-.03-1.577-.3-2.205-1.576-.529-1.066-.429-2.72.738-3.438.898-.548 2.155-.399 3.053.409" />
            <path fill="#08F8C3" stroke="#000" stroke-linecap="round" stroke-linejoin="round"
                stroke-width=".769"
                d="M141.606 129.775c7.261-.01 13.238 5.449 13.958 12.441l-27.865.063c.69-6.993 6.645-12.483 13.907-12.504Z" />
            <path fill="#FFCC02" stroke="#000" stroke-linecap="round" stroke-linejoin="round"
                stroke-width=".769"
                d="M125.729 88.174c-2.309-1.034-4.461-.136-4.827.02-7.961 2.923-15.933 5.845-23.895 8.778-5.276.814-8.954 5.824-8.14 11.094.816 5.271 5.831 8.945 11.107 8.131l17.344-4.978c3.344 8.068 6.687 16.136 10.02 24.203l26.873-1.065c-13.802-23.733-24.01-40.976-25.88-43.835-.335-.522-1.16-1.69-2.623-2.348h.021Z" />
            <path fill="#08F8C3" stroke="#000" stroke-linecap="round" stroke-linejoin="round"
                stroke-width=".769"
                d="M98.97 150.974c7.899-.345 14.649 5.323 15.756 12.9l-30.32 1.337c.438-7.641 6.665-13.882 14.564-14.237Z" />
            <path fill="#FFCC02" stroke="#000" stroke-linecap="round" stroke-linejoin="round"
                stroke-width=".769"
                d="m84.732 156.107 26.883-1.221c-1.974-18.63-3.97-37.27-5.945-55.9-.574-5.376-5.244-9.384-10.646-9.144a10.23 10.23 0 0 0-9.78 10.125l-.512 56.13v.01Z" />
            <path fill="#fff" stroke="#000" stroke-linecap="round" stroke-linejoin="round"
                stroke-width=".769" d="m97.39 51.25-9.298-.565-.616 10.197 9.299.564.616-10.197Z" />
            <path fill="#fff" stroke="#000" stroke-linecap="round" stroke-linejoin="round"
                stroke-width=".769"
                d="M101.478 34.539c-1.85-5.365-7.69-8.204-13.06-6.367-5.37 1.847-8.223 7.682-6.373 13.046l1.337 3.883c1.85 5.354 7.69 8.203 13.06 6.367 5.36-1.848 8.213-7.682 6.374-13.047l-1.338-3.882Z" />
            <path fill="#000"
                d="M98.542 39.671c.575-.22 1.546 1.607 1.16.595-.386-1.012-1.16-1.649-1.745-1.43-.575.22-.742 1.221-.355 2.223.386 1.013.355-1.169.94-1.388Zm-.857-2.087c-.585 0-1.18.198-1.661.594a.46.46 0 0 1-.638-.052c-.522-.793 1.516-1.764 2.174-1.847.95-.167 1.107 1.284.136 1.325l-.01-.02Z" />
            <path fill="#fff"
                d="M100.526 38.182c.909 1.169 1.829 2.337 2.738 3.506-.732.157-1.463.324-2.195.48" />
            <path fill="#000"
                d="m101.027 37.848 2.884 3.382c.199.22.062.595-.23.637l-2.194.48c-.502.115-.679-.668-.178-.773l2.194-.48-.229.637-2.592-3.611c-.156-.209.167-.449.324-.261l.021-.01Z" />
            <path stroke="#000" stroke-linecap="round" stroke-linejoin="round" stroke-width=".385"
                d="M98.03 44.639c.23.177.866.647 1.817.688a3.047 3.047 0 0 0 1.516-.323" />
            <path fill="#fff" stroke="#000" stroke-linecap="round" stroke-miterlimit="10"
                stroke-width=".769"
                d="M131.963 60.504a.995.995 0 0 0-1.379-.199l.857-.647a1.163 1.163 0 1 0-1.4-1.858c.386-.281.773-.584 1.16-.866a1.297 1.297 0 1 0-1.557-2.077c-.282.209-.554.418-.846.627.48-.366.585-1.065.23-1.556a1.125 1.125 0 0 0-1.557-.219l-4.828 3.622.209-1.66a1.292 1.292 0 0 0-1.128-1.44 1.287 1.287 0 0 0-1.442 1.127l-.501 4.05a7775.22 7775.22 0 0 0-12.83 7.066l-7.743-10.02-5.453 5.219-5.58 5.364 14.199 11.909a5.672 5.672 0 0 0 7.784-.052l3.322-2.776a389.962 389.962 0 0 1 10.595-8.475 396.912 396.912 0 0 1 7.669-5.762.993.993 0 0 0 .198-1.377h.021Z" />
            <path fill="#fff" d="M128.805 55.504c-1.056.824-2.132 1.649-3.187 2.474l3.187-2.474Z" />
            <path stroke="#000" stroke-linecap="round" stroke-linejoin="round" stroke-width=".769"
                d="M128.805 55.504c-1.056.824-2.132 1.649-3.187 2.474" />
            <path fill="#fff" d="M130.056 57.799c-.773.605-1.536 1.21-2.299 1.816l2.299-1.816Z" />
            <path stroke="#000" stroke-linecap="round" stroke-linejoin="round" stroke-width=".769"
                d="M130.056 57.799c-.773.605-1.536 1.21-2.299 1.816" />
            <path fill="#fff" d="M130.573 60.295c-.396.292-.793.595-1.19.898l1.19-.898Z" />
            <path stroke="#000" stroke-linecap="round" stroke-linejoin="round" stroke-width=".769"
                d="M130.573 60.295c-.396.292-.793.595-1.19.898" />
            <path fill="#06F" stroke="#000" stroke-linecap="round" stroke-linejoin="round"
                stroke-width=".769"
                d="m105.177 60.242-21.471-.094c-2.288 12.619-4.586 25.237-6.875 37.855 6.446.387 12.893.783 19.34 1.18l16.957.073-7.951-39.014Z" />
            <path fill="#06F" stroke="#000" stroke-linecap="round" stroke-linejoin="round"
                stroke-width=".769"
                d="M101.624 55.806c-.042-.167-.219-.303-.429-.303l-12.59-.052c-.208 0-.397.126-.428.303l-.867 4.154c-.041.219.157.417.429.417l14.292.063c.272 0 .481-.198.44-.418l-.836-4.154-.011-.01Z" />
            <path fill="#020202"
                d="M101.286 34.424c-1.494.323-3.333 1.18-6.175 1.054-1.61-.073-4.263-.856-5.235-1.45.261 2.16 1.359 3.485-.031 6.188-.731 1.43-1.17 1.827-1.745 2.15-.199 1.075-.429.512.366 1.806.543.877.909.752 1.19.96 1.223.877 2.153 4.436.983 11.491.177.136 1.578 1.232 1.462 2.777-.093 1.231-1.107 2.004-1.472 2.285-2.236 1.712-11.128 1.336-13.938-.96-3.772-3.058.783-9.08 1.201-17.461.126-2.494.366-4.53.554-5.876-.993-.167-1.88-.616-2.027-1.242-.199-.845.898-2.192 2.999-2.62-1.338-.929-1.808-2.338-1.411-3.027.44-.761 2.215-1.106 3.866.042 5.506-4.143 12.099-4.613 16.017-1.576 2.058 1.597 2.968 3.862 3.385 5.47v-.022l.011.01Z" />
            <path fill="#fff"
                d="M91.114 40.51c-1.379 0-2.56.824-2.904 1.972-.449 1.503.72 2.975 1.985 3.486 1.505.606 2.915-.23 3.072-.334" />
            <path stroke="#000" stroke-linecap="round" stroke-linejoin="round" stroke-width=".769"
                d="M91.554 40.3c-1.306-.427-2.685 0-3.375.971-.888 1.284-.24 3.048.804 3.925 1.244 1.043 2.843.678 3.02.636" />
            <path fill="#fff" stroke="#000" stroke-linecap="round" stroke-miterlimit="10"
                stroke-width=".769"
                d="M90.856 98.485 87.7 74.752l14.659-.877-1.264 24.203-.689 12.849 2.799 2.254c.481.396.565 1.106.168 1.597a1.134 1.134 0 0 1-1.599.167l-1.149-.919.46 5.271a.974.974 0 0 1-.889 1.054.972.972 0 0 1-1.055-.887c.021.303.052.605.073.918a1.137 1.137 0 1 1-2.267.198c-.041-.417-.073-.845-.115-1.262a1.02 1.02 0 0 1-.93 1.106 1.014 1.014 0 0 1-1.108-.929l-.093-.95a.873.873 0 0 1-.784.94.867.867 0 0 1-.94-.783c-.21-2.745-.46-5.553-.742-8.402a354.69 354.69 0 0 0-1.41-11.836h.02l.01.021Z" />
            <path fill="#fff" d="M98.753 115.926c.125 1.179.24 2.348.366 3.527l-.366-3.527Z" />
            <path stroke="#000" stroke-linecap="round" stroke-linejoin="round" stroke-width=".769"
                d="M98.753 115.926c.125 1.179.24 2.348.366 3.527" />
            <path fill="#fff" d="M96.558 116.748c.104.856.198 1.701.292 2.557l-.292-2.557Z" />
            <path stroke="#000" stroke-linecap="round" stroke-linejoin="round" stroke-width=".769"
                d="M96.558 116.748c.104.856.198 1.701.292 2.557" />
            <path fill="#fff" d="M94.599 117.23c.041.439.084.877.114 1.305l-.114-1.305Z" />
            <path stroke="#000" stroke-linecap="round" stroke-linejoin="round" stroke-width=".769"
                d="M94.599 117.23c.041.439.084.877.114 1.305" />
            <path fill="#06F" stroke="#000" stroke-linecap="round" stroke-linejoin="round"
                stroke-width=".769"
                d="M90.695 60.327c2.634-.929 5.455-.96 7.042-.042 5.59 3.246 6.332 8.319 6.395 22.837-7.366.678-9.686.939-17.062 1.627-1.901-13.233-2.267-22.345 3.626-24.422Z" />
            <path stroke="#000" stroke-linecap="round" stroke-miterlimit="10" stroke-width=".769"
                d="M90.695 60.327c2.634-.929 5.455-.96 7.042-.042 5.59 3.246 6.332 8.319 6.395 22.837-7.366.678-9.686.939-17.062 1.627-1.901-13.233-2.267-22.345 3.626-24.422Z" />
            <path fill="#fff" stroke="#000" stroke-width=".769"
                d="M42.54 73.378c.378 1.485 2.489 1.485 2.867 0l.757-2.975a2.249 2.249 0 0 1 1.624-1.624l2.975-.758c1.486-.378 1.486-2.489 0-2.867l-2.974-.757a2.249 2.249 0 0 1-1.625-1.624l-.757-2.975c-.378-1.486-2.489-1.486-2.867 0l-.758 2.975a2.248 2.248 0 0 1-1.624 1.624l-2.974.757c-1.486.378-1.486 2.489 0 2.867l2.974.758a2.248 2.248 0 0 1 1.624 1.624l.758 2.975Z" />
            <path stroke="#FF55EB" stroke-linecap="round" stroke-linejoin="round"
                stroke-width=".769"
                d="m48.068 72.822 3.437 9.575M32.614 93.35l10.182.09m-6.143-12.663 8.703 5.282" />
            <path fill="#000"
                d="M211.322 40.798c3.938-2.512 8.473-1.132 9.009-.968 6.371 1.926 8.423 9.536 9.556 13.778.908 3.357.742 5.52.33 7.167-.546 2.142-1.577 3.584-2.288 4.552-6.856 9.432-9.123 10.42-10.536 14.437-1.803 5.148.794 6.57-1.195 9.33-3.67 5.117-15.669 3.532-22.926-.547-3.886-2.182-5.669-4.654-6.196-5.426-2.226-3.285-2.7-6.59-2.824-8.248.866-.69 1.742-1.38 2.608-2.07l-3.041-1.74c.083-1.154.144-2.317.216-3.47 2.65 1.214 8.753 3.531 15.216 1.41 1.608-.525 6.051-1.987 6.844-5.21.103-.36.124-.69.114-1-.124-2.43-1.186-4.19-1.619-4.9-2.164-3.512-2.009-9.98.887-12.842.526-.515 1.464-1.246 3.123-1.637a9.741 9.741 0 0 1 2.711-2.636v.02h.011Z" />
            <path fill="#08F8C3" stroke="#000" stroke-linecap="round" stroke-linejoin="round"
                stroke-width=".769"
                d="m222.432 167.723-27.596-.155c.618-7.023 6.618-12.512 13.844-12.47 7.278.041 13.164 5.55 13.752 12.625Z" />
            <path fill="#06F" stroke="#000" stroke-linecap="round" stroke-linejoin="round"
                stroke-width=".769"
                d="M218.714 108.636c-.217-4.85-4.227-8.691-9.071-8.733-4.855-.071-8.896 3.677-9.226 8.527-1.103 16.764-2.268 33.518-3.382 50.231l24.112.185-2.433-50.21Z" />
            <path fill="#08F8C3" stroke="#000" stroke-linecap="round" stroke-linejoin="round"
                stroke-width=".769"
                d="m241.004 167.98-27.596-.154c.619-7.023 6.618-12.511 13.845-12.47 7.278.041 13.163 5.55 13.751 12.624Z" />
            <path fill="#06F" stroke="#000" stroke-linecap="round" stroke-linejoin="round"
                stroke-width=".769"
                d="M237.277 108.884c-.216-4.85-4.226-8.691-9.071-8.733-4.856-.071-8.896 3.677-9.226 8.527-1.103 16.764-2.268 33.518-3.381 50.231l24.111.185-2.433-50.21Z" />
            <path fill="#fff" stroke="#000" stroke-linecap="round" stroke-linejoin="round"
                stroke-width=".769" d="m224.756 61.184-10.02 1.04v9.36l10.999-1.184-.979-9.226v.01Z" />
            <path fill="#fff"
                d="M225.738 48.673c.938-.844 2.216-.999 3.165-.453 1.237.741 1.33 2.471.783 3.553-.649 1.328-2.123 1.627-2.278 1.627" />
            <path stroke="#000" stroke-linecap="round" stroke-linejoin="round" stroke-width=".769"
                d="M225.738 48.673c.938-.844 2.216-.999 3.165-.453 1.237.741 1.33 2.471.783 3.553-.649 1.328-2.123 1.627-2.278 1.627" />
            <path fill="#fff" stroke="#000" stroke-linecap="round" stroke-linejoin="round"
                stroke-width=".769"
                d="M225.292 48.498c-1.969-4.789-7.505-7.003-12.236-4.984-4.783 1.966-7.01 7.496-5.031 12.223l1.433 3.45c1.969 4.788 7.505 7.002 12.236 4.983 4.783-2.018 7.01-7.496 5.031-12.223l-1.433-3.45Z" />
            <path fill="#000"
                d="M216.171 55.41c.588 1.195.155-1.42.845-1.77.691-.3 2.175 1.822 1.629.648-.547-1.184-1.526-1.864-2.226-1.575-.702.288-.794 1.534-.248 2.708v-.01Zm-.425-3.855c-.588.35-1.124.845-1.381 1.535-.103.298-.433.39-.691.298-.979-.535.588-2.657 1.237-3.1.897-.7 1.825.732.845 1.278h-.01v-.01Zm7.129-.843c.69-.299 1.927 1.863 1.473.69-.453-1.184-1.319-1.916-2.02-1.669-.701.248-.897 1.432-.443 2.616.433 1.184.288-1.38.979-1.627h.011v-.01Z" />
            <path fill="#fff"
                d="M220.994 54.03c.804.844 1.567 1.698 2.381 2.543-.557.164-1.113.34-1.701.504" />
            <path fill="#000"
                d="M223.057 55.418c.196.196.093.536-.154.587l-1.98.587c-.453.154-.649-.535-.195-.69l1.979-.587-.155.587-2.618-3.058c-.196-.196.092-.443.247-.299l2.866 2.863.01.01Z" />
            <path fill="#F9E07A" stroke="#000" stroke-linecap="round" stroke-linejoin="round"
                stroke-width=".769"
                d="M227.882 68.826c-.031-.206-.288-.412-.536-.412H211.08c-.289 0-.496.154-.536.412l-1.093 5.52c-.042.257.206.576.536.576h18.452c.33 0 .628-.257.536-.577l-1.093-5.52Z" />
            <path fill="#FFE067"
                d="m240.29 108.934-5.485-35.217h-30.853c-2.308 11.646-4.607 23.293-6.917 34.939l43.244.278h.011Z" />
            <path stroke="#000" stroke-linecap="round" stroke-linejoin="round" stroke-width=".769"
                d="m240.299 108.934-5.588-35.217h-31.44c-2.351 11.646-4.691 23.293-7.041 34.939l44.058.278h.011Z" />
            <path fill="#fff" stroke="#000" stroke-linecap="round" stroke-miterlimit="10"
                stroke-width=".769"
                d="M248.396 55.142c.494-3.398 1.03-6.848 1.67-10.4.453-2.513.938-4.933 1.432-7.301.093-.391-.195-.834-.587-.886-.392-.103-.835.196-.886.587l.154-.844c.093-.494-.196-.989-.69-1.04a.935.935 0 0 0-1.083.69c.041-.34.144-.731.196-1.081.093-.536-.248-1.082-.784-1.185-.536-.103-1.082.237-1.185.783-.051.237-.093.535-.154.783.093-.433-.197-.927-.691-.989a.881.881 0 0 0-1.041.69l-.886 4.593-.743-1.082a1.017 1.017 0 0 0-1.382-.247c-.443.299-.546.927-.247 1.38l1.825 2.616a1003.974 1003.974 0 0 1-3.753 10.75l-7.009 20.266 12.69 2.862 3.164-20.955-.01.01Z" />
            <path fill="#FFCC02"
                d="M237.553 83.354c-2.566-.155-4.886-1.133-5.927-2.472-3.494-4.726-2.319-9.206 2.866-21.398 6.411 2.07 8.432 2.657 14.855 4.727-3.144 11.739-6.114 19.483-11.794 19.133v.01Z" />
            <path stroke="#000" stroke-linecap="round" stroke-miterlimit="10" stroke-width=".769"
                d="M234.726 82.81c.886.298 1.824.494 2.814.545 5.67.392 8.628-7.393 11.792-19.132-6.412-2.07-8.432-2.657-14.854-4.727-2.556 6.014-4.144 10.153-4.638 13.407-.093.7-.196 1.39-.196 1.977" />
            <path fill="#fff"
                d="m189.002 56.204 3.433 20.914 12.648-3.028-7.278-20.172a741.814 741.814 0 0 1-3.896-10.7l1.793-2.635c.3-.454.186-1.082-.268-1.38-.443-.299-1.041-.186-1.381.257l-.722 1.092-.948-4.583a.896.896 0 0 0-1.051-.68c-.495.052-.784.557-.681 1-.041-.237-.092-.536-.155-.783-.092-.546-.649-.875-1.196-.772-.546.103-.885.648-.772 1.194.051.34.154.731.206 1.081-.103-.443-.598-.782-1.092-.68-.496.063-.784.557-.681 1.051l.165.844c-.052-.39-.505-.68-.897-.576-.392.051-.68.504-.577.896a259.84 259.84 0 0 1 1.536 7.28 291.68 291.68 0 0 1 1.814 10.38Z" />
            <path stroke="#000" stroke-linecap="round" stroke-miterlimit="10" stroke-width=".769"
                d="m189.002 56.204 3.433 20.914 12.648-3.028-7.278-20.172a741.814 741.814 0 0 1-3.896-10.7l1.793-2.635c.3-.454.186-1.082-.268-1.38-.443-.299-1.041-.186-1.381.257l-.722 1.092-.948-4.583a.896.896 0 0 0-1.051-.68c-.495.052-.784.557-.681 1-.041-.237-.092-.536-.155-.783-.092-.546-.649-.875-1.196-.772-.546.103-.885.648-.772 1.194.051.34.154.731.206 1.081-.103-.443-.598-.782-1.092-.68-.496.063-.784.557-.681 1.051l.165.844c-.052-.39-.505-.68-.897-.576-.392.051-.68.504-.577.896a259.84 259.84 0 0 1 1.536 7.28 291.68 291.68 0 0 1 1.814 10.38Zm0 0h-.011" />
            <path fill="#fff" d="M191.253 39.406c-.155-1.04-.371-2.07-.577-3.1l.577 3.1Z" />
            <path stroke="#000" stroke-linecap="round" stroke-linejoin="round" stroke-width=".769"
                d="M191.253 39.406c-.155-1.04-.371-2.07-.577-3.1" />
            <path fill="#fff" d="M189.196 39.241c-.165-.741-.278-1.472-.423-2.214l.423 2.214Z" />
            <path stroke="#000" stroke-linecap="round" stroke-linejoin="round" stroke-width=".769"
                d="M189.196 39.241c-.165-.741-.278-1.472-.423-2.214" />
            <path fill="#FFCC02"
                d="M188.17 65.263c6.402-2.153 8.412-2.78 14.803-4.933 5.34 12.11 6.587 16.59 3.144 21.357-1.031 1.349-3.34 2.358-5.896 2.543-5.67.412-8.732-7.29-12.041-18.978l-.01.01Z" />
            <path stroke="#000" stroke-linecap="round" stroke-miterlimit="10" stroke-width=".769"
                d="M207.994 75.653c0-.587-.113-1.277-.217-1.967-.536-3.244-2.165-7.373-4.813-13.356-6.402 2.152-8.413 2.78-14.804 4.933 3.32 11.687 6.381 19.452 12.04 18.978 1.001-.062 1.928-.278 2.815-.577" />
            <path stroke="#000" stroke-linecap="round" stroke-linejoin="round" stroke-width=".385"
                d="m224.001 57.285-4.248 1.473s2.619 1.585 3.557.741c.783-.69.691-2.214.691-2.214Z" />
            <path fill="#000"
                d="M225.481 45.944c-3.896-6.95-10.71-6.416-15.246-3.45-5.381 3.512-6.421 13.459-4.989 13.81.546.143 3.907-1.432 6.917-8.538 4.938.196 6.412-1.43 13.318-1.822Z" />
            <path fill="#000"
                d="M220.283 47.696c.69-.299 3.515-.535 3.257.649-.093.247-.351.401-.546.35a3.067 3.067 0 0 0-2.021.391c-1.082.597-1.773-1.03-.69-1.38v-.01Z" />
            <path fill="#fff"
                d="M211.92 56.531c-1.063.093-1.949.773-2.165 1.7-.258 1.194.721 2.296 1.742 2.625 1.196.381 2.247-.34 2.381-.422" />
            <path fill="#fff"
                d="M209.489 55.596c-1.238.113-2.269.896-2.516 1.977-.299 1.39.845 2.667 2.02 3.058 1.392.443 2.619-.391 2.774-.494" />
            <path stroke="#000" stroke-linecap="round" stroke-linejoin="round" stroke-width=".769"
                d="M209.489 55.596c-1.238.113-2.269.896-2.516 1.977-.299 1.39.845 2.667 2.02 3.058 1.392.443 2.619-.391 2.774-.494m-24.628-21.903.299 1.442" />
            <path fill="#72F4C6" stroke="#000" stroke-miterlimit="10" stroke-width=".769"
                d="m253.207 27.677-71.251-2.78-.423 10.75 71.252 2.78.412-10.75h.01Z" />
            <path fill="#80A7F8"
                d="M186.819 31.974a1.652 1.652 0 0 0 1.402-1.874 1.653 1.653 0 0 0-1.876-1.4 1.65 1.65 0 0 0-1.402 1.874 1.653 1.653 0 0 0 1.876 1.4Z" />
            <path fill="#06F"
                d="M184.344 30.529a2.274 2.274 0 0 0 2.443 2.09 2.26 2.26 0 0 0 2.083-2.44 2.276 2.276 0 0 0-2.444-2.09 2.281 2.281 0 0 0-2.093 2.44h.011Zm2.536-1.576.072.989.989-.072c.073 0 .145.051.155.134l.041.473a.154.154 0 0 1-.133.155l-.99.072.072.988a.155.155 0 0 1-.134.155l-.474.041c-.083 0-.145-.051-.155-.134l-.082-.988-.99.072a.155.155 0 0 1-.155-.134l-.041-.474c0-.082.051-.144.134-.154l.989-.083-.071-.988c0-.072.051-.144.134-.155l.474-.04c.072 0 .144.05.154.133l.011.01Z" />
            <path fill="#FF55EB" fill-rule="evenodd"
                d="M226.061 19.192c.465.816.601 1.78.365 2.696a3.662 3.662 0 0 1-.601 1.233 4.293 4.293 0 0 1-.438.472c-.17.162-.331.317-.473.512a.937.937 0 0 0-.169.337c-.027.175 0 .35.075.512a3.043 3.043 0 0 0 .445.762c.074.101.149.195.216.303.357.6.384 1.645.223 2.312a4.95 4.95 0 0 1-.088.303 3.918 3.918 0 0 1-1.309 1.813c-.728.56-1.68.728-2.597.775-2.652.135-5.378-.654-7.381-2.386-.898-.775-1.249-1.738-1.195-2.931.014-.378.081-.755.189-1.126.108-.357.25-.7.425-1.031l.014-.027c.283-.54.6-1.146 1.16-1.449a.613.613 0 0 1 .304-.087c.088.013.176.04.256.094a.59.59 0 0 1 .183.202c.06.094.107.195.155.296.027.061.054.129.088.19.411.788 1.362 1.084 2.219 1.313.101.027.202.054.31.088.385.108.796.23 1.175.23a.95.95 0 0 0 .411-.082.967.967 0 0 0 .344-.249.93.93 0 0 0 .168-.391.895.895 0 0 0-.02-.425 1.907 1.907 0 0 0-.418-.748c-.662-.788-.796-1.691-.519-2.689a3.606 3.606 0 0 1 1.686-2.136 3.54 3.54 0 0 1 4.824 1.321l-.027-.007Z"
                clip-rule="evenodd" />
            <path stroke="#000" stroke-miterlimit="10" stroke-width=".769"
                d="M225.987 22.885c.196-.31.344-.647.439-.997.236-.917.1-1.88-.365-2.696l.027.007a3.54 3.54 0 0 0-4.824-1.321 3.606 3.606 0 0 0-1.686 2.136c-.277.998-.143 1.9.519 2.69.196.215.337.471.418.747a.895.895 0 0 1 .02.425.93.93 0 0 1-.168.391.967.967 0 0 1-.344.25.954.954 0 0 1-.411.08c-.379 0-.79-.121-1.175-.229-.108-.034-.209-.06-.31-.088-.857-.229-1.808-.525-2.219-1.314-.034-.06-.061-.128-.088-.189-.048-.1-.095-.202-.155-.296a.59.59 0 0 0-.183-.202.616.616 0 0 0-.256-.095.613.613 0 0 0-.304.088c-.56.303-.877.91-1.16 1.449l-.014.027c-.175.33-.317.674-.425 1.031-.108.37-.175.748-.189 1.126-.054 1.192.297 2.156 1.195 2.931 2.003 1.732 4.729 2.52 7.381 2.386.917-.047 1.869-.216 2.597-.775a3.918 3.918 0 0 0 1.309-1.813 4.95 4.95 0 0 0 .088-.303c.161-.667.134-1.712-.223-2.312-.067-.108-.142-.202-.216-.303a3.043 3.043 0 0 1-.445-.762.888.888 0 0 1-.075-.512.937.937 0 0 1 .169-.337c.142-.195.303-.35.473-.512.154-.148.303-.297.438-.472.054-.074.108-.155.162-.236Zm0 0c-.385-.033-.391-.04-.425-.08-.027-.027-.068-.075-.304-.162" />
            <path fill="#000"
                d="m226.433 21.883.627.168-.627-.162v-.006Zm-1.168.754.223-.606-.452 1.22.222-.607.007-.007Zm-.344 1.463.506.404.013-.013v-.014l-.519-.377Zm-.169.337-.627-.175-.014.04v.04l.635.102.006-.007Zm.075.512.607-.236v-.02l-.014-.02-.593.27v.006Zm.661 1.065-.56.33.56-.337v.007Zm.135 2.615.135.633.364-.074.121-.35-.613-.21h-.007Zm0 0-.135-.634-.358.074-.121.344.614.216Zm-1.309 1.813-.392-.52.399.513-.007.007Zm-11.004-5.668.621.182.121-.398-.317-.276-.425.492Zm0 0-.62-.189-.122.404.317.277.425-.492Zm1.599-2.507.303.573h.014l.014-.014-.338-.56h.007Zm.303-.088.075-.647h-.081v.647h.006Zm.446.297-.566.316.013.027.013.02.54-.363Zm2.462 1.8-.168.626.162-.627h.006Zm1.485.316.02-.647h-.027v.647h.007Zm.762-.324.486.432.02-.02.021-.027-.527-.385Zm.142-.815.628-.175-.628.182v-.007Zm-.418-.748-.5.418h.007l.007.02.479-.438h.007Zm-.52-2.69-.627-.181v.006l.627.169v.007Zm7.502 2.036a4.257 4.257 0 0 0-.431-3.181l-1.127.647a2.94 2.94 0 0 1 .297 2.21l1.261.324Zm-.519 1.18c.229-.365.405-.762.512-1.18l-1.254-.337c-.075.29-.196.566-.358.822l1.1.694Zm-1.457.013a.74.74 0 0 0 .431.236c.102.02.236.034.419.047l.114-1.294a3.233 3.233 0 0 1-.209-.02h-.067s.02 0 .04.013c.021.007.061.02.095.047.04.027.074.048.101.075l.027.027-.958.876.007-.007Zm-.054.007c.047.02.081.033.101.04.02.007.026.014.02.014l-.04-.027c-.007-.007-.02-.014-.027-.02l.957-.877a.915.915 0 0 0-.215-.175 1.99 1.99 0 0 0-.338-.155l-.452 1.22-.006-.02Zm1.011-.883a.803.803 0 0 0-.215-.175 1.976 1.976 0 0 0-.338-.155l-.452 1.22.101.04c.02.007.027.013.02.013 0 0-.02-.013-.04-.033-.006-.007-.02-.014-.026-.02l.957-.877-.007-.013Zm0-.128a3.1 3.1 0 0 1-.208-.02h-.068s.02 0 .04.013c.028.007.061.02.102.047.04.027.074.047.101.074l.027.027-.958.876s.074.088.182.149c.101.054.195.08.249.094.102.02.243.034.419.047l.114-1.294v-.013Zm.297 1.274a6.8 6.8 0 0 0 .196-.284l-1.1-.694a1.96 1.96 0 0 1-.134.196l1.038.782Zm-.512.552c.148-.141.344-.323.512-.552l-1.038-.782a3.078 3.078 0 0 1-.372.39l.898.937v.007Zm-.392.425c.102-.142.223-.256.392-.425l-.898-.937c-.161.155-.37.35-.553.607l1.059.755Zm-.074.135a.334.334 0 0 1 .054-.108l-1.019-.809a1.632 1.632 0 0 0-.29.566l1.255.35Zm.034.06a.25.25 0 0 1-.02-.141l-1.289-.196c-.047.297 0 .607.121.883l1.181-.546h.007Zm.256.479a2.031 2.031 0 0 1-.236-.445l-1.214.472c.101.256.229.492.385.72l1.065-.747Zm.115.155c-.048-.06-.081-.108-.115-.155l-1.065.748c.053.074.107.141.148.202l1.032-.789v-.006Zm.256.364a3.972 3.972 0 0 0-.256-.364l-1.032.788c.081.101.128.169.168.243l1.12-.667Zm.297 2.796c.095-.404.135-.903.102-1.381-.034-.472-.149-.997-.399-1.415l-1.113.667c.108.175.189.472.216.842.027.364 0 .721-.067.984l1.261.303Zm-.101.358c.04-.122.074-.243.101-.358l-1.261-.303a2.935 2.935 0 0 1-.075.25l1.235.417v-.006Zm-1.539 2.123a4.51 4.51 0 0 0 1.532-2.11l-1.228-.431a3.224 3.224 0 0 1-1.093 1.51l.789 1.03Zm-2.961.91c.951-.048 2.072-.23 2.961-.91l-.789-1.031c-.567.438-1.356.6-2.232.64l.066 1.294-.006.006Zm-7.84-2.548c2.152 1.86 5.047 2.689 7.84 2.547l-.067-1.294c-2.511.129-5.06-.62-6.923-2.23l-.85.984v-.007Zm-1.423-3.45c-.054 1.354.35 2.527 1.423 3.45l.85-.984c-.728-.627-1.011-1.388-.971-2.413l-1.302-.054Zm.216-1.281a5.486 5.486 0 0 0-.216 1.28l1.295.054a3.84 3.84 0 0 1 .162-.963l-1.248-.371h.007Zm.472-1.153a6.314 6.314 0 0 0-.472 1.146l1.241.377c.095-.316.222-.626.378-.916l-1.154-.607h.007Zm.013-.02-.013.027 1.154.6.013-.027-1.154-.6Zm1.431-1.718c-.77.41-1.167 1.22-1.431 1.718l1.154.6c.303-.586.54-.99.89-1.173l-.613-1.145Zm.6-.162c-.223 0-.438.067-.634.182l.668 1.112h-.021l-.02-1.3.007.006Zm.628.202a1.222 1.222 0 0 0-.54-.195l-.149 1.287s-.026 0-.033-.014l.722-1.078Zm.391.425a1.245 1.245 0 0 0-.391-.425l-.722 1.078s-.02-.013-.02-.027l1.133-.633v.007Zm.182.35a2.294 2.294 0 0 0-.209-.398l-1.079.722c.026.04.046.087.1.202l1.188-.526Zm.074.155c-.02-.04-.04-.087-.074-.155l-1.188.526c.028.06.061.141.109.229l1.153-.6Zm1.808.984c-.425-.114-.822-.23-1.146-.398-.325-.161-.54-.357-.662-.586l-1.153.6c.29.553.755.91 1.227 1.146.466.235.978.384 1.411.492l.33-1.254h-.007Zm.324.088c-.107-.034-.216-.061-.324-.088l-.33 1.254c.094.027.189.053.297.08l.357-1.246Zm.992.202c-.263 0-.58-.088-.992-.202l-.357 1.247c.357.1.87.256 1.356.249v-1.3l-.007.006Zm.148-.027a.302.302 0 0 1-.135.027l-.04 1.3c.236.007.472-.04.695-.134l-.52-1.193Zm.115-.081a.267.267 0 0 1-.115.08l.52 1.194c.216-.095.411-.236.567-.411l-.972-.863Zm.014-.074a.252.252 0 0 1-.054.121l1.052.762a1.71 1.71 0 0 0 .284-.66l-1.282-.23v.007Zm0-.135a.238.238 0 0 1 0 .135l1.282.229c.04-.236.027-.485-.034-.714l-1.248.357v-.007Zm-.27-.485c.128.141.223.31.276.492l1.249-.364a2.567 2.567 0 0 0-.56-1.004l-.965.876Zm-.668-3.296c-.318 1.166-.169 2.305.648 3.276l.998-.836c-.499-.6-.621-1.274-.392-2.103l-1.254-.344v.007Zm1.99-2.54a4.27 4.27 0 0 0-1.99 2.52l1.248.357a2.964 2.964 0 0 1 1.376-1.752l-.641-1.132.007.006Zm3.178-.398a4.216 4.216 0 0 0-3.178.397l.641 1.133a2.9 2.9 0 0 1 2.193-.277l.344-1.253Zm2.53 1.954a4.181 4.181 0 0 0-2.53-1.954l-.344 1.253a2.906 2.906 0 0 1 1.747 1.355l1.127-.647v-.007Zm-3.769 1.763a.4.4 0 0 0 0 .222.389.389 0 0 0 .337.263.48.48 0 0 0 .216-.047.388.388 0 0 0 .108-.586.345.345 0 0 0-.189-.115.367.367 0 0 0-.29.04.398.398 0 0 0-.182.236v-.013Zm1.946.397c.075.02.148.02.223 0a.391.391 0 0 0 .182-.128.405.405 0 0 0 .081-.209.469.469 0 0 0-.047-.215.398.398 0 0 0-.162-.155.402.402 0 0 0-.216-.04.373.373 0 0 0-.202.093.405.405 0 0 0-.122.19.374.374 0 0 0-.013.147c0 .048.02.102.047.142.027.047.061.08.094.114a.368.368 0 0 0 .135.068v-.007Z" />
            <path fill="#FFCC02"
                d="M226.138 21.976c-.519-.087-1.005-.1-1.37-.56a1.973 1.973 0 0 0-.303-.363c-.128-.094-.324-.121-.432-.007a.462.462 0 0 0-.081.148c-.088.243-.128.5-.209.742a1.174 1.174 0 0 1-.378.573c.661.188 1.363.249 2.051.31.56.047 1.133.094 1.687 0 .283-.054.56-.142.823-.263-.155-.499-1.431-.512-1.795-.573l.007-.007Z" />
            <path fill="#fff" stroke="#000" stroke-width=".769"
                d="M267.675 86.452c-.378 1.485-2.488 1.485-2.867 0l-.757-2.975a2.248 2.248 0 0 0-1.624-1.624l-2.975-.758c-1.486-.378-1.486-2.488 0-2.867l2.975-.757a2.248 2.248 0 0 0 1.624-1.624l.757-2.975c.379-1.486 2.489-1.486 2.867 0l.758 2.975a2.248 2.248 0 0 0 1.624 1.624l2.974.757c1.486.379 1.486 2.49 0 2.867l-2.974.758a2.248 2.248 0 0 0-1.624 1.624l-.758 2.975Z" />
            <path stroke="#FF55EB" stroke-linecap="round" stroke-linejoin="round"
                stroke-width=".769"
                d="m381.832 93.31-3.437 9.575m18.89 10.953-10.182.091m6.142-12.663-8.702 5.281" />
        </g>
    </g>
    <defs>
        <clipPath id="a">
            <path fill="#fff" d="M0 7.656h433v170.74H0z" />
        </clipPath>
        <clipPath id="b">
            <path fill="#fff" d="M0 7.656h433v170.74H0z" />
        </clipPath>
    </defs>
</svg>