<svg width="433" height="171" viewBox="0 0 433 171" fill="none" xmlns="http://www.w3.org/2000/svg">
<g clip-path="url(#clip0_516_1891)">
<mask id="mask0_516_1891" style="mask-type:luminance" maskUnits="userSpaceOnUse" x="0" y="-1" width="433" height="172">
<path d="M433 -0.00243378H0V170.782H433V-0.00243378Z" fill="white"/>
</mask>
<g mask="url(#mask0_516_1891)">
<path d="M82.5032 50.888H353.953C369.495 50.888 382.113 67.3747 382.113 87.6835V149.219H54.3438V87.6835C54.3438 67.3747 66.961 50.888 82.5032 50.888Z" fill="#EDF8FF"/>
<path fill-rule="evenodd" clip-rule="evenodd" d="M123.931 112.666C117.505 112.666 112.297 117.869 112.297 124.291V153.939H123.35V131.271C123.35 128.698 125.435 126.614 127.999 126.614H140.214C142.79 126.614 144.875 128.698 144.875 131.271V153.939H155.927V124.291C155.927 117.869 150.72 112.666 144.293 112.666H123.931Z" fill="black"/>
<path d="M116.616 40.6821C121.742 36.1172 126.858 31.5627 131.985 26.9976C132.816 26.3454 132.534 25.4304 132.134 25.0517C131.818 24.7571 131.458 24.673 130.869 25.0517C130.837 25.1989 130.9 24.9045 130.869 25.0517C131.29 24.6625 131.448 23.5791 131.038 23.1899C130.648 22.7691 129.974 22.7482 129.574 23.0953C129.848 22.8112 130.195 22.5168 130.49 22.2327C130.943 21.812 130.995 21.0757 130.564 20.6234C130.164 20.2026 129.385 20.3289 128.953 20.5498C128.837 20.6023 128.753 20.6655 128.69 20.7181C128.859 20.2447 128.774 19.7293 128.459 19.4033C128.026 18.951 127.185 18.9194 126.595 19.4558C125.395 20.4551 124.205 21.4649 123.005 22.4641C123.005 22.2643 123.016 22.0539 123.026 21.8541C123.026 21.5491 122.773 21.1494 122.521 20.8969C122.395 20.7707 122.11 20.4761 121.774 20.413C121.173 20.2973 120.395 20.9074 119.963 21.9593L119.921 24.7256C109.899 32.0149 99.8883 39.3042 89.8672 46.6041L99.5622 57.7747C105.236 52.0737 110.92 46.3832 116.594 40.6821H116.616Z" fill="white"/>
<path d="M130.869 25.0517C131.458 24.673 131.818 24.7571 132.134 25.0517C132.534 25.4304 132.816 26.3454 131.985 26.9976C126.858 31.5627 121.742 36.1172 116.616 40.6821H116.594C110.92 46.3832 105.236 52.0737 99.5622 57.7747L89.8672 46.6041C99.8883 39.3042 109.899 32.0149 119.921 24.7256L119.963 21.9593C120.395 20.9074 121.173 20.2973 121.774 20.413C122.11 20.4761 122.395 20.7707 122.521 20.8969C122.773 21.1494 123.026 21.5491 123.026 21.8541C123.016 22.0539 123.005 22.2643 123.005 22.4641C124.205 21.4649 125.395 20.4551 126.595 19.4558C127.185 18.9194 128.026 18.951 128.459 19.4033C128.774 19.7293 128.859 20.2447 128.69 20.7181C128.753 20.6655 128.837 20.6023 128.953 20.5498C129.385 20.3289 130.164 20.2026 130.564 20.6234C130.995 21.0757 130.943 21.812 130.49 22.2327C130.195 22.5168 129.848 22.8112 129.574 23.0953C129.974 22.7482 130.648 22.7691 131.038 23.1899C131.448 23.5791 131.29 24.6625 130.869 25.0517ZM130.869 25.0517C130.837 25.1989 130.9 24.9045 130.869 25.0517Z" stroke="black" stroke-width="0.86255" stroke-miterlimit="10" stroke-linecap="round"/>
<path d="M128.265 21.1705C127.391 21.9804 126.507 22.8008 125.664 23.6423" stroke="black" stroke-width="0.86255" stroke-linecap="round" stroke-linejoin="round"/>
<path d="M129.582 23.0935C128.95 23.6826 128.361 24.2821 127.719 24.8607" stroke="black" stroke-width="0.86255" stroke-linecap="round" stroke-linejoin="round"/>
<path d="M130.992 24.7715C130.634 25.0659 129.624 25.8703 129.266 26.1648" stroke="black" stroke-width="0.86255" stroke-linecap="round" stroke-linejoin="round"/>
<path d="M90.3017 58.7238C88.2273 57.0093 86.8067 54.6952 86.7748 52.9281C86.6911 46.7012 90.5226 43.5772 102.513 36.33C106.724 42.0835 108.092 43.8612 112.303 49.6148C102.291 57.7456 94.9336 62.5631 90.3017 58.7238Z" fill="#0066FF" stroke="black" stroke-width="0.86255" stroke-linecap="round" stroke-linejoin="round"/>
<path d="M93.1026 148.571C101.966 147.677 109.924 153.704 111.524 162.214L77.7752 165.611C77.6489 156.954 84.2387 149.465 93.1026 148.571Z" fill="#08F8C3" stroke="black" stroke-width="0.86255" stroke-linecap="round" stroke-linejoin="round"/>
<path d="M78.3038 154.661L107.79 151.19C104.453 127.66 101.115 104.119 97.7782 80.5791C96.8207 73.7947 91.4306 69.0298 85.5042 69.724C79.546 70.4182 75.1037 76.3822 75.3879 83.2824L78.3144 154.65L78.3038 154.661Z" fill="#FFCC00" stroke="black" stroke-width="0.86255" stroke-linecap="round" stroke-linejoin="round"/>
<path d="M74.826 150.193C83.7423 150.193 91.0479 156.976 91.7958 165.612H57.8672C58.6041 156.976 65.9203 150.193 74.826 150.193Z" fill="#08F8C3" stroke="black" stroke-width="0.86255" stroke-linecap="round" stroke-linejoin="round"/>
<path d="M59.5234 154.743L89.1565 154.691C87.8825 128.552 86.5982 102.414 85.3248 76.2754C84.9669 68.7336 80.0087 62.8433 74.0611 62.8643C68.0713 62.8643 63.1342 68.8178 62.8184 76.4016L59.534 154.754L59.5234 154.743Z" fill="#FFCC00" stroke="black" stroke-width="0.86255" stroke-linecap="round" stroke-linejoin="round"/>
<path d="M59.2541 96.0925C58.612 93.1478 56.3698 91.2752 54.2433 91.4434C51.559 91.6642 49.0009 95.1774 49.7378 99.1537C50.8537 120.328 51.9695 141.501 53.0854 162.674" stroke="#FF55EB" stroke-width="0.86255" stroke-linecap="round" stroke-linejoin="round"/>
<path d="M56.6709 163.16C49.46 163.065 56.6709 163.16 49.5547 163.086" stroke="#FF55EB" stroke-width="0.86255" stroke-linecap="round" stroke-linejoin="round"/>
<path d="M96.3292 41.5259H56.9373C55.2004 57.8295 53.4635 74.1332 51.7266 90.4264L102.634 90.1314C100.529 73.9228 98.4235 57.7243 96.318 41.5154L96.3292 41.5259Z" fill="#0066FF" stroke="black" stroke-width="0.86255" stroke-linecap="round" stroke-linejoin="round"/>
<path d="M49.0519 74.9513L48.1992 95.5043C48.0834 96.5566 48.8522 96.717 49.5141 96.893C50.176 97.0689 50.5245 96.0451 50.6614 95.3611C50.7456 95.487 50.5771 96.3737 50.6614 96.4996C50.6403 97.0672 51.0143 97.7762 51.5723 97.7452C52.1407 97.7659 52.6521 97.0189 52.6731 96.4936C52.6836 96.8826 52.6521 97.3449 52.6521 97.7452C52.6521 98.3653 53.1363 98.9122 53.7573 98.9225C54.3469 98.9225 54.789 98.2817 54.9364 97.8185C54.9785 97.7029 54.989 97.5977 54.9995 97.5131C55.2311 97.966 55.6522 98.2601 56.1049 98.2601C56.7365 98.2601 57.3365 97.6822 57.3681 96.893C57.4734 95.3361 57.5891 93.7792 57.6944 92.2223C57.8418 92.3697 57.9787 92.5172 58.126 92.6647C58.3365 92.8856 58.8102 92.9804 59.1682 92.9692C59.3472 92.9692 59.7577 92.9692 60.0314 92.77C60.5261 92.4224 60.6314 91.4339 60.1788 90.3928L58.2208 88.4357C59.9472 76.1715 61.6736 63.9069 63.4 51.6423L48.6202 50.8324C48.7677 58.8686 48.915 66.9152 49.0624 74.9513H49.0519Z" fill="white" stroke="black" stroke-width="0.86255" stroke-miterlimit="10" stroke-linecap="round"/>
<path d="M54.9688 96.8912C55.0004 95.7026 55.0215 94.5037 55.0004 93.3048" stroke="black" stroke-width="0.86255" stroke-linecap="round" stroke-linejoin="round"/>
<path d="M52.6797 96.4919C52.7008 95.6293 52.6797 94.7875 52.7008 93.9258" stroke="black" stroke-width="0.86255" stroke-linecap="round" stroke-linejoin="round"/>
<path d="M50.6641 95.5482C50.6957 95.0851 50.6957 94.6857 50.7273 94.2225" stroke="black" stroke-width="0.86255" stroke-linecap="round" stroke-linejoin="round"/>
<path d="M82.0781 69.5659C82.7307 69.6396 83.3834 69.7026 84.0361 69.7763L82.0781 69.5659Z" fill="white"/>
<path d="M56.4994 40.2307C59.247 40.1044 61.9102 40.8828 63.1419 42.1976C67.479 46.8468 66.7316 51.8431 62.6471 65.5487C55.5099 64.0866 53.2572 63.6763 46.1094 62.2143C48.099 49.2029 50.3517 40.5146 56.4994 40.2412V40.2307Z" fill="#0066FF" stroke="black" stroke-width="0.86255" stroke-linecap="round" stroke-linejoin="round"/>
<path d="M56.4994 40.2307C59.247 40.1044 61.9102 40.8828 63.1419 42.1976C67.479 46.8468 66.7316 51.8431 62.6471 65.5487C55.5099 64.0866 53.2572 63.6763 46.1094 62.2143C48.099 49.2029 50.3517 40.5146 56.4994 40.2412V40.2307Z" stroke="black" stroke-width="0.86255" stroke-miterlimit="10" stroke-linecap="round"/>
<path d="M66.3284 9.59128C61.3281 15.1766 60.8754 23.7597 65.0546 29.8604C69.3812 36.1926 78.4027 39.4112 84.4135 35.9822C89.6558 32.9949 90.4037 26.2 90.6875 23.6966C90.7927 22.7604 92.14 8.78134 82.9608 4.85796C77.15 2.37559 70.2128 5.25765 66.3389 9.59128H66.3284Z" fill="#FF55EB"/>
<path d="M84.4231 35.9928H73.3594V25.853H84.4231V35.9928Z" fill="white" stroke="black" stroke-width="0.86255" stroke-linecap="round" stroke-linejoin="round"/>
<path d="M88.8101 22.0139C88.8101 27.6413 84.2516 32.1958 78.6198 32.1958C72.9878 32.1958 68.4297 27.6413 68.4297 22.0139V17.9433C68.4297 12.3159 72.9878 7.76136 78.6198 7.76136C84.2516 7.76136 88.8101 12.3159 88.8101 17.9433V22.0139Z" fill="white" stroke="black" stroke-width="0.86255" stroke-linecap="round" stroke-linejoin="round"/>
<path d="M76.7001 20.9925C76.7317 20.151 76.3421 19.4357 75.8684 19.4147C75.3842 19.3936 74.9631 20.0669 74.9315 20.9188C74.9 21.7603 75.279 22.4755 75.7632 22.4966C76.2474 22.5176 76.6684 21.834 76.7001 20.9925Z" fill="black"/>
<path d="M73.7388 19.2125C73.5493 19.4544 73.2335 19.4754 73.0019 19.2861C72.2545 18.5182 74.3598 16.951 75.0756 16.7196C76.1494 16.3093 76.6337 17.9187 75.5283 18.1817C74.8756 18.3079 74.2335 18.6445 73.7493 19.2125H73.7388Z" fill="black"/>
<path d="M82.1473 16.1518C82.8947 16.1729 85.358 17.1195 84.8422 18.0556C84.6633 18.3081 84.358 18.3713 84.1053 18.1924C83.4843 17.7717 82.7685 17.635 82.1053 17.6875C80.9788 17.7296 80.9999 16.0572 82.1473 16.1624V16.1518Z" fill="black"/>
<path d="M83.8251 20.3388C83.8567 19.4973 83.4777 18.7821 82.9934 18.761C82.5092 18.74 82.0881 19.4132 82.0565 20.2546C82.025 21.0961 82.404 21.8114 82.8882 21.8324C83.3724 21.8535 83.7935 21.1803 83.8251 20.3388Z" fill="black"/>
<path d="M78.858 18.3954L80.4264 23.6967C80.4791 23.865 80.3422 24.0964 80.1527 24.0964L78.3316 24.3488C77.9105 24.4225 77.8369 23.7703 78.2579 23.6967L80.0791 23.4443L79.8054 23.844L78.5527 18.469C78.4474 18.2797 78.7948 18.1956 78.8685 18.3954H78.858Z" fill="black"/>
<path d="M76.0078 25.3063C76.1025 25.5272 76.4184 26.2319 77.1974 26.6527C78.3131 27.2522 79.429 26.7894 79.5764 26.7369" stroke="black" stroke-width="0.431275" stroke-linecap="round" stroke-linejoin="round"/>
<path d="M88.8126 17.9332C89.4017 11.7588 84.5279 6.47854 78.7697 6.39439C72.9062 6.31024 67.8323 11.6431 68.4217 17.9332C72.4325 12.1795 78.9381 10.0022 83.5804 12.0744C86.833 13.5259 88.2968 16.6814 88.8014 17.9332H88.8126Z" fill="#FFCC00" stroke="black" stroke-width="0.86255" stroke-linecap="round" stroke-linejoin="round"/>
<path d="M64.9786 25.6089C65.8418 24.9883 69.2104 30.0477 75.1265 32.0357C77.474 32.8246 79.9268 32.9192 83.1164 31.4572C84.6849 30.7419 85.4534 29.7111 86.3162 30.0687C87.6532 30.6157 88.2957 33.8449 87.1693 35.6856C84.8849 39.3881 74.2422 39.4407 68.484 33.7712C65.347 30.6788 64.1575 26.2085 64.9786 25.6089Z" fill="#FF55EB"/>
<path d="M70.51 33.5612C80.0264 37.7055 88.4903 35.1179 88.6689 36.1067C88.8267 36.9692 82.5212 39.9354 75.184 39.5042C70.6153 39.2306 67.0257 37.7265 64.7835 36.5379C64.6255 36.1698 64.0887 34.834 64.5729 33.2457C64.9308 32.0886 65.6466 31.3733 65.9835 31.0789C67.0467 31.7941 68.5731 32.7197 70.5206 33.5612H70.51Z" fill="#FF55EB"/>
<path d="M66.3624 37.0833C68.0783 35.5055 73.2891 38.3245 77.8051 41.2381C79.9736 45.4455 83.1001 52.8611 83.5212 62.538C83.8054 68.9544 82.8159 74.3293 81.7843 78.1265C81.6053 78.3158 77.9735 82.176 73.1943 81.1137C70.6258 80.5457 69.0678 78.8522 68.4994 78.158C69.2889 73.2459 69.4678 69.2173 69.4784 66.4509C69.4994 60.7079 69.531 53.4501 67.3098 44.5725C66.2466 40.2914 65.2676 38.0826 66.3624 37.0833Z" fill="#FF55EB"/>
<path d="M91.5667 42.7745C82.8292 47.6761 73.6498 47.5184 67.8178 46.7504C67.102 45.7827 64.9967 43.1742 61.2175 41.9962C56.0277 40.3763 51.6801 42.7009 50.8906 43.1427C54.4487 38.7459 57.8805 37.1576 60.2069 36.4845C67.7442 34.3176 72.9445 39.0405 80.7659 36.6738C84.3871 35.5798 86.9244 33.392 88.4192 31.8352C89.2818 33.2026 90.2194 34.6016 91.2294 36.0321C92.4085 37.7045 93.5876 39.2718 94.746 40.7339C93.7558 41.4491 92.7035 42.1329 91.5563 42.7745H91.5667Z" fill="#FF55EB"/>
<path d="M122.865 115.1C119.241 120.546 119.063 127.303 122.34 132.088C125.343 136.474 130.132 137.597 131.402 137.849L137.43 122.129L122.854 115.089L122.865 115.1Z" fill="#0066FF" stroke="black" stroke-width="0.86255" stroke-linecap="round" stroke-linejoin="round"/>
<path d="M148.664 61.1687L138.625 63.2778L140.578 72.5327L150.618 70.4236L148.664 61.1687Z" fill="white" stroke="black" stroke-width="0.86255" stroke-linecap="round" stroke-linejoin="round"/>
<path d="M131.522 53.8024C130.262 53.645 129.085 54.2641 128.634 55.2819C128.056 56.604 128.949 58.0941 130.062 58.7026C131.375 59.4266 132.761 58.8181 132.919 58.7446" fill="white"/>
<path d="M131.522 53.8024C130.262 53.645 129.085 54.2641 128.634 55.2819C128.056 56.604 128.949 58.0941 130.062 58.7026C131.375 59.4266 132.761 58.8181 132.919 58.7446" stroke="black" stroke-width="0.86255" stroke-linecap="round" stroke-linejoin="round"/>
<path d="M150.641 49.7817C151.733 49.1311 153.056 49.2255 153.886 49.9705C154.956 50.9464 154.726 52.6673 153.969 53.6746C153.056 54.8708 151.544 54.8708 151.365 54.8708" fill="white"/>
<path d="M150.641 49.7817C151.733 49.1311 153.056 49.2255 153.886 49.9705C154.956 50.9464 154.726 52.6673 153.969 53.6746C153.056 54.8708 151.544 54.8708 151.365 54.8708" stroke="black" stroke-width="0.86255" stroke-linecap="round" stroke-linejoin="round"/>
<path d="M150.223 49.5527C149.141 44.4216 144.1 41.1267 138.955 42.2075C133.82 43.2883 130.522 48.3355 131.604 53.4666L132.391 57.1916C133.473 62.3227 138.524 65.6175 143.66 64.5367C148.794 63.456 152.092 58.4193 151.01 53.2777L150.223 49.5527Z" fill="white" stroke="black" stroke-width="0.86255" stroke-linecap="round" stroke-linejoin="round"/>
<path d="M139.71 52.4791C139.007 52.5105 138.313 52.7728 137.757 53.2766C137.536 53.4759 137.189 53.4654 136.99 53.2451C136.328 52.3322 138.702 51.073 139.478 50.9366C140.602 50.6952 140.854 52.4056 139.71 52.5V52.4791Z" fill="black"/>
<path d="M145.603 49.6784C146.349 49.458 149.227 49.5839 148.785 50.7696C148.67 51.0005 148.397 51.1159 148.166 51.0424C147.441 50.8431 146.696 50.906 146.055 51.1893C144.963 51.6195 144.458 49.9197 145.603 49.6784Z" fill="black"/>
<path d="M142.555 53.7039C143.28 54.8687 144.015 56.0334 144.74 57.1982C144.056 57.2716 143.364 57.3555 142.67 57.429" fill="white"/>
<path d="M143.097 52.8978L145.429 56.2976C145.586 56.518 145.429 56.8432 145.155 56.8537L143.087 57.0846C142.614 57.137 142.53 56.4025 143.003 56.3501L145.072 56.1192L144.798 56.6754L142.771 53.0973C142.645 52.8978 142.972 52.6985 143.097 52.8978Z" fill="black"/>
<path d="M140.097 45.1332L139.436 49.5928C139.351 49.7187 138.931 50.3483 138.102 50.5477C137.188 50.768 136.474 50.3168 136.37 50.2329C135.981 49.1416 135.592 48.0399 135.203 46.9486C135.067 47.9664 134.804 49.2466 134.258 50.6737C133.744 52.0062 132.064 52.8456 131.518 53.6641C130.205 54.1258 129.753 54.3672 128.43 54.8289C127.653 53.748 127.107 53.0975 126.319 52.0167C126.204 51.8384 124.408 49.1101 125.7 46.2036C126.582 44.1994 128.356 43.4019 128.808 43.213C128.02 42.657 127.6 41.8174 127.79 41.2193C128.042 40.4219 129.438 39.8028 130.919 40.5058C131.465 38.0189 133.219 36.1302 135.382 35.7C136.904 35.3958 138.196 35.9099 138.763 36.1932C139.215 35.8259 142.271 33.3915 146.209 34.1576C149.895 34.8816 152.846 38.1134 153.455 42.2477C153.245 45.1543 152.899 46.5709 152.678 49.4774C152.016 49.5824 151.134 49.8341 150.472 49.9391C149.391 48.5855 148.635 48.575 147.564 47.2214C147.322 47.4733 145.946 48.8478 143.825 48.8059C142.418 48.7849 141.409 48.1343 141.021 47.8615L140.108 45.1123L140.097 45.1332Z" fill="#080808"/>
<path d="M155.235 69.2024C155.183 68.9821 154.899 68.8246 154.563 68.8246H135.156C134.831 68.8246 134.547 68.9926 134.494 69.2024L133.182 74.4805C133.108 74.7532 133.434 75.0156 133.844 75.0156H155.876C156.296 75.0156 156.611 74.7637 156.538 74.4805L155.225 69.2024H155.235Z" fill="#FFE067" stroke="black" stroke-width="0.86255" stroke-linecap="round" stroke-linejoin="round"/>
<path d="M162.326 74.7766H126.411C124.132 89.0679 121.865 103.36 119.586 117.661C135.748 117.736 151.909 117.809 168.081 117.882C168.008 117.316 165.278 96.8964 165.204 96.3297C165.13 95.763 162.4 75.3432 162.326 74.7766Z" fill="#FFE067" stroke="black" stroke-width="0.86255" stroke-linecap="round" stroke-linejoin="round"/>
<path d="M137.436 68.8575L136.68 74.6182M140.691 68.8575V74.6182M144.703 69.0988V74.6182M148.21 68.8575L148.462 74.6182M151.476 68.8575L152.736 74.6182" stroke="black" stroke-width="0.86255" stroke-linecap="round" stroke-linejoin="round"/>
<path d="M140.769 55.4374C140.643 54.4406 140.075 53.6851 139.498 53.7586C138.92 53.832 138.563 54.703 138.689 55.6997C138.815 56.6966 139.152 54.7659 139.729 54.6925C140.307 54.619 140.895 56.4343 140.769 55.4269V55.4374Z" fill="black"/>
<path d="M148.471 53.949C148.345 52.9522 147.779 52.1967 147.201 52.2702C146.624 52.3436 146.266 53.2146 146.392 54.2114C146.518 55.2082 146.854 53.1725 147.432 53.0991C148.01 53.0257 148.598 54.9459 148.471 53.949Z" fill="black"/>
<path d="M145.547 58.6805C144.401 58.8379 143.257 58.9848 142.102 59.1421C142.322 60.1285 143.299 60.7266 144.202 60.5272C145 60.3488 145.588 59.5723 145.547 58.6805Z" stroke="black" stroke-width="0.431275" stroke-miterlimit="10"/>
<path d="M152.211 79.0354C154.027 79.644 155.834 80.2631 157.65 80.8822C157.871 80.4101 158.092 79.9378 158.312 79.4657C160.748 79.5286 163.184 79.5916 165.621 79.6546C167.322 84.7646 169.013 89.8744 170.714 94.9746C170.714 98.6991 168.708 101.984 165.653 103.39C162.46 104.848 157.483 104.282 155.949 100.987C154.752 98.4059 155.897 94.9117 159.215 92.7605C156.884 88.1855 154.553 83.6104 152.211 79.0354Z" fill="white" stroke="black" stroke-width="0.86255" stroke-linecap="round" stroke-linejoin="round"/>
<path d="M175.236 94.4916C168.578 96.4013 166.467 96.968 159.819 98.8777C154.925 86.1917 153.844 81.5223 157.614 76.7899C158.685 75.4469 161.143 74.5235 163.768 74.4395C169.617 74.2507 172.4 82.3093 175.246 94.4916H175.236Z" fill="#FFCC02"/>
<path d="M175.236 94.4916C168.578 96.4013 166.467 96.968 159.819 98.8777C154.925 86.1917 153.844 81.5223 157.614 76.7899C158.685 75.4469 161.143 74.5235 163.768 74.4395C169.617 74.2507 172.4 82.3093 175.246 94.4916H175.236Z" stroke="black" stroke-width="0.86255" stroke-miterlimit="10" stroke-linecap="round"/>
<path d="M152.003 68.7436C151.571 66.8864 151.52 66.771 151.088 64.9138C150.931 64.2317 150.217 63.8539 149.619 64.0638C149.073 64.2527 148.746 64.8823 148.936 65.4908L148.243 64.7249L146.374 62.6577C145.891 62.2905 145.229 62.3114 144.819 62.6577C144.326 63.0879 144.273 63.9273 144.799 64.473C144.63 64.515 144.294 64.6199 144.052 64.9138C143.675 65.365 143.654 66.0575 143.979 66.6765C143.937 66.666 143.328 66.5506 142.94 66.9388C142.551 67.3271 142.54 68.0092 142.961 68.5338C142.855 68.5338 142.509 68.5128 142.204 68.7647C141.869 69.048 141.732 69.5306 141.879 70.0029C143.454 72.0805 145.03 74.1686 146.605 76.2462C149.671 84.0531 152.727 91.8496 155.794 99.6566C159.175 103.088 164.184 102.741 166.253 100.171C167.712 98.355 167.744 95.4068 166.358 92.8674C161.695 85.4172 157.022 77.9671 152.36 70.5171L151.991 68.7647L152.003 68.7436Z" fill="white"/>
<path d="M144.797 64.4723L147.055 66.7703C147.401 67.6203 147.758 68.4702 148.115 69.3097" fill="white"/>
<path d="M144.797 64.4723L147.055 66.7703C147.349 67.2425 147.654 67.7147 147.948 68.1974" stroke="black" stroke-width="0.86255" stroke-linecap="round" stroke-linejoin="round"/>
<path d="M143.977 66.6776C144.48 67.1707 144.985 67.6744 145.489 68.1675C145.783 68.7027 146.077 69.2379 146.371 69.773" fill="white"/>
<path d="M143.977 66.6776C144.48 67.1707 144.985 67.6744 145.489 68.1675C145.783 68.7027 146.077 69.2379 146.371 69.773" stroke="black" stroke-width="0.86255" stroke-linecap="round" stroke-linejoin="round"/>
<path d="M142.969 68.5215C143.378 68.9412 143.788 69.3609 144.197 69.7806C144.428 70.1374 144.659 70.4941 144.901 70.8509" fill="white"/>
<path d="M142.969 68.5215C143.378 68.9412 143.788 69.3609 144.197 69.7806C144.428 70.1374 144.659 70.4941 144.901 70.8509" stroke="black" stroke-width="0.86255" stroke-linecap="round" stroke-linejoin="round"/>
<path d="M149.577 67.0647C149.293 66.4247 149.01 65.7846 148.727 65.1445" stroke="black" stroke-width="0.86255" stroke-linecap="round" stroke-linejoin="round"/>
<path d="M147.43 77.9326C149.866 76.8099 152.27 75.4563 154.697 74.3335L155.915 76.4322L148.27 80.3251C147.986 79.4541 147.713 78.8036 147.43 77.9221V77.9326Z" fill="#0066FF" stroke="#0066FF" stroke-width="0.86255" stroke-linecap="round" stroke-linejoin="round"/>
<path d="M152.379 74.7673C151.024 74.4105 149.638 75.208 149.28 76.5616C148.923 77.9152 149.722 79.3003 151.076 79.6571C152.431 80.0138 153.817 79.2164 154.175 77.8628C154.532 76.5092 153.734 75.1241 152.379 74.7673Z" fill="#FF55EB"/>
<path d="M156.157 101.408C153.101 93.6015 149.678 84.0216 146.611 76.2252C145.035 74.1475 143.46 72.0595 141.885 69.9818C141.738 69.5096 141.885 69.0269 142.211 68.7437C142.505 68.5023 142.862 68.5127 142.967 68.5127C142.537 67.9986 142.568 67.2956 142.946 66.9178C143.324 66.5401 143.933 66.645 143.986 66.6555C143.66 66.0364 143.681 65.3438 144.059 64.8926C144.301 64.5988 144.637 64.494 144.804 64.452C144.28 63.9063 144.332 63.0669 144.826 62.6366C145.236 62.2904 145.897 62.2694 146.38 62.6366L148.249 64.7038L148.942 65.4698C148.869 64.8507 149.152 64.2736 149.625 64.0428C150.255 63.7279 151.179 64.0428 151.525 64.8822C151.788 66.1938 152.051 67.5055 152.314 68.8171C152.334 69.3732 152.355 69.9293 152.365 70.4855C157.028 77.9355 161.702 85.3856 166.365 92.8355C166.984 93.9689 167.351 94.8185 167.425 95.732C167.477 96.3616 167.382 96.8861 167.299 97.2432" stroke="black" stroke-width="0.86255" stroke-linecap="round" stroke-linejoin="round"/>
<path d="M159.317 156.095C167.971 156.273 174.923 163.01 175.469 171.394L142.547 170.712C143.44 162.349 150.664 155.906 159.317 156.085V156.095Z" fill="#08F8C3" stroke="black" stroke-width="0.86255" stroke-linecap="round" stroke-linejoin="round"/>
<path d="M144.68 161.468L173.454 161.437C172.215 144.291 170.965 127.135 169.726 109.989C169.38 105.036 164.57 101.175 158.783 101.186C152.965 101.186 148.177 105.089 147.862 110.062L144.68 161.468Z" fill="#0066FF" stroke="black" stroke-width="0.86255" stroke-linecap="round" stroke-linejoin="round"/>
<path d="M136.935 156.095C145.589 156.273 152.541 163.01 153.087 171.394L120.164 170.712C121.057 162.349 128.282 155.906 136.935 156.085V156.095Z" fill="#08F8C3" stroke="black" stroke-width="0.86255" stroke-linecap="round" stroke-linejoin="round"/>
<path d="M122.297 161.468L151.071 161.437C149.832 144.291 148.582 127.135 147.343 109.989C146.997 105.036 142.186 101.175 136.4 101.186C130.583 101.186 125.794 105.089 125.479 110.062L122.297 161.468Z" fill="#0066FF" stroke="black" stroke-width="0.86255" stroke-linecap="round" stroke-linejoin="round"/>
<path d="M163.948 107.812C163.695 108.736 163.443 109.659 163.191 110.582C161.816 111.348 160.44 112.114 159.075 112.88C159.411 111.978 159.747 111.075 160.072 110.173C159.621 109.439 159.18 108.704 158.729 107.98L155.914 107.445C157.332 106.616 158.749 105.797 160.167 104.968C160.976 105.189 161.795 105.399 162.603 105.619L163.948 107.812Z" fill="#FF55EB"/>
<path d="M160.063 110.171L158.719 107.978L185.823 91.4727C186.726 91.4511 187.629 91.4304 188.532 91.4097C188.081 92.1645 187.618 92.9201 187.167 93.6757L160.063 110.181V110.171Z" fill="#08F8C3"/>
<path d="M155.422 118.574C156.126 119.319 157.102 119.267 157.428 118.847C157.691 118.521 157.617 117.871 157.208 117.335C157.354 117.357 157.502 117.367 157.638 117.388C158.048 117.766 158.677 117.766 159.014 117.335C159.392 116.927 159.349 116.266 158.982 115.919C159.276 116.15 159.591 116.475 159.895 116.727C160.347 117.126 161.062 117.115 161.46 116.664C161.839 116.244 161.65 115.5 161.397 115.101C161.334 114.996 161.261 114.922 161.208 114.859C161.681 114.975 162.174 114.859 162.458 114.523C162.857 114.062 162.815 113.254 162.248 112.729C161.177 111.659 160.095 110.589 159.024 109.518C159.223 109.508 159.424 109.497 159.623 109.487C159.927 109.466 160.284 109.183 160.516 108.92C160.631 108.784 160.883 108.49 160.914 108.165C160.977 107.577 160.315 106.874 159.266 106.549C158.373 106.612 157.48 106.675 156.577 106.748C148.659 97.6925 140.741 88.6478 132.823 79.5922L122.836 89.9279C133.695 99.4866 144.553 109.036 155.401 118.595L155.422 118.574Z" fill="white" stroke="black" stroke-width="0.86255" stroke-miterlimit="10" stroke-linecap="round"/>
<path d="M160.74 114.48C159.879 113.703 159.018 112.927 158.125 112.183" stroke="black" stroke-width="0.86255" stroke-linecap="round" stroke-linejoin="round"/>
<path d="M158.994 115.92C158.375 115.364 157.734 114.85 157.125 114.272" stroke="black" stroke-width="0.86255" stroke-linecap="round" stroke-linejoin="round"/>
<path d="M156.926 116.767C156.611 116.452 156.307 116.2 155.992 115.875" stroke="black" stroke-width="0.86255" stroke-linecap="round" stroke-linejoin="round"/>
<path d="M120.063 77.4005C121.723 75.3019 123.98 73.8434 125.723 73.7699C131.898 73.5391 135.091 77.2536 142.568 88.9635C136.961 93.2763 135.228 94.6615 129.62 98.9846C121.313 89.268 116.367 82.0909 120.063 77.4005Z" fill="#FFCC02"/>
<path d="M120.063 77.4005C121.723 75.3019 123.98 73.8434 125.723 73.7699C131.898 73.5391 135.091 77.2536 142.568 88.9635C136.961 93.2763 135.228 94.6615 129.62 98.9846C121.313 89.268 116.367 82.0909 120.063 77.4005Z" stroke="black" stroke-width="0.86255" stroke-miterlimit="10" stroke-linecap="round"/>
<path fill-rule="evenodd" clip-rule="evenodd" d="M375.986 128.197C369.559 128.197 364.352 133.4 364.352 139.821V169.47H375.404V146.801C375.404 144.228 377.49 142.144 380.053 142.144H392.269C394.844 142.144 396.929 144.228 396.929 146.801V169.47H407.982V139.821C407.982 133.4 402.775 128.197 396.348 128.197H375.986Z" fill="black"/>
<path d="M320.457 67.8269C325.488 71.7235 330.53 75.6303 335.562 79.527C338.947 73.8518 342.342 68.1765 345.728 62.5013C340.243 59.6739 334.748 56.8466 329.264 54.0192C323.122 50.9246 317.092 47.83 311 44.6633L310.136 38.9881C309.961 38.0422 309.046 37.3329 308.099 37.5076C307.153 37.6825 306.504 38.546 306.617 39.5433L306.998 41.8771L300.135 36.9935C299.394 36.4795 298.386 36.7057 297.922 37.3843C297.346 38.0628 297.573 39.0704 298.252 39.5228C297.872 39.2658 297.45 38.9367 297.068 38.69C296.266 38.104 295.124 38.3404 294.548 39.1321C293.972 39.9237 294.198 41.0752 294.991 41.651C295.494 42.0417 296.112 42.4323 296.596 42.8127C295.906 42.3501 294.847 42.5249 294.332 43.2651C293.755 43.9437 293.982 44.9513 294.722 45.4756L295.968 46.3803C295.895 46.3289 295.494 46.0513 294.96 46.1439C294.918 46.1439 294.373 46.257 294.075 46.7093C293.735 47.2336 293.848 48.0253 294.404 48.601C298.005 51.0685 301.658 53.6389 305.352 56.3325C310.63 60.1777 315.662 64.0126 320.457 67.8269Z" fill="white" stroke="black" stroke-width="0.86255" stroke-miterlimit="10" stroke-linecap="round"/>
<path d="M302.837 42.9055C301.345 41.7436 299.802 40.6332 298.258 39.5435L302.837 42.9055Z" fill="white"/>
<path d="M302.837 42.9055C301.345 41.7436 299.802 40.6332 298.258 39.5435" stroke="black" stroke-width="0.86255" stroke-linecap="round" stroke-linejoin="round"/>
<path d="M299.858 45.2207C298.736 44.4393 297.697 43.6168 296.586 42.8251L299.858 45.2207Z" fill="white"/>
<path d="M299.858 45.2207C298.736 44.4393 297.697 43.6168 296.586 42.8251" stroke="black" stroke-width="0.86255" stroke-linecap="round" stroke-linejoin="round"/>
<path d="M297.692 47.5712C297.075 47.1806 296.571 46.7899 295.953 46.3992L297.692 47.5712Z" fill="white"/>
<path d="M297.692 47.5712C297.075 47.1806 296.571 46.7899 295.953 46.3992" stroke="black" stroke-width="0.86255" stroke-linecap="round" stroke-linejoin="round"/>
<path d="M313.815 43.7686C310.224 48.1072 306.623 52.4459 303.031 56.7847L336.925 83.5774C342.213 86.4975 348.294 86.4458 352.647 83.4232C353.748 82.6624 356.598 80.4417 357.586 76.5245C358.831 71.6204 356.65 66.1199 351.999 62.4804C339.27 56.25 326.543 50.0093 313.804 43.7789L313.815 43.7686Z" fill="#FFCC02"/>
<path d="M355.18 67.8859C355.026 66.9093 354.696 65.4596 353.935 63.8455C353.935 63.8455 353.74 63.424 353.369 62.8071L351.218 61.5733C338.748 55.6307 326.277 49.6985 313.806 43.7559C310.215 48.0946 306.614 52.4333 303.023 56.772C309.773 62.0462 316.677 67.7214 323.684 73.8285C328.274 77.8279 332.656 81.7964 336.865 85.7342C336.865 85.7342 343.039 86.9469 348.4 85.508C349.058 85.3332 349.531 85.1173 349.686 85.0351C351.136 84.3359 352.072 83.2667 352.618 82.4853" stroke="black" stroke-width="0.86255" stroke-linecap="round" stroke-linejoin="round"/>
<path d="M352.156 67.0835L368.784 67.7312L369.586 47.0865L352.958 46.4388L352.156 67.0835Z" fill="white" stroke="black" stroke-width="0.86255" stroke-linecap="round" stroke-linejoin="round"/>
<path d="M355.2 50.6263L367.783 51.1095C371.848 51.274 375.275 48.1074 375.439 44.0463L376.129 26.4345C376.427 18.8984 370.541 12.5549 362.999 12.2568C355.457 11.9586 349.119 17.8395 348.82 25.3756L348.131 42.9873C347.966 47.0485 351.135 50.4721 355.2 50.6366V50.6263Z" fill="white"/>
<path d="M355.399 33.783C355.614 32.6006 355.234 31.5314 354.565 31.4183C353.886 31.2948 353.176 32.1585 352.96 33.3511C352.744 34.5335 353.042 35.4999 353.721 35.6233C354.401 35.7466 355.192 34.9755 355.399 33.7932V33.783Z" fill="black"/>
<path d="M353.905 27.9023C355.366 28.1285 356.632 28.9613 357.619 29.9791C357.939 30.2465 357.97 30.7194 357.691 31.0278C357.465 31.2951 357.085 31.3569 356.786 31.2026C355.818 30.6371 354.841 30.0511 353.678 30.1437C351.991 30.1231 352.248 27.5734 353.905 27.8921H353.895L353.905 27.9023Z" fill="black"/>
<path d="M364.209 46.7167C363.623 48.4542 361.205 48.9169 359.846 48.8758C359.445 48.8552 356.122 48.7113 355.36 46.1513C354.815 44.3006 355.906 42.2341 357.593 41.5145C359.425 40.7331 361.267 41.9052 361.689 42.1827C362.933 42.9744 364.806 44.8764 364.2 46.7167H364.209Z" fill="white"/>
<path d="M339.18 144.512C351.414 144.512 361.436 153.908 362.3 165.804H316.07C316.935 153.908 326.946 144.512 339.19 144.512H339.18Z" fill="#08F8C3" stroke="black" stroke-width="0.86255" stroke-linecap="round" stroke-linejoin="round"/>
<path d="M350.974 66.6104C355.13 66.6104 350.181 64.6878 350.974 63.6288C353.341 60.4622 353.083 61.0791 353.33 61.1099H366.984C367.231 61.0688 371.779 60.4622 374.145 63.6288C374.938 64.6878 375.226 65.8187 375.339 66.6104L384.332 115.641H335.992L349.389 68.132L350.963 66.6104H350.974Z" fill="#FFCC02" stroke="black" stroke-width="0.86255" stroke-miterlimit="10" stroke-linecap="round"/>
<path d="M352.018 130.858C358.325 135.844 384.059 140.83 384.059 115.631L348.602 109.853L352.018 130.847V130.858Z" fill="#0066FF" stroke="black" stroke-width="0.86255" stroke-linecap="round"/>
<path d="M351.755 58.4193C350.181 61.8326 345.684 76.4011 343.081 78.735C338.235 98.2592 343.112 96.7679 338.266 116.293L351.519 85.7056L350.922 81.2642L350.654 74.1701L356.755 61.041L351.765 58.4193H351.755Z" fill="white" stroke="black" stroke-width="0.86255" stroke-linecap="round" stroke-linejoin="round"/>
<path d="M332.5 78.3026C326.964 97.4976 321.428 116.693 315.883 135.888" stroke="white" stroke-width="0.86255" stroke-linecap="round" stroke-linejoin="round"/>
<path d="M299.986 132.204C310.688 138.126 314.907 151.194 309.895 162.02L269.438 139.648C275.961 129.654 289.275 126.283 299.986 132.204Z" fill="#08F8C3" stroke="black" stroke-width="0.86255" stroke-linecap="round" stroke-linejoin="round"/>
<path d="M345.783 84.2944L321.459 153.95L298.812 141.211L298.616 141.098L275.969 128.349L322.941 71.4223C327.014 66.4976 334.042 65.1816 339.609 68.3174L339.815 68.4305C345.371 71.5559 347.892 78.1976 345.834 84.2121C345.824 84.2327 345.814 84.2532 345.803 84.284L345.783 84.2944Z" fill="#0066FF" stroke="black" stroke-width="0.86255" stroke-linecap="round" stroke-linejoin="round"/>
<path d="M288.266 123.968L319.227 140.726" stroke="white" stroke-width="0.86255" stroke-linecap="round" stroke-linejoin="round"/>
<path d="M327.684 75.843C318.28 93.4652 308.865 111.097 299.461 128.719" stroke="white" stroke-width="0.86255" stroke-linecap="round" stroke-linejoin="round"/>
<path d="M350.23 80.4421L362.701 153.161L336.709 152.976H336.483L310.492 152.791L324.002 80.257C325.175 73.9752 330.69 69.4206 337.09 69.472H337.327C343.696 69.5234 349.118 74.1088 350.24 80.37C350.24 80.3907 350.24 80.4215 350.24 80.4421H350.23Z" fill="#0066FF" stroke="black" stroke-width="0.86255" stroke-linecap="round" stroke-linejoin="round"/>
<path d="M336.914 83.5756C337.222 103.541 337.541 123.528 337.85 143.495" stroke="white" stroke-width="0.86255" stroke-linecap="round" stroke-linejoin="round"/>
<path d="M319.07 143.539L354.28 143.456" stroke="white" stroke-width="0.86255" stroke-linecap="round" stroke-linejoin="round"/>
<path d="M301.239 79.711C301.753 79.2277 302.576 79.2483 303.06 79.7418L302.082 78.7239C301.496 78.1071 301.516 77.1612 302.134 76.5752C302.741 75.9892 303.698 76.0097 304.284 76.6266C303.852 76.1742 303.399 75.7116 302.977 75.2694C302.33 74.6011 302.36 73.5217 303.029 72.874C303.698 72.2262 304.778 72.2571 305.426 72.9254C305.745 73.2441 306.054 73.5833 306.373 73.9123C305.818 73.3365 305.838 72.4113 306.424 71.8663C307 71.3112 307.927 71.3317 308.472 71.9177L313.926 77.6136L314.018 75.4237C314.059 74.4881 314.841 73.7581 315.778 73.8095C316.714 73.8506 317.435 74.6423 317.393 75.5676L317.166 80.9035C322.198 84.8515 327.219 88.7893 332.24 92.7475L344.372 81.4587L350.299 89.3646L356.359 97.4562L335.502 109.824C332.251 111.983 327.837 111.264 325.46 108.097L321.756 103.81C317.99 99.4711 314.028 95.0609 309.882 90.6196C306.97 87.4938 304.069 84.4814 301.198 81.5513C300.714 81.0372 300.724 80.2147 301.239 79.7315L301.259 79.711H301.239Z" fill="white" stroke="black" stroke-width="0.86255" stroke-linecap="round" stroke-linejoin="round"/>
<path d="M306.391 73.9132C307.852 75.3937 309.313 76.8639 310.764 78.3444" stroke="black" stroke-width="0.86255" stroke-linecap="round" stroke-linejoin="round"/>
<path d="M304.305 76.628C305.365 77.6665 306.445 78.7048 307.505 79.7432" stroke="black" stroke-width="0.86255" stroke-linecap="round" stroke-linejoin="round"/>
<path d="M303.07 79.7607L304.594 81.1487" stroke="black" stroke-width="0.86255" stroke-linecap="round" stroke-linejoin="round"/>
<path d="M377.541 72.8434C377.387 65.5952 371.141 60.0639 363.414 61.9042C348.402 65.5026 332.772 87.6689 331.29 90.0952C327.648 86.7951 323.985 83.4845 320.353 80.1739C316.175 84.0807 311.987 87.988 307.82 91.8841C316.926 102.484 323.975 110.175 326.815 112.868C327.453 113.485 328.749 114.699 330.693 115.027C332.998 115.439 335.077 114.492 335.87 114.143C340.602 112.025 376.039 94.4442 377.541 72.8331V72.8434Z" fill="#FFCC02" stroke="black" stroke-width="0.86255" stroke-linecap="round" stroke-linejoin="round"/>
<path d="M349.387 23.4195C350.734 25.486 358.081 23.8308 359.933 23.4195C360.9 23.2036 361.682 22.9774 362.207 22.813C361.559 28.7451 363.061 41.607 369.101 35.0475C374.359 34.2559 377.775 23.4195 373.567 18.5976C372.846 14.66 362.66 10.0128 355.704 13.6113C351.321 15.8731 348.224 21.6306 349.387 23.4092V23.4195Z" fill="#9D9E9D"/>
<path d="M355.2 50.6263L367.783 51.1095C371.848 51.2637 375.275 48.1074 375.439 44.0463L376.129 26.4345C376.427 18.8984 370.541 12.5549 362.999 12.2568C355.457 11.9586 349.119 17.8395 348.82 25.3756L348.131 42.9873C347.966 47.0484 351.135 50.4721 355.2 50.6366V50.6263Z" stroke="black" stroke-width="0.86255" stroke-linecap="round" stroke-linejoin="round"/>
<path d="M374.757 19.6559C375.93 25.3414 373.173 26.7705 371.465 27.9632C367.277 30.8933 363.439 30.297 362.533 36.0956C361.988 39.5707 361.34 42.5933 360.434 42.9223C357.018 45.287 352.172 40.0539 348.879 40.1258C347.83 40.1464 348.375 37.2368 347.861 37.5041C347.747 40.2286 347.408 45.5337 347.305 48.2685C347.995 50.9108 349.496 53.1726 350.392 54.026C355.577 59.0227 366.32 57.2132 371.948 51.4455C372.957 50.4173 374.243 48.7929 375.262 46.3768C375.498 39.0463 375.734 31.7158 375.972 24.3853C375.94 23.5114 375.796 22.3085 375.313 20.9514C374.974 19.9849 374.541 19.2035 374.16 18.6073L374.757 19.6559Z" fill="black"/>
<path d="M349.379 29.5997C348.494 32.2214 347.598 34.8431 346.703 37.4546C347.774 37.5265 348.853 37.5984 349.934 37.6499" fill="white"/>
<path d="M349.641 29.7048L347.213 37.6624L346.708 36.9222L349.939 37.1176C350.67 37.1587 350.598 38.2793 349.868 38.2382L346.637 38.0428C346.276 38.0428 346.009 37.6419 346.132 37.3026L349.065 29.5301C349.188 29.1805 349.733 29.3655 349.62 29.7151H349.631L349.641 29.7048Z" fill="black"/>
<path d="M354.912 45.2873C354.912 46.4491 353.328 47.652 352.021 47.652C350.714 47.652 349.13 46.0173 349.13 44.8554C349.13 43.6937 348.873 42.4907 350.18 42.4907C351.486 42.4907 354.902 44.1255 354.902 45.2873H354.912Z" fill="white"/>
<path d="M348.602 44.3346C348.602 44.3346 349.374 45.116 349.939 45.3114C350.835 45.6198 352.275 44.8179 352.275 44.8179" stroke="black" stroke-width="0.431275" stroke-linecap="round" stroke-linejoin="round"/>
<path d="M361.57 39.399C361.817 39.4916 363.854 40.2523 365.665 39.0803C367.188 38.0933 368.361 35.8932 367.404 34.0425C366.684 32.634 364.934 31.8423 363.134 32.1714" fill="white"/>
<path d="M361.57 39.399C361.817 39.4916 363.854 40.2523 365.665 39.0803C367.188 38.0933 368.361 35.8932 367.404 34.0425C366.684 32.634 364.934 31.8423 363.134 32.1714" stroke="black" stroke-width="0.86255" stroke-linecap="round" stroke-linejoin="round"/>
<mask id="mask1_516_1891" style="mask-type:luminance" maskUnits="userSpaceOnUse" x="179" y="-9" width="112" height="112">
<path d="M290.412 -8.11074H179.609V102.603H290.412V-8.11074Z" fill="white"/>
</mask>
<g mask="url(#mask1_516_1891)">
<path d="M234.999 90.6145C258.597 90.6145 277.741 71.4977 277.741 47.9066C277.741 24.3155 258.609 5.19897 234.999 5.19897C211.389 5.19897 192.258 24.3155 192.258 47.9066C192.258 71.4977 211.389 90.6145 234.999 90.6145Z" fill="#0066FF" stroke="black" stroke-width="0.86255" stroke-linecap="round"/>
<path d="M235.003 69.2546C246.785 69.2546 256.345 59.7134 256.345 47.9293C256.345 36.1451 246.796 26.6153 235.003 26.6153C223.209 26.6153 213.672 36.1565 213.672 47.9293C213.672 59.7021 223.22 69.2546 235.003 69.2546Z" fill="white"/>
<path d="M235.055 88.4055V6.0868" stroke="#FFCC02" stroke-width="0.86255" stroke-linecap="round"/>
<path d="M193.656 47.9069H276.347" stroke="#FFCC02" stroke-width="0.86255" stroke-linecap="round"/>
<path d="M234.999 90.6145C258.597 90.6145 277.741 71.4977 277.741 47.9066C277.741 24.3155 258.609 5.19897 234.999 5.19897C211.389 5.19897 192.258 24.3155 192.258 47.9066C192.258 71.4977 211.389 90.6145 234.999 90.6145Z" stroke="black" stroke-width="0.86255" stroke-linecap="round"/>
</g>
<path d="M235.01 54.4759C239.214 54.4759 242.622 51.0707 242.622 46.8702C242.622 42.6698 239.214 39.2646 235.01 39.2646C230.806 39.2646 227.398 42.6698 227.398 46.8702C227.398 51.0707 230.806 54.4759 235.01 54.4759Z" fill="#FF55EB"/>
<path d="M205.148 43.6366C204.282 44.2173 203.427 44.798 202.561 45.3673C200.886 45.0257 199.222 44.6841 197.547 44.3425C198.459 43.8416 199.37 43.3406 200.293 42.8283C200.442 41.906 200.601 40.9952 200.75 40.0729L198.823 37.6364C200.567 37.9666 202.322 38.2854 204.065 38.6156C204.578 39.367 205.091 40.1185 205.614 40.8699L205.159 43.6252L205.148 43.6366Z" fill="#FF55EB"/>
<path d="M200.277 42.8396L200.732 40.0842L234.712 45.7201C235.464 46.3463 236.227 46.9612 236.979 47.576C236.067 47.872 235.156 48.168 234.244 48.4641L200.266 42.8282L200.277 42.8396Z" fill="#08F8C3"/>
<path d="M206.719 35.3463C205.739 35.6993 204.771 36.0636 203.791 36.4166C202.252 35.6879 200.703 34.9592 199.164 34.2305C200.167 33.9573 201.182 33.684 202.184 33.4108C202.549 32.5568 202.914 31.7029 203.278 30.849L201.979 28.0253C203.597 28.754 205.226 29.4827 206.844 30.2114C207.163 31.0653 207.494 31.9192 207.813 32.7732L206.719 35.3349V35.3463Z" fill="#FF55EB"/>
<path d="M202.188 33.4107L203.282 30.8489L234.959 44.3523C235.552 45.1379 236.133 45.9121 236.725 46.6977C235.768 46.7661 234.811 46.8458 233.866 46.9141L202.188 33.4107Z" fill="#08F8C3"/>
<path d="M190.062 60.4097C188.396 59.9854 188.396 57.6184 190.062 57.1942L193.399 56.3448C194.294 56.1169 194.993 55.4181 195.22 54.5233L196.07 51.187C196.494 49.5208 198.861 49.5208 199.286 51.187L200.134 54.5233C200.362 55.4181 201.062 56.1169 201.956 56.3448L205.292 57.1942C206.959 57.6184 206.959 59.9854 205.292 60.4097L201.956 61.2591C201.062 61.4869 200.362 62.1857 200.134 63.0806L199.286 66.4168C198.861 68.083 196.494 68.083 196.07 66.4168L195.22 63.0806C194.993 62.1857 194.294 61.4869 193.399 61.2591L190.062 60.4097Z" fill="white" stroke="black" stroke-width="0.86255"/>
<path d="M284.882 85.847L275.297 82.4127" stroke="#FF55EB" stroke-width="0.86255" stroke-linecap="round" stroke-linejoin="round"/>
<path d="M264.325 101.287L264.234 91.1122" stroke="#FF55EB" stroke-width="0.86255" stroke-linecap="round" stroke-linejoin="round"/>
<path d="M276.919 97.2483L271.633 88.553" stroke="#FF55EB" stroke-width="0.86255" stroke-linecap="round" stroke-linejoin="round"/>
<path d="M34.7725 93.2608C35.1968 94.9272 37.5638 94.9272 37.988 93.2608L38.8374 89.9253C39.0653 89.03 39.764 88.3313 40.6589 88.1036L43.9951 87.254C45.6614 86.8296 45.6614 84.4628 43.9951 84.0385L40.6589 83.189C39.764 82.9612 39.0653 82.2625 38.8374 81.3676L37.988 78.0313C37.5638 76.365 35.1968 76.365 34.7725 78.0313L33.923 81.3676C33.6952 82.2625 32.9965 82.9612 32.1016 83.189L28.7653 84.0385C27.0991 84.4628 27.0991 86.8296 28.7653 87.254L32.1016 88.1036C32.9965 88.3313 33.6952 89.03 33.923 89.9253L34.7725 93.2608Z" fill="white" stroke="black" stroke-width="0.86255"/>
<path d="M24.6172 98.6948L32.3862 105.272" stroke="#FF55EB" stroke-width="0.86255" stroke-linecap="round" stroke-linejoin="round"/>
<path d="M22.8516 125.338L31.7148 120.329" stroke="#FF55EB" stroke-width="0.86255" stroke-linecap="round" stroke-linejoin="round"/>
<path d="M17.7734 112.427L27.9533 112.654" stroke="#FF55EB" stroke-width="0.86255" stroke-linecap="round" stroke-linejoin="round"/>
</g>
</g>
<defs>
<clipPath id="clip0_516_1891">
<rect width="433" height="170.785" fill="white" transform="translate(0 -0.00243378)"/>
</clipPath>
</defs>
</svg>
