<svg xmlns="http://www.w3.org/2000/svg" width="433" height="205" fill="none">
    <g clip-path="url(#a)">
        <g clip-path="url(#b)">
            <path fill="#FFFAEB"
                d="M74.71 67.375h284.484c16.288 0 29.512 17.278 29.512 38.562v64.49H45.198v-64.49c0-21.284 13.223-38.562 29.512-38.562Z" />
            <g fill="#06F" opacity=".75">
                <path
                    d="m41.047 68.053.444.763c-.285-.49-.547-.615-1.287-.296-.4.24-.4.797-.16 1.208a315.964 315.964 0 0 1 4.194 7.187 328.157 328.157 0 0 1 5.606 10.342l1.72 3.337c1.037 2.403 3.772 3.554 6.21 2.665l15.372-4.738-2.655-6.15-2.598-6.014-9.572 5.398c-2.62-3.326-5.253-6.651-7.885-9.966.32-1.139.65-2.267.969-3.406.068-.444-.171-1.116-.775-1.378-.433-.193-.957-.114-1.345.194-.182.444-.353.877-.535 1.321l-2.53-3.861a.979.979 0 0 0-1.322-.353.954.954 0 0 0-.342 1.31c-.159-.262-.307-.524-.455-.786a1.115 1.115 0 0 0-1.539-.399 1.115 1.115 0 0 0-.398 1.538c.205.353.421.717.626 1.082a1.005 1.005 0 0 0-1.378-.353c-.479.273-.639.9-.365 1.378v-.023Z" />
                <path d="M44.566 65.606c.57 1.013 1.151 2.038 1.721 3.052l-1.72-3.052Z" />
                <path
                    d="M44.566 65.606c.57 1.013 1.151 2.038 1.721 3.052l-1.72-3.052ZM42.8 67.04c.41.74.821 1.48 1.22 2.22l-1.22-2.22Z" />
                <path
                    d="M42.8 67.04c.41.74.821 1.48 1.22 2.22l-1.22-2.22Zm-1.274 1.821c.217.376.433.74.65 1.117l-.65-1.117Z" />
                <path
                    d="M41.526 68.861c.217.376.433.74.65 1.117l-.65-1.117Zm43.058 4.842c1.687 2.289 2.553 5.022 2.12 6.834-1.516 6.39-6.233 8.61-20.363 12.961-2.837-6.97-3.771-9.146-6.609-16.117 12.33-5.763 21.092-8.804 24.852-3.678Z" />
                <path
                    d="M86.145 76.505a12.832 12.832 0 0 0-1.56-2.79c-3.76-5.126-12.523-2.085-24.853 3.678 2.838 6.97 3.772 9.146 6.61 16.117 6.973-2.153 11.656-3.77 14.801-5.65.684-.41 1.288-.83 1.835-1.264" />
            </g>
            <path fill="#06F"
                d="m390.204 146.78 2.02-1.607a52071.999 52071.999 0 0 0-27.031-29.916l5.277-.031c-1.343-6.692-2.696-13.394-4.039-20.085 2.665-.75 5.235-1.776 7.413-3.002 4.452-2.506 6.504-5.339 7.107-6.237 2.559-3.774 3.098-7.558 3.236-9.472-.994-.793-1.999-1.575-2.983-2.368l3.49-1.998c-.085-1.331-.158-2.663-.254-3.985a29.47 29.47 0 0 1-6.101 2.051c.465-1.501.92-3.066 1.385-4.704-.92-.307-1.755-.592-2.527-.846l1.565-9.545h-.011a329.544 329.544 0 0 1 2.083-11.914c.55-2.886 1.153-5.645 1.756-8.35.117-.455-.212-.963-.666-1.026-.455-.116-.963.211-1.026.666l.19-.962c.127-.56-.211-1.131-.782-1.205-.561-.127-1.142.264-1.259.782.064-.402.18-.856.243-1.237.127-.624-.264-1.258-.888-1.364-.624-.116-1.258.265-1.364.889-.063.285-.127.623-.18.898.127-.497-.212-1.078-.783-1.142-.496-.127-1.078.212-1.205.782l-1.089 5.254-.826-1.258c-.391-.517-1.067-.634-1.575-.296-.518.339-.645 1.068-.307 1.575l2.062 3.024c-1.469 4.112-2.939 8.16-4.463 12.273l-3.002 8.34c-.889-.296-1.841-.613-2.909-.972a268.704 268.704 0 0 0-2.559 6.004c-.487-.603-.867-1.28-1.057-2.05a3.705 3.705 0 0 1-.128-1.143c.138-2.78 1.354-4.82 1.862-5.634 2.485-4.027 2.306-11.448-1.016-14.736-.603-.592-1.681-1.427-3.585-1.881a10.998 10.998 0 0 0-3.109-3.024v.021c-4.505-2.885-9.708-1.3-10.321-1.12-4.59 1.385-7.224 5.36-8.873 9.324a3 3 0 0 0-.941.317c-1.417.856-1.534 2.833-.899 4.08.063.137.148.254.222.37-.169.613-.328 1.194-.476 1.723-1.036 3.848-.857 6.332-.37 8.224.624 2.463 1.808 4.112 2.623 5.233a200.92 200.92 0 0 0 2.644 3.541h-1.957c-.296 0-.582.233-.624.476l-1.11 5.613h-.994c-.127-1.194-.392-2.495-.793-3.943-.889-3.235-2.464-7.21-4.665-12.378h-.01c-1.068.348-2.03.655-2.919.94l-2.908-8.425c-1.47-4.122-2.887-8.203-4.304-12.336l2.094-3.002c.338-.518.222-1.237-.285-1.575-.519-.339-1.195-.222-1.587.285l-.857 1.237-1.015-5.264a1.028 1.028 0 0 0-1.195-.793c-.561.063-.899.623-.793 1.13-.063-.285-.116-.623-.18-.898-.116-.623-.74-1.014-1.354-.898-.613.116-1.015.74-.898 1.353.063.402.179.856.222 1.237-.117-.518-.677-.899-1.248-.793-.561.063-.899.624-.793 1.194l.18.962c-.064-.454-.561-.792-1.015-.676-.455.063-.794.56-.678 1.015.561 2.716 1.132 5.497 1.639 8.372a324.09 324.09 0 0 1 1.915 11.934l1.448 9.61c-.772.253-1.607.517-2.517.813 2.485 9.271 4.876 16.375 8.249 19.768 1.513 1.533 3.226 2.305 5.235 2.188h.106a14.6 14.6 0 0 0 1.386-.169l-3.925 25.201-.687 4.345h.678c1.258 0 2.505-.01 3.765-.021l9.517 56.533h-.01l3.373-.75a15.734 15.734 0 0 0-2.665 11.046l30.891-6.934c-1.206-3.869-3.84-6.966-7.171-8.88l2.55-.571c-2.804-9.682-5.617-19.377-8.44-29.081l18.211 25.561 2.718-2.167c-.582 3.763.2 7.717 2.432 11.089l24.757-19.715c-2.77-2.949-6.493-4.598-10.321-4.862l-.022-.032Z"
                opacity=".75" />
            <path fill="#FF55EB"
                d="m407.846 146.78 2.019-1.607c-8.989-9.958-18.01-19.937-27.03-29.916l5.277-.031c-1.343-6.692-2.696-13.394-4.04-20.085 2.665-.75 5.235-1.776 7.414-3.002 4.452-2.506 6.503-5.339 7.106-6.237 2.559-3.774 3.099-7.558 3.236-9.472-.994-.793-1.999-1.575-2.982-2.368l3.49-1.998c-.085-1.331-.159-2.663-.254-3.985a29.503 29.503 0 0 1-6.102 2.051c.465-1.501.92-3.066 1.385-4.704-.92-.307-1.755-.592-2.527-.846l1.565-9.545h-.011c.613-3.901 1.29-7.854 2.084-11.914.55-2.886 1.153-5.645 1.756-8.35.115-.455-.212-.963-.667-1.026-.454-.116-.962.211-1.026.666l.19-.962c.128-.56-.211-1.131-.782-1.205-.56-.127-1.142.264-1.258.782.063-.402.179-.856.243-1.237.127-.624-.265-1.258-.888-1.364-.624-.116-1.259.265-1.365.889a31.64 31.64 0 0 0-.179.898c.126-.497-.212-1.078-.783-1.142-.497-.127-1.079.212-1.206.782l-1.089 5.254-.825-1.258c-.391-.517-1.068-.634-1.575-.296-.518.339-.646 1.068-.307 1.575l2.062 3.024c-1.47 4.112-2.94 8.16-4.463 12.273l-3.004 8.34c-.887-.296-1.839-.613-2.908-.972a273.479 273.479 0 0 0-2.559 6.004c-.486-.603-.867-1.28-1.058-2.05a3.73 3.73 0 0 1-.126-1.143c.137-2.78 1.353-4.82 1.861-5.634 2.485-4.027 2.305-11.448-1.015-14.736-.603-.592-1.681-1.427-3.585-1.881a11.004 11.004 0 0 0-3.11-3.024v.021c-4.504-2.885-9.707-1.3-10.321-1.12-4.59 1.385-7.223 5.36-8.873 9.324a3 3 0 0 0-.941.317c-1.417.856-1.534 2.833-.899 4.08.064.137.148.254.222.37-.169.613-.328 1.194-.475 1.723-1.037 3.848-.857 6.332-.371 8.224.624 2.463 1.809 4.112 2.623 5.233.962 1.321 1.84 2.484 2.644 3.541h-1.957c-.296 0-.581.233-.623.476l-1.111 5.613h-.994c-.127-1.194-.391-2.495-.793-3.943-.888-3.235-2.465-7.21-4.664-12.378h-.011c-1.067.348-2.03.655-2.919.94l-2.908-8.425a1082.71 1082.71 0 0 1-4.304-12.336l2.094-3.002c.339-.518.222-1.237-.286-1.575-.518-.339-1.195-.222-1.585.285l-.857 1.237-1.015-5.264a1.028 1.028 0 0 0-1.195-.793c-.561.063-.9.623-.794 1.13-.063-.285-.116-.623-.179-.898-.117-.623-.74-1.014-1.354-.898-.613.116-1.015.74-.899 1.353.064.402.18.856.222 1.237-.116-.518-.676-.899-1.248-.793-.56.063-.898.624-.793 1.194l.179.962c-.063-.454-.56-.792-1.015-.676-.454.063-.792.56-.676 1.015.561 2.716 1.131 5.497 1.639 8.372a328.36 328.36 0 0 1 1.914 11.934l1.449 9.61c-.772.253-1.607.517-2.517.813 2.485 9.271 4.875 16.375 8.249 19.768 1.512 1.533 3.225 2.305 5.235 2.188h.105a14.54 14.54 0 0 0 1.385-.169l-3.923 25.201-.687 4.345h.676c1.26 0 2.507-.01 3.765-.021l9.518 56.533h-.011l3.374-.75a15.734 15.734 0 0 0-2.665 11.046l30.891-6.934c-1.206-3.869-3.839-6.966-7.17-8.88l2.548-.571c-2.802-9.682-5.615-19.377-8.438-29.081l18.21 25.561 2.718-2.167a15.7 15.7 0 0 0 2.432 11.089l24.757-19.715c-2.771-2.949-6.493-4.598-10.321-4.862l-.021-.032Z"
                opacity=".75" />
            <path fill="#000"
                d="M360.871 36.959a10.882 10.882 0 0 1 3.11 3.023c1.902.455 2.982 1.29 3.585 1.882 3.32 3.287 3.5 10.708 1.015 14.736-.497.814-1.713 2.843-1.861 5.634a3.7 3.7 0 0 0 .126 1.142c.92 3.7 6.007 5.38 7.857 5.983 7.414 2.431 14.415-.222 17.45-1.618.085 1.332.159 2.664.254 3.986l-3.49 1.998c.994.792 1.999 1.575 2.983 2.368-.138 1.902-.677 5.697-3.237 9.471-.603.888-2.644 3.721-7.107 6.237-8.322 4.683-22.081 6.501-26.3.623-2.285-3.17.697-4.799-1.365-10.708-1.618-4.598-4.219-5.74-12.087-16.564-.815-1.121-1.988-2.77-2.623-5.233-.476-1.892-.666-4.377.37-8.224 1.301-4.863 3.67-13.605 10.967-15.814.614-.19 5.816-1.766 10.332 1.12v-.021l.021-.021Z" />
            <path fill="#08F8C3" stroke="#000" stroke-linecap="round" stroke-linejoin="round"
                stroke-width=".904"
                d="M354.635 164.477c8.089-1.808 16.159 2.876 18.57 10.603l-30.89 6.934c-1.069-8.087 4.177-15.697 12.32-17.526v-.011Z" />
            <path fill="#FFCC02" stroke="#000" stroke-linecap="round" stroke-linejoin="round"
                stroke-width=".904"
                d="m341.608 171.717 26.977-6.099c-5.34-18.469-10.754-36.978-16.106-55.498-1.544-5.36-7.001-8.573-12.416-7.305-5.424 1.216-8.978 6.512-8.026 11.999l9.581 56.903h-.01Z" />
            <path fill="#08F8C3" stroke="#000" stroke-linecap="round" stroke-linejoin="round"
                stroke-width=".904"
                d="M386.923 149.867c6.483-5.169 15.789-4.471 21.331 1.428l-24.757 19.714c-4.495-6.807-3.11-15.94 3.415-21.142h.011Z" />
            <path fill="#FFCC02" stroke="#000" stroke-linecap="round" stroke-linejoin="round"
                stroke-width=".904"
                d="m378.352 162.097 21.595-17.273c-12.88-14.271-25.836-28.563-38.738-42.887-3.733-4.143-10.046-4.661-14.372-1.141-4.346 3.467-5.224 9.778-1.967 14.303l33.492 46.998h-.01Z" />
            <path fill="#fff" stroke="#000" stroke-linecap="round" stroke-linejoin="round"
                stroke-width=".904"
                d="m344.345 70.987 12.616 1.353V61.589l-11.495-1.194-1.132 10.581.011.01Z" />
            <path fill="#fff"
                d="M342.443 51.46c-.179 0-1.872-.339-2.612-1.872-.624-1.236-.518-3.224.899-4.08 1.079-.624 2.549-.455 3.627.518" />
            <path stroke="#000" stroke-linecap="round" stroke-linejoin="round" stroke-width=".904"
                d="M342.443 51.46c-.179 0-1.872-.339-2.612-1.872-.624-1.236-.518-3.224.899-4.08 1.079-.624 2.549-.455 3.627.518" />
            <path fill="#fff" stroke="#000" stroke-linecap="round" stroke-linejoin="round"
                stroke-width=".904"
                d="M343.221 49.793c-2.274 5.434.285 11.713 5.774 14.038 5.435 2.315 11.781-.222 14.044-5.719l1.639-3.964c2.274-5.433-.285-11.776-5.774-14.038-5.436-2.315-11.781.222-14.033 5.719l-1.64 3.964h-.01Z" />
            <path fill="#000"
                d="M355.332 53.778c.624-1.353.518-2.77-.286-3.108-.803-.339-1.924.454-2.548 1.807-.624 1.353 1.078-1.078 1.872-.74.793.402.285 3.404.962 2.03v.01Zm.465-4.432c-1.132-.624-.064-2.273.962-1.47.741.518 2.549 2.95 1.417 3.563-.285.116-.676 0-.793-.339-.286-.792-.898-1.353-1.575-1.754h-.011Zm-8.145-.97c.793.285.624 3.224 1.131 1.871.519-1.353.286-2.717-.507-3.002-.794-.286-1.809.56-2.327 1.924-.518 1.353.899-1.131 1.692-.793h.011Z" />
            <path fill="#fff"
                d="M349.009 55.68c-.677-.19-1.311-.39-1.956-.58.93-.973 1.798-1.956 2.728-2.918" />
            <path fill="#000"
                d="M350.722 50.491c.18-.18.518.116.286.338l-3.004 3.51-.18-.677 2.274.677c.508.18.285.962-.222.793l-2.273-.677c-.286-.063-.402-.454-.18-.676l3.289-3.288h.01Z" />
            <path fill="#F9E07A" stroke="#000" stroke-linecap="round" stroke-linejoin="round"
                stroke-width=".904"
                d="M340.642 75.49c-.106.359.243.665.624.665h21.172c.38 0 .666-.36.624-.666l-1.259-6.332c-.052-.296-.285-.475-.624-.475h-18.655c-.295 0-.581.232-.623.475l-1.259 6.332Z" />
            <path fill="#FFE067"
                d="m327.673 115.192 49.599-.316c-2.644-13.373-5.288-26.734-7.931-40.107h-35.396l-6.293 40.423h.021Z" />
            <path stroke="#000" stroke-linecap="round" stroke-linejoin="round" stroke-width=".904"
                d="m327.652 115.192 50.54-.316c-2.697-13.373-5.383-26.734-8.079-40.107h-36.062l-6.409 40.423h.01Z" />
            <path fill="#fff" stroke="#000" stroke-linecap="round" stroke-miterlimit="10"
                stroke-width=".904"
                d="m318.344 53.459 3.627 24.048 14.552-3.287-8.048-23.267c-1.47-4.123-2.887-8.203-4.305-12.336l2.095-3.002c.338-.518.221-1.237-.286-1.575-.518-.339-1.195-.222-1.586.285l-.857 1.237-1.015-5.264a1.027 1.027 0 0 0-1.195-.793c-.561.063-.899.623-.793 1.13-.063-.285-.117-.623-.18-.898-.117-.623-.74-1.014-1.353-.898-.614.116-1.015.74-.9 1.353.064.401.18.856.223 1.237-.117-.518-.677-.899-1.249-.793-.56.063-.898.623-.792 1.194l.179.962c-.063-.454-.56-.793-1.015-.676-.454.063-.793.56-.677 1.015.561 2.716 1.132 5.496 1.639 8.372.74 4.08 1.354 8.034 1.915 11.934l.021.022Z" />
            <path fill="#fff" d="M321.196 34.219a98.77 98.77 0 0 0-.624-3.563l.624 3.563Z" />
            <path stroke="#000" stroke-linecap="round" stroke-linejoin="round" stroke-width=".904"
                d="M321.196 34.219a98.77 98.77 0 0 0-.624-3.563" />
            <path fill="#fff" d="M318.802 33.975c-.18-.856-.285-1.691-.454-2.547l.454 2.547Z" />
            <path stroke="#000" stroke-linecap="round" stroke-linejoin="round" stroke-width=".904"
                d="M318.802 33.975c-.18-.856-.285-1.691-.454-2.547m-1.589 2.689c-.116-.455-.18-.857-.285-1.3" />
            <path fill="#FFCC02"
                d="M317.268 63.871c7.36-2.379 9.686-3.055 17.036-5.434 5.943 13.986 7.297 19.123 3.289 24.557-1.195 1.532-3.85 2.664-6.8 2.833-6.514.401-9.909-8.489-13.525-21.956Z" />
            <path stroke="#000" stroke-linecap="round" stroke-miterlimit="10" stroke-width=".904"
                d="M339.87 76.102c0-.677-.116-1.47-.222-2.273-.56-3.742-2.379-8.489-5.319-15.391-7.361 2.378-9.687 3.054-17.037 5.433 3.628 13.467 7.022 22.41 13.526 21.956a12.368 12.368 0 0 0 3.225-.624" />
            <path fill="#fff" stroke="#000" stroke-linecap="round" stroke-miterlimit="10"
                stroke-width=".904"
                d="M386.475 54.675a325 325 0 0 1 2.082-11.913c.551-2.886 1.154-5.645 1.756-8.352.116-.454-.212-.961-.666-1.025-.455-.116-.962.212-1.025.666l.189-.962c.128-.56-.211-1.131-.782-1.205-.561-.127-1.142.264-1.259.782.064-.401.18-.856.243-1.237.128-.623-.264-1.257-.887-1.363-.625-.116-1.259.264-1.364.888-.065.285-.128.623-.18.898.126-.497-.212-1.078-.783-1.141-.497-.127-1.079.211-1.206.782l-1.089 5.254-.825-1.258c-.391-.518-1.068-.635-1.575-.296-.519.338-.646 1.067-.308 1.575l2.063 3.023c-1.47 4.112-2.94 8.16-4.463 12.273l-8.344 23.15 14.498 3.478 3.945-24.006h-.01l-.01-.011Z" />
            <path fill="#fff" d="M384.559 31.834c-.243 1.195-.487 2.368-.666 3.562l.666-3.562Z" />
            <path stroke="#000" stroke-linecap="round" stroke-linejoin="round" stroke-width=".904"
                d="M384.559 31.834c-.243 1.195-.487 2.368-.666 3.562" />
            <path fill="#fff" d="M386.748 32.654c-.18.856-.296 1.692-.486 2.548l.486-2.548Z" />
            <path stroke="#000" stroke-linecap="round" stroke-linejoin="round" stroke-width=".904"
                d="M386.748 32.654c-.18.856-.296 1.692-.486 2.548" />
            <path fill="#fff" d="M388.599 34.03c-.115.454-.18.855-.295 1.289l.295-1.29Z" />
            <path stroke="#000" stroke-linecap="round" stroke-linejoin="round" stroke-width=".904"
                d="M388.599 34.03c-.115.454-.18.855-.295 1.289" />
            <path fill="#FFCC02"
                d="M373.629 86.865c-2.93-.211-5.584-1.374-6.758-2.917-3.955-5.476-2.517-10.624 3.606-24.514 7.329 2.473 9.634 3.181 16.973 5.655-3.807 13.415-7.318 22.263-13.811 21.787l-.01-.01Z" />
            <path stroke="#000" stroke-linecap="round" stroke-miterlimit="10" stroke-width=".904"
                d="M370.409 86.198c1.015.349 2.082.592 3.225.666 6.504.54 10.015-8.362 13.812-21.787-7.33-2.473-9.635-3.181-16.974-5.655-3.036 6.86-4.907 11.596-5.521 15.328-.126.793-.254 1.575-.254 2.262" />
            <path stroke="#000" stroke-linecap="round" stroke-linejoin="round" stroke-width=".452"
                d="M347.12 58.46c1.078.962 4.082-.857 4.082-.857l-4.865-1.69s-.116 1.754.793 2.547h-.01Z" />
            <path fill="#000"
                d="M359.919 44.992c3.448 8.15 7.297 9.958 7.932 9.8 1.639-.402.454-11.83-5.722-15.857-5.203-3.404-13.018-4.017-17.491 3.964 7.931.455 9.623 2.315 15.281 2.093Z" />
            <path fill="#000"
                d="M350.605 44.92c1.248.4.455 2.272-.793 1.574-.677-.402-1.47-.56-2.327-.454-.221.063-.518-.117-.623-.402-.286-1.353 2.95-1.078 3.743-.74v.021Z" />
            <path fill="#fff"
                d="M357.95 59.536c.148.095 1.353.93 2.728.486 1.164-.391 2.285-1.65 1.999-3.023-.243-1.068-1.258-1.84-2.485-1.956" />
            <path fill="#fff"
                d="M360.379 59.2c.18.117 1.586 1.079 3.173.56 1.353-.454 2.654-1.923 2.316-3.509-.286-1.236-1.47-2.146-2.887-2.273" />
            <path stroke="#000" stroke-linecap="round" stroke-linejoin="round" stroke-width=".904"
                d="M360.379 59.2c.18.117 1.586 1.079 3.173.56 1.353-.454 2.654-1.923 2.316-3.509-.286-1.236-1.47-2.146-2.887-2.273m-56.603 48.549h23.445" />
            <path fill="#000" d="m307.919 107.803-9.126-5.274 9.126-5.275v10.549Z" />
            <path stroke="#000" stroke-linecap="round" stroke-linejoin="round" stroke-width=".904"
                d="M400.333 102.527h-23.435" />
            <path fill="#000" d="m398.801 97.256 9.126 5.275-9.126 5.274v-10.55Z" />
            <path fill="#06F" stroke="#000" stroke-linecap="round" stroke-width=".904"
                d="M58.93 156.097v-3.849h15.976v3.849H58.931Z" />
            <g fill="#06F" opacity=".75">
                <path d="m105.465 59.752-10.961 1.126v10.254l11.998-1.27-1.037-10.11Z" />
                <path
                    d="M106.06 45.886c-2.186-5.205-8.174-7.657-13.38-5.472-5.208 2.184-7.65 8.17-5.476 13.375l1.584 3.767c2.186 5.205 8.173 7.646 13.38 5.473 5.208-2.185 7.65-8.17 5.476-13.375l-1.584-3.768Z" />
                <path
                    d="M96.52 53.164c.77-.245 2.118 2.274 1.684.925-.435-1.348-1.417-2.251-2.186-1.995-.77.246-1.048 1.55-.613 2.898.435 1.349.334-1.571 1.114-1.816v-.012Zm-1.054-1.942a3.392 3.392 0 0 0-1.728 1.46.584.584 0 0 1-.792.224c-.98-.714 1.026-2.787 1.774-3.188 1.058-.624 1.895 1.047.757 1.527l-.01-.023Zm9.363.492c-.324-1.35-1.204-2.285-1.973-2.096-.77.19-1.127 1.427-.803 2.764.323 1.338.523-1.449 1.293-1.627.77-.19 1.817 2.307 1.494.97l-.011-.011Z" />
                <path d="m100.348 50.5 3.01 3.243c-.713.212-1.416.435-2.141.658" />
                <path
                    d="m99.987 51.416 3.143 3.11c.213.2.113.58-.178.646l-2.14.658c-.491.156-.725-.602-.234-.758l2.14-.658-.178.647-2.865-3.366c-.168-.19.122-.457.3-.279h.012Zm4.151 5.149-4.627 1.616s2.888 1.75 3.88.824c.847-.791.747-2.44.747-2.44Zm-3.222-9.405c.791-.246 3.891-.123 3.423 1.148a.583.583 0 0 1-.658.3 3.342 3.342 0 0 0-2.264.179c-1.17.468-1.728-1.36-.49-1.616l-.011-.011ZM88.83 53.664c-1.36.09-2.486.98-2.754 2.14-.345 1.516.915 2.91 2.197 3.333 1.528.501 2.877-.424 3.034-.535" />
                <path
                    d="M88.83 53.664c-1.36.09-2.486.98-2.754 2.14-.345 1.516.915 2.91 2.197 3.333 1.528.501 2.877-.424 3.034-.535" />
                <path
                    d="m95.631 44.237-.067 4.346c-.067.134-.401.803-1.193 1.115a2.25 2.25 0 0 1-1.75-.033l-1.573-2.943c0 .981-.089 2.252-.446 3.69-.334 1.337-1.884 2.396-2.308 3.254-1.238.635-1.65.936-2.888 1.572-.903-.903-1.539-1.438-2.442-2.341-.134-.145-2.263-2.463-1.371-5.428.613-2.029 2.252-3.065 2.676-3.322-.848-.4-1.372-1.136-1.26-1.738.145-.792 1.438-1.594 2.988-1.16.223-2.452 1.695-4.514 3.769-5.25 1.46-.523 2.81-.222 3.4-.044.391-.423 3.09-3.199 7.071-3.076 3.735.123 7.058 2.742 8.195 6.576.167 2.787.023 4.19.178 6.989-.635.2-1.472.579-2.118.78-1.249-1.126-1.985-1.015-3.234-2.14-.212.278-1.382 1.794-3.479 2.073a5.116 5.116 0 0 1-2.888-.468l-1.26-2.464v.012Z" />
                <path
                    d="M107.17 46.052c1.026-.914 2.442-1.081 3.457-.457 1.326.813 1.438 2.686.836 3.9-.714 1.45-2.32 1.75-2.498 1.784" />
                <path
                    d="M107.17 46.052c1.026-.914 2.442-1.081 3.457-.457 1.326.813 1.438 2.686.836 3.9-.714 1.45-2.32 1.75-2.498 1.784" />
            </g>
            <path fill="#FF55EB" d="m113.307 55.443-10.96 1.126v10.254l11.997-1.27-1.037-10.11Z" />
            <path fill="#FF55EB"
                d="M113.914 41.592c-2.186-5.206-8.174-7.658-13.382-5.473-5.207 2.184-7.648 8.17-5.474 13.375l1.583 3.767c2.185 5.205 8.173 7.646 13.381 5.473 5.207-2.185 7.649-8.17 5.474-13.375l-1.582-3.767Z" />
            <path fill="#FF55EB"
                d="M104.373 48.854c.769-.245 2.119 2.273 1.684.925-.436-1.349-1.417-2.252-2.186-1.995-.769.245-1.049 1.55-.614 2.898.435 1.348.335-1.572 1.116-1.817v-.011Zm-1.072-1.94a3.392 3.392 0 0 0-1.728 1.46.584.584 0 0 1-.792.223c-.98-.713 1.026-2.787 1.774-3.188 1.058-.624 1.895 1.048.757 1.527l-.011-.022Zm9.374.491c-.323-1.349-1.205-2.285-1.974-2.096-.769.19-1.126 1.427-.803 2.765.324 1.337.524-1.45 1.294-1.628.769-.189 1.818 2.308 1.494.97l-.011-.011Z" />
            <path fill="#FF55EB" d="m108.2 46.191 3.011 3.244c-.714.212-1.416.435-2.141.657" />
            <path fill="#FF55EB"
                d="m107.833 47.108 3.144 3.11c.211.2.111.579-.178.646l-2.142.657c-.49.156-.724-.602-.234-.758l2.141-.657-.179.646-2.865-3.366c-.167-.19.123-.457.301-.279h.012Zm4.159 5.148-4.628 1.616s2.888 1.75 3.88.825c.848-.792.748-2.441.748-2.441Zm-3.234-9.405c.792-.245 3.892-.123 3.424 1.148a.584.584 0 0 1-.658.3 3.342 3.342 0 0 0-2.264.18c-1.17.468-1.728-1.36-.491-1.617l-.011-.011Zm-12.085 6.504c-1.36.09-2.487.981-2.755 2.14-.345 1.516.915 2.91 2.197 3.333 1.528.502 2.877-.423 3.033-.535" />
            <path fill="#FF55EB"
                d="M96.673 49.355c-1.36.09-2.487.981-2.755 2.14-.345 1.516.915 2.91 2.197 3.333 1.528.502 2.877-.423 3.033-.535" />
            <path fill="#FF55EB"
                d="m103.484 39.928-.067 4.347c-.067.134-.401.802-1.193 1.114a2.254 2.254 0 0 1-1.751-.033c-.525-.98-1.048-1.962-1.572-2.943 0 .981-.09 2.252-.446 3.69-.334 1.337-1.885 2.396-2.308 3.254-1.238.636-1.65.937-2.889 1.572-.903-.903-1.538-1.438-2.441-2.34-.134-.145-2.264-2.464-1.372-5.429.613-2.028 2.252-3.065 2.676-3.321-.847-.401-1.371-1.137-1.26-1.739.145-.791 1.44-1.594 2.989-1.16.223-2.451 1.694-4.513 3.768-5.249 1.46-.524 2.811-.223 3.402-.044.389-.424 3.088-3.2 7.069-3.077 3.735.123 7.058 2.742 8.195 6.576.167 2.787.023 4.191.179 6.989-.635.2-1.472.58-2.119.78-1.248-1.126-1.985-1.014-3.233-2.14-.212.279-1.383 1.795-3.48 2.073a5.112 5.112 0 0 1-2.887-.468l-1.26-2.463v.011Z" />
            <path fill="#FF55EB"
                d="M113.967 42.349c1.026-.914 2.442-1.082 3.457-.457 1.327.813 1.438 2.686.836 3.9-.713 1.45-2.319 1.75-2.498 1.784" />
            <path fill="#FF55EB"
                d="M113.967 42.349c1.026-.914 2.442-1.082 3.457-.457 1.327.813 1.438 2.686.836 3.9-.713 1.45-2.319 1.75-2.498 1.784" />
            <path fill="#fff"
                d="M109.906 44.856c1.026-.914 2.442-1.08 3.457-.457 1.327.814 1.438 2.687.836 3.901-.713 1.45-2.319 1.75-2.497 1.784" />
            <path stroke="#000" stroke-linecap="round" stroke-linejoin="round" stroke-width=".904"
                d="M109.906 44.856c1.026-.914 2.442-1.08 3.457-.457 1.327.814 1.438 2.687.836 3.901-.713 1.45-2.319 1.75-2.497 1.784" />
            <g fill="#FF55EB" opacity=".75">
                <path
                    d="M143.424 50.99a306.798 306.798 0 0 1 1.862-11.368c.49-2.72 1.015-5.384 1.561-7.992a.844.844 0 0 0-.658-.98.838.838 0 0 0-.981.657l.179-.903a.996.996 0 0 0-.781-1.16.99.99 0 0 0-1.16.781c.079-.401.156-.802.234-1.204a1.1 1.1 0 0 0-.87-1.293 1.1 1.1 0 0 0-1.293.87l-.167.87a.946.946 0 0 0-.747-1.104.946.946 0 0 0-1.104.746l-.982 5.027-.813-1.159a1.105 1.105 0 0 0-1.528-.267 1.1 1.1 0 0 0-.267 1.527l1.996 2.842-4.082 11.736-7.649 22.136 13.838 3.099 3.423-22.872-.011.012Zm-2.072-21.699-.602 3.377.602-3.377Zm0 0-.602 3.377.602-3.377Z" />
                <path d="M143.443 30.035c-.144.814-.278 1.627-.412 2.452l.412-2.452Z" />
                <path
                    d="M143.443 30.035c-.144.814-.278 1.627-.412 2.452l.412-2.452Zm1.769 1.285c-.079.413-.168.825-.246 1.237l.246-1.237Z" />
                <path
                    d="M145.212 31.32c-.079.413-.168.825-.246 1.237l.246-1.237Zm-13.641 50.49c-2.776-.179-5.363-1.26-6.456-2.72-3.836-5.16-2.531-10.087 3.111-23.406 7.014 2.262 9.233 2.931 16.236 5.194-3.446 12.862-6.691 21.333-12.891 20.932Z" />
                <path
                    d="M128.496 81.219a12.83 12.83 0 0 0 3.078.59c6.211.402 9.444-8.069 12.889-20.931-7.013-2.263-9.232-2.932-16.235-5.194-2.787 6.576-4.515 11.112-5.084 14.634a15.46 15.46 0 0 0-.212 2.174" />
            </g>
            <path stroke="#000" stroke-linecap="round" stroke-linejoin="round" stroke-width=".904"
                d="M65.082 44.654h24.71" />
            <path fill="#000" d="m66.711 50.22-9.634-5.563 9.634-5.561v11.123Z" />
            <path stroke="#000" stroke-linecap="round" stroke-linejoin="round" stroke-width=".904"
                d="M158.906 41.102h-24.71" />
            <path fill="#000" d="m157.283 35.541 9.635 5.562-9.635 5.55V35.541Z" />
            <path fill="#06F" stroke="#000" stroke-linecap="round" stroke-width=".904"
                d="M152.145 148.996v4.314h-19.414v-4.314h19.414Z" />
            <path fill="#000" stroke="#000" stroke-linecap="round" stroke-width=".904"
                d="M141.362 129.056c0 5.651-4.583 10.243-10.247 10.243H77.748c-5.653 0-10.247-4.58-10.247-10.243v-9.697h73.861v9.697Z" />
            <path fill="#06F" stroke="#000" stroke-linecap="round" stroke-width=".904"
                d="M73.435 53.07c1.316 0 2.152.825 2.152 1.605v41.519c0 .78-.847 1.605-2.152 1.605-1.304 0-2.152-.825-2.152-1.605V54.675c0-.78.848-1.605 2.152-1.605Zm61.456 0c1.315 0 2.151.825 2.151 1.605v41.519c0 .78-.847 1.605-2.151 1.605-1.306 0-2.153-.825-2.153-1.605V54.675c0-.78.847-1.605 2.153-1.605Z" />
            <path fill="#66A3FF" stroke="#000" stroke-linecap="round" stroke-width=".904"
                d="M67.501 77.315c0-5.65 4.583-10.243 10.247-10.243h53.378c5.653 0 10.247 4.581 10.247 10.243v43.659H67.501V77.315Z" />
            <path fill="#FFCC02" stroke="#000" stroke-linecap="round" stroke-width=".904"
                d="m80.566 121.396 3.312-15.503h40.934l4.092 15.537c-8.686 3.589-15.666 5.439-23.004 5.484-7.347.044-15.109-1.739-25.334-5.506v-.012Z" />
            <path fill="#fff" stroke="#000" stroke-linecap="round" stroke-linejoin="round"
                stroke-width=".904" d="m108.787 57.852-10.96 1.125v10.255l11.997-1.271-1.037-10.11Z" />
            <path fill="#fff" stroke="#000" stroke-linecap="round" stroke-linejoin="round"
                stroke-width=".904"
                d="M109.39 43.986c-2.186-5.205-8.173-7.657-13.38-5.473-5.208 2.185-7.65 8.17-5.476 13.376l1.584 3.767c2.185 5.205 8.173 7.646 13.381 5.473 5.207-2.185 7.649-8.17 5.474-13.376l-1.583-3.767Z" />
            <path fill="#000"
                d="M99.86 51.268c.769-.245 2.118 2.274 1.683.925-.435-1.349-1.415-2.252-2.185-1.995-.769.245-1.048 1.55-.614 2.898.435 1.349.335-1.572 1.116-1.817v-.011Zm-1.071-1.94a3.392 3.392 0 0 0-1.729 1.46.584.584 0 0 1-.791.223c-.981-.713 1.025-2.786 1.772-3.188 1.06-.624 1.896 1.048.759 1.527l-.011-.022Zm9.363.492c-.324-1.35-1.204-2.286-1.975-2.096-.769.19-1.125 1.426-.802 2.764.323 1.337.524-1.45 1.293-1.627.77-.19 1.818 2.307 1.495.97l-.011-.012Zm-4.843-.304 3.144 3.11c.213.2.112.579-.178.646l-2.141.657c-.49.157-.724-.601-.235-.758l2.142-.657-.179.646-2.866-3.366c-.167-.19.123-.457.301-.278h.012Z" />
            <path fill="#FFE067" stroke="#000" stroke-linecap="round" stroke-linejoin="round"
                stroke-width=".904"
                d="M114.936 66.414c-.055-.234-.356-.412-.713-.412H93.371c-.357 0-.658.178-.713.412l-1.417 5.674c-.077.29.268.568.715.568h23.683c.446 0 .791-.267.714-.568l-1.405-5.674h-.012Z" />
            <path fill="#FFE067"
                d="M124.645 70.848H83.678c-2.955 13.62-4.06 27.062-7.014 40.694 8.53.389 20.83.958 29.349 1.348l25.914-1.348-7.282-40.694Z" />
            <path stroke="#000" stroke-linecap="round" stroke-linejoin="round" stroke-width=".904"
                d="M124.645 70.848H83.678c-2.955 13.62-4.06 27.062-7.014 40.694 8.53.389 20.83.958 29.349 1.348l25.914-1.348-7.282-40.694Z" />
            <path fill="#fff" stroke="#000" stroke-linecap="round" stroke-miterlimit="10"
                stroke-width=".904"
                d="M138.384 49.348a308.81 308.81 0 0 1 1.862-11.369 293.32 293.32 0 0 1 1.562-7.991.844.844 0 0 0-.659-.981.837.837 0 0 0-.98.657l.178-.903a.996.996 0 0 0-.78-1.159.99.99 0 0 0-1.16.78l.234-1.203a1.1 1.1 0 0 0-.87-1.293 1.1 1.1 0 0 0-1.293.87l-.167.869a.946.946 0 0 0-.747-1.104.946.946 0 0 0-1.105.747l-.981 5.027-.814-1.16a1.103 1.103 0 0 0-1.527-.267 1.1 1.1 0 0 0-.268 1.527l1.996 2.842-4.081 11.737-7.649 22.136 13.838 3.098 3.423-22.871-.012.01Z" />
            <path fill="#fff" d="m136.303 27.635-.602 3.377.602-3.377Z" />
            <path stroke="#000" stroke-linecap="round" stroke-linejoin="round" stroke-width=".904"
                d="m136.303 27.635-.602 3.377" />
            <path fill="#fff" d="M138.405 28.393a162.2 162.2 0 0 0-.413 2.452l.413-2.452Z" />
            <path stroke="#000" stroke-linecap="round" stroke-linejoin="round" stroke-width=".904"
                d="M138.405 28.393a162.2 162.2 0 0 0-.413 2.452" />
            <path fill="#fff" d="M140.163 29.678c-.079.412-.167.825-.246 1.237l.246-1.237Z" />
            <path stroke="#000" stroke-linecap="round" stroke-linejoin="round" stroke-width=".904"
                d="M140.163 29.678c-.079.412-.167.825-.246 1.237" />
            <path fill="#FFCC02"
                d="M126.525 80.169c-2.776-.178-5.363-1.26-6.456-2.72-3.835-5.16-2.531-10.087 3.112-23.406 7.013 2.263 9.232 2.931 16.235 5.194-3.446 12.862-6.69 21.333-12.891 20.932Z" />
            <path stroke="#000" stroke-linecap="round" stroke-miterlimit="10" stroke-width=".904"
                d="M123.451 79.578a12.83 12.83 0 0 0 3.078.59c6.211.402 9.444-8.069 12.889-20.931-7.013-2.263-9.232-2.931-16.235-5.194-2.787 6.576-4.515 11.112-5.084 14.634-.123.77-.201 1.494-.212 2.174" />
            <path fill="#fff" stroke="#000" stroke-linecap="round" stroke-miterlimit="10"
                stroke-width=".904"
                d="m47.07 67.79.436.607c-.28-.48-.536-.602-1.26-.29-.39.234-.39.78-.157 1.181a309.43 309.43 0 0 1 4.104 7.033c1.94 3.433 3.769 6.81 5.486 10.12l1.684 3.267c1.014 2.351 3.69 3.477 6.077 2.608l15.042-4.637-2.598-6.019-2.543-5.885-9.366 5.283a3335.94 3335.94 0 0 0-7.716-9.752c.312-1.115.635-2.218.948-3.333.066-.435-.168-1.092-.759-1.349-.423-.189-.936-.111-1.315.19-.179.435-.346.858-.525 1.293l-2.475-3.779a.958.958 0 0 0-1.293-.345.933.933 0 0 0-.335 1.282 27.05 27.05 0 0 1-.446-.77 1.092 1.092 0 0 0-1.505-.39 1.09 1.09 0 0 0-.39 1.505c.2.346.412.702.613 1.059a.984.984 0 0 0-1.35-.346.993.993 0 0 0-.356 1.35v.116Z" />
            <path fill="#fff" d="M50.52 65.252c.557.992 1.126 1.995 1.683 2.987l-1.684-2.987Z" />
            <path stroke="#000" stroke-linecap="round" stroke-linejoin="round" stroke-width=".904"
                d="M50.52 65.252c.557.992 1.126 1.995 1.683 2.987" />
            <path fill="#fff" d="M48.786 66.658c.401.725.803 1.45 1.193 2.174l-1.193-2.174Z" />
            <path stroke="#000" stroke-linecap="round" stroke-linejoin="round" stroke-width=".904"
                d="M48.786 66.658c.401.725.803 1.45 1.193 2.174" />
            <path fill="#fff" d="M47.54 68.44c.211.367.423.724.635 1.092l-.636-1.093Z" />
            <path stroke="#000" stroke-linecap="round" stroke-linejoin="round" stroke-width=".904"
                d="M47.54 68.44c.211.367.423.724.635 1.092" />
            <path fill="#FFCC02"
                d="M89.673 73.188c1.65 2.24 2.498 4.915 2.074 6.687-1.483 6.253-6.1 8.426-19.926 12.684-2.777-6.821-3.691-8.95-6.468-15.771 12.065-5.64 20.64-8.616 24.32-3.6Z" />
            <path stroke="#000" stroke-linecap="round" stroke-miterlimit="10" stroke-width=".904"
                d="M91.2 75.918a12.56 12.56 0 0 0-1.527-2.73c-3.68-5.016-12.255-2.04-24.32 3.6 2.777 6.82 3.691 8.95 6.468 15.771 6.824-2.106 11.407-3.69 14.484-5.528a16.8 16.8 0 0 0 1.796-1.238" />
            <path fill="#000"
                d="M58.658 129.891h2.42v46.032h-2.42a5.136 5.136 0 0 1-5.13-5.127v-35.767a5.138 5.138 0 0 1 5.13-5.138Z" />
            <path fill="#06F" stroke="#000" stroke-linecap="round" stroke-width=".904"
                d="M57.857 125.723c0-.28.201-.502.48-.547h1.672c.301 0 .547.246.547.547v54.904h-2.688v-54.916l-.01.012Zm16.657 52.374v-5.929h59.309v5.929h-59.31Z" />
            <path stroke="#000" stroke-linecap="round" stroke-miterlimit="10" stroke-width=".904"
                d="M68.19 176.725a3.463 3.463 0 0 1-3.468-3.466v-7.078a3.463 3.463 0 0 1 3.468-3.466h.445a3.463 3.463 0 0 1 3.468 3.466v7.078a3.463 3.463 0 0 1-3.468 3.466h-.446Z" />
            <path fill="#06F" stroke="#000" stroke-linecap="round" stroke-width=".904"
                d="M67.394 119.523h1.595c.3 0 .546.246.546.547v51.806h-2.687V120.07c0-.301.245-.547.546-.547Zm7.911 0h1.583c.301 0 .546.246.546.547v51.806h-2.687V120.07c0-.301.245-.547.546-.547h.012Z" />
            <path fill="#06F" stroke="#000" stroke-linecap="round" stroke-width=".904"
                d="M68.189 171.262c.256 0 .479.211.479.479v9.975c0 .268-.212.48-.48.48a.476.476 0 0 1-.479-.48v-9.975c0-.257.212-.479.48-.479Z" />
            <path fill="#000"
                d="M149.734 175.532h-2.42V129.5h2.42a5.128 5.128 0 0 1 5.129 5.126v35.768a5.136 5.136 0 0 1-5.129 5.127v.011Z" />
            <path fill="#06F" stroke="#000" stroke-linecap="round" stroke-width=".904"
                d="M150.56 180.248h-2.699v-54.904c0-.301.246-.547.547-.547h1.595c.301 0 .546.246.546.547v54.904h.011Z" />
            <path stroke="#000" stroke-linecap="round" stroke-miterlimit="10" stroke-width=".904"
                d="M140.197 176.333a3.465 3.465 0 0 0 3.469-3.467v-7.077a3.465 3.465 0 0 0-3.469-3.467h-.445a3.464 3.464 0 0 0-3.468 3.467v7.077a3.464 3.464 0 0 0 3.468 3.467h.445Z" />
            <path fill="#06F" stroke="#000" stroke-linecap="round" stroke-width=".904"
                d="M141.563 171.497h-2.699v-51.806c0-.301.246-.546.547-.546h1.595c.301 0 .546.245.546.546v51.806h.011Zm-7.694.215h-2.699v-51.807c0-.301.246-.546.547-.546h1.594c.301 0 .546.245.546.546v51.807h.012Z" />
            <path fill="#000"
                d="M139.192 181.316c0 .557.458 1.014 1.016 1.014.557 0 1.014-.457 1.014-1.014v-9.976c0-.557-.457-1.014-1.014-1.014-.558 0-1.016.457-1.016 1.014v9.976Z" />
            <path fill="#FFCC02" stroke="#000" stroke-linecap="round" stroke-linejoin="round"
                stroke-width=".904"
                d="m79.644 166.37 26.773-.513-4.449-55.796c-.424-5.361-4.962-9.474-10.348-9.374-5.408.101-9.801 4.414-9.99 9.82l-1.986 55.852v.011Z" />
            <path fill="#08F8C3" stroke="#000" stroke-linecap="round" stroke-linejoin="round"
                stroke-width=".904"
                d="M91.533 159.236c8.051 0 14.663 6.142 15.333 13.933H76.201c.67-7.802 7.27-13.933 15.332-13.933Z" />
            <path fill="#FFCC02" stroke="#000" stroke-linecap="round" stroke-linejoin="round"
                stroke-width=".904"
                d="m103.338 165.936 26.773.501c-.78-18.636-1.572-37.283-2.342-55.919-.223-5.383-4.605-9.663-9.991-9.753a10.195 10.195 0 0 0-10.359 9.441l-4.081 55.74v-.01Z" />
            <path fill="#08F8C3" stroke="#000" stroke-linecap="round" stroke-linejoin="round"
                stroke-width=".904"
                d="M116.872 159.236c8.063 0 14.663 6.142 15.332 13.933h-30.652c.669-7.802 7.269-13.933 15.32-13.933Z" />
            <path stroke="#000" stroke-linecap="round" stroke-linejoin="round" stroke-width=".452"
                d="m107.472 54.664-4.627 1.616s2.887 1.75 3.88.825c.847-.791.747-2.44.747-2.44Z" />
            <path fill="#000"
                d="M104.235 45.26c.792-.246 3.892-.123 3.423 1.147a.584.584 0 0 1-.658.301 3.338 3.338 0 0 0-2.263.178c-1.171.469-1.729-1.36-.491-1.616l-.011-.01Z" />
            <path fill="#fff"
                d="M92.153 51.77c-1.36.089-2.487.98-2.754 2.14-.346 1.515.914 2.909 2.196 3.332 1.528.502 2.878-.423 3.033-.535" />
            <path stroke="#000" stroke-linecap="round" stroke-linejoin="round" stroke-width=".904"
                d="M92.153 51.77c-1.36.089-2.487.98-2.754 2.14-.346 1.515.914 2.909 2.196 3.332 1.528.502 2.878-.423 3.033-.535" />
            <path fill="#06F" stroke="#000" stroke-linecap="round" stroke-width=".904"
                d="M66.154 117.203H76.4a1.89 1.89 0 0 1 1.885 1.884 1.89 1.89 0 0 1-1.885 1.884H66.154a1.89 1.89 0 0 1-1.885-1.884 1.89 1.89 0 0 1 1.885-1.884Zm65.238 0h10.247a1.89 1.89 0 0 1 1.885 1.884 1.89 1.89 0 0 1-1.885 1.884h-10.247a1.89 1.89 0 0 1-1.884-1.884c0-1.037.847-1.884 1.884-1.884Z" />
            <path fill="#080808"
                d="m98.96 42.336-.066 4.347c-.067.134-.402.803-1.194 1.115a2.254 2.254 0 0 1-1.75-.034l-1.573-2.942c0 .98-.09 2.251-.445 3.69-.335 1.337-1.885 2.395-2.31 3.254-1.237.635-1.65.936-2.887 1.571-.903-.903-1.538-1.438-2.442-2.34-.134-.145-2.263-2.464-1.371-5.428.613-2.029 2.252-3.066 2.676-3.322-.848-.401-1.372-1.137-1.26-1.739.145-.791 1.438-1.594 2.988-1.159.223-2.452 1.695-4.514 3.77-5.25 1.46-.523 2.809-.222 3.4-.044.39-.424 3.09-3.199 7.069-3.076 3.736.122 7.058 2.742 8.196 6.576.168 2.786.022 4.19.179 6.988-.636.2-1.472.58-2.119.78-1.249-1.125-1.985-1.014-3.234-2.14-.211.279-1.382 1.795-3.479 2.074a5.112 5.112 0 0 1-2.887-.469l-1.26-2.463v.011Z" />
            <path fill="#80A7F8" stroke="#000" stroke-linecap="round" stroke-linejoin="round"
                stroke-width=".904"
                d="M187.996 90.422h88.525c6.45 0 11.691 5.24 11.691 11.675v59.364H176.305v-59.364c0-6.447 5.242-11.675 11.691-11.675Z" />
            <path stroke="#fff" stroke-linecap="round" stroke-width=".904"
                d="M194.61 105.586c22.722 44.535 39.859 45.594 77.017 10.49" />
            <path fill="#FFCC02" stroke="#000" stroke-linecap="round" stroke-linejoin="round"
                stroke-width=".904" d="M244.348 161.361H215.6v11.128h28.748v-11.128Z" />
            <path fill="#FFCC02" stroke="#000" stroke-linecap="round" stroke-linejoin="round"
                stroke-width=".904" d="M276.325 171.18h-90.189v8.473h90.189v-8.473Z" />
            <path fill="#fff" stroke="#000" stroke-miterlimit="10" stroke-width=".904"
                d="M243.55 90.422h-27.746V101.8h27.746V90.422Zm-7.567 11.39h-11.828v9.488h11.828v-9.488Z" />
            <path fill="#06F"
                d="m202.601 129.775 3.235-4.818a1.831 1.831 0 0 0-.501-2.539 1.85 1.85 0 0 0-2.553.513l-1.321 1.959-1.789-8.372a1.586 1.586 0 0 0-1.869-1.23 1.578 1.578 0 0 0-1.231 1.867c-.091-.455-.182-.956-.296-1.434-.205-.98-1.208-1.618-2.176-1.413a1.847 1.847 0 0 0-1.413 2.187c.136.66.273 1.321.421 2.004a1.665 1.665 0 0 0-1.971-1.253c-.877.194-1.447 1.094-1.253 1.959.091.502.227 1.003.319 1.505a1.376 1.376 0 0 0-1.641-1.072c-.752.16-1.231.901-1.071 1.607 1.356 6.948 5.389 25.092 8.717 40.241h17.969a22600.14 22600.14 0 0 0-11.554-31.699l-.022-.012Zm62.392 31.7c3.532-13.828 7.407-28.817 8.82-34.968.193-.706-.252-1.458-1.004-1.64a1.372 1.372 0 0 0-1.675 1.002c.103-.49.252-.99.365-1.491.228-.866-.296-1.789-1.174-2.005a1.663 1.663 0 0 0-2.017 1.184c.183-.683.342-1.321.502-1.993a1.866 1.866 0 0 0-1.333-2.232c-.98-.24-1.983.364-2.222 1.332-.137.478-.24.968-.364 1.424a1.58 1.58 0 0 0-1.163-1.902 1.59 1.59 0 0 0-1.915 1.162l-2.062 8.303-1.276-2.005c-.524-.866-1.675-1.116-2.529-.592a1.84 1.84 0 0 0-.581 2.529l3.065 4.92c-1.413 3.462-6.279 15.49-10.906 26.96h17.48l-.011.012Z" />
            <path stroke="#000" stroke-linecap="round" stroke-linejoin="round" stroke-width=".904"
                d="M187.996 90.422h88.525c6.45 0 11.691 5.24 11.691 11.675v59.364H176.305v-59.364c0-6.447 5.242-11.675 11.691-11.675Z" />
            <path fill="#000"
                d="M229.883 96.188a7.576 7.576 0 0 0 7.578-7.575 7.576 7.576 0 0 0-7.578-7.574 7.575 7.575 0 1 0 0 15.149Z" />
            <path fill="#fff"
                d="M229.885 94.875c3.455 0 6.256-2.8 6.256-6.253a6.255 6.255 0 0 0-6.256-6.253 6.254 6.254 0 1 0 0 12.506Z" />
            <path fill="#06F"
                d="M254.213 120.756c3.328 0 6.016-2.7 6.016-6.026a6.018 6.018 0 0 0-6.016-6.025c-3.327 0-6.039 2.699-6.039 6.025 0 3.326 2.712 6.026 6.039 6.026Z" />
            <path fill="#FFCC02"
                d="M211.574 123.432a4.028 4.028 0 0 0 4.023-4.021 4.02 4.02 0 0 0-4.023-4.02 4.02 4.02 0 0 0-4.021 4.02 4.013 4.013 0 0 0 4.021 4.021Z" />
            <path fill="#fff"
                d="M190.585 152.887a4.02 4.02 0 0 0 4.023-4.02 4.013 4.013 0 0 0-4.023-4.021 4.013 4.013 0 0 0-4.022 4.021 4.02 4.02 0 0 0 4.022 4.02Z" />
            <path fill="#FF55EB"
                d="M232.347 145.746a6.02 6.02 0 0 0 6.017-6.025 6.02 6.02 0 0 0-6.017-6.026 6.03 6.03 0 0 0-6.028 6.026c0 3.326 2.712 6.025 6.028 6.025Z" />
            <path fill="#fff" stroke="#000" stroke-width=".904"
                d="M139.493 100.167c.444 1.747 2.925 1.747 3.37 0l.889-3.496a2.644 2.644 0 0 1 1.909-1.91l3.497-.89c1.746-.444 1.746-2.925 0-3.37l-3.497-.89a2.645 2.645 0 0 1-1.909-1.908l-.889-3.497c-.445-1.746-2.926-1.746-3.37 0l-.891 3.497a2.642 2.642 0 0 1-1.909 1.909l-3.496.89c-1.747.444-1.747 2.925 0 3.37l3.496.89a2.641 2.641 0 0 1 1.909 1.909l.891 3.496Z" />
            <path stroke="#06F" stroke-linecap="round" stroke-linejoin="round" stroke-width=".904"
                d="m196.298 74.434-6.169 8.097m-19.852-8.078 5.467 8.587m7.286-12.05.302 10.174" />
            <path fill="#fff" stroke="#000" stroke-width=".904"
                d="M221.785 111.951c-1.746.444-1.746 2.926 0 3.37l3.497.89a2.643 2.643 0 0 1 1.909 1.909l.891 3.497c.443 1.746 2.925 1.746 3.37 0l.889-3.497a2.646 2.646 0 0 1 1.909-1.909l3.497-.89c1.746-.444 1.746-2.926 0-3.37l-3.497-.89a2.645 2.645 0 0 1-1.909-1.909l-.889-3.497c-.445-1.746-2.927-1.746-3.37 0l-.891 3.497a2.641 2.641 0 0 1-1.909 1.909l-3.497.89Z" />
            <path stroke="#06F" stroke-linecap="round" stroke-linejoin="round" stroke-width=".904"
                d="m312.292 155.737-8.101-6.167m8.081-19.843-8.59 5.464m12.053 7.284-10.177.302" />
        </g>
    </g>
    <defs>
        <clipPath id="a">
            <path fill="#fff" d="M0 16.756h433v170.84H0z" />
        </clipPath>
        <clipPath id="b">
            <path fill="#fff" d="M0 16.756h433v170.84H0z" />
        </clipPath>
    </defs>
</svg>