<svg xmlns="http://www.w3.org/2000/svg" width="433" height="205" fill="none"><g clip-path="url(#a)"><g clip-path="url(#b)"><g clip-path="url(#c)"><mask id="d" width="433" height="173" x="0" y="16" maskUnits="userSpaceOnUse" style="mask-type:luminance"><path fill="#fff" d="M433 16.574H0v171.502h433V16.574Z"/></mask><g mask="url(#d)"><path fill="#FFE5FF" d="M82.904 66.883h267.192c15.299 0 27.718 16.228 27.718 36.218v60.57H55.187v-60.57c0-19.99 12.419-36.218 27.717-36.218Z"/><path fill="#fff" stroke="#000" stroke-width=".849" d="M284.716 84.76c-1.641.418-1.641 2.748 0 3.165l3.284.836a2.482 2.482 0 0 1 1.793 1.793l.836 3.284c.417 1.64 2.747 1.64 3.165 0l.836-3.284a2.482 2.482 0 0 1 1.793-1.793l3.284-.836c1.64-.417 1.64-2.747 0-3.165l-3.284-.836a2.481 2.481 0 0 1-1.793-1.793l-.836-3.284c-.418-1.64-2.748-1.64-3.165 0l-.836 3.284A2.481 2.481 0 0 1 288 83.924l-3.284.836Z"/><path stroke="#FFCC02" stroke-linecap="round" stroke-linejoin="round" stroke-width=".849" d="m415.684 123.382-8.101-6.191m8.08-19.919-8.591 5.485m12.054 7.311-10.177.303"/><path fill="#fff" stroke="#000" stroke-linecap="round" stroke-miterlimit="10" stroke-width=".849" d="m167.078 67.958 9.445 13.455c3.407-2.995 6.813-5.98 10.209-8.976-7.194-8.653-14.388-17.295-21.573-25.948l.715-4.89c.098-.825-.479-1.64-1.301-1.739-.823-.098-1.576.452-1.733 1.306l-.274 2.014-4.404-5.755c-.48-.61-1.361-.678-1.909-.236-.637.412-.705 1.306-.274 1.846-.255-.314-.51-.687-.754-.982-.509-.688-1.507-.786-2.173-.275-.676.51-.773 1.513-.274 2.18.323.442.724.924 1.018 1.366-.45-.55-1.361-.678-1.977-.207-.636.413-.705 1.306-.235 1.915l.792 1.061c-.048-.059-.303-.383-.772-.442-.04 0-.51-.059-.862.246-.401.343-.508 1.021-.205 1.64a457.316 457.316 0 0 1 7.037 9.133 392.22 392.22 0 0 1 9.504 13.279v.01Z"/><path fill="#fff" d="M158.897 42.973a102.885 102.885 0 0 0-2.907-3.928l2.907 3.928Z"/><path stroke="#000" stroke-linecap="round" stroke-linejoin="round" stroke-width=".849" d="M158.897 42.973a102.885 102.885 0 0 0-2.907-3.928"/><path fill="#fff" d="M155.873 44.133c-.724-.923-1.37-1.876-2.084-2.809l2.084 2.809Z"/><path stroke="#000" stroke-linecap="round" stroke-linejoin="round" stroke-width=".849" d="M155.873 44.133c-.724-.923-1.37-1.876-2.084-2.809"/><path fill="#fff" d="M153.501 45.518c-.411-.482-.724-.924-1.135-1.405l1.135 1.405Z"/><path stroke="#000" stroke-linecap="round" stroke-linejoin="round" stroke-width=".849" d="M153.501 45.518c-.411-.482-.724-.924-1.135-1.405"/><path fill="#fff" stroke="#000" stroke-linecap="round" stroke-linejoin="round" stroke-width=".849" d="m214.997 62.04-14.721-.187.587 17.65 14.721.195-.587-17.648v-.01Z"/><path fill="#06F" stroke="#000" stroke-linecap="round" stroke-linejoin="round" stroke-width=".849" d="m177.037 130.157 11.188-21.911 42.88 6.816c2.711 10.489 5.422 20.967 8.134 31.457-20.741-5.461-41.462-10.912-62.202-16.372v.01Z"/><path fill="#06F" stroke="#000" stroke-linecap="round" stroke-linejoin="round" stroke-width=".849" d="m272.024 150.172-64.052 31.536-6.93-24.239-.068-.217-6.93-24.238 70.981-7.326c6.157-.629 11.882 3.251 13.586 9.211l.068.217c1.703 5.971-1.096 12.295-6.636 15.036h-.019v.02Z"/><path stroke="#fff" stroke-linecap="round" stroke-linejoin="round" stroke-width=".849" d="M265.502 138.635c-18.439 5.765-36.89 11.529-55.33 17.294m-5.177-17.464 9.7 32.734"/><path fill="#08F8C3" stroke="#000" stroke-linecap="round" stroke-linejoin="round" stroke-width=".849" d="M218.339 161.771c11.824 0 21.504 9.124 22.336 20.664h-44.681c.832-11.54 10.512-20.664 22.345-20.664Zm-47.03-5.478c11.823 0 21.504 9.114 22.345 20.663h-44.681c.832-11.549 10.511-20.663 22.336-20.663Z"/><path fill="#06F" stroke="#000" stroke-linecap="round" stroke-linejoin="round" stroke-width=".849" d="m167.18 111.586 58.63 40.807-17.726 17.854-.157.157-17.726 17.866-40.903-58.663c-3.544-5.077-2.946-11.991 1.418-16.381l.157-.158a12.759 12.759 0 0 1 16.268-1.531c.019.019.039.03.058.049h-.019Z"/><path stroke="#fff" stroke-linecap="round" stroke-linejoin="round" stroke-width=".849" d="M160.336 122.928c13.987 13.366 27.993 26.733 41.98 40.099m-12.693 13.023 23.784-24.415"/><path fill="#FFCC02" fill-rule="evenodd" d="M232.426 77.191c-15.514-.235-31.018-.47-46.531-.707l-7.253 40.954 59.197-.205-5.413-40.042Z" clip-rule="evenodd"/><path stroke="#000" stroke-miterlimit="10" stroke-width=".849" d="M232.426 77.191c-15.514-.235-31.018-.47-46.531-.707l-7.253 40.954 59.197-.205-5.413-40.042Z" clip-rule="evenodd"/><path fill="#FFCC02" d="M170.012 44.656a73.002 73.002 0 0 1-6.607 4.94 71.806 71.806 0 0 1-7.938 4.577c7.233 12.571 14.094 20.958 18.901 26.163 3.885 4.204 7.967 8.064 12.087 7.19 2.163-.462 4.728-2.299 5.766-4.94 0 0 3.177-3.293 2.629-5.984-.998-4.91-11.84-16.3-24.838-31.956v.01Z"/><path fill="#fff" stroke="#000" stroke-linecap="round" stroke-miterlimit="10" stroke-width=".849" d="M250.039 68.21c-3.152 4.489-6.294 8.967-9.446 13.455-3.406-2.995-6.812-5.98-10.208-8.976 7.194-8.653 14.388-17.295 21.573-25.948l-.715-4.89c-.098-.826.479-1.64 1.301-1.739.823-.098 1.576.452 1.733 1.306l.274 2.014 4.404-5.756c.48-.608 1.361-.677 1.909-.235.636.412.704 1.306.274 1.846.255-.314.509-.687.754-.982.508-.688 1.507-.786 2.173-.275.675.51.773 1.512.274 2.18-.323.442-.724.923-1.018 1.365.45-.55 1.36-.677 1.977-.206.636.413.705 1.306.234 1.915l-.792 1.061c.049-.059.303-.383.773-.442.04 0 .509-.059.862.246.401.343.508 1.02.205 1.64a453.608 453.608 0 0 0-7.037 9.133 390.915 390.915 0 0 0-9.504 13.279v.01Z"/><path fill="#fff" d="M258.22 43.225a103.94 103.94 0 0 1 2.906-3.928l-2.906 3.928Z"/><path stroke="#000" stroke-linecap="round" stroke-linejoin="round" stroke-width=".849" d="M258.22 43.225a103.94 103.94 0 0 1 2.906-3.928"/><path fill="#fff" d="M261.244 44.383c.724-.923 1.37-1.876 2.084-2.809l-2.084 2.809Z"/><path stroke="#000" stroke-linecap="round" stroke-linejoin="round" stroke-width=".849" d="M261.244 44.383c.724-.923 1.37-1.876 2.084-2.809"/><path fill="#fff" d="M263.616 45.768c.411-.482.724-.924 1.135-1.405l-1.135 1.405Z"/><path stroke="#000" stroke-linecap="round" stroke-linejoin="round" stroke-width=".849" d="M263.616 45.768c.411-.482.724-.924 1.135-1.405"/><path fill="#FFCC02" d="M247.1 44.904a72.857 72.857 0 0 0 6.606 4.94 71.742 71.742 0 0 0 7.938 4.577c-7.233 12.571-14.094 20.958-18.901 26.164-3.885 4.203-7.967 8.063-12.087 7.189-2.163-.462-4.728-2.299-5.765-4.94 0 0-3.178-3.293-2.63-5.984.998-4.91 11.84-16.3 24.839-31.955v.01Z"/><path stroke="#000" stroke-linecap="round" stroke-linejoin="round" stroke-width=".849" d="M194.85 76.6c-.998-4.91-11.84-16.29-24.838-31.946a73.02 73.02 0 0 1-6.607 4.94 71.776 71.776 0 0 1-7.938 4.577c7.233 12.571 14.094 20.958 18.901 26.163 3.885 4.204 7.967 8.064 12.087 7.19m35.806-10.673c.998-4.91 11.84-16.292 24.839-31.947a72.857 72.857 0 0 0 6.606 4.94 71.76 71.76 0 0 0 7.938 4.577c-7.233 12.571-14.094 20.958-18.901 26.163-3.885 4.204-7.967 8.064-12.087 7.19"/><path fill="#08F8C3" d="M213.719 70.83h-11.51l2.799 46.729 9.847-.01-1.136-46.719Z"/><path fill="#fff" stroke="#000" stroke-linecap="round" stroke-linejoin="round" stroke-width=".849" d="m218.428 69.16 5.041 11.599-4.845 7.66 2.623 3.536-6.391 25.594-2.996-48.27c2.193-.04 4.386-.09 6.568-.129v.01Zm-24.56 12.824 5.402 7.277-2.339 3.732 8.075 24.563c-.244-16.235-.283-31.988-.538-48.222-2.144.04-4.287.088-6.421.118-1.399 4.174-2.789 8.358-4.179 12.532Z"/><path fill="#fff" d="M213.111 60.852a6.875 6.875 0 0 0 6.979-6.767l.294-16.49c.117-7.051-5.472-12.885-12.5-13.003-7.028-.128-12.841 5.49-12.959 12.542l-.284 16.49c-.058 3.8 2.956 6.943 6.754 7.002l11.736.216-.02.01Z"/><path fill="#000" d="M194.996 36.163s.009.06.02.079l.029-.314c-.01.078-.029.147-.04.236h-.009Zm.363-1.985c-.147.57-.245 1.149-.323 1.748.381-1.994.42-1.503.323-1.748Z"/><path fill="#000" d="m220.152 51.699.029-1.71s-.04.08-.059.109l-.234-12.974c0-.304-.05-.599-.079-.894.108 1.425.215 3.428.166 5.844-.107 5.893-.176 9.507-2.075 10.577-1.909 1.07-3.426-1.689-7.957-2.376-6.587-1.002-9.994 3.79-12.93 1.797-2.271-1.542-3.025-6.315-2.32-9.193.196-.815.92-3.133.431-6.07a9.038 9.038 0 0 0-.108-.569c-.019.148-.029.295-.049.442a78.243 78.243 0 0 0-.264 13.416 1.076 1.076 0 0 0-.058-.108l.028 1.709-.039 1.925a6.896 6.896 0 0 0 1.822 4.782c.058.089.107.177.175.266.636.589 1.41 1.188 2.428 1.699a7.03 7.03 0 0 0 1.282.373 7.28 7.28 0 0 0 1.361.118l5.706-.108 5.706.108c.372 0 .842-.02 1.36-.118a7.02 7.02 0 0 0 1.283-.373c1.018-.501 1.791-1.11 2.428-1.7.067-.078.127-.166.175-.264a6.873 6.873 0 0 0 1.821-4.783l-.039-1.916.01-.01Zm-.374-15.773c-.078-.6-.176-1.179-.323-1.748-.107.245-.059-.246.323 1.748Z"/><path fill="#000" d="m219.779 35.928.03.314a.17.17 0 0 1 .02-.078 2.314 2.314 0 0 1-.04-.236h-.01Zm-16.526 9.877c.666-.01 1.195-.972 1.175-2.15-.019-1.179-.577-2.122-1.243-2.112-.665.01-1.194.972-1.175 2.15.02 1.18.578 2.122 1.243 2.112Zm.536-8.075c1.576-.038 1.429 2.348-.127 2.113-1.057-.256-2.036.137-3.015.52a.693.693 0 0 1-.803-.304.701.701 0 0 1 .225-.963c1.057-.795 2.359-1.375 3.729-1.365h-.009Zm9.526 7.82c.656-.117 1.018-1.158.812-2.317-.205-1.16-.91-2.004-1.566-1.886-.656.118-1.017 1.159-.812 2.318.205 1.159.91 2.003 1.566 1.885Zm-1.948-8.368c1.38.088 2.623.756 3.631 1.64.245.186.353.53.235.825-.176.471-.734.52-1.125.294-.862-.471-1.762-.776-2.751-.638-1.566.118-1.546-2.269.019-2.111l-.009-.01Z"/><path fill="#9D9E9D" d="M195.836 32.78c.156.875-1.351 6.09-.323 6.375 1.301.373 4.307-4.685 5.755-8.25 1.977.727 5.383 1.021 8.114 1.503 3.984.687 7.488.697 10.199.49-1.782-4.772-6.304-8.22-11.686-8.318-5.501-.098-10.2 3.34-12.069 8.191h.01v.01Z"/><path fill="#fff" d="M209.16 47.886c1.009-.108 2.007-.235 2.995-.353-.968-2.406-1.928-4.803-2.896-7.199"/><path fill="#000" d="M206.821 40.295c-.118-.314.381-.52.509-.196l3.132 7.11c.137.305-.088.688-.431.717l-2.995.354c-.685.079-.812-.962-.127-1.041l2.995-.353-.43.716-2.672-7.306h.019Z"/><path fill="#fff" d="M203.707 56.705c-.47-1.758 1.37-3.427 2.574-4.105.411-.236 2.183-1.228 3.847-.403 1.527.756 2.437 2.75 1.83 4.45-.842 2.346-3.944 2.307-4.316 2.307-1.273-.03-3.494-.599-3.944-2.249h.009Z"/><path stroke="#000" stroke-linecap="round" stroke-linejoin="round" stroke-width=".425" d="M206.646 54.81c.167.137.773.589 1.644.579.617-.03 1.831-.629 2.036-.756"/><path stroke="#000" stroke-linecap="round" stroke-linejoin="round" stroke-width=".849" d="M213.111 60.852a6.875 6.875 0 0 0 6.979-6.767l.294-16.49c.117-7.051-5.472-12.885-12.5-13.003-7.028-.128-12.841 5.49-12.959 12.542l-.284 16.49c-.058 3.8 2.956 6.933 6.754 7.002l11.736.216-.02.01Z"/><path fill="#000" d="M210.678 59.681c-8.232 1.287-14.516-2.671-16.16-3.771 3.054 7.238 10.415 10.95 16.649 9.251 6.715-1.826 9.064-9.055 9.23-9.565-1.782 1.316-5.1 3.368-9.71 4.075l-.009.01Z"/><path fill="#fff" d="M219.123 49.714c.236.069 2.174.678 3.798-.51 1.361-1.002 2.34-3.124 1.361-4.803-.744-1.277-2.418-1.925-4.072-1.522-1.028.599-2.046 1.198-3.073 1.787"/><path stroke="#000" stroke-linecap="round" stroke-linejoin="round" stroke-width=".849" d="M219.127 49.714c.234.069 2.173.678 3.798-.51 1.36-1.002 2.339-3.124 1.36-4.803-.744-1.277-2.417-1.925-4.072-1.522"/><path fill="#fff" d="M194.692 42.879c-1.654-.403-3.318.245-4.072 1.522-1.007 1.719.05 3.87 1.361 4.802 1.125.796 2.662.855 3.749.53a.075.075 0 0 0 .049-.019c1.145-2.16 2.29-4.321 3.445-6.482"/><path stroke="#000" stroke-linecap="round" stroke-linejoin="round" stroke-width=".849" d="M194.693 42.879c-1.655-.413-3.329.245-4.072 1.522-.99 1.68 0 3.8 1.36 4.802 1.625 1.189 3.563.58 3.797.511"/><path fill="#08F8C3" d="M102.061 83.858c1.044.382 2.077.753 3.123 1.135.5.186.554.306.369.808-.696 1.932-1.404 3.865-2.111 5.797-.075.207-.152.426-.217.644-.109.371-.043.72.261.983.315.262.663.294 1.045.153 1.196-.448 2.306-.284 3.231.622.848.83 1.121 1.867.773 3.013-.371 1.223-1.241 1.954-2.492 2.096-1.219.131-2.231-.328-2.895-1.408-.467-.754-.87-.928-1.435-.644-.316.163-.414.458-.522.753-.708 1.943-1.415 3.898-2.122 5.84-.218.597-.627.783-1.23.557-1.958-.71-3.906-1.43-5.864-2.139-.435-.164-.838-.175-1.197.185-.348.349-.294.709-.142 1.114.664 1.844-.314 3.624-2.197 4.039-1.349.306-2.829-.502-3.35-1.812-.534-1.354-.012-2.948 1.184-3.668.197-.11.404-.218.556-.382.479-.503.228-1.278-.49-1.54-1.458-.546-2.927-1.07-4.385-1.605-.642-.24-1.283-.491-1.947-.698-.414-.131-.49-.35-.338-.743.773-2.096 1.524-4.203 2.285-6.31.207-.557.11-.928-.272-1.2-.326-.24-.663-.197-1.023-.066-1.392.524-2.796.076-3.623-1.157-.783-1.168-.554-2.937.501-3.854 1.142-.993 2.807-1.015 3.906-.087.315.262.555.578.75.938.23.415.577.612 1.034.568.414-.055.62-.36.762-.742.74-2.042 1.49-4.094 2.23-6.136.25-.687.316-.71 1.023-.458 2.013.731 4.025 1.452 6.027 2.205.458.175.85.186 1.197-.164.338-.349.283-.764.12-1.179-.576-1.572.142-3.22 1.686-3.853 1.415-.579 3.112.076 3.765 1.452.696 1.473.185 3.166-1.197 3.93-.38.207-.707.458-.663.971.043.502.326.754.783.917 1.034.35 2.057.743 3.079 1.114l.022.01Z"/><path fill="#FF55EB" d="M108.559 77.473a992.89 992.89 0 0 0-2.36 6.529c-.142.404-.359.47-.752.327-2.045-.764-4.101-1.506-6.157-2.26-.087-.032-.229-.032-.251-.153-.021-.152.13-.174.228-.229 2.35-1.31 2.58-4.683.436-6.353-2.023-1.573-4.896-.765-5.907 1.56-.37.863-.425 1.802-.077 2.719.043.12.163.262.054.371-.108.11-.25 0-.37-.054a3574.88 3574.88 0 0 1-5.984-2.195c-.544-.196-.61-.316-.402-.873 2.154-5.96 4.309-11.91 6.474-17.871.032-.088.076-.164.097-.251.131-.426.36-.492.784-.339 4.145 1.529 8.291 3.035 12.447 4.553 1.882.687 3.764 1.386 5.657 2.052.403.142.512.328.36.731-.762 2.075-1.513 4.149-2.264 6.223-.032.077-.032.197-.131.219-.141.021-.152-.11-.206-.197-1.295-1.976-3.732-2.533-5.592-1.179-1.894 1.386-2.22 4.334-.218 6.026 1.044.884 2.263 1.146 3.591.743.174-.055.337-.11.576-.099h-.033Z"/><path fill="#06F" d="M109.154 108.333c-2.981-1.092-5.961-2.173-8.943-3.265-.609-.218-.642-.283-.414-.928.708-1.975 1.426-3.951 2.144-5.927.043-.131.054-.339.217-.36.186-.033.208.185.283.294 1.513 2.282 4.635 2.424 6.289.273.947-1.223 1.023-3.09.174-4.356-.925-1.386-2.556-2.041-4.091-1.67-.25.066-.587.328-.739.142-.153-.197.097-.524.195-.786.675-1.878 1.371-3.756 2.035-5.633.141-.415.294-.524.74-.36 2.034.764 4.069 1.495 6.114 2.248.131.044.337.044.337.24 0 .153-.185.175-.293.252a3.823 3.823 0 0 0-1.654 4.454c.533 1.648 2.155 2.762 3.852 2.642a3.827 3.827 0 0 0 3.525-3.22c.109-.645.021-1.256-.153-1.868-.032-.12-.163-.25-.032-.37.108-.1.228 0 .337.043 2.111.764 4.221 1.54 6.332 2.303.283.099.327.262.229.513-.12.306-.229.623-.338.928-2.077 5.743-4.167 11.485-6.244 17.227-.251.678-.273.688-.936.448-2.993-1.091-5.995-2.183-8.988-3.275l.022.011Z"/><path fill="#08F8C3" d="M54.75 92.734c.338-1.059.686-2.118 1.023-3.166.164-.513.283-.568.795-.404 1.947.633 3.895 1.277 5.842 1.91.218.066.425.142.642.197.38.098.718.022.968-.295.25-.316.272-.666.12-1.059-.479-1.19-.359-2.303.511-3.264.806-.884 1.818-1.19 2.97-.873 1.23.327 1.992 1.179 2.166 2.423.174 1.212-.25 2.238-1.295 2.948-.729.491-.892.906-.587 1.463.174.305.478.393.772.491 1.959.644 3.928 1.288 5.886 1.932.602.197.802.6.599 1.212a3848.52 3848.52 0 0 1-1.926 5.95c-.142.448-.142.841.228 1.19.36.338.718.262 1.121.109 1.817-.721 3.623.186 4.102 2.063.348 1.343-.403 2.861-1.687 3.418-1.327.578-2.937.109-3.688-1.07-.12-.186-.24-.393-.403-.535-.51-.459-1.273-.186-1.512.546a684.8 684.8 0 0 0-1.447 4.454c-.218.654-.446 1.31-.63 1.975-.12.416-.338.503-.73.371-2.121-.697-4.243-1.386-6.365-2.074-.566-.185-.925-.076-1.186.317-.228.339-.174.666-.032 1.026.565 1.387.163 2.806-1.023 3.668-1.142.831-2.916.656-3.862-.371-1.023-1.103-1.11-2.784-.218-3.919.25-.328.555-.578.903-.786.402-.24.598-.6.522-1.059-.065-.415-.38-.611-.761-.732-2.068-.665-4.124-1.353-6.191-2.019-.686-.229-.718-.295-.49-1.004.664-2.042 1.317-4.083 1.991-6.125.153-.458.153-.862-.206-1.19-.36-.327-.773-.251-1.175-.087-1.545.633-3.22-.033-3.895-1.55-.62-1.398-.033-3.133 1.316-3.832 1.447-.754 3.144-.295 3.96 1.07.229.37.479.688.99.633.5-.055.74-.35.882-.819.315-1.048.663-2.085 1-3.133Z"/><path fill="#FF55EB" d="M48.171 86.438c2.23.73 4.396 1.44 6.583 2.14.413.13.49.349.348.742-.686 2.085-1.36 4.17-2.035 6.255-.032.087-.022.23-.141.251-.153.022-.174-.12-.24-.218-1.392-2.315-4.754-2.424-6.343-.219-1.501 2.086-.598 4.935 1.763 5.863.87.339 1.806.36 2.709-.011.12-.044.25-.175.37-.066.109.11 0 .252-.044.371-.652 2.031-1.316 4.051-1.969 6.081-.185.557-.294.622-.848.437-6.006-1.954-12.012-3.909-18.018-5.873-.087-.033-.163-.066-.25-.088-.435-.108-.5-.349-.37-.775a2426.76 2426.76 0 0 0 4.102-12.63c.62-1.911 1.25-3.822 1.85-5.743.13-.404.304-.524.717-.382 2.09.688 4.178 1.365 6.278 2.052.076.022.196.022.218.131.032.142-.109.153-.185.208-1.926 1.364-2.394 3.832-.98 5.655 1.448 1.856 4.396 2.074 6.006.01.838-1.08 1.067-2.314.62-3.635-.054-.163-.12-.327-.12-.567l-.02.01Z"/><path fill="#06F" d="M78.897 84.766c-.98 3.024-1.959 6.06-2.938 9.083-.196.623-.26.655-.903.448-1.99-.644-3.982-1.3-5.973-1.943-.13-.044-.337-.044-.37-.208-.032-.185.174-.218.283-.295 2.22-1.594 2.252-4.738.055-6.32-1.252-.907-3.112-.918-4.342-.022-1.349.971-1.947 2.63-1.523 4.159.065.251.348.579.174.731-.185.164-.522-.087-.783-.163-1.893-.612-3.786-1.245-5.68-1.845-.413-.131-.533-.284-.38-.732.696-2.063 1.349-4.137 2.023-6.2.044-.132.033-.34.229-.35.152 0 .185.175.25.284a3.78 3.78 0 0 0 4.494 1.495c1.62-.589 2.676-2.26 2.502-3.952a3.825 3.825 0 0 0-3.33-3.427c-.641-.088-1.25.021-1.849.218-.12.044-.25.175-.37.044-.098-.099 0-.23.033-.339.685-2.14 1.392-4.28 2.078-6.43.098-.295.25-.338.5-.251.316.11.631.207.936.306 5.788 1.888 11.587 3.777 17.375 5.666.686.218.697.25.48.917-.991 3.046-1.97 6.08-2.96 9.126h-.011Z"/><path fill="#fff" stroke="#000" stroke-linecap="round" stroke-linejoin="round" stroke-width=".849" d="M85.814 83.129h-11.13v10.316h11.13V83.13Z"/><path fill="#fff" d="M69.151 72.744c-1.306-.447-2.698-.054-3.405.928-.914 1.288-.294 3.068.75 3.974 1.23 1.07 2.84.731 3.025.688"/><path stroke="#000" stroke-linecap="round" stroke-linejoin="round" stroke-width=".849" d="M69.151 72.744c-1.306-.447-2.698-.054-3.405.928-.914 1.288-.294 3.068.75 3.974 1.23 1.07 2.84.731 3.025.688"/><path fill="#fff" d="M90.356 72.744c1.305-.447 2.698-.054 3.405.928.913 1.288.294 3.068-.75 3.974-1.23 1.07-2.84.731-3.026.688"/><path stroke="#000" stroke-linecap="round" stroke-linejoin="round" stroke-width=".849" d="M90.356 72.744c1.305-.447 2.698-.054 3.405.928.913 1.288.294 3.068-.75 3.974-1.23 1.07-2.84.731-3.026.688"/><path fill="#fff" stroke="#000" stroke-linecap="round" stroke-linejoin="round" stroke-width=".849" d="M89.972 72.405c0-5.72-4.624-10.36-10.325-10.36-5.702 0-10.326 4.64-10.326 10.36v4.149c0 5.72 4.624 10.36 10.326 10.36 5.7 0 10.325-4.64 10.325-10.36v-4.149Z"/><path fill="#000" d="M77.22 76.566c.642-.022 1.273 2.195 1.24 1.07-.044-1.124-.598-2.02-1.24-1.987-.642.022-1.121.961-1.078 2.075.044 1.124.447-1.136 1.078-1.158Zm.431-2.522a3.387 3.387 0 0 0-2.078.95.583.583 0 0 1-.827 0c-.75-.961 1.752-2.446 2.6-2.632 1.208-.316 1.567 1.54.327 1.693v-.022l-.022.01Zm8.375 3.591c.043-1.08-.425-1.976-1.034-1.998-.61-.022-1.142.83-1.186 1.91-.044 1.082.566-1.047 1.186-1.025.61.021 1 2.183 1.034 1.113Zm-1.039-4.717c.827.175 3.503 1.79 2.47 2.696a.573.573 0 0 1-.73-.054 3.355 3.355 0 0 0-2.088-.95c-1.262-.153-.87-2.052.36-1.681l-.012-.011Z"/><path fill="#fff" d="M80.884 75.111c.511 1.409 1.023 2.806 1.534 4.214-.75-.076-1.49-.142-2.252-.218"/><path fill="#000" d="m81.086 75.037 1.72 4.148c.12.273-.131.59-.414.535l-2.252-.218c-.522-.054-.446-.851.076-.797l2.252.219-.413.534-1.36-4.28c-.087-.25.293-.381.391-.141Z"/><path stroke="#000" stroke-linecap="round" stroke-linejoin="round" stroke-width=".425" d="M79.138 80.78c.217.207.805.73 1.751.873a3.158 3.158 0 0 0 1.556-.175"/><path fill="#080808" d="m80.186 65.408-1.708 4.618c-.12.12-.707.698-1.632.72a2.403 2.403 0 0 1-1.774-.72c-.174-1.256-.326-2.511-.5-3.767a18.416 18.416 0 0 1-1.839 3.767c-.838 1.299-2.829 1.823-3.58 2.576-1.5.197-2.034.35-3.535.546-.588-1.332-1.023-2.14-1.61-3.472-.088-.207-1.382-3.526.63-6.342 1.393-1.933 3.45-2.391 3.972-2.49-.718-.764-.969-1.757-.631-2.347.446-.797 2.067-1.135 3.481-.065 1.143-2.533 3.427-4.16 5.821-4.127 1.686.022 2.948.863 3.493 1.288.554-.294 4.352-2.205 8.367-.502 3.753 1.605 6.168 5.71 5.886 10.262-.871 3.046-1.556 4.487-2.438 7.544-.729-.033-1.719.033-2.447 0-.85-1.692-1.643-1.867-2.492-3.56-.316.208-2.079 1.365-4.33.852-1.491-.338-2.416-1.255-2.764-1.637l-.36-3.133-.01-.011Z"/><path fill="#FFE067" stroke="#000" stroke-linecap="round" stroke-linejoin="round" stroke-width=".849" d="M92.028 91.02c-.055-.24-.37-.414-.718-.414H70.235c-.36 0-.664.174-.718.414l-1.425 5.754c-.077.294.272.578.718.578h23.924c.447 0 .795-.273.719-.578l-1.425-5.754Z"/><path fill="#08F8C3" stroke="#000" stroke-linecap="round" stroke-linejoin="round" stroke-width=".849" d="M61.26 161.412c8.138 0 14.807 6.223 15.482 14.137H45.777c.675-7.914 7.344-14.137 15.483-14.137Z"/><path fill="#FFCC02" stroke="#000" stroke-linecap="round" stroke-linejoin="round" stroke-width=".849" d="M63.515 119.425c-2.568 7.937-5.146 15.885-7.725 23.81 6.539 3.418 13.078 6.823 19.606 10.229 12-4.476 17.713-5.753 29.703-10.229l-8.596-25.36-32.999 1.55h.01Z"/><path fill="#FFE067" stroke="#000" stroke-linecap="round" stroke-linejoin="round" stroke-width=".849" d="M99.697 97.121H60.714c-3.101 12.828-2.35 25.645-5.451 38.461 8.965.371 17.92.742 26.884 1.102h23.555l-5.995-39.563h-.01Z"/><path fill="#06F" d="M67.149 130.53c.337-1.004.652-2.009 1.011-3.013.175-.48.088-.851-.282-1.2-.327-.306-.653-.186-1.001-.056-1.371.514-2.699.143-3.515-1.069-1.24-1.834-.152-4.258 2.166-4.487 1.131-.109 2.056.371 2.665 1.386.24.404.5.71 1.066.601.523-.109.653-.525.784-.907.587-1.702 1.142-3.405 1.708-5.108.087-.274.218-.546.272-.831.087-.447.359-.501.729-.392.294.087.576.185.87.273a428.87 428.87 0 0 1 5.31 1.757c.37.132.74.153.99-.142.272-.316.37-.709.163-1.124-.544-1.114-.218-2.194.413-3.057.523-.71 1.415-1.092 2.394-.993 1.61.175 2.612 1.201 2.71 2.762.076 1.146-.469 2.063-1.491 2.653-.5.283-.642.873-.37 1.364.12.218.315.24.5.295 1.904.655 3.808 1.3 5.712 1.943 1.034.35 1.045.35.697 1.398-.61 1.844-1.23 3.689-1.84 5.534-.065.208-.13.404-.097.634.087.665.62 1.037 1.24.753.827-.382 1.621-.349 2.448-.032 1.001.393 1.752 1.67 1.697 2.728-.075 1.485-1.153 2.566-2.448 2.773-1.131.186-2.273-.338-2.97-1.463-.304-.501-.685-.665-1.142-.458-.327.153-.511.437-.62.775-.664 1.998-1.328 3.985-1.992 5.983-.184.546-.25.578-.805.393-1.62-.546-3.23-1.092-4.852-1.627-.468-.152-.925-.305-1.404-.415-.772-.164-1.294.448-1 1.201.195.524.26 1.059.25 1.615 0 .667-.327 1.245-.73 1.617-1.24 1.146-2.328 1.223-3.764.414-.946-.535-1.327-1.517-1.24-2.62.076-1.004.576-1.79 1.469-2.292.391-.218.566-.568.522-1.005-.044-.436-.392-.633-.75-.753-1.73-.601-3.472-1.179-5.212-1.768-.36-.121-.718-.197-1.066-.361-.262-.12-.338-.24-.24-.524.37-1.059.707-2.117 1.066-3.177l-.021.022Z"/><path fill="#FFCC02" d="M37.436 77.637c.348-1.037 2.84-8.581 2.97-8.974.61-1.747 1.175-3.504 1.763-5.262.097-.284.217-.557.272-.852.087-.469.37-.513.75-.404.294.088.599.186.892.284 1.817.6 14.84 4.968 16.8 5.623 1.066.36 1.066.36.717 1.43-.63 1.9-1.262 3.788-1.893 5.688-.065.207-.13.414-.109.654.087.688.642 1.07 1.273.776.849-.393 1.665-.36 2.524-.033 1.034.404 1.796 1.714 1.741 2.806a3.023 3.023 0 0 1-2.524 2.86c-1.164.185-2.34-.35-3.046-1.507-.316-.513-.708-.688-1.175-.47-.338.154-.523.448-.642.798-.686 2.052-1.371 4.105-2.046 6.157-.185.557-.26.6-.838.404-1.664-.557-3.329-1.124-4.993-1.67-.48-.153-.958-.317-1.447-.426-.795-.175-1.328.458-1.034 1.233.207.546.272 1.081.261 1.66a2.25 2.25 0 0 1-.75 1.66c-1.285 1.178-2.394 1.266-3.863.425-.968-.557-1.371-1.561-1.284-2.696.087-1.038.588-1.835 1.512-2.359.403-.229.588-.59.533-1.037-.043-.447-.402-.655-.772-.775-1.784-.622-3.569-1.212-5.364-1.823-.359-.12-.74-.196-1.088-.371-.272-.131-.348-.251-.24-.535.382-1.08.73-2.173 1.089-3.264h.01Z"/><path fill="#06F" stroke="#000" stroke-linecap="round" stroke-linejoin="round" stroke-width=".849" d="m66.74 182.666-9.966-25.229c17.909-5.907 35.84-11.79 53.748-17.697 5.167-1.703 10.771.928 12.773 6.004 2.013 5.099-.294 10.896-5.255 13.188l-51.3 23.734Z"/><path fill="#08F8C3" stroke="#000" stroke-linecap="round" stroke-linejoin="round" stroke-width=".849" d="M105.92 161.412c8.138 0 14.807 6.223 15.482 14.137H90.427c.674-7.914 7.344-14.137 15.482-14.137h.011Z"/><path fill="#06F" stroke="#000" stroke-linecap="round" stroke-linejoin="round" stroke-width=".849" d="m99.089 180.178 7.92-25.951c-18.333-4.432-36.666-8.864-54.988-13.307-5.287-1.277-10.662 1.79-12.261 7.019-1.6 5.252 1.164 10.83 6.299 12.719l53.03 19.52Z"/><path stroke="#000" stroke-linecap="round" stroke-linejoin="round" stroke-width=".849" d="m72.697 90.639-.816 6.288m4.363-6.288v6.288m4.363-6.016v6.016m3.808-6.288.272 6.288m3.264-6.288 1.36 6.288"/><path fill="#fff" stroke="#000" stroke-linecap="round" stroke-miterlimit="10" stroke-width=".849" d="M74.782 141.589a.849.849 0 0 0-.577-1.048l.892.251a1 1 0 0 0 1.24-.688 1.005 1.005 0 0 0-.685-1.244c.392.12.794.229 1.197.339a1.113 1.113 0 0 0 .609-2.14c-.294-.076-.576-.164-.87-.251a.973.973 0 0 0 1.186-.656.96.96 0 0 0-.653-1.178l-4.983-1.442 1.24-.72c.533-.305.718-.994.403-1.518a1.106 1.106 0 0 0-1.524-.403l-3.035 1.768c-3.83-1.725-7.66-3.439-11.49-5.163l2.862-10.536-6.408-1.025-6.561-1.06-.827 15.972c-.261 2.565 1.502 4.912 4.07 5.327l3.622.852a347.2 347.2 0 0 1 11.315 2.893c2.71.742 5.343 1.507 7.932 2.293a.846.846 0 0 0 1.045-.579v-.044Z"/><path stroke="#000" stroke-linecap="round" stroke-linejoin="round" stroke-width=".849" d="M76.585 136.81c-1.12-.294-2.23-.611-3.35-.906m2.41 2.967c-.816-.208-1.621-.426-2.437-.644m.984 2.315c-.402-.119-.827-.229-1.23-.349"/><path fill="#fff" stroke="#000" stroke-linecap="round" stroke-miterlimit="10" stroke-width=".849" d="M86.6 143.039a.83.83 0 0 0 1.098.459 332.045 332.045 0 0 1 18.561-7.259l3.515-1.245a4.892 4.892 0 0 0 3.46-5.743l-2.568-15.774-6.398 1.768-6.255 1.724 3.993 10.154a6292.946 6292.946 0 0 1-10.858 6.397l-3.21-1.43a1.107 1.107 0 0 0-1.47.568c-.249.568 0 1.222.567 1.462l1.316.58-4.798 1.975a.97.97 0 0 0-.522 1.245c.206.48.761.72 1.24.524-.283.109-.555.229-.838.338a1.114 1.114 0 0 0 .838 2.064c.38-.164.762-.306 1.153-.47a.997.997 0 0 0-.544 1.31.991.991 0 0 0 1.306.546l.86-.35a.836.836 0 0 0-.458 1.103v.022l.011.032Z"/><path stroke="#000" stroke-linecap="round" stroke-linejoin="round" stroke-width=".849" d="M87.513 137.199c-1.077.426-2.155.852-3.232 1.266m3.515 1.049c-.794.294-1.567.6-2.35.906m2.791 1.006c-.391.164-.794.327-1.186.491"/><path fill="#FFE067" d="M61.107 97.657c-2.513-1.255-5.32-1.637-7.018-.916-5.973 2.554-7.344 7.543-9.204 22.095 7.268 1.595 9.552 2.141 16.82 3.745 3.536-13.024 5.027-22.107-.598-24.924Zm38.303-.645c2.557-1.168 5.375-1.452 7.039-.677 5.886 2.762 7.083 7.794 8.444 22.402-7.323 1.342-9.619 1.812-16.94 3.155-3.091-13.145-4.266-22.271 1.457-24.891v.01Z"/><path stroke="#000" stroke-linecap="round" stroke-miterlimit="10" stroke-width=".849" d="M63.729 100.19a6.015 6.015 0 0 0-2.622-2.532c-2.513-1.256-5.32-1.638-7.018-.918-5.973 2.555-7.344 7.544-9.204 22.096 7.268 1.595 9.552 2.141 16.82 3.745.827-3.035 1.534-5.851 2.078-8.428m32.915-14.707c.642-1.07 1.523-1.9 2.709-2.434 2.557-1.168 5.375-1.452 7.04-.677 5.885 2.762 7.082 7.794 8.442 22.402-7.322 1.342-9.617 1.812-16.94 3.155-.718-3.057-1.338-5.896-1.784-8.494"/><path fill="#000" d="M336.69 34.655a11.08 11.08 0 0 1 3.17 3.095c1.942.466 3.042 1.32 3.657 1.926 3.387 3.366 3.57 10.964 1.036 15.087-.507.833-1.747 2.911-1.898 5.768-.012.358.01.747.129 1.17.938 3.787 6.126 5.508 8.013 6.125 7.561 2.489 14.701-.228 17.797-1.656.086 1.363.162 2.727.259 4.08l-3.559 2.045c1.013.812 2.038 1.613 3.041 2.424-.14 1.949-.69 5.834-3.3 9.697-.615.91-2.697 3.81-7.248 6.386-8.489 4.794-22.521 6.655-26.824.638-2.33-3.247.711-4.913-1.392-10.963-1.65-4.708-4.304-5.877-12.328-16.959-.83-1.147-2.028-2.835-2.675-5.357-.485-1.937-.679-4.48.378-8.42 1.326-4.978 3.742-13.928 11.185-16.19.625-.195 5.932-1.807 10.537 1.147v-.021l.022-.022Z"/><path fill="#000" fill-rule="evenodd" d="M337.761 131.633c-6.547 0-11.854 5.325-11.854 11.883v30.324h11.261v-23.182c0-2.629 2.125-4.762 4.746-4.762h12.446c2.621 0 4.735 2.133 4.735 4.762v23.182h11.26v-30.324c0-6.569-5.306-11.883-11.842-11.883h-20.752Z" clip-rule="evenodd"/><path fill="#06F" stroke="#000" stroke-linecap="round" stroke-linejoin="round" stroke-width=".849" d="M350.969 117.598c4.001 6.039 4.206 13.538.571 18.852-3.322 4.87-8.617 6.115-10.02 6.396l-6.666-17.435 16.104-7.813h.011Z"/><path fill="#fff" stroke="#000" stroke-linecap="round" stroke-linejoin="round" stroke-width=".849" d="m320.318 68.032 11.089 2.338 2.156-10.27-11.087-2.338-2.158 10.27Z"/><path fill="#fff" d="M339.859 55.075c.173.076 1.715.758 3.16-.054 1.22-.682 2.222-2.327 1.575-3.799-.496-1.125-1.801-1.818-3.192-1.645"/><path stroke="#000" stroke-linecap="round" stroke-linejoin="round" stroke-width=".849" d="M339.859 55.075c.173.076 1.715.758 3.16-.054 1.22-.682 2.222-2.327 1.575-3.799-.496-1.125-1.801-1.818-3.192-1.645"/><path fill="#fff" d="M319.488 50.779c-.194 0-1.866 0-2.869-1.32-.841-1.115-1.09-3.03.086-4.113.906-.823 2.373-.942 3.581-.206"/><path stroke="#000" stroke-linecap="round" stroke-linejoin="round" stroke-width=".849" d="M319.488 50.779c-.194 0-1.866 0-2.87-1.32-.84-1.115-1.089-3.03.087-4.113.906-.823 2.373-.942 3.581-.206"/><path fill="#fff" stroke="#000" stroke-linecap="round" stroke-linejoin="round" stroke-width=".849" d="M319.867 49.004c-1.197 5.703 2.437 11.288 8.121 12.489 5.674 1.201 11.25-2.446 12.447-8.15l.863-4.133c1.198-5.693-2.448-11.288-8.121-12.49-5.684-1.2-11.251 2.457-12.448 8.15l-.862 4.134Z"/><path fill="#000" d="M332.368 48.114v.022c-1.283-.108-.992-2.013.249-1.742.862.15 3.483 1.558 2.749 2.564a.595.595 0 0 1-.841.033 3.434 3.434 0 0 0-2.157-.877Zm-6.514-3.102c1.273.26.702 2.143-.495 1.667a3.429 3.429 0 0 0-2.33-.162.576.576 0 0 1-.68-.303c-.485-1.31 2.696-1.45 3.516-1.213l-.011.011Z"/><path fill="#fff" d="m329.086 53.613-2.286-.26c.798-1.288 1.607-2.587 2.405-3.875"/><path fill="#000" d="M328.614 48.584c.14-.217.496 0 .355.227l-2.244 3.972-.301-.617 2.287.26c.528.054.431.865-.087.811l-2.287-.26c-.302-.01-.474-.368-.302-.616l2.579-3.767v-.01Z"/><path fill="#FFE067" stroke="#000" stroke-linecap="round" stroke-linejoin="round" stroke-width=".849" d="m315.206 66.69-1.457 5.855c-.074.313.27.584.734.584h24.344c.452 0 .808-.281.734-.585l-1.457-5.854c-.054-.238-.366-.422-.733-.422h-21.442c-.367 0-.68.184-.734.422h.011Z"/><path fill="#FFE067" stroke="#000" stroke-linecap="round" stroke-linejoin="round" stroke-width=".849" d="M304.199 96.775c-.086.628-3.095 23.29-3.181 23.917 17.86-.086 35.722-.162 53.583-.248l-7.539-47.587h-39.681c-.087.628-3.096 23.29-3.182 23.918Z"/><path fill="#000" d="M332.336 50.584c.636.087 1.003 2.23 1.143 1.115.14-1.115-.259-2.078-.884-2.154-.636-.086-1.262.758-1.402 1.862-.14 1.114.518-.899 1.143-.823Zm-8.51-1.784c.637.086 1.002 2.348 1.143 1.233.14-1.115-.259-2.078-.884-2.154-.637-.086-1.262.758-1.403 1.862-.14 1.114.518-1.029 1.144-.942Z"/><path stroke="#000" stroke-miterlimit="10" stroke-width=".849" d="M327.399 57.045c1.002.228 2.07-.443 2.318-1.536-1.272-.174-2.534-.347-3.807-.509-.054.985.604 1.85 1.489 2.045Z"/><path fill="#fff" stroke="#000" stroke-linecap="round" stroke-linejoin="round" stroke-width=".849" d="m318.538 77.588-7.734 15.227c3.668 2.392 4.941 6.277 3.614 9.134-1.693 3.658-7.194 4.285-10.721 2.662-3.387-1.558-5.598-5.205-5.598-9.34l5.63-17.001c2.697-.065 5.393-.141 8.079-.206.237.52.485 1.05.733 1.57 2.007-.683 4.002-1.364 6.008-2.046h-.011Z"/><path fill="#FFCC02" d="M305.795 72.48c2.891.097 5.619 1.125 6.794 2.608 4.164 5.249 2.967 10.433-2.437 24.502-7.356-2.122-9.686-2.75-17.042-4.87 3.15-13.518 6.224-22.468 12.685-22.251v.01Z"/><path stroke="#000" stroke-linecap="round" stroke-miterlimit="10" stroke-width=".849" d="M305.795 72.48c2.891.097 5.619 1.125 6.794 2.608 4.164 5.249 2.967 10.433-2.437 24.502-7.356-2.122-9.686-2.75-17.042-4.87 3.15-13.518 6.224-22.468 12.685-22.251v.01Z"/><path fill="#fff" d="M318.367 68.104c-5.156 8.268-10.311 16.537-15.468 24.794-1.541 2.814-1.498 6.093.119 8.106 2.287 2.847 7.82 3.236 11.563-.563 3.376-8.658 6.763-17.316 10.149-25.974 1.748-2.305 3.484-4.62 5.22-6.926.162-.52 0-1.06-.367-1.374a1.173 1.173 0 0 0-.83-.25c.475-.573.442-1.352.032-1.763-.409-.411-1.099-.303-1.143-.292.367-.682.335-1.461-.075-1.948-.27-.336-.637-.444-.82-.487.582-.606.518-1.537-.021-2.013-.454-.39-1.176-.412-1.715 0l-2.071 2.294-.766.844c.205-.67-.162-1.374-.755-1.59-.658-.228-1.446.194-1.629.952-.475 2.056-.539 2.186-1.003 4.253l-.399 1.937h-.021Z"/><path fill="#fff" d="m323.085 66.797 1.165-2.825 2.492-2.554"/><path stroke="#000" stroke-linecap="round" stroke-linejoin="round" stroke-width=".849" d="M323.261 65.552c.323-.53.658-1.05.992-1.58l2.491-2.554"/><path fill="#fff" d="M325.006 67.303c.323-.595.647-1.18.97-1.786.561-.552 1.112-1.104 1.672-1.656"/><path stroke="#000" stroke-linecap="round" stroke-linejoin="round" stroke-width=".849" d="M325.006 67.303c.323-.595.647-1.18.97-1.786.561-.552 1.112-1.104 1.672-1.656"/><path fill="#fff" d="M326.624 68.505c.259-.39.518-.79.777-1.18l1.358-1.395"/><path stroke="#000" stroke-linecap="round" stroke-linejoin="round" stroke-width=".849" d="M326.624 68.505c.259-.39.518-.79.777-1.18l1.358-1.395m-6.371-3.764c-.313.714-.625 1.418-.939 2.132"/><path stroke="#000" stroke-linecap="round" stroke-linejoin="round" stroke-width=".849" d="M301.863 97.79a5.295 5.295 0 0 1-.14-1.678c.085-1.017.484-1.959 1.175-3.214 5.156-8.268 10.311-16.536 15.466-24.794l.066-1.85c.291-1.45.582-2.912.862-4.362.388-.92 1.402-1.277 2.103-.93.518.259.842.897.755 1.59l.766-.844 2.072-2.294c.539-.412 1.261-.39 1.714 0 .54.476.604 1.407.022 2.013.183.043.55.162.819.487.41.497.442 1.266.076 1.948.054-.011.712-.141 1.143.292.432.433.443 1.19-.032 1.764.118 0 .496-.022.83.249.378.314.518.844.367 1.374-1.736 2.305-3.473 4.621-5.22 6.927-3.387 8.657-7.173 19.285-10.549 27.943"/><path fill="#08F8C3" stroke="#000" stroke-linecap="round" stroke-linejoin="round" stroke-width=".849" d="M310.702 163.094c9.557-.195 17.549 6.959 18.53 16.234l-36.379.746c.603-9.307 8.294-16.774 17.849-16.98Z"/><path fill="#06F" stroke="#000" stroke-linecap="round" stroke-linejoin="round" stroke-width=".849" d="m326.875 169.058-3.515-57.045c-.346-5.519-5.641-9.848-12.059-9.859-6.385-.011-11.702 4.275-12.091 9.762a99531.35 99531.35 0 0 1-4.12 57.088l31.785.044v.01Z"/><path fill="#08F8C3" stroke="#000" stroke-linecap="round" stroke-linejoin="round" stroke-width=".849" d="M335.424 163.094c9.556-.195 17.548 6.959 18.53 16.234l-36.381.746c.604-9.307 8.294-16.774 17.851-16.98Z"/><path fill="#06F" stroke="#000" stroke-linecap="round" stroke-linejoin="round" stroke-width=".849" d="m351.6 169.058-3.516-57.045c-.345-5.519-5.64-9.848-12.058-9.859-6.385-.011-11.702 4.275-12.091 9.762-1.37 19.026-2.739 38.062-4.12 57.088l31.785.044v.01Z"/><path fill="#000" d="M334.609 41.895c5.834 6.915 10.138 7.5 10.699 7.153 1.477-.898-3.16-11.699-10.387-13.744-6.104-1.732-13.903.054-15.822 9.21 7.851-1.98 10.073-.671 15.51-2.62Z"/><path stroke="#FF55EB" stroke-miterlimit="10" stroke-width=".849" d="m337.272 45.23 4.261-2.328m-3.188 4.1 4.26-2.338"/><path fill="#FF55EB" d="M368.508 52.639h31.901c2.599 0 4.705-2.114 4.705-4.722v-9.084c0-2.608-2.106-4.722-4.705-4.722h-31.901c-2.599 0-4.706 2.114-4.706 4.722v9.084a4.713 4.713 0 0 0 4.706 4.721Z"/><path fill="#000" d="m376.039 43.865-.054-.035a4.94 4.94 0 0 1-1.932-2.9.786.786 0 0 0-.153-.269c-.885-1.257-.974-2.576-.294-3.95a.564.564 0 0 0 .044-.359c-.375-1.292.305-2.594 1.593-2.97a.366.366 0 0 0 .197-.109.295.295 0 0 0 .089-.206 5.029 5.029 0 0 1 1.735-2.819 4.98 4.98 0 0 1 3.114-1.104.46.46 0 0 0 .214-.045.493.493 0 0 0 .162-.143c.59-.754 1.368-1.095 2.307-.889.438.099.85.36 1.271.548.017.045.062.018.116-.01a4 4 0 0 1 2.693-.547 3.97 3.97 0 0 1 2.406 1.329c.17.188.313.251.564.188 1.619-.359 3.265.844 3.417 2.496 0 .071.027.143.063.206a.358.358 0 0 0 .17.135c.93.475 1.396 1.418 1.261 2.46 0 .116.027.242.09.34a4.814 4.814 0 0 1-.251 5.35 4.818 4.818 0 0 1-2.236 1.67 4.749 4.749 0 0 1-2.783.135c-.027.017-.044.044-.071.071-.26.494-.626.916-1.074 1.248a3.604 3.604 0 0 1-1.511.646 3.665 3.665 0 0 1-3.078-.87.354.354 0 0 0-.268-.045c-.331.054-.662.134-.993.18a.286.286 0 0 0-.188.071.285.285 0 0 0-.099.17 2.106 2.106 0 0 1-.877 1.212 8.435 8.435 0 0 1-1.467.772c-.706.26-1.341.593-1.869 1.158-.546.584-1.44.647-2.102.234a1.726 1.726 0 0 1-.716-.88 1.667 1.667 0 0 1 0-1.14c.143-.43.339-.853.536-1.32l-.026-.009Zm-.555-1.903c.278.297.528.61.814.871.493.44 1.1.736 1.753.862.055.009.108.027.162.036.286.08.438.314.384.565a.429.429 0 0 1-.071.18.49.49 0 0 1-.134.135c-.054.036-.117.053-.179.071-.063.01-.125 0-.188 0-.376-.08-.743-.188-1.172-.296-.152.395-.34.79-.465 1.212-.09.305.044.575.313.763.116.09.259.135.411.135a.783.783 0 0 0 .421-.117.814.814 0 0 0 .214-.18c.511-.592 1.154-.951 1.87-1.211a9.258 9.258 0 0 0 1.324-.62 1.33 1.33 0 0 0 .645-.763c-.323-.072-.636-.125-.94-.206-.322-.081-.483-.332-.412-.602.081-.296.331-.422.672-.332a4.642 4.642 0 0 0 2.96-.108.543.543 0 0 1 .376-.026.56.56 0 0 1 .314.197c.795.817 1.771 1.077 2.835.727 1.065-.359 1.664-1.149 1.816-2.27.081-.593-.08-1.132-.34-1.662a.722.722 0 0 1-.044-.278c0-.09.026-.188.071-.27.063-.107.286-.179.43-.179a.492.492 0 0 1 .197.081c.062.045.116.09.152.153.124.197.223.413.295.637.054.153.134.189.295.153.474-.108.769-.45.832-1.006.027-.26.161-.421.412-.466a.498.498 0 0 1 .304.044.454.454 0 0 1 .196.234c.045.125.063.251.045.386a2.006 2.006 0 0 1-.5 1.14 2 2 0 0 1-1.083.61c-.081.018-.161.036-.25.054-.028.26-.045.512-.073.763.94.36 2.604.09 3.678-1.068 1.046-1.14 1.333-2.908.644-4.228a5.417 5.417 0 0 1-.43.35c-.295.215-.599.18-.769-.063-.161-.242-.09-.511.196-.727.493-.368.716-.844.582-1.454s-.527-.97-1.127-1.077a1.232 1.232 0 0 0-.626.036c-.206.063-.385.18-.537.323-.063.054-.116.126-.17.188a.492.492 0 0 1-.68.063.558.558 0 0 1-.116-.143.595.595 0 0 1-.054-.18c0-.063 0-.126.027-.188a.455.455 0 0 1 .09-.162 2.259 2.259 0 0 1 1.368-.862l.304-.054c-.053-1.023-1.109-1.795-2.236-1.606.044.125.081.242.116.368.107.359 0 .62-.304.709-.277.08-.51-.081-.617-.422-.439-1.391-1.62-2.253-3.033-2.208a3.018 3.018 0 0 0-1.468.44.228.228 0 0 0-.115.125.262.262 0 0 0 0 .17c.053.207.08.423.089.638 0 .063 0 .126-.018.18a.689.689 0 0 1-.09.161.426.426 0 0 1-.142.108.41.41 0 0 1-.18.045.513.513 0 0 1-.339-.108.518.518 0 0 1-.17-.314c-.027-.126-.019-.27-.045-.395a1.35 1.35 0 0 0-.546-.817 1.372 1.372 0 0 0-.948-.251c-.322.036-.617.18-.85.404-.223.233-.367.53-.393.852-.009.063 0 .135-.01.198a.473.473 0 0 1-.483.422.456.456 0 0 1-.313-.135.46.46 0 0 1-.152-.314v-.251c-1.44-.306-3.739 1.633-3.775 3.168.251.126.501.234.725.377.286.18.349.458.197.7-.152.234-.43.279-.716.108-.903-.538-1.933-.134-2.156.844-.063.287-.027.592.089.862.117.269.322.493.573.646.116.063.224.144.304.242.062.081.09.18.09.279a.422.422 0 0 1-.108.269.444.444 0 0 1-.555.153 5.594 5.594 0 0 1-.554-.324c-.519.862-.188 2.29.716 3.052.956.808 2.459.862 3.346.09-.367-.538-.511-1.14-.314-1.795l.054-.162c.143-.35.394-.484.68-.368.268.108.349.377.223.718-.187.521 0 1.06.457 1.293.474.251 1.02.08 1.359-.386a.711.711 0 0 1 .439-.296c.375-.054.6.359.42.727-.402.817-1.395 1.23-2.308.97a.442.442 0 0 0-.322.017c-1.047.817-2.201 1.006-3.462.61-.026 0-.054-.017-.081-.017 0 0-.018.009-.08.053h-.036Z"/><path fill="#fff" d="M375.475 41.964c.072-.045.081-.054.081-.054.027 0 .053.018.081.018 1.261.386 2.407.197 3.462-.61a.402.402 0 0 1 .322-.018c.912.26 1.906-.144 2.308-.97.178-.368-.045-.79-.421-.727a.792.792 0 0 0-.438.296c-.34.467-.876.629-1.359.386-.457-.233-.636-.763-.457-1.292.116-.342.035-.602-.223-.719-.287-.116-.537.018-.681.368l-.053.162c-.197.646-.063 1.248.312 1.795-.876.763-2.388.718-3.345-.09-.903-.771-1.234-2.19-.715-3.051.179.116.366.224.554.323a.446.446 0 0 0 .304.027.451.451 0 0 0 .25-.18.422.422 0 0 0 .108-.27.448.448 0 0 0-.09-.277 1.115 1.115 0 0 0-.304-.243 1.386 1.386 0 0 1-.572-.646 1.432 1.432 0 0 1-.09-.862c.224-.978 1.253-1.382 2.157-.844.286.171.563.144.715-.107.161-.243.089-.52-.197-.7-.223-.144-.483-.252-.725-.378.037-1.526 2.336-3.473 3.776-3.168v.251a.5.5 0 0 0 .152.314c.09.081.197.126.313.135a.475.475 0 0 0 .483-.422c.009-.063 0-.135.009-.197a1.379 1.379 0 0 1 1.243-1.257c.34-.036.671.054.949.251a1.4 1.4 0 0 1 .546.817c.026.126.026.26.044.395a.478.478 0 0 0 .51.422.403.403 0 0 0 .179-.045.428.428 0 0 0 .143-.108.359.359 0 0 0 .09-.161c.018-.054.026-.117.018-.18 0-.215-.036-.43-.081-.637a.19.19 0 0 1 0-.17.23.23 0 0 1 .116-.126 3.04 3.04 0 0 1 1.468-.44c1.404-.045 2.585.817 3.023 2.208.116.341.349.503.635.413.295-.09.412-.35.305-.71a4.26 4.26 0 0 1-.117-.367c1.127-.189 2.192.592 2.237 1.607l-.304.053a2.295 2.295 0 0 0-1.378.871.41.41 0 0 0-.089.162.682.682 0 0 0-.027.188c0 .063.017.126.053.18a.467.467 0 0 0 .116.143.493.493 0 0 0 .349.108.496.496 0 0 0 .331-.17c.063-.063.108-.126.17-.189a1.276 1.276 0 0 1 1.163-.368c.6.108.994.476 1.128 1.077.134.61-.09 1.086-.582 1.454-.286.216-.376.476-.197.727.17.252.466.279.77.063.151-.107.286-.233.429-.35.689 1.32.412 3.097-.644 4.228-1.065 1.158-2.738 1.427-3.677 1.068.018-.251.045-.502.072-.763.08-.018.161-.036.25-.053a2.014 2.014 0 0 0 1.091-.611 1.95 1.95 0 0 0 .502-1.14.803.803 0 0 0-.045-.386.427.427 0 0 0-.197-.233.397.397 0 0 0-.304-.045c-.25.045-.385.206-.412.467-.053.556-.349.897-.832 1.005-.161.036-.232 0-.295-.153a2.777 2.777 0 0 0-.295-.637.412.412 0 0 0-.152-.153.42.42 0 0 0-.197-.08c-.143 0-.376.063-.429.18a.575.575 0 0 0-.072.268c0 .1.009.189.044.279.26.53.422 1.077.341 1.66-.152 1.113-.734 1.903-1.816 2.271-1.083.368-2.049.099-2.836-.727a.554.554 0 0 0-.313-.197.667.667 0 0 0-.376.027 4.708 4.708 0 0 1-2.961.108c-.34-.09-.591.035-.671.331-.072.27.08.512.411.602.304.08.618.135.939.206a1.322 1.322 0 0 1-.643.763 8.85 8.85 0 0 1-1.325.62c-.724.26-1.368.62-1.869 1.212a.816.816 0 0 1-.215.18.76.76 0 0 1-.42.116.776.776 0 0 1-.412-.135c-.259-.18-.402-.458-.312-.763.124-.422.312-.817.464-1.212.43.108.796.216 1.172.297a.336.336 0 0 0 .188 0 .466.466 0 0 0 .313-.206.444.444 0 0 0 .072-.18c.053-.26-.099-.485-.385-.566a1.01 1.01 0 0 0-.161-.036 3.71 3.71 0 0 1-1.753-.862c-.295-.26-.546-.574-.823-.88l.026.019Zm8.928-3.313c.215-.062.412-.107.609-.188a3.54 3.54 0 0 0 1.298-.826c.258-.27.286-.556.071-.763-.215-.206-.475-.188-.743.072-1.234 1.185-3.149.952-3.99-.494a4.203 4.203 0 0 1-.304-.78c-.098-.324-.322-.476-.599-.414-.278.063-.421.323-.34.647.358 1.445 1.261 2.343 2.693 2.693a.44.44 0 0 1 .197.09.474.474 0 0 1 .124.17c.501 1.068 1.351 1.634 2.523 1.705.305.018.52-.143.564-.386.054-.305-.152-.547-.501-.565-.295 0-.59-.08-.85-.224a1.97 1.97 0 0 1-.671-.575 1.302 1.302 0 0 1-.089-.162h.008Zm4.644-3.231c-.018-1.373-1.191-2.55-2.585-2.576-.314-.01-.529.18-.556.448-.026.27.171.494.475.512.59.036 1.091.26 1.396.772.142.279.241.584.286.898.062.314.223.52.501.503.276-.01.465-.243.465-.566l.018.009Z"/><path fill="#000" d="M384.418 38.651c.027.054.045.117.081.17.179.243.402.44.671.575.259.135.555.216.849.225.349.018.556.26.501.565-.044.252-.259.413-.563.386-1.163-.08-2.022-.646-2.523-1.705a.395.395 0 0 0-.125-.17.398.398 0 0 0-.197-.09c-1.44-.35-2.334-1.248-2.693-2.693-.071-.324.063-.575.341-.647.277-.063.491.099.599.413.071.27.178.539.304.781.841 1.445 2.755 1.679 3.99.494.268-.26.528-.287.743-.072.214.206.187.503-.072.763a3.414 3.414 0 0 1-1.297.826c-.189.063-.385.117-.599.18h-.01Zm4.639-3.233c0 .323-.197.547-.465.556-.269.01-.439-.197-.501-.502a2.858 2.858 0 0 0-.287-.898c-.304-.511-.805-.736-1.395-.772-.314-.018-.501-.233-.475-.511.027-.279.242-.45.555-.45 1.377.028 2.558 1.204 2.576 2.577h-.008Z"/><path fill="#FF55EB" d="M359.515 56.607a2.976 2.976 0 0 0 2.971-2.98 2.976 2.976 0 0 0-2.971-2.98 2.975 2.975 0 0 0-2.97 2.98 2.975 2.975 0 0 0 2.97 2.98Zm-6.34 3.174a1.909 1.909 0 0 0 1.905-1.912 1.909 1.909 0 0 0-1.905-1.912 1.909 1.909 0 0 0-1.906 1.912c0 1.056.853 1.912 1.906 1.912Z"/><path fill="#fff" d="M393.745 141.256h-18.166a2.453 2.453 0 0 0-2.448 2.465v8.266a2.453 2.453 0 0 0 2.448 2.464h18.166a2.46 2.46 0 0 0 2.457-2.464v-8.266a2.466 2.466 0 0 0-2.457-2.465Zm.616 8.95c0 1.329-1.049 2.399-2.349 2.399h-14.634c-1.315 0-2.365-1.079-2.365-2.399v-4.721c0-1.329 1.05-2.399 2.365-2.399h14.634c1.3 0 2.349 1.078 2.349 2.399v4.721Z"/><path fill="#fff" stroke="#000" stroke-width=".849" d="M367.346 147.867h34.639a2.46 2.46 0 0 1 2.457 2.465v17.007a2.465 2.465 0 0 1-2.457 2.465h-34.639a2.46 2.46 0 0 1-2.457-2.465v-17.007a2.466 2.466 0 0 1 2.457-2.465Z"/><path fill="#80A7F8" d="M399.854 149.305h-30.391a2.94 2.94 0 0 0-2.932 2.941v13.205a2.941 2.941 0 0 0 2.932 2.941h30.391a2.95 2.95 0 0 0 2.941-2.941v-13.205a2.943 2.943 0 0 0-2.941-2.941Z"/><path fill="#FC0" d="M381.873 154.875h-15.342v3.377h15.342v-3.377Z"/><path fill="#EC62E4" d="M390.856 161.641h-13.059v3.375h13.059v-3.375Z"/><path fill="#fff" d="M383.669 165.014H370.61v3.376h13.059v-3.376Z"/><path fill="#06F" d="M377.797 161.641h-7.187v3.375h7.187v-3.375Z"/><path fill="#fff" d="M388.816 154.875h-6.947v3.377h6.947v-3.377Zm13.979 6.766h-11.944v3.375h11.944v-3.375Z"/><path fill="#06F" d="M392.892 154.875h-4.081v3.377h4.081v-3.377Zm9.903 3.387h-4.081v3.375h4.081v-3.375Zm-15.044 6.752h-4.081v3.376h4.081v-3.376Z"/><path fill="#FC0" d="M398.728 165.014H387.76v3.376h10.968v-3.376Z"/><path fill="#06F" d="M383.927 158.262h-4.08v3.375h4.08v-3.375Z"/><path fill="#FC0" d="M370.612 161.641h-4.081v3.375h4.081v-3.375Zm28.106-3.379h-14.792v3.375h14.792v-3.375Z"/><path fill="#EC62E4" d="M375.759 158.262h-9.228v3.375h9.228v-3.375Z"/><path fill="#fff" d="M379.842 158.262h-4.081v3.375h4.081v-3.375Z"/><path fill="#EC62E4" d="M402.792 154.875h-9.895v3.377h9.895v-3.377Z"/><path fill="#FF55EB" stroke="#231F20" stroke-width=".849" d="m285.042 74.104 27.277 9.978a2.756 2.756 0 0 1 1.639 3.517l-9.944 27.381a2.73 2.73 0 0 1-3.506 1.634l-27.287-9.978a2.743 2.743 0 0 1-1.629-3.518l9.944-27.37a2.743 2.743 0 0 1 3.506-1.644Z"/><path fill="#FFCC02" d="M292.464 92.1c1.466-.249 2.922-.498 4.389-.746a30.437 30.437 0 0 1-1.65 3.246c-.043.087-.118.184-.216.152-.097-.022 0-.206.043-.13"/><path fill="#06F" d="M299.599 104.493c-.41-2.262 2.146-5.162 3.44-6.678-4.767 3.485-11.713 2.728-16.567-.194-1.046-.628-2.038-1.45-2.481-2.587-1.067-2.792 2.19-5.736 5.145-5.4 2.956.346 5.231 2.781 6.806 5.324a27.55 27.55 0 0 1 3.657 9.524v.011Z"/><path fill="#000" d="m288.247 92.806.043-.152a.7.7 0 0 0 .043-.39.747.747 0 0 0-.086-.367.775.775 0 0 0-.227-.293.858.858 0 0 0-.312-.194l-.248-.054a.997.997 0 0 0-.497.097l-.205.14c-.13.109-.215.25-.281.412l-.042.151a.673.673 0 0 0-.043.39c0 .13.021.249.085.368.055.119.13.216.227.292a.855.855 0 0 0 .313.195l.248.054a.993.993 0 0 0 .496-.097l.205-.141a.997.997 0 0 0 .281-.411Z"/><path stroke="#000" stroke-linecap="round" stroke-width=".849" d="M285.086 93.768s-.076 1.32 1.369.422"/><path fill="#FFCC02" d="M291.976 95.64c1.004.574 2.006 1.159 3.009 1.743-.065.476-.14.963-.475 1.266-.333.303-1.002.422-1.681.087-.874-.422-1.339-1.277-1.662-1.992"/><path fill="#fff" stroke="#000" stroke-linecap="round" stroke-miterlimit="10" stroke-width=".849" d="m348.052 93.353-8.003-13.755c-10.871 7.673-21.743 15.357-32.616 23.03-.938-.303-1.887-.606-2.825-.921-1.219.077-2.103.661-2.201 1.31-.053.357.151.758.227.92.172.346.486.747.809.845l.626.194c-1.435.866-2.87 1.742-4.304 2.608-.745.411-1.003 1.277-.69 1.883.215.433.711.693 1.25.693-.064.044-.161.108-.258.206-.377.367-.777 1.114-.485 1.666.312.584 1.078.79 1.66.488.389-.196.809-.455 1.187-.629-.485.282-.701.985-.399 1.516.248.552.927.714 1.467.422.162.021.323.043.485.054-.582.465-.83 1.147-.637 1.569.249.541 1.284.855 2.233.238 14.162-7.445 28.313-14.891 42.474-22.337Z"/><path stroke="#000" stroke-linecap="round" stroke-linejoin="round" stroke-width=".849" d="M304.348 108.092c-1.153.562-2.286 1.179-3.408 1.785m3.938.727c-.809.454-1.629.843-2.438 1.276m3.229.761c-.42.259-.808.455-1.23.714"/><path fill="#FFCC02" d="M338.417 101.341c-4.887-6.125-6.386-8.084-11.282-14.199 11.098-10.65 15.499-13.82 22.056-11.948 1.866.53 3.904 2.706 5.134 5.4 2.739 6.029-4.454 12.457-15.908 20.758v-.011Z"/><path stroke="#000" stroke-linecap="round" stroke-miterlimit="10" stroke-width=".849" d="M338.417 101.341c-4.887-6.125-6.386-8.084-11.282-14.199 11.098-10.65 15.499-13.82 22.056-11.948 1.866.53 3.904 2.706 5.134 5.4 2.739 6.029-4.454 12.457-15.908 20.758v-.011Z"/><path fill="#fff" stroke="#000" stroke-width=".849" d="M63.68 48.87c1.64-.417 1.64-2.747 0-3.164l-3.284-.837a2.482 2.482 0 0 1-1.793-1.792l-.836-3.284c-.418-1.64-2.747-1.64-3.165 0l-.836 3.284a2.482 2.482 0 0 1-1.793 1.792l-3.284.837c-1.64.417-1.64 2.747 0 3.165l3.284.836c.88.224 1.569.912 1.793 1.793l.836 3.283c.418 1.64 2.748 1.64 3.165 0l.836-3.283a2.482 2.482 0 0 1 1.793-1.793l3.284-.836Z"/><path stroke="#FFCC02" stroke-linecap="round" stroke-linejoin="round" stroke-width=".849" d="M48.096 24.096 49.46 34.22m-19.751 8.352 9.94 2.217M36.28 31.066l7.41 7.007"/></g></g></g></g><defs><clipPath id="a"><path fill="#fff" d="M0 16.576h433v171.5H0z"/></clipPath><clipPath id="b"><path fill="#fff" d="M0 16.576h433v171.5H0z"/></clipPath><clipPath id="c"><path fill="#fff" d="M0 16.574h433v171.502H0z"/></clipPath></defs></svg>