<svg width="433" height="171" viewBox="0 0 433 171" fill="none" xmlns="http://www.w3.org/2000/svg">
<g clip-path="url(#clip0_504_24256)">
<mask id="mask0_504_24256" style="mask-type:luminance" maskUnits="userSpaceOnUse" x="0" y="-1" width="433" height="172">
<path d="M433 -0.00563049H0V170.326H433V-0.00563049Z" fill="white"/>
</mask>
<g mask="url(#mask0_504_24256)">
<path d="M190.464 34.752C190.464 33.5029 189.199 32.5036 187.626 32.5036C186.054 32.5036 184.789 33.5142 184.789 34.752V78.266C184.789 79.5037 186.054 80.5144 187.626 80.5144C189.199 80.5144 190.464 79.5037 190.464 78.266V34.752Z" fill="black"/>
<path d="M247.775 34.3663C247.775 33.1286 246.511 32.118 244.939 32.118C243.366 32.118 242.102 33.1286 242.102 34.3663V77.8803C242.102 79.118 243.366 80.1287 244.939 80.1287C246.511 80.1287 247.775 79.118 247.775 77.8803V34.3663Z" fill="black"/>
<path d="M75.8843 49.9583H358.012C374.166 49.9583 387.28 67.0935 387.28 88.201V152.157H46.6172V88.201C46.6172 67.0935 59.7308 49.9583 75.8843 49.9583Z" fill="#D6EFFF"/>
<path fill-rule="evenodd" clip-rule="evenodd" d="M335.259 121.542C328.149 121.542 322.383 127.287 322.383 134.373V167.088H334.61V142.072C334.61 139.234 336.923 136.94 339.76 136.94H353.275C356.123 136.94 358.425 139.245 358.425 142.072V167.088H370.651V134.373C370.651 127.287 364.886 121.542 357.775 121.542H335.248H335.259Z" fill="black"/>
<path d="M353.554 104.34C357.906 110.859 358.123 118.943 354.18 124.689C350.579 129.936 344.825 131.287 343.298 131.593L336.062 112.777L353.554 104.34Z" fill="#0066FF" stroke="black" stroke-width="0.89648" stroke-linecap="round" stroke-linejoin="round"/>
<path d="M302.718 81.8655C302.627 82.5469 299.357 106.995 299.266 107.676C318.671 107.585 338.076 107.495 357.481 107.415C354.747 90.3022 352.012 73.1899 349.288 56.066H306.171C306.08 56.7473 302.809 81.1955 302.718 81.8768V81.8655Z" fill="#FFE067" stroke="black" stroke-width="0.89648" stroke-linecap="round" stroke-linejoin="round"/>
<path d="M336.949 55.8644L336.049 48.9602M332.14 55.8644V48.9602M327.32 55.8644V49.2668M322.808 55.8644L323.103 48.9602M317.68 55.8644L319.184 48.9602" stroke="black" stroke-width="0.89648" stroke-linecap="round" stroke-linejoin="round"/>
<path d="M318.447 17.2222C308.909 21.2874 310.311 35.7655 310.425 36.7422C310.71 39.3312 311.496 46.3715 316.943 49.4716C323.176 53.0145 332.553 49.6873 337.054 43.1239C341.384 36.7989 340.917 27.9076 335.733 22.1278C331.699 17.631 324.509 14.6559 318.469 17.2222H318.447Z" fill="#FF55EB"/>
<path d="M316.93 38.9663H328.427V49.47H316.93V38.9663Z" fill="white" stroke="black" stroke-width="0.89648" stroke-linecap="round" stroke-linejoin="round"/>
<path d="M312.367 30.7661C312.367 24.9407 317.107 20.2168 322.953 20.2168C328.798 20.2168 333.538 24.9407 333.538 30.7661V34.9903C333.538 40.8156 328.798 45.5394 322.953 45.5394C317.107 45.5394 312.367 40.8156 312.367 34.9903V30.7661Z" fill="white" stroke="black" stroke-width="0.89648" stroke-linecap="round" stroke-linejoin="round"/>
<path d="M326.756 33.5711C327.439 33.5371 328.055 35.8649 328.009 34.6726C327.964 33.4802 327.371 32.5151 326.688 32.5492C326.004 32.5832 325.457 33.6052 325.503 34.7975C325.548 35.9898 326.072 33.6052 326.756 33.5711Z" fill="black"/>
<path d="M326.165 31.0154C325.026 30.7428 325.515 29.0736 326.632 29.5051C327.373 29.7321 329.561 31.3673 328.786 32.1622C328.535 32.3553 328.216 32.3326 328.011 32.0941C327.51 31.5036 326.838 31.1629 326.153 31.0267L326.165 31.0154Z" fill="black"/>
<path d="M319.309 30.5054C318.625 30.4486 317.884 30.5962 317.235 31.039C316.973 31.2208 316.654 31.1526 316.472 30.9028C315.936 29.9262 318.489 28.9497 319.263 28.9383C320.448 28.8247 320.472 30.5735 319.297 30.5167L319.309 30.5054Z" fill="black"/>
<path d="M318.436 33.2316C319.119 33.1976 319.735 35.6163 319.689 34.424C319.643 33.2316 319.051 32.2664 318.367 32.3005C317.683 32.3345 317.137 33.3565 317.182 34.5488C317.227 35.7412 317.752 33.2657 318.436 33.2316Z" fill="black"/>
<path d="M322.704 31.2442C322.773 31.0398 323.137 31.1194 323.035 31.3124L321.725 36.8766L321.44 36.4678L323.331 36.7289C323.776 36.8084 323.696 37.4784 323.251 37.3989L321.36 37.1377C321.166 37.1377 321.018 36.8992 321.075 36.7289L322.704 31.2329V31.2442Z" fill="black"/>
<path d="M321.969 39.884C322.118 39.9521 323.279 40.429 324.442 39.8045C325.251 39.3616 325.582 38.6462 325.672 38.4077" stroke="black" stroke-width="0.44824" stroke-linecap="round" stroke-linejoin="round"/>
<path d="M312.362 30.7692C312.885 29.4633 314.413 26.2043 317.785 24.694C322.605 22.5478 329.363 24.7962 333.533 30.7692C334.148 24.2512 328.884 18.7211 322.788 18.8119C316.806 18.9028 311.757 24.3647 312.362 30.7692Z" fill="#66A3FF" stroke="black" stroke-width="0.89648" stroke-miterlimit="10"/>
<path d="M337.114 38.7152C337.969 39.3398 336.738 43.9728 333.48 47.1751C327.498 53.0458 316.445 52.989 314.075 49.1509C312.901 47.2432 313.562 43.8933 314.951 43.3256C315.841 42.9622 316.649 44.0183 318.279 44.7677C321.583 46.2893 324.136 46.1871 326.574 45.3695C332.728 43.3142 336.226 38.068 337.126 38.7152H337.114Z" fill="#FF55EB"/>
<path d="M336.087 44.3824C336.441 44.689 337.181 45.4271 337.557 46.6308C338.059 48.2773 337.5 49.6627 337.341 50.0374C335.004 51.2638 331.279 52.8309 326.538 53.1147C318.915 53.5689 312.375 50.4916 312.534 49.5946C312.717 48.5726 321.502 51.2524 331.392 46.9601C333.41 46.0857 335.004 45.1205 336.099 44.3824H336.087Z" fill="#FF55EB"/>
<path d="M335.686 50.6179C336.826 51.6626 335.811 53.945 334.695 58.385C332.392 67.5829 332.427 75.1001 332.45 81.0504C332.462 83.912 332.644 88.0908 333.464 93.1781C332.871 93.8935 331.253 95.6425 328.587 96.2324C323.63 97.3342 319.847 93.3368 319.665 93.1441C318.594 89.2036 317.568 83.6508 317.864 76.9966C318.309 66.9697 321.545 59.2821 323.802 54.9329C328.496 51.901 333.908 48.9941 335.686 50.6293V50.6179Z" fill="#FF55EB"/>
<path d="M318.314 61.1546C315.511 66.6279 312.707 72.1125 309.904 77.5859C313.892 80.1636 315.271 84.3537 313.824 87.4424C311.978 91.3941 306.007 92.0638 302.179 90.3157C298.498 88.6347 296.105 84.7058 296.094 80.2317C298.133 74.1112 300.174 68.0019 302.213 61.8814C305.141 61.8132 308.07 61.7337 310.987 61.6542C311.249 62.222 311.522 62.7898 311.785 63.3462C313.961 62.6081 316.137 61.87 318.314 61.1319V61.1546Z" fill="white" stroke="black" stroke-width="0.89648" stroke-linecap="round" stroke-linejoin="round"/>
<path d="M304.456 55.6488C307.601 55.751 310.552 56.8639 311.84 58.465C316.364 64.1313 315.065 69.7181 309.196 84.9117C301.209 82.6179 298.679 81.9479 290.68 79.6655C294.098 65.0738 297.436 55.4217 304.456 55.6488Z" fill="#FFCC02"/>
<path d="M304.456 55.6488C307.601 55.751 310.552 56.8639 311.84 58.465C316.364 64.1313 315.065 69.7181 309.196 84.9117C301.209 82.6179 298.679 81.9479 290.68 79.6655C294.098 65.0738 297.436 55.4217 304.456 55.6488Z" stroke="black" stroke-width="0.89648" stroke-miterlimit="10" stroke-linecap="round"/>
<path d="M302.766 55.0788C304.646 54.1135 307.369 52.4102 309.842 49.5032C311.164 47.9589 312.098 46.4486 312.759 45.1541C314.32 46.7666 316.952 49.0377 320.712 50.1732C328.472 52.5124 333.509 48.4585 342.066 49.9801C344.778 50.4571 348.892 51.7062 353.61 55.4307C351.479 55.0674 347.444 54.6586 342.715 56.0553C338.625 57.259 335.765 59.2916 334.17 60.6202C329.795 61.7558 319.915 63.6294 309.637 59.1213C306.914 57.929 304.635 56.4982 302.766 55.0788Z" fill="#FF55EB"/>
<path d="M318.126 50.9231C312.531 59.837 306.924 68.7624 301.318 77.6764C299.643 80.7196 299.689 84.2512 301.443 86.4201C303.927 89.4974 309.943 89.9176 314 85.8069C317.669 76.4614 321.35 67.1272 325.03 57.7817C326.934 55.2948 328.814 52.7967 330.705 50.3099C330.876 49.742 330.705 49.1629 330.306 48.8336C329.953 48.5384 329.532 48.5497 329.406 48.5611C329.919 47.9365 329.885 47.1076 329.44 46.6534C328.996 46.1991 328.255 46.3241 328.199 46.3468C328.597 45.6087 328.563 44.7684 328.107 44.2347C327.811 43.8826 327.412 43.7578 327.219 43.7123C327.845 43.065 327.788 42.0544 327.195 41.5435C326.706 41.1233 325.908 41.1006 325.327 41.5435L323.082 44.0189L322.25 44.9387C322.478 44.212 322.079 43.4512 321.43 43.2241C320.712 42.9742 319.858 43.4285 319.664 44.2461C319.151 46.4717 319.082 46.6079 318.569 48.8336L318.136 50.9231H318.126Z" fill="white"/>
<path d="M323.242 49.5175C323.664 48.5069 324.086 47.4849 324.507 46.4743L327.208 43.7262" fill="white"/>
<path d="M323.438 48.1776C323.791 47.6098 324.156 47.042 324.509 46.4743L327.209 43.7262" stroke="black" stroke-width="0.89648" stroke-linecap="round" stroke-linejoin="round"/>
<path d="M325.328 50.0698C325.681 49.4225 326.035 48.7867 326.388 48.1508C326.991 47.5489 327.595 46.9585 328.2 46.3566" fill="white"/>
<path d="M325.328 50.0698C325.681 49.4225 326.035 48.7867 326.388 48.1508C326.991 47.5489 327.595 46.9585 328.2 46.3566" stroke="black" stroke-width="0.89648" stroke-linecap="round" stroke-linejoin="round"/>
<path d="M327.078 51.3676C327.362 50.9361 327.636 50.516 327.921 50.0844C328.422 49.5848 328.912 49.0738 329.403 48.5742" fill="white"/>
<path d="M327.078 51.3676C327.362 50.9361 327.636 50.516 327.921 50.0844C328.422 49.5848 328.912 49.0738 329.403 48.5742" stroke="black" stroke-width="0.89648" stroke-linecap="round" stroke-linejoin="round"/>
<path d="M322.491 44.5199C322.149 45.292 321.807 46.0528 321.477 46.825" stroke="black" stroke-width="0.89648" stroke-linecap="round" stroke-linejoin="round"/>
<path d="M300.2 82.968C300.098 82.5365 299.984 81.912 300.052 81.1625C300.143 80.0724 300.587 79.0504 301.328 77.6877C306.923 68.7624 312.529 59.8484 318.136 50.9231C318.158 50.253 318.181 49.5945 318.204 48.9244C318.523 47.3574 318.83 45.7903 319.15 44.2233C319.571 43.2354 320.676 42.8494 321.44 43.2241C322.009 43.5079 322.351 44.2006 322.26 44.9387L323.092 44.0189L325.337 41.5435C325.918 41.1006 326.716 41.1233 327.205 41.5435C327.798 42.0544 327.855 43.065 327.229 43.7123C327.433 43.7578 327.832 43.8826 328.117 44.2347C328.573 44.7684 328.596 45.6087 328.209 46.3468C328.265 46.3354 328.983 46.1878 329.45 46.6534C329.917 47.1189 329.929 47.9365 329.416 48.5611C329.542 48.5611 329.963 48.5384 330.316 48.8336C330.715 49.1629 330.886 49.7534 330.715 50.3099C328.824 52.7967 326.932 55.2948 325.04 57.7817C321.36 67.1272 317.246 78.5961 313.577 87.9417" stroke="black" stroke-width="0.89648" stroke-linecap="round" stroke-linejoin="round"/>
<path d="M311.174 151.114C320.552 150.92 328.38 157.893 329.349 166.921L293.672 167.647C294.264 158.585 301.807 151.307 311.174 151.114Z" fill="#08F8C3" stroke="black" stroke-width="0.89648" stroke-linecap="round" stroke-linejoin="round"/>
<path d="M327.032 156.936L323.579 101.374C323.238 96.002 318.053 91.7778 311.752 91.7778C305.485 91.7671 300.277 95.9456 299.901 101.294C298.557 119.826 297.212 138.37 295.867 156.902L327.043 156.936H327.032Z" fill="#0066FF" stroke="black" stroke-width="0.89648" stroke-linecap="round" stroke-linejoin="round"/>
<path d="M335.416 151.114C344.794 150.92 352.622 157.893 353.591 166.921L317.914 167.647C318.507 158.585 326.05 151.307 335.416 151.114Z" fill="#08F8C3" stroke="black" stroke-width="0.89648" stroke-linecap="round" stroke-linejoin="round"/>
<path d="M351.274 156.936L347.821 101.374C347.48 96.002 342.295 91.7778 335.994 91.7778C329.727 91.7671 324.519 95.9456 324.144 101.294C322.799 119.826 321.454 138.37 320.109 156.902L351.285 156.936H351.274Z" fill="#0066FF" stroke="black" stroke-width="0.89648" stroke-linecap="round" stroke-linejoin="round"/>
<path d="M353.558 74.1808L341.572 61.8148C332.068 72.6478 322.565 83.4923 313.05 94.3256C311.98 94.2458 310.897 94.166 309.825 94.0872C308.561 94.4843 307.775 95.3243 307.843 96.0173C307.877 96.4037 308.185 96.7667 308.322 96.9254C308.595 97.2437 309.028 97.5843 309.392 97.6067C309.632 97.6184 309.871 97.63 310.111 97.6408C308.823 98.9246 307.536 100.196 306.237 101.48C305.564 102.103 305.507 103.081 305.986 103.626C306.327 104.023 306.92 104.171 307.49 104.023C307.433 104.091 307.342 104.182 307.273 104.307C306.977 104.784 306.738 105.67 307.193 106.181C307.672 106.714 308.538 106.736 309.074 106.26C309.427 105.953 309.815 105.578 310.168 105.295C309.723 105.715 309.678 106.498 310.134 106.987C310.532 107.509 311.296 107.498 311.786 107.055C311.956 107.032 312.139 107.009 312.31 106.987C311.808 107.622 311.729 108.406 312.048 108.804C312.447 109.303 313.62 109.371 314.464 108.474C327.499 97.0393 340.534 85.593 353.558 74.158V74.1808Z" fill="white" stroke="black" stroke-width="0.89648" stroke-miterlimit="10" stroke-linecap="round"/>
<path d="M311.2 100.855C310.128 101.74 309.08 102.672 308.055 103.602" stroke="black" stroke-width="0.89648" stroke-linecap="round" stroke-linejoin="round"/>
<path d="M312.409 103.352C311.668 104.034 310.905 104.647 310.164 105.317" stroke="black" stroke-width="0.89648" stroke-linecap="round" stroke-linejoin="round"/>
<path d="M313.758 105.283C313.381 105.669 313.017 105.965 312.641 106.35" stroke="black" stroke-width="0.89648" stroke-linecap="round" stroke-linejoin="round"/>
<path d="M345.426 85.0365C338.692 79.8697 336.606 78.2004 329.883 73.0451C338.862 59.0325 342.691 54.5812 350.109 54.8538C352.205 54.9332 354.917 56.682 356.912 59.1915C361.356 64.8011 355.407 73.3858 345.437 85.0251L345.426 85.0365Z" fill="#FFCC02"/>
<path d="M345.426 85.0365C338.692 79.8697 336.606 78.2004 329.883 73.0451C338.862 59.0325 342.691 54.5812 350.109 54.8538C352.205 54.9332 354.917 56.682 356.912 59.1915C361.356 64.8011 355.407 73.3858 345.437 85.0251L345.426 85.0365Z" stroke="black" stroke-width="0.89648" stroke-miterlimit="10" stroke-linecap="round"/>
<path d="M376.291 90.0324C375.539 86.6143 372.941 84.4453 370.468 84.6497C367.346 84.911 364.372 88.9761 365.227 93.5869C366.526 118.125 367.825 142.665 369.124 167.215" stroke="#FF55EB" stroke-width="0.89648" stroke-linecap="round" stroke-linejoin="round"/>
<path d="M373.292 167.772C364.906 167.658 373.292 167.772 365.031 167.68" stroke="#FF55EB" stroke-width="0.89648" stroke-linecap="round" stroke-linejoin="round"/>
<path d="M109.429 63.4471H96.8828V74.9841H109.429V63.4471Z" fill="white" stroke="black" stroke-width="0.89648" stroke-linecap="round" stroke-linejoin="round"/>
<path d="M90.6441 51.8216C89.1744 51.3219 87.6019 51.7648 86.8157 52.8663C85.7788 54.3084 86.4853 56.307 87.6589 57.3176C89.049 58.5213 90.861 58.1352 91.0771 58.0898" fill="white"/>
<path d="M90.6441 51.8216C89.1744 51.3219 87.6019 51.7648 86.8157 52.8663C85.7788 54.3084 86.4853 56.307 87.6589 57.3176C89.049 58.5213 90.861 58.1352 91.0771 58.0898" stroke="black" stroke-width="0.89648" stroke-linecap="round" stroke-linejoin="round"/>
<path d="M114.542 51.8216C116.013 51.3219 117.585 51.7648 118.371 52.8663C119.408 54.3084 118.701 56.307 117.528 57.3176C116.138 58.5213 114.326 58.1352 114.109 58.0898" fill="white"/>
<path d="M114.542 51.8216C116.013 51.3219 117.585 51.7648 118.371 52.8663C119.408 54.3084 118.701 56.307 117.528 57.3176C116.138 58.5213 114.326 58.1352 114.109 58.0898" stroke="black" stroke-width="0.89648" stroke-linecap="round" stroke-linejoin="round"/>
<path d="M114.104 51.4343C114.104 45.0299 108.896 39.8405 102.47 39.8405C96.0436 39.8405 90.8359 45.0299 90.8359 51.4343V56.0787C90.8359 62.4832 96.0436 67.6726 102.47 67.6726C108.896 67.6726 114.104 62.4832 114.104 56.0787V51.4343Z" fill="white" stroke="black" stroke-width="0.89648" stroke-linecap="round" stroke-linejoin="round"/>
<path d="M99.7453 56.1C100.463 56.0773 101.181 58.5527 101.136 57.3037C101.09 56.0432 100.463 55.0439 99.7453 55.078C99.0272 55.1007 98.4804 56.1454 98.5261 57.4059C98.5718 58.6663 99.0272 56.134 99.7453 56.1114V56.1Z" fill="black"/>
<path d="M100.221 53.2736C99.3666 53.3531 98.5231 53.7051 97.874 54.341C97.6122 54.6022 97.19 54.6022 96.9399 54.341C96.0846 53.2622 98.922 51.6044 99.8678 51.4C101.224 51.0479 101.623 53.126 100.233 53.2963V53.2736H100.221Z" fill="black"/>
<path d="M109.657 57.2927C109.703 56.089 109.178 55.0897 108.484 55.0557C107.789 55.0216 107.196 55.9868 107.151 57.1905C107.105 58.3941 107.789 56.0209 108.484 56.0436C109.178 56.0663 109.611 58.4963 109.657 57.2813V57.2927Z" fill="black"/>
<path d="M108.497 52.0154C109.42 52.2198 112.451 54.0253 111.277 55.0359C111.016 55.2176 110.662 55.1836 110.457 54.9678C109.796 54.3319 108.953 53.9685 108.109 53.9004C106.686 53.73 107.129 51.6066 108.508 52.0267L108.497 52.0154Z" fill="black"/>
<path d="M103.884 54.4783C104.453 56.0454 105.046 57.6238 105.616 59.1908C104.772 59.0999 103.93 59.0318 103.086 58.941" fill="white"/>
<path d="M104.101 54.3864L106.026 59.0308C106.163 59.3374 105.879 59.6894 105.559 59.6326L103.029 59.3828C102.449 59.326 102.528 58.4289 103.121 58.4858L105.65 58.7355L105.183 59.3374L103.656 54.5568C103.565 54.2842 103.987 54.1253 104.101 54.3978V54.3864Z" fill="black"/>
<path d="M101.898 60.8123C102.138 61.0395 102.81 61.6299 103.87 61.7889C104.668 61.9024 105.305 61.7094 105.624 61.5958" stroke="black" stroke-width="0.44824" stroke-linecap="round" stroke-linejoin="round"/>
<path d="M103.087 43.6098L101.161 48.7766C101.024 48.9129 100.363 49.5601 99.3261 49.5828C98.175 49.6169 97.4461 48.9015 97.3323 48.7766C97.1386 47.3799 96.9558 45.9604 96.7621 44.5637C96.3408 45.7333 95.7025 47.2096 94.6886 48.7766C93.7428 50.2301 91.5096 50.8206 90.6544 51.6609C88.9569 51.8766 88.353 52.0583 86.6666 52.2741C86.0057 50.7865 85.5044 49.878 84.8549 48.3905C84.7637 48.152 83.2938 44.4502 85.5727 41.2933C87.1452 39.1359 89.4697 38.6135 90.0511 38.4999C89.2532 37.637 88.9569 36.5354 89.333 35.8655C89.8341 34.9798 91.6576 34.5937 93.2524 35.786C94.5406 32.9585 97.1153 31.1416 99.8164 31.1644C101.719 31.187 103.132 32.1295 103.747 32.6064C104.374 32.2772 108.647 30.1424 113.17 32.0387C117.41 33.8328 120.122 38.4318 119.803 43.519C118.823 46.9257 118.048 48.5494 117.057 51.9561C116.236 51.922 115.119 51.9901 114.299 51.9561C113.342 50.0711 112.453 49.8667 111.496 47.9817C111.143 48.2202 109.149 49.5147 106.619 48.9356C104.933 48.5495 103.907 47.5388 103.496 47.1074L103.098 43.5985L103.087 43.6098Z" fill="#080808"/>
<path d="M116.43 72.283C116.361 72.0218 116.019 71.8174 115.62 71.8174H91.8745C91.4755 71.8174 91.1331 72.0218 91.0649 72.283L89.4584 78.7215C89.3672 79.0508 89.766 79.3687 90.2671 79.3687H117.227C117.729 79.3687 118.128 79.0621 118.036 78.7215L116.43 72.283Z" fill="#FFE067" stroke="black" stroke-width="0.89648" stroke-linecap="round" stroke-linejoin="round"/>
<path d="M81.7536 151.057C90.9263 151.057 98.4469 158.018 99.199 166.875H64.2969C65.0603 158.018 72.5808 151.057 81.7422 151.057H81.7536Z" fill="#08F8C3" stroke="black" stroke-width="0.89648" stroke-linecap="round" stroke-linejoin="round"/>
<path d="M84.2994 104.068C81.4051 112.948 78.4994 121.84 75.5938 130.719C82.9548 134.546 90.3273 138.35 97.6883 142.177C111.214 137.169 117.64 135.739 131.166 130.719L121.48 102.33L84.2994 104.068Z" fill="#0066FF" stroke="black" stroke-width="0.89648" stroke-linecap="round" stroke-linejoin="round"/>
<path d="M125.08 79.0943H81.1417C77.6435 93.448 78.4982 107.79 75 122.132C85.0957 122.541 95.1912 122.96 105.287 123.369H131.826L125.068 79.0829L125.08 79.0943Z" fill="#FFE067" stroke="black" stroke-width="0.89648" stroke-linecap="round" stroke-linejoin="round"/>
<path d="M87.9384 174.845L76.7031 146.604C96.8834 139.995 117.087 133.409 137.266 126.8C143.089 124.892 149.413 127.845 151.669 133.522C153.948 139.234 151.338 145.706 145.743 148.285L87.9384 174.845Z" fill="#0066FF" stroke="black" stroke-width="0.89648" stroke-linecap="round" stroke-linejoin="round"/>
<path d="M132.09 151.057C141.263 151.057 148.783 158.018 149.535 166.875H114.633C115.397 158.018 122.917 151.057 132.078 151.057H132.09Z" fill="#08F8C3" stroke="black" stroke-width="0.89648" stroke-linecap="round" stroke-linejoin="round"/>
<path d="M124.39 172.054L133.313 143.006C112.665 138.044 91.9949 133.082 71.3479 128.119C65.3884 126.689 59.3264 130.129 57.5374 135.966C55.7256 141.837 58.8478 148.094 64.6364 150.206L124.39 172.054Z" fill="#0066FF" stroke="black" stroke-width="0.89648" stroke-linecap="round" stroke-linejoin="round"/>
<path d="M94.6421 71.8528L93.7188 78.8932M98.6297 71.8528V78.8932M103.541 72.1595V78.8932M107.837 71.8528L108.144 78.8932M111.825 71.8528L113.363 78.8932" stroke="black" stroke-width="0.89648" stroke-linecap="round" stroke-linejoin="round"/>
<path d="M96.9926 128.867C97.1406 128.368 96.8438 127.833 96.3427 127.697L97.3459 127.981C97.9492 128.152 98.5651 127.811 98.7471 127.209C98.9183 126.607 98.5758 125.994 97.9725 125.823C98.4162 125.96 98.8726 126.074 99.3172 126.21C99.9779 126.403 100.684 126.017 100.866 125.358C101.06 124.699 100.673 124.007 100.012 123.814C99.6812 123.723 99.362 123.632 99.0321 123.541C99.5906 123.701 100.194 123.371 100.365 122.803C100.525 122.247 100.194 121.645 99.6247 121.475L94.0065 119.862L95.4086 119.056C96.0011 118.704 96.2172 117.943 95.864 117.353C95.5108 116.762 94.7478 116.547 94.1553 116.898L90.737 118.874C86.418 116.944 82.1108 115.024 77.7922 113.094L81.0169 101.307L73.7926 100.149L66.4089 98.9685L65.4744 116.842C65.1782 119.703 67.1723 122.338 70.0551 122.803L74.1458 123.757C78.2936 124.733 82.5324 125.801 86.8966 126.993C89.9508 127.823 92.9244 128.685 95.8299 129.548C96.331 129.696 96.8671 129.4 97.0034 128.901V128.879L96.9926 128.867Z" fill="white" stroke="black" stroke-width="0.89648" stroke-miterlimit="10" stroke-linecap="round"/>
<path d="M99.0371 123.519C97.7722 123.178 96.5189 122.837 95.2656 122.497" stroke="black" stroke-width="0.89648" stroke-linecap="round" stroke-linejoin="round"/>
<path d="M97.9725 125.824C97.0491 125.586 96.149 125.347 95.2266 125.109" stroke="black" stroke-width="0.89648" stroke-linecap="round" stroke-linejoin="round"/>
<path d="M96.3436 127.686C95.8873 127.55 95.4202 127.425 94.9531 127.289" stroke="black" stroke-width="0.89648" stroke-linecap="round" stroke-linejoin="round"/>
<path d="M110.308 130.491C110.502 130.98 111.071 131.207 111.55 131.014C114.353 129.833 117.213 128.652 120.153 127.494C124.346 125.836 128.459 124.303 132.471 122.895L136.425 121.51C139.25 120.726 140.938 117.899 140.322 115.083L137.428 97.4248L130.215 99.4123L123.161 101.342L127.662 112.709C123.583 115.093 119.504 117.478 115.425 119.874L111.801 118.285C111.163 118.001 110.433 118.285 110.149 118.921C109.864 119.545 110.16 120.283 110.786 120.567L112.268 121.215L106.867 123.429C106.32 123.656 106.058 124.291 106.274 124.826C106.502 125.371 107.14 125.632 107.675 125.416C107.357 125.541 107.049 125.677 106.73 125.802C106.092 126.063 105.785 126.79 106.047 127.425C106.308 128.062 107.038 128.369 107.675 128.107C108.108 127.926 108.541 127.755 108.974 127.573C108.394 127.812 108.12 128.459 108.359 129.038C108.599 129.617 109.249 129.89 109.83 129.651L110.798 129.254C110.308 129.447 110.08 130.014 110.273 130.491V130.515L110.308 130.491Z" fill="white" stroke="black" stroke-width="0.89648" stroke-miterlimit="10" stroke-linecap="round"/>
<path d="M111.326 123.952C110.118 124.417 108.899 124.905 107.68 125.371" stroke="black" stroke-width="0.89648" stroke-linecap="round" stroke-linejoin="round"/>
<path d="M111.648 126.541C110.758 126.881 109.881 127.21 108.992 127.551" stroke="black" stroke-width="0.89648" stroke-linecap="round" stroke-linejoin="round"/>
<path d="M112.161 128.687C111.717 128.868 111.273 129.05 110.828 129.232" stroke="black" stroke-width="0.89648" stroke-linecap="round" stroke-linejoin="round"/>
<path d="M81.5819 79.7092C78.7446 78.3011 75.5882 77.8696 73.6739 78.6872C66.9396 81.5488 65.4013 87.1357 63.3047 103.42C71.4975 105.213 74.0613 105.815 82.2541 107.61C86.2423 93.0293 87.9173 82.866 81.5819 79.7205V79.7092Z" fill="#FFE067"/>
<path d="M124.746 78.9844C127.628 77.6785 130.808 77.3606 132.688 78.235C139.319 81.3236 140.664 86.9559 142.191 103.307C133.941 104.818 131.355 105.329 123.105 106.84C119.63 92.1337 118.297 81.9141 124.746 78.9844Z" fill="#FFE067"/>
<path d="M84.5331 82.5367C83.8608 81.3103 82.8922 80.3565 81.5819 79.7092C78.7446 78.3011 75.5882 77.8696 73.6739 78.6872C66.9396 81.5488 65.4013 87.1357 63.3047 103.42C71.4975 105.213 74.0613 105.815 82.2541 107.61C83.1771 104.214 83.9861 101.069 84.5901 98.1841" stroke="black" stroke-width="0.89648" stroke-miterlimit="10" stroke-linecap="round"/>
<path d="M121.694 81.7097C122.412 80.506 123.414 79.5862 124.748 78.9844C127.631 77.6785 130.81 77.3606 132.689 78.235C139.322 81.3236 140.666 86.9559 142.193 103.307C133.944 104.818 131.356 105.329 123.107 106.84C122.297 103.41 121.603 100.241 121.102 97.3351" stroke="black" stroke-width="0.89648" stroke-miterlimit="10" stroke-linecap="round"/>
<path d="M86.5299 40.2156L84.9688 41.635L85.7437 42.0097V43.3042L87.0198 42.498L88.6721 43.0203L89.9369 42.1346L91.0422 42.2596L91.9997 41.3284L93.7424 41.1694C93.971 40.7038 94.1987 40.2383 94.4264 39.7613C95.1212 39.5683 95.8052 39.3752 96.5 39.1822L97.1042 38.0921H97.9129L98.4947 36.6386L99.4055 36.0936V35.2191L100.295 34.4925V33.3796L100.899 32.914C100.5 32.88 100.101 32.8459 99.7022 32.8004C99.5884 32.6188 99.4853 32.4371 99.3714 32.2554C95.0755 34.9013 90.7912 37.5584 86.4957 40.2042L86.5299 40.2156Z" fill="#FF55EB"/>
<path d="M81.8005 19.0722C83.4185 26.6235 85.0366 34.1748 86.6546 41.7149C88.4549 41.4878 91.919 40.8065 95.349 38.3196C97.548 36.7298 98.9833 34.9471 99.8609 33.6638C93.833 28.8038 87.8169 23.9323 81.7891 19.0722H81.8005Z" fill="#0066FF"/>
<path d="M84.2926 21.9675L85.6487 23.2847L85.3296 25.147L87.0046 24.2613L88.6796 25.147L88.5771 24.5679C87.4491 23.6594 86.3209 22.7396 85.1929 21.8312L84.2812 21.9675H84.2926Z" fill="#FFE067"/>
<path d="M85.8177 30.0517L86.5697 28.3143L84.7238 28.7685L83.6641 27.8373C83.9603 29.2 84.2452 30.5626 84.5414 31.9253L84.9289 31.4598L86.8204 31.6414L85.8177 30.0403V30.0517Z" fill="#FFE067"/>
<path d="M94.4371 29.2792L93.2412 28.757L93.138 28.2346C92.853 28.0075 92.5795 27.7803 92.2954 27.5533L91.623 28.3027L89.7422 28.0642L90.6996 29.6994L89.891 31.4141L91.7485 31.0166L93.1264 32.3111L93.3209 30.4262L94.836 29.5972C94.6997 29.495 94.5742 29.3814 94.4371 29.2792Z" fill="#FFE067"/>
<path d="M87.125 34.5605L89.0051 34.799L90.2703 33.3909L90.6235 35.2418L92.3555 36.014L90.6916 36.9225L90.498 38.7961L89.119 37.5016L87.2617 37.899L88.0708 36.1957L87.125 34.5605Z" fill="#FFE067"/>
<path d="M97.0546 34.7778L95.38 33.8921L95.6874 35.7543L94.3203 37.0716L96.2002 37.3555L96.3141 37.5939C97.1577 36.9013 97.8641 36.1859 98.4567 35.5159L98.7418 33.9148L97.0546 34.7892V34.7778Z" fill="#FFE067"/>
<path d="M82.8678 24.058L83.6768 23.9445L82.6172 22.9111C82.6969 23.2972 82.7767 23.6832 82.8678 24.058Z" fill="#FFE067"/>
<path d="M82.2109 20.9919C82.2793 21.3326 82.3591 21.6846 82.4274 22.0253L82.6553 20.7534L82.2109 20.9806V20.9919Z" fill="#FFE067"/>
<path d="M87.0312 40.2174L87.2706 41.6368C88.091 41.5119 89.1166 41.2961 90.2784 40.91L90.3931 40.2401L88.7063 41.1144L87.0312 40.2287V40.2174Z" fill="#FFE067"/>
<path d="M81.6284 19.9022C82.4717 19.9022 83.1553 19.221 83.1553 18.3806C83.1553 17.5402 82.4717 16.859 81.6284 16.859C80.7851 16.859 80.1016 17.5402 80.1016 18.3806C80.1016 19.221 80.7851 19.9022 81.6284 19.9022Z" fill="#FF55EB"/>
<path d="M178.178 156.029C178.52 156.029 178.793 156.302 178.793 156.643V167.101C178.793 167.442 178.52 167.714 178.178 167.714C177.836 167.714 177.562 167.442 177.562 167.101V156.643C177.562 156.302 177.836 156.029 178.178 156.029Z" fill="#0066FF" stroke="black" stroke-width="0.89648" stroke-linecap="round"/>
<path d="M176.891 50.2629C176.891 48.1053 178.646 46.3566 180.811 46.3566H251.777C253.942 46.3566 255.697 48.1053 255.697 50.2629V103.985H176.902V50.2629H176.891Z" fill="#B5FFEF"/>
<path d="M255.272 132.308C255.272 134.772 253.723 136.77 251.808 136.77H180.808C178.894 136.77 177.344 134.772 177.344 132.308V101.603H255.272V132.308Z" fill="#66A3FF"/>
<path d="M186.606 137.84H165.07V132.197H186.606V137.84Z" fill="#0066FF"/>
<path d="M168.175 160.574H170.716V112.324H168.175C165.201 112.324 162.773 114.732 162.773 117.707V155.203C162.773 158.167 165.201 160.585 168.175 160.585V160.574Z" fill="black"/>
<path d="M166.75 166.076H170.715V107.959C170.715 107.335 170.202 106.824 169.576 106.824H167.9C167.274 106.824 166.761 107.335 166.761 107.959V166.076H166.75Z" fill="#0066FF"/>
<path d="M178.041 161.424C175.944 161.424 174.258 159.8 174.258 157.79V150.374C174.258 148.365 175.944 146.741 178.041 146.741H178.52C180.616 146.741 182.302 148.365 182.302 150.374V157.79C182.302 159.8 180.616 161.424 178.52 161.424H178.041Z" stroke="black" stroke-width="0.89648" stroke-miterlimit="10" stroke-linecap="round"/>
<path d="M176.203 156.894H180.168V102.025C180.168 101.4 179.655 100.889 179.029 100.889H177.353C176.727 100.889 176.214 101.4 176.214 102.025V156.894H176.203Z" fill="#0066FF"/>
<path d="M184.297 157.129H188.262V102.259C188.262 101.636 187.749 101.125 187.112 101.125H185.436C184.81 101.125 184.297 101.636 184.297 102.259V157.129Z" fill="#0066FF"/>
<path d="M179.243 166.637C179.243 167.227 178.765 167.704 178.172 167.704C177.579 167.704 177.102 167.227 177.102 166.637V156.178C177.102 155.588 177.579 155.111 178.172 155.111C178.765 155.111 179.243 155.588 179.243 156.178V166.637Z" fill="black"/>
<path d="M187.454 99.2303H176.685C175.272 99.2303 174.133 100.365 174.133 101.774C174.133 103.182 175.272 104.317 176.685 104.317H187.454C188.866 104.317 190.006 103.182 190.006 101.774C190.006 100.365 188.866 99.2303 187.454 99.2303Z" fill="#0066FF"/>
<path d="M186.523 132.795H168.953V137.882H186.523V132.795Z" fill="#0066FF"/>
<path d="M245.477 137.884H267.013V132.24H245.477V137.884Z" fill="#0066FF"/>
<path d="M227.948 54.2715C225.931 55.8386 223.572 55.9634 222.546 55.9521C220.427 54.8961 208.291 60.0742 205.078 57.5532C201.545 54.7825 204.861 43.3589 201.728 35.7508C197.991 26.6892 200.144 18.3089 201.181 15.0612C200.566 13.9144 199.734 13.04 200.064 12.4608C200.463 11.7454 202.184 12.4608 204.36 12.688C203.961 11.3026 203.859 10.2125 204.167 10.0876C204.474 9.9627 205.158 10.4737 205.933 11.7909C207.482 10.7689 210.798 9.31544 215.014 9.50845C232.893 10.3147 240.766 44.3468 227.948 54.2829V54.2715Z" fill="black"/>
<path d="M201.24 15.0848C197.924 20.2629 196.352 27.0421 195.109 34.548C194.836 36.1945 194.574 38.6927 193.492 41.6224C192.397 44.5407 190.894 46.9708 189.879 50.1276C189.184 52.2966 189.845 49.8551 189.879 51.195C189.936 51.4676 190.928 55.8054 193.97 56.657C196.613 57.3951 199.508 56.0211 200.59 53.4094C202.665 48.8785 206.63 44.8587 208.703 40.3279C208.031 39.8169 205.604 38.7723 205.183 38.2499C201.502 33.7758 203.086 27.4736 203.496 25.9974C202.778 22.5227 203.132 18.8094 202.402 15.346L201.24 15.0848Z" fill="black"/>
<path d="M194.68 87.4888H237.752L239.279 104.59C230.083 108.394 224.341 110.166 218.233 110.018C212.091 109.871 205.539 107.793 194.691 103.783V87.4888H194.68Z" fill="#FFCC00" stroke="black" stroke-width="0.89648" stroke-linecap="round"/>
<path d="M220.867 37.2631L209.336 38.4441V49.1976L221.961 47.869L220.867 37.2631Z" fill="white" stroke="black" stroke-width="0.89648" stroke-linecap="round" stroke-linejoin="round"/>
<path d="M226.667 27.2831C228.035 26.8289 229.482 27.2491 230.2 28.2711C231.146 29.5996 230.485 31.4506 229.391 32.3704C228.104 33.4718 226.428 33.1085 226.234 33.063" fill="white"/>
<path d="M226.667 27.2831C228.035 26.8289 229.482 27.2491 230.2 28.2711C231.146 29.5996 230.485 31.4506 229.391 32.3704C228.104 33.4718 226.428 33.1085 226.234 33.063" stroke="black" stroke-width="0.89648" stroke-linecap="round" stroke-linejoin="round"/>
<path d="M226.287 26.9303C226.321 21.0141 221.547 16.188 215.61 16.154C209.674 16.1199 204.831 20.8778 204.796 26.794L204.774 31.075C204.74 36.9911 209.514 41.8172 215.451 41.8513C221.387 41.8854 226.23 37.1274 226.264 31.2113L226.287 26.9189V26.9303Z" fill="white" stroke="black" stroke-width="0.89648" stroke-linecap="round" stroke-linejoin="round"/>
<path d="M213.05 30.733C213.072 29.2454 212.389 28.0304 211.545 28.019C210.702 28.019 209.995 29.2113 209.985 30.6989C209.973 32.1864 210.668 29.2908 211.523 29.2908C212.366 29.2908 213.038 32.2091 213.06 30.733H213.05Z" fill="black"/>
<path d="M221.78 31.0613C221.802 29.5737 221.119 28.3586 220.276 28.3474C219.433 28.3474 218.727 29.5397 218.703 31.0272C218.692 32.5147 219.444 29.4942 220.287 29.5056C221.142 29.5056 221.758 32.5602 221.768 31.0727L221.78 31.0613Z" fill="black"/>
<path d="M211.915 26.3508C211.129 26.3167 210.308 26.5439 209.648 27.0549C209.385 27.2593 208.998 27.2138 208.793 26.9413C208.143 25.8626 210.923 24.6703 211.824 24.5907C213.112 24.4318 213.236 26.3736 211.937 26.3736V26.3508H211.915Z" fill="black"/>
<path d="M216.568 28.9728C217.092 30.4263 217.616 31.8798 218.14 33.3447C217.365 33.2652 216.591 33.1857 215.805 33.0948" fill="white"/>
<path d="M215.87 28.8581L217.625 33.1504C217.75 33.4343 217.489 33.7522 217.192 33.7069L214.857 33.4684C214.32 33.4116 214.4 32.5827 214.936 32.6394L217.272 32.8779L216.839 33.4343L215.46 29.0057C215.369 28.7559 215.767 28.6082 215.87 28.8581Z" fill="black"/>
<path d="M227.326 44.1653C227.269 43.836 226.949 43.5976 226.574 43.5976H204.65C204.286 43.5976 203.966 43.836 203.898 44.1653L202.417 51.9892C202.337 52.3979 202.701 52.7727 203.169 52.7727H228.066C228.534 52.7727 228.898 52.4093 228.819 51.9892L227.337 44.1653H227.326Z" fill="#FFE067" stroke="black" stroke-width="0.89648" stroke-linecap="round" stroke-linejoin="round"/>
<path d="M237.543 50.8898H194.459C191.348 65.1636 190.197 79.2556 187.086 93.5403C196.054 93.9491 208.975 94.5399 217.944 94.9487L245.188 93.5403L237.531 50.8898H237.543Z" fill="#FFE067"/>
<path d="M237.543 50.8898H194.459C191.348 65.1636 190.197 79.2556 187.086 93.5403C196.054 93.9491 208.975 94.5399 217.944 94.9487L245.188 93.5403L237.531 50.8898H237.543Z" stroke="black" stroke-width="0.89648" stroke-linecap="round" stroke-linejoin="round"/>
<path d="M261.264 44.2129C263.623 41.0788 266.096 37.8993 268.705 34.6856C270.528 32.426 272.351 30.2344 274.163 28.1109C274.471 27.7361 274.414 27.1911 274.049 26.8732C273.674 26.5666 273.126 26.6233 272.808 26.9867L273.423 26.2486C273.787 25.8057 273.73 25.1585 273.285 24.7951C272.842 24.4317 272.192 24.4885 271.827 24.9314C272.101 24.602 272.375 24.2728 272.648 23.9435C273.058 23.4552 272.99 22.7284 272.499 22.3196C272.01 21.9108 271.28 21.9789 270.87 22.4672C270.677 22.7057 270.471 22.9442 270.278 23.1826C270.619 22.7625 270.563 22.138 270.141 21.7973C269.719 21.4453 269.093 21.5134 268.751 21.9222L265.321 26.0556L265.15 24.5794C265.082 23.9435 264.511 23.5006 263.874 23.5688C263.236 23.6369 262.779 24.2046 262.859 24.8405L263.27 28.4515C260.045 31.3699 256.821 34.2882 253.596 37.2066L235.375 53.7401L246.588 63.5399L261.264 44.2129Z" fill="white" stroke="black" stroke-width="0.89648" stroke-miterlimit="10" stroke-linecap="round"/>
<path d="M270.279 23.2052C269.527 24.1364 268.775 25.0675 268.023 26.01" stroke="black" stroke-width="0.89648" stroke-linecap="round" stroke-linejoin="round"/>
<path d="M271.829 24.9426C271.282 25.6239 270.746 26.3053 270.211 26.9866" stroke="black" stroke-width="0.89648" stroke-linecap="round" stroke-linejoin="round"/>
<path d="M272.827 26.9982C272.542 27.3389 272.258 27.6796 271.984 28.0202" stroke="black" stroke-width="0.89648" stroke-linecap="round" stroke-linejoin="round"/>
<path d="M230.081 63.677C231.767 66.2207 234.274 68.117 236.348 68.3895C243.663 69.3207 247.948 65.4712 258.397 53.0597C252.289 47.5751 250.409 45.815 244.302 40.3416C233.134 50.414 226.298 57.9767 230.081 63.677Z" fill="#FFCC00"/>
<path d="M240.104 68.4009C245.436 67.6287 249.858 63.2001 258.392 53.0597C252.285 47.5751 250.405 45.815 244.297 40.3416C238.588 45.497 234.008 49.9938 231.398 53.9228" stroke="black" stroke-width="0.89648" stroke-miterlimit="10" stroke-linecap="round"/>
<path d="M155.984 47.5294L156.44 48.3016C156.144 47.802 155.882 47.6657 155.118 47.995C154.697 48.2334 154.708 48.8126 154.947 49.2327C156.383 51.6174 157.83 54.0814 159.254 56.6024C161.294 60.2021 163.219 63.745 165.031 67.2197L166.809 70.649C167.88 73.1132 170.684 74.2941 173.19 73.3857L189.006 68.5255L186.272 62.212L183.605 56.046L173.76 61.5874C171.059 58.1808 168.347 54.7742 165.658 51.3675L166.661 47.8701C166.832 47.2569 166.479 46.6209 165.863 46.4506C165.248 46.2803 164.61 46.6323 164.439 47.2455L164.029 48.6763L161.317 44.0433C161.044 43.5777 160.428 43.4074 159.961 43.6912C159.494 43.9638 159.334 44.577 159.608 45.0426C159.448 44.7701 159.3 44.5088 159.14 44.2363C158.821 43.6799 158.115 43.4982 157.556 43.8162C156.998 44.1341 156.816 44.8382 157.135 45.3946C157.351 45.758 157.556 46.1327 157.773 46.4961C157.488 46.0077 156.85 45.8374 156.36 46.1327C155.858 46.4165 155.699 47.0525 155.984 47.5521V47.5294Z" fill="white" stroke="black" stroke-width="0.89648" stroke-miterlimit="10" stroke-linecap="round"/>
<path d="M159.594 45.0167C160.186 46.0614 160.779 47.1061 161.36 48.1508L159.594 45.0167Z" fill="white"/>
<path d="M159.594 45.0167C160.186 46.0614 160.779 47.1061 161.36 48.1508" stroke="black" stroke-width="0.89648" stroke-linecap="round" stroke-linejoin="round"/>
<path d="M157.781 46.494C158.203 47.2548 158.625 48.0157 159.046 48.7764L157.781 46.494Z" fill="white"/>
<path d="M157.781 46.494C158.203 47.2548 158.625 48.0157 159.046 48.7764" stroke="black" stroke-width="0.89648" stroke-linecap="round" stroke-linejoin="round"/>
<path d="M156.469 48.3571C156.685 48.7431 156.913 49.1178 157.141 49.5039L156.469 48.3571Z" fill="white"/>
<path d="M156.469 48.3571C156.685 48.7431 156.913 49.1178 157.141 49.5039" stroke="black" stroke-width="0.89648" stroke-linecap="round" stroke-linejoin="round"/>
<path d="M200.666 53.5345C202.478 56.0781 203.401 59.11 202.945 61.1313C201.316 68.2284 196.245 70.6925 181.056 75.5299C178.002 67.7855 177 65.3668 173.945 57.6337C187.197 51.2407 196.621 47.8567 200.666 53.5458V53.5345Z" fill="#FFCC00"/>
<path d="M202.319 56.6458C201.909 55.6012 201.339 54.5337 200.644 53.5458C196.599 47.8567 187.198 51.2407 173.969 57.6337C177.011 65.3782 178.025 67.7969 181.068 75.5299C188.554 73.1453 193.579 71.3398 196.953 69.2617C197.693 68.8075 198.342 68.3419 198.924 67.8536" stroke="black" stroke-width="0.89648" stroke-miterlimit="10" stroke-linecap="round"/>
<path d="M247.741 156.531H184.25V163.877H247.741V156.531Z" fill="#0066FF"/>
<path d="M263.916 160.618H261.375V112.369H263.916C266.889 112.369 269.317 114.776 269.317 117.752V155.247C269.317 158.211 266.901 160.629 263.916 160.629V160.618Z" fill="black"/>
<path d="M265.34 166.126H261.375V108.009C261.375 107.384 261.888 106.873 262.514 106.873H264.189C264.816 106.873 265.328 107.384 265.328 108.009V166.126H265.34Z" fill="#0066FF"/>
<path d="M254.043 161.468C256.139 161.468 257.826 159.844 257.826 157.834V150.419C257.826 148.409 256.128 146.785 254.043 146.785H253.564C251.468 146.785 249.781 148.409 249.781 150.419V157.834C249.781 159.844 251.468 161.468 253.564 161.468H254.043Z" stroke="black" stroke-width="0.89648" stroke-miterlimit="10" stroke-linecap="round"/>
<path d="M255.871 156.947H251.906V102.077C251.906 101.453 252.419 100.942 253.046 100.942H254.721C255.348 100.942 255.861 101.453 255.861 102.077V156.947H255.871Z" fill="#0066FF"/>
<path d="M247.785 157.178H243.82V102.308C243.82 101.684 244.333 101.173 244.96 101.173H246.634C247.261 101.173 247.774 101.684 247.774 102.308V157.178H247.785Z" fill="#0066FF"/>
<path d="M252.836 166.681C252.836 167.271 253.315 167.748 253.907 167.748C254.5 167.748 254.979 167.271 254.979 166.681V156.223C254.979 155.632 254.5 155.155 253.907 155.155C253.315 155.155 252.836 155.632 252.836 156.223V166.681Z" fill="black"/>
<path d="M190.219 151.009L218.363 150.475C216.814 130.978 215.241 111.492 213.691 91.9948C213.247 86.3739 208.473 82.0589 202.81 82.1725C197.112 82.2747 192.508 86.8055 192.304 92.4717L190.219 151.02V151.009Z" fill="#0066FF" stroke="black" stroke-width="0.89648" stroke-linecap="round" stroke-linejoin="round"/>
<path d="M202.717 143.414C211.286 143.414 218.305 149.955 218.955 158.255H186.469C187.118 149.955 194.137 143.414 202.706 143.414H202.717Z" fill="#08F8C3" stroke="black" stroke-width="0.89648" stroke-linecap="round" stroke-linejoin="round"/>
<path d="M215.062 150.556L243.208 151.078C242.387 131.547 241.555 112.004 240.747 92.4618C240.519 86.8179 235.904 82.3324 230.241 82.2302C224.543 82.1167 219.769 86.4658 219.358 92.1212L215.062 150.545V150.556Z" fill="#0066FF" stroke="black" stroke-width="0.89648" stroke-linecap="round" stroke-linejoin="round"/>
<path d="M229.375 143.414C237.943 143.414 244.963 149.955 245.612 158.255H213.125C213.775 149.955 220.793 143.414 229.375 143.414Z" fill="#08F8C3" stroke="black" stroke-width="0.89648" stroke-linecap="round" stroke-linejoin="round"/>
<path d="M218.194 36.1027L213.055 35.7508C213.055 35.7508 215.117 38.6236 216.462 38.1467C217.602 37.7379 218.194 36.1027 218.194 36.1027Z" stroke="black" stroke-width="0.44824" stroke-linecap="round" stroke-linejoin="round"/>
<path d="M210.675 20.0914C215.803 22.4987 218.537 24.4292 227.744 24.4292C226.787 15.3448 219.312 12.8807 213.205 13.9595C205.912 15.254 200.374 25.2581 201.696 26.2347C202.22 26.6321 202.596 28.5512 208.977 22.4079L210.663 20.08L210.675 20.0914Z" fill="black"/>
<path d="M194.619 10.4753L194.247 2.95301C193.692 5.29799 193.136 7.64298 192.586 9.99864" stroke="#FFCC00" stroke-width="0.89648" stroke-linecap="round" stroke-linejoin="round"/>
<path d="M208.504 12.1137L211.873 11.4717L211.388 12.4602L211.879 13.7924L210.329 14.3607L209.806 16.3311L208.14 17.0503L207.063 18.9334L204.792 19.2939L203.356 20.7641L201.26 20.0199L199.795 20.9197C199.608 20.7099 199.436 20.5068 199.25 20.297C198.757 20.4414 198.274 20.5819 197.781 20.7263C198.1 20.0771 198.412 19.4423 198.731 18.7931C202.001 16.5663 205.256 14.3327 208.526 12.1059L208.504 12.1137Z" fill="#08F8C3"/>
<path d="M194.352 2.27897C199.662 5.58858 204.973 8.89819 210.284 12.2078C209.897 13.1608 208.668 15.8134 205.688 17.6917C202.96 19.4043 200.301 19.4943 199.248 19.4682L194.352 2.27897Z" fill="#FF55EB"/>
<path d="M194.352 2.27897C199.662 5.58858 204.973 8.89819 210.284 12.2078C209.897 13.1608 208.668 15.8134 205.688 17.6917C202.96 19.4043 200.301 19.4943 199.248 19.4682L194.352 2.27897Z" fill="#FF55EB"/>
<path d="M197.055 7.05488C196.638 7.20753 196.219 7.32426 195.816 7.44774C195.642 6.84522 195.468 6.24269 195.305 5.63624C195.665 5.52842 196.025 5.4206 196.4 5.2836C196.998 5.06441 197.565 4.85695 198.105 4.61073C198.738 5.00902 199.367 5.39664 200 5.79494C199.119 6.23826 198.148 6.6663 197.05 7.04421L197.055 7.05488Z" fill="#FFCC00"/>
<path d="M200.018 10.1192C198.881 10.5235 197.819 10.8033 196.827 11.0092C196.657 10.4171 196.483 9.81442 196.312 9.22238C197.257 9.02157 198.284 8.74284 199.357 8.36198C200.398 7.99288 201.319 7.59496 202.171 7.17392C202.785 7.5549 203.399 7.93588 204.002 8.32076C202.876 8.9514 201.559 9.59128 200.011 10.1337L200.018 10.1192Z" fill="#FFCC00"/>
<path d="M202.024 13.8374C200.577 14.3554 199.222 14.7304 197.984 15.0262C197.81 14.4234 197.64 13.8313 197.477 13.2245C198.679 12.9297 199.987 12.5597 201.384 12.072C203.359 11.3728 205.051 10.5957 206.494 9.83674C207.094 10.211 207.708 10.5921 208.308 10.9664C206.65 11.9008 204.566 12.9306 202.035 13.8335L202.024 13.8374Z" fill="#FFCC00"/>
<path d="M198.953 18.4239C198.779 17.821 198.608 17.2288 198.445 16.6221C199.932 16.308 201.601 15.8661 203.427 15.2217C206.197 14.2434 208.432 13.0975 210.153 12.1037C210.201 12.1346 210.249 12.1655 210.297 12.1965C210.073 12.7393 209.56 13.8482 208.617 15.042C207.296 15.7073 205.796 16.378 204.078 16.9832C202.198 17.6472 200.471 18.098 198.963 18.4199L198.953 18.4239Z" fill="#FFCC00"/>
<path d="M219.131 24.8284C219.985 24.8284 222.994 25.8049 222.172 26.9177C221.979 27.1335 221.671 27.1676 221.444 27.0199C220.737 26.5885 219.928 26.4408 219.176 26.5544C217.9 26.6907 217.866 24.7375 219.153 24.8284H219.131Z" fill="black"/>
<path d="M205.526 27.3264C204.169 26.8494 202.722 27.2582 201.982 28.2688C201.013 29.586 201.663 31.4484 202.734 32.3795C204.01 33.5036 205.685 33.1517 205.879 33.1176" fill="white"/>
<path d="M205.526 27.3264C204.169 26.8494 202.722 27.2582 201.982 28.2688C201.013 29.586 201.663 31.4484 202.734 32.3795C204.01 33.5036 205.685 33.1517 205.879 33.1176" stroke="black" stroke-width="0.89648" stroke-linecap="round" stroke-linejoin="round"/>
<path d="M244.615 99.2876H255.382C256.795 99.2876 257.935 100.423 257.935 101.832C257.935 103.239 256.795 104.375 255.382 104.375H244.615C243.202 104.375 242.062 103.239 242.062 101.832C242.062 100.423 243.202 99.2876 244.615 99.2876Z" fill="#0066FF"/>
<path d="M42.9343 155.502H42.4861V155.951V169.277H25.5156V155.951V142.625H42.9343H400.273H417.692V155.951V169.277H400.721V155.951V155.502H400.273H42.9343Z" fill="#FF55EB" stroke="black" stroke-width="0.89648"/>
<path d="M289.498 124.177H229.367V142.13H289.498V124.177Z" fill="#66A3FF" stroke="black" stroke-width="0.89648" stroke-miterlimit="10"/>
<path d="M229.367 124.177H289.498V132.557C288.415 134.862 287.413 135.418 286.672 135.487C284.883 135.645 284.142 132.977 281.68 132.784C279.994 132.647 279.778 133.863 277.647 134.033C275.141 134.238 274.491 132.637 272.2 132.569C269.374 132.477 268.85 134.862 265.922 135.657C261.888 136.747 260.612 132.818 255.507 132.579C249.354 132.296 246.597 137.791 242.312 136.043C240.056 135.112 239.463 133.034 237.298 133.17C235.339 133.295 234.575 135.078 232.741 134.964C231.236 134.873 230.085 133.567 229.367 132.5V124.188V124.177Z" fill="#FF55EB" stroke="black" stroke-width="0.89648" stroke-linecap="round" stroke-linejoin="round"/>
<path d="M262.392 96.4799H258.062V106.2H262.392V96.4799Z" fill="#08F8C3" stroke="black" stroke-width="0.89648" stroke-linecap="round" stroke-linejoin="round"/>
<path d="M269.189 99.3325H265.531V106.202H269.189V99.3325Z" fill="#08F8C3" stroke="black" stroke-width="0.89648" stroke-linecap="round" stroke-linejoin="round"/>
<path d="M254.939 99.3325H251.281V106.202H254.939V99.3325Z" fill="#08F8C3" stroke="black" stroke-width="0.89648" stroke-linecap="round" stroke-linejoin="round"/>
<path d="M280.387 106.203H239.719V124.156H280.387V106.203Z" fill="#66A3FF" stroke="black" stroke-width="0.89648" stroke-miterlimit="10"/>
<path d="M239.719 106.203H280.387V112.369C279.658 114.072 278.974 114.481 278.473 114.527C277.264 114.64 276.763 112.676 275.099 112.539C273.96 112.437 273.812 113.335 272.377 113.459C270.679 113.607 270.246 112.426 268.696 112.381C266.782 112.313 266.428 114.072 264.445 114.652C261.722 115.447 260.856 112.562 257.404 112.391C253.245 112.187 251.376 116.23 248.482 114.936C246.954 114.254 246.556 112.721 245.086 112.824C243.764 112.914 243.24 114.231 242.009 114.152C240.995 114.084 240.221 113.13 239.73 112.335V106.215L239.719 106.203Z" fill="#FF55EB" stroke="black" stroke-width="0.89648" stroke-linecap="round" stroke-linejoin="round"/>
<path d="M260.509 96.3319C259.279 96.4682 257.888 94.7541 258.071 93.5385C258.207 92.6528 259.119 92.4825 260.031 90.9495C260.474 90.2117 260.691 89.5303 260.805 89.0988C261.124 89.4281 262.617 91.0176 262.412 93.1978C262.31 94.2656 261.739 96.1957 260.52 96.3319H260.509Z" fill="#FFCC00" stroke="black" stroke-width="0.89648" stroke-linecap="round" stroke-linejoin="round"/>
<path d="M267.583 98.955C266.581 99.0689 265.441 97.6722 265.601 96.6843C265.715 95.9572 266.455 95.8209 267.196 94.5838C267.561 93.9814 267.732 93.4256 267.822 93.0732C268.085 93.3458 269.293 94.6403 269.133 96.4117C269.053 97.275 268.586 98.8528 267.595 98.9667L267.583 98.955Z" fill="#FFCC00" stroke="black" stroke-width="0.89648" stroke-linecap="round" stroke-linejoin="round"/>
<path d="M253.326 98.955C252.323 99.0689 251.184 97.6722 251.343 96.6843C251.457 95.9572 252.198 95.8209 252.939 94.5838C253.303 93.9814 253.474 93.4256 253.566 93.0732C253.827 93.3458 255.035 94.6403 254.876 96.4117C254.796 97.275 254.328 98.8528 253.338 98.9667L253.326 98.955Z" fill="#FFCC00" stroke="black" stroke-width="0.89648" stroke-linecap="round" stroke-linejoin="round"/>
<path d="M136.039 135.497C134.295 133.544 133.019 130.534 133.942 129.388C135.218 127.798 139.73 130.967 143.047 128.695C144.755 127.514 144.573 125.959 146.545 125.209C146.932 125.061 147.672 124.845 151.091 125.38C155.41 126.061 155.466 126.594 157.039 126.424C160.047 126.118 160.355 124.119 162.463 124.334C165.038 124.596 165.254 127.628 168.161 128.218C170.257 128.638 170.565 127.151 173.481 126.957C177.298 126.708 178.13 129.149 182.061 128.877C184.625 128.695 185.07 127.594 186.608 128.003C189.354 128.729 191.827 133.215 190.813 135.849C189.332 139.688 181.275 137.439 159.307 138.461C147.217 139.029 140.186 140.153 136.027 135.497H136.039Z" fill="#FFE067" stroke="black" stroke-width="0.89648" stroke-linecap="round" stroke-linejoin="round"/>
<path d="M129.438 133.15H197.419L192.542 142.95H133.323L129.438 133.15Z" fill="#08F8C3" stroke="black" stroke-width="0.89648" stroke-linecap="round" stroke-linejoin="round"/>
<path d="M336.305 23.0804L337.957 24.4998L337.137 24.8746V26.1691L335.782 25.3629L334.026 25.8853L332.682 24.9995L331.508 25.1244L330.494 24.1932L328.648 24.0343C328.409 23.5688 328.17 23.1031 327.919 22.6262C327.19 22.4332 326.461 22.2402 325.731 22.0471L325.093 20.9569H324.238L323.623 19.5035L322.654 18.9584V18.0841L321.709 17.3573V16.2445L321.07 15.7789C321.493 15.7448 321.914 15.7107 322.335 15.6654C322.449 15.4837 322.564 15.302 322.688 15.1203C327.224 17.7661 331.771 20.4233 336.305 23.0691V23.0804Z" fill="#FFCC02"/>
<path d="M341.123 1.93703C339.505 9.48837 337.887 17.0398 336.269 24.5797C334.468 24.3526 331.004 23.6713 327.574 21.1845C325.375 19.5947 323.94 17.8119 323.062 16.5288C329.09 11.6686 335.107 6.79716 341.135 1.93703H341.123Z" fill="#08F8C3"/>
<path d="M327.402 19.3532C328.258 19.3532 328.952 18.6618 328.952 17.8089C328.952 16.956 328.258 16.2645 327.402 16.2645C326.545 16.2645 325.852 16.956 325.852 17.8089C325.852 18.6618 326.545 19.3532 327.402 19.3532Z" fill="#0066FF"/>
<path d="M338.65 10.658C337.465 10.658 336.508 11.6119 336.508 12.7929C336.508 13.8716 337.306 14.746 338.343 14.905C338.639 13.5196 338.935 12.1342 339.231 10.7489C339.049 10.6921 338.856 10.658 338.65 10.658Z" fill="#0066FF"/>
<path d="M330.247 13.4483C331.261 13.4483 332.081 12.6307 332.081 11.62C332.081 10.9274 331.683 10.3255 331.101 10.0189C330.235 10.723 329.358 11.427 328.492 12.131C328.708 12.8919 329.415 13.4483 330.247 13.4483Z" fill="#0066FF"/>
<path d="M337.012 17.5821C336.1 17.5821 335.359 18.3202 335.359 19.2286C335.359 20.1371 336.1 20.8752 337.012 20.8752C337.034 20.8752 337.046 20.8752 337.069 20.8752C337.285 19.8418 337.513 18.8085 337.73 17.7752C337.513 17.673 337.263 17.6048 337.012 17.6048V17.5821Z" fill="#0066FF"/>
<path d="M333.1 17.585C333.66 17.585 334.114 17.1325 334.114 16.5743C334.114 16.0162 333.66 15.5637 333.1 15.5637C332.54 15.5637 332.086 16.0162 332.086 16.5743C332.086 17.1325 332.54 17.585 333.1 17.585Z" fill="#0066FF"/>
<path d="M335.078 10.2728C335.613 10.2728 336.047 9.84068 336.047 9.30763C336.047 8.77454 335.613 8.3424 335.078 8.3424C334.543 8.3424 334.109 8.77454 334.109 9.30763C334.109 9.84068 334.543 10.2728 335.078 10.2728Z" fill="#0066FF"/>
<path d="M332.5 22.3971C333.104 22.3971 333.594 21.909 333.594 21.3069C333.594 20.7049 333.104 20.2168 332.5 20.2168C331.896 20.2168 331.406 20.7049 331.406 21.3069C331.406 21.909 331.896 22.3971 332.5 22.3971Z" fill="#0066FF"/>
<path d="M56.4793 56.752C58.2111 57.193 58.2111 59.6531 56.4793 60.094L53.0118 60.9768C52.0818 61.2137 51.3556 61.9399 51.1187 62.8699L50.2359 66.3374C49.795 68.0692 47.3349 68.0692 46.8939 66.3374L46.011 62.8699C45.7743 61.9399 45.048 61.2137 44.1179 60.9768L40.6504 60.094C38.9186 59.6531 38.9186 57.193 40.6504 56.752L44.1179 55.8691C45.048 55.6324 45.7743 54.9061 46.011 53.976L46.8939 50.5085C47.3349 48.7767 49.795 48.7767 50.2359 50.5085L51.1187 53.976C51.3556 54.9061 52.0818 55.6324 53.0118 55.8691L56.4793 56.752Z" fill="white" stroke="black" stroke-width="0.89648"/>
<path d="M26.2344 72.0054L34.335 65.8573" stroke="#0066FF" stroke-width="0.89648" stroke-linecap="round" stroke-linejoin="round"/>
<path d="M26.25 46.0736L34.8407 51.5211" stroke="#0066FF" stroke-width="0.89648" stroke-linecap="round" stroke-linejoin="round"/>
<path d="M22.7891 58.7832L32.967 59.0843" stroke="#0066FF" stroke-width="0.89648" stroke-linecap="round" stroke-linejoin="round"/>
<path d="M301.526 82.5059C299.794 82.065 299.794 79.6049 301.526 79.164L304.993 78.281C305.924 78.0443 306.65 77.318 306.887 76.3879L307.77 72.9204C308.21 71.1887 310.671 71.1887 311.112 72.9204L311.994 76.3879C312.23 77.318 312.957 78.0443 313.887 78.281L317.355 79.164C319.087 79.6049 319.087 82.065 317.355 82.5059L313.887 83.3888C312.957 83.6256 312.23 84.3518 311.994 85.2819L311.112 88.7494C310.671 90.4815 308.21 90.4815 307.77 88.7494L306.887 85.2819C306.65 84.3518 305.924 83.6256 304.993 83.3887L301.526 82.5059Z" fill="white" stroke="black" stroke-width="0.89648"/>
<path d="M416.819 89.629L408.719 95.777" stroke="#0066FF" stroke-width="0.89648" stroke-linecap="round" stroke-linejoin="round"/>
<path d="M416.802 115.561L408.211 110.114" stroke="#0066FF" stroke-width="0.89648" stroke-linecap="round" stroke-linejoin="round"/>
<path d="M420.264 102.851L410.086 102.55" stroke="#0066FF" stroke-width="0.89648" stroke-linecap="round" stroke-linejoin="round"/>
</g>
</g>
<defs>
<clipPath id="clip0_504_24256">
<rect width="433" height="170.331" fill="white" transform="translate(0 -0.00563049)"/>
</clipPath>
</defs>
</svg>
