<svg xmlns="http://www.w3.org/2000/svg" width="433" height="171" fill="none">
    <g clip-path="url(#a)">
        <g clip-path="url(#b)">
            <g clip-path="url(#c)">
                <mask id="d" width="433" height="171" x="0" y="0" maskUnits="userSpaceOnUse"
                    style="mask-type:luminance">
                    <path fill="#fff" d="M433 .269H0v170.493h433V.269Z" />
                </mask>
                <g mask="url(#d)">
                    <path fill="#DDFFD5"
                        d="M74.555 50.28h283.891c16.254 0 29.45 17.243 29.45 38.482v64.356H45.104V88.762c0-21.24 13.196-38.482 29.45-38.482Z" />
                    <path fill="#FF55EB"
                        d="M73.418 30.902c1.014-.784 2.04-1.568 3.065-2.364l-3.065 2.364Z" />
                    <path fill="#FF55EB"
                        d="M73.418 30.902c1.014-.784 2.04-1.568 3.065-2.364l-3.065 2.364Zm-1.025-2.362c.74-.568 1.492-1.125 2.233-1.693l-2.233 1.693Z" />
                    <path fill="#FF55EB"
                        d="M72.393 28.54c.74-.568 1.492-1.125 2.233-1.693l-2.233 1.693Z" />
                    <path fill="#fff"
                        d="m135.027 43.145.034 2.797-.034-2.797Zm2.22 1.057c0 .477 0 .944-.011 1.42v-1.42h.011Zm-56.521-13.81c1.014-.785 2.04-1.569 3.065-2.365l-3.065 2.364ZM79.71 28.03c.742-.569 1.494-1.126 2.234-1.694l-2.233 1.694Zm-1.088-1.9c.376-.296.74-.591 1.117-.887l-1.117.887Z" />
                    <g fill="#06F" opacity=".75">
                        <path
                            d="m219.672 75.383 1.831 1.177c3.549 2.126 5.339 3.199 9.011 5.583a305.781 305.781 0 0 1 7.522 5.005.918.918 0 0 0 1.272-.258.928.928 0 0 0-.268-1.28l.848.568c.507.33 1.18.196 1.5-.3a1.1 1.1 0 0 0-.32-1.516c.382.258.755.505 1.137.753a1.212 1.212 0 0 0 1.676-.33 1.218 1.218 0 0 0-.362-1.682c-.269-.186-.548-.362-.817-.547a1.02 1.02 0 0 0 1.427-.29c.311-.474.166-1.124-.31-1.444l-4.728-3.148 1.521-.34a1.194 1.194 0 0 0 .9-1.445c-.155-.66-.807-1.073-1.448-.929l-3.714.826c-3.445-3.055-6.881-6.11-10.326-9.175l-19.481-17.255-8.835 12.777 21.964 13.26v-.01Z" />
                        <path
                            d="M242.689 82.547c-1.065-.681-2.131-1.373-3.197-2.054l3.197 2.054Zm-1.626 1.806a272.84 272.84 0 0 0-2.329-1.465l2.329 1.465Zm-2.027 1.26c-.392-.258-.785-.516-1.168-.774l1.168.774ZM177.321 19.75a15.955 15.955 0 0 0-5.193 2.714 1.006 1.006 0 0 1-.548.103c-2.163-.176-4.522-7.843-2.111-10.155 1.035-.99 2.297-.392 4.604-1.971 1.055-.722 1.438-1.29 2.017-1.837 3.021-2.869 9.746-3.715 13.337-.568.547.485 1.396 1.383 2.017 2.983 1.613-.723 2.462-.506 2.896-.258 1.904 1.042 1.884 5.624-.093 11.548-.31.165-.62.33-.942.495-1.251-.856-8.224-5.418-15.993-3.055h.009Zm11.109 21.103h-11.287v-10.33h11.287v10.33ZM172.337 28.4c-.187.04-1.81.381-3.053-.692-1.044-.908-1.675-2.694-.755-3.984.704-.98 2.111-1.383 3.425-.929" />
                        <path
                            d="M172.337 28.4c-.187.04-1.81.381-3.053-.692-1.044-.908-1.675-2.694-.755-3.984.704-.98 2.111-1.383 3.425-.929m20.983 5.605c.185.04 1.81.381 3.051-.692 1.046-.908 1.676-2.694.755-3.984-.702-.98-2.11-1.383-3.424-.929" />
                        <path
                            d="M192.937 28.4c.185.04 1.81.381 3.051-.692 1.046-.908 1.676-2.694.755-3.984-.702-.98-2.11-1.383-3.424-.929m-.391 3.817c0 5.727-4.656 10.371-10.398 10.371-5.743 0-10.398-4.644-10.398-10.371v-4.149c0-5.727 4.655-10.371 10.398-10.371 5.742 0 10.398 4.644 10.398 10.371v4.149Z" />
                        <path
                            d="M193.755 16.065c-1.779-4.53-7.924-7.142-13.149-6.182-.549.103-7.056 1.404-8.691 6.832-.744 2.456-.155 4.654.228 5.748a7.453 7.453 0 0 0 3.911-1.63 7.343 7.343 0 0 0 2.172-2.983c.145.485.435 1.125 1.035 1.569 1.19.898 2.845.433 4.438 0 1.159-.32 2.877-.96 4.728-2.302.352.93.962 2.312 1.956 3.84 1.117 1.713 1.914 2.93 2.565 2.806 1.118-.206 2.121-4.385.828-7.698h-.021Z" />
                        <path stroke="#06F" stroke-width=".902"
                            d="M198.667 23.502c-.425-8.077-7.186-14.437-15.161-14.411l-.021-.01h-.11c-8.202.085-14.981 6.891-14.981 15.188v.616h2.06v-.615c.031-7.357 6.119-13.262 13.19-13.182 6.698.08 12.453 5.508 12.858 12.461v.593h2.165v-.64Z" />
                        <path
                            d="M198.924 25.623a4.198 4.198 0 0 0-3.683-4.16v8.329a4.196 4.196 0 0 0 3.683-4.159v-.01Zm-31.771-.516a4.197 4.197 0 0 1 3.684-4.159v8.328c-2.07-.258-3.684-2.022-3.684-4.159v-.01Zm26.09-3.881v8.648c0 .547.445 1.001 1.003 1.001a.994.994 0 0 0 .993-1v-8.649a.992.992 0 0 0-.993-.99 1 1 0 0 0-1.003.99Zm-20.408 8.13v-8.648c0-.547-.445-1.001-1.003-1.001a.995.995 0 0 0-.993 1.001v8.648c0 .547.445.99.993.99a1 1 0 0 0 1.003-.99Zm12.757-1.606c.486-.02.869-.743.838-1.59-.031-.846-.455-1.527-.931-1.506-.486.02-.869.743-.838 1.589.031.846.455 1.527.931 1.507Zm.693-5.781c.714.227 2.835 1.796 2.08 2.56a.51.51 0 0 1-.745-.073 3.08 3.08 0 0 0-1.79-1.032c-1.107-.258-.621-1.878.455-1.465v.01Zm-9.07 1.474a.513.513 0 0 1-.734-.134c-.518-.939 1.955-1.888 2.7-1.909 1.148-.103 1.169 1.579.031 1.527a3.158 3.158 0 0 0-1.997.506v.01Zm1.234 3.653c.486-.02.87-.743.838-1.589-.03-.846-.454-1.527-.931-1.507-.486.021-.868.744-.838 1.59.032.846.456 1.527.942 1.496l-.011.01Zm5.652 2.696a27 27 0 0 0-2.028.155c.083-1.992.176-4.025.259-6.068" />
                        <path
                            d="M182.489 23.649c.072-.196.413-.114.31.072l-1.262 5.377-.279-.392 1.831.258c.424.072.352.722-.072.65l-1.831-.258c-.187 0-.331-.227-.28-.392l1.572-5.305.011-.01Zm-2.548 7.585c.021 1.166.973 2.054 2.017 2.033.901-.02 1.718-.702 1.904-1.672l-3.921-.371v.01Zm-8.171 15.884c-.062.34.238.65.621.65h20.485c.382 0 .683-.31.621-.65l-1.222-6.44c-.051-.268-.31-.464-.62-.464h-18.043c-.31 0-.569.196-.621.464l-1.221 6.44Zm3.73 105.179c8.039 0 14.609 6.14 15.22 13.921h-30.449c.611-7.781 7.191-13.921 15.22-13.921h.009Z" />
                        <path
                            d="M184.117 86.6c-.455-7.09-5.669-12.529-11.876-12.394-6.177.134-11.205 5.748-11.453 12.817-.891 24.489-1.801 48.978-2.69 73.467l30.706-.66-4.687-73.23Zm42.561 58.532c6.858-4.179 15.673-2.363 20.267 3.963l-25.978 15.841c-3.549-6.955-1.149-15.614 5.711-19.794v-.01Z" />
                        <path
                            d="M200.668 83.558c-4.097-5.81-11.39-7.75-16.615-4.396-5.204 3.323-6.549 10.743-3.073 16.904 12.043 21.351 24.075 42.724 36.117 64.076l25.864-16.543-42.293-60.041Z" />
                        <path
                            d="M163.474 47.749c-1.79 18.266-3.591 36.522-5.38 54.788 16.563-.258 33.127-.505 49.69-.763-1.396-9.876-2.793-19.763-4.21-29.64-1.19-8.317-2.39-16.635-3.601-24.943l-36.51.558h.011Z" />
                        <path
                            d="M163.67 47.749c-1.862 18.266-3.714 36.522-5.576 54.788 17.174-.258 34.338-.505 51.511-.763a9446.09 9446.09 0 0 0-4.366-29.64 9517.41 9517.41 0 0 0-3.734-24.943l-37.835.558Zm41.476 75.718c-.641.743-1.294 1.486-1.945 2.239l1.945-2.239Zm1.115 1.62c-.475.537-.941 1.073-1.417 1.61l1.417-1.61Zm1.105 1.257c-.238.278-.466.557-.704.836l.704-.836Z" />
                        <path
                            d="M194.191 54.601c.073-2.002 1.738-4.571 4.128-6.44 5.349-4.169 13.553 1.6 24.675 11.27-4.915 6.368-6.498 8.339-11.401 14.706-6.694-4.376-11.111-7.482-13.812-10.392M176.936 48.51c.558-.846 1.075-1.661 1.634-2.508l2.855-1.991m-2.09 5.245 1.614-1.95 2.855-1.992m-2.757 5.334 1.273-1.517c.63-.434 1.262-.857 1.882-1.29m-1.811 4.261c.32-.34.63-.65.951-.99.507-.382 1.045-.713 1.552-1.094" />
                        <path
                            d="M179.084 45.55c-.383.63-.766 1.26-1.148 1.9l1.148-1.9Zm-24.593-14.882 8.121 24.376 14.588-6.027-12.622-22.766c-2.235-4.024-4.48-8.05-6.714-12.074l1.644-3.488a1.216 1.216 0 0 0-.589-1.62 1.223 1.223 0 0 0-1.625.588l-.673 1.424-2.037-5.315a1.052 1.052 0 0 0-1.355-.598 1.06 1.06 0 0 0-.611 1.352c-.114-.31-.238-.62-.352-.919a1.22 1.22 0 0 0-1.583-.702c-.63.238-.952.95-.703 1.58.165.422.321.846.487 1.269a1.086 1.086 0 0 0-1.418-.63 1.09 1.09 0 0 0-.631 1.414l.362.95a.934.934 0 0 0-1.2-.537.932.932 0 0 0-.539 1.197 383.083 383.083 0 0 1 3.239 8.452c1.521 4.118 2.183 6.099 3.476 10.03l.745 2.044h-.01Z" />
                        <path
                            d="M153.931 10.101a2922.7 2922.7 0 0 1-1.303-3.58l1.303 3.58Zm-2.531.238c-.3-.867-.61-1.734-.921-2.6l.921 2.6Zm-2.126.451c-.166-.433-.331-.877-.507-1.31l.507 1.31Zm23.416 50.805c-6.756 1.414-11.629-7.368-17.433-20.929 7.346-3.57 9.674-4.654 17.019-8.225 8.276 13.715 10.48 18.917 7.076 25.17-.972 1.776-3.641 3.355-6.662 3.984Z" />
                        <path
                            d="M172.69 61.595c-6.756 1.414-11.629-7.368-17.433-20.929 7.346-3.57 9.674-4.654 17.019-8.225 4.097 6.79 6.704 11.497 7.884 15.264" />
                    </g>
                    <path fill="#000"
                        d="M187.998 19.185a15.953 15.953 0 0 0-5.193 2.714 1.008 1.008 0 0 1-.549.103c-2.162-.175-4.521-7.843-2.11-10.154 1.034-.991 2.296-.393 4.604-1.972 1.055-.722 1.438-1.29 2.017-1.836 3.021-2.87 9.746-3.716 13.336-.568.548.485 1.397 1.383 2.017 2.982 1.614-.722 2.463-.505 2.897-.258 1.903 1.043 1.883 5.625-.093 11.548-.31.165-.621.33-.942.496-1.251-.857-8.224-5.418-15.994-3.055h.01Z" />
                    <path fill="#fff" stroke="#000" stroke-linecap="round" stroke-linejoin="round"
                        stroke-width=".902" d="M199.114 40.296h-11.287v-10.33h11.287v10.33Z" />
                    <path fill="#fff"
                        d="M183.013 27.843c-.186.04-1.81.381-3.052-.692-1.045-.908-1.676-2.693-.755-3.983.703-.98 2.11-1.383 3.424-.93" />
                    <path stroke="#000" stroke-linecap="round" stroke-linejoin="round"
                        stroke-width=".902"
                        d="M183.013 27.843c-.186.04-1.81.381-3.052-.692-1.045-.908-1.676-2.693-.755-3.983.703-.98 2.11-1.383 3.424-.93" />
                    <path fill="#fff"
                        d="M203.621 27.843c.186.04 1.811.381 3.052-.692 1.044-.908 1.676-2.693.755-3.983-.704-.98-2.11-1.383-3.424-.93" />
                    <path stroke="#000" stroke-linecap="round" stroke-linejoin="round"
                        stroke-width=".902"
                        d="M203.621 27.843c.186.04 1.811.381 3.052-.692 1.044-.908 1.676-2.693.755-3.983-.704-.98-2.11-1.383-3.424-.93" />
                    <path fill="#fff" stroke="#000" stroke-linecap="round" stroke-linejoin="round"
                        stroke-width=".902"
                        d="M203.604 26.055c0 5.728-4.655 10.372-10.398 10.372-5.742 0-10.397-4.644-10.397-10.372v-4.148c0-5.728 4.655-10.372 10.397-10.372 5.743 0 10.398 4.644 10.398 10.372v4.148Z" />
                    <path fill="#000"
                        d="M204.425 15.5c-1.779-4.531-7.925-7.142-13.149-6.182-.549.103-7.056 1.403-8.691 6.832-.744 2.456-.155 4.654.228 5.748a7.454 7.454 0 0 0 3.911-1.63 7.343 7.343 0 0 0 2.172-2.983c.145.485.435 1.125 1.035 1.568 1.189.898 2.845.434 4.438 0 1.159-.32 2.877-.96 4.729-2.301.351.929.961 2.312 1.954 3.839 1.118 1.713 1.915 2.93 2.566 2.807 1.118-.206 2.121-4.386.828-7.699h-.021Z" />
                    <path fill="#FC0" stroke="#FC0" stroke-width=".902"
                        d="M193.015 8.976c-7.956.082-14.536 6.687-14.536 14.736v.166h1.159v-.166c.03-7.605 6.321-13.715 13.646-13.632 6.942.082 12.89 5.707 13.304 12.9v.154h1.262v-.165c-.413-7.874-7.034-14.066-14.814-13.983l-.021-.01Z" />
                    <path fill="#08F8C3"
                        d="M209.601 25.067c0-2.136-1.603-3.9-3.682-4.159v8.328a4.196 4.196 0 0 0 3.682-4.159v-.01Zm-32.796-.528a4.199 4.199 0 0 1 3.683-4.16v8.33c-2.069-.259-3.683-2.024-3.683-4.16v-.01Z" />
                    <path fill="#B5FFEF"
                        d="M203.921 20.67v8.647c0 .547.445 1.002 1.003 1.002a.994.994 0 0 0 .993-1.002V20.67a.992.992 0 0 0-.993-.99 1 1 0 0 0-1.003.99Zm-21.451 8.132v-8.658c0-.547-.445-1.001-1.003-1.001a.995.995 0 0 0-.994 1v8.649c0 .547.445.99.994.99a1 1 0 0 0 1.003-.99v.01Z" />
                    <path fill="#000"
                        d="M196.262 27.193c.486-.02.869-.743.838-1.59-.031-.845-.455-1.527-.931-1.506-.486.02-.869.743-.838 1.59.031.846.455 1.527.931 1.506Zm.693-5.781c.714.227 2.835 1.796 2.08 2.56a.51.51 0 0 1-.745-.073 3.08 3.08 0 0 0-1.79-1.032c-1.107-.258-.621-1.878.455-1.465v.01Zm-9.066 1.475a.513.513 0 0 1-.734-.134c-.518-.94 1.954-1.889 2.7-1.91 1.148-.103 1.169 1.58.031 1.528a3.158 3.158 0 0 0-1.997.506v.01Zm1.245 3.653c.486-.02.869-.743.838-1.59-.031-.846-.456-1.527-.931-1.506-.486.02-.87.743-.838 1.59.031.845.455 1.526.942 1.495l-.011.01Z" />
                    <path fill="#fff"
                        d="M194.788 29.235a27.28 27.28 0 0 0-2.027.155c.082-1.991.176-4.024.258-6.068" />
                    <path fill="#000"
                        d="M193.173 23.093c.073-.196.414-.113.311.073l-1.263 5.376-.278-.392 1.831.258c.424.072.352.722-.073.65l-1.831-.258c-.186 0-.331-.227-.279-.392l1.572-5.305.01-.01Z" />
                    <path stroke="#000" stroke-miterlimit="10" stroke-width=".451"
                        d="M190.618 30.677c.021 1.166.973 2.054 2.017 2.033.9-.02 1.718-.701 1.904-1.671l-3.921-.372v.01Z" />
                    <path fill="#FFE067" stroke="#000" stroke-linecap="round"
                        stroke-linejoin="round" stroke-width=".902"
                        d="M182.454 46.561c-.062.34.239.65.621.65h20.485c.383 0 .683-.31.62-.65l-1.22-6.44c-.052-.268-.311-.464-.621-.464h-18.043c-.311 0-.569.196-.621.465l-1.221 6.44Z" />
                    <path fill="#06F" stroke="#000" stroke-linecap="round" stroke-linejoin="round"
                        stroke-width=".902"
                        d="M186.16 151.737c8.039 0 14.608 6.141 15.219 13.921h-30.448c.61-7.78 7.19-13.921 15.219-13.921h.01Z" />
                    <path fill="#FC0" stroke="#000" stroke-linecap="round" stroke-linejoin="round"
                        stroke-width=".902"
                        d="M194.798 86.044c-.456-7.09-5.67-12.528-11.878-12.394-6.175.134-11.204 5.748-11.452 12.817-.89 24.489-1.8 48.979-2.69 73.468l30.706-.661-4.686-73.23Z" />
                    <path fill="#06F" stroke="#000" stroke-linecap="round" stroke-linejoin="round"
                        stroke-width=".902"
                        d="M206.164 151.737c8.038 0 14.608 6.141 15.219 13.921h-30.448c.61-7.78 7.19-13.921 15.219-13.921h.01Z" />
                    <path fill="#FC0" stroke="#000" stroke-linecap="round" stroke-linejoin="round"
                        stroke-width=".902"
                        d="M216.172 85.672c-.455-7.09-5.669-12.528-11.878-12.394-6.175.124-11.203 5.748-11.462 12.817-.89 24.489-1.8 48.979-2.69 73.468l30.716-.661-4.686-73.23Z" />
                    <path fill="#FFE067"
                        d="M174.157 47.18c-1.789 18.267-3.589 36.523-5.379 54.789 16.563-.258 33.128-.506 49.691-.764-1.397-9.876-2.793-19.763-4.211-29.639a9955.2 9955.2 0 0 0-3.6-24.943l-36.51.557h.009Z" />
                    <path stroke="#000" stroke-linecap="round" stroke-miterlimit="10"
                        stroke-width=".902"
                        d="M174.157 47.18c-1.789 18.267-3.589 36.523-5.379 54.789 16.563-.258 33.128-.506 49.691-.764-1.397-9.876-2.793-19.763-4.211-29.639a9955.2 9955.2 0 0 0-3.6-24.943l-36.51.557h.009Z" />
                    <path fill="#fff"
                        d="M215.816 122.91c-.641.743-1.294 1.486-1.945 2.24l1.945-2.24Zm1.129 1.621c-.476.536-.942 1.073-1.418 1.61l1.418-1.61Zm1.103 1.257c-.237.278-.465.557-.702.835l.702-.835Z" />
                    <path fill="#fff" stroke="#000" stroke-linecap="round" stroke-miterlimit="10"
                        stroke-width=".902"
                        d="m215.534 80.93.92 1.97c1.873 3.705 2.804 5.573 4.646 9.556a366.295 366.295 0 0 1 3.693 8.267.928.928 0 0 0 1.231.464.935.935 0 0 0 .476-1.228l.413.929c.249.557.901.805 1.449.557a1.09 1.09 0 0 0 .559-1.445c.186.413.372.826.559 1.249a1.225 1.225 0 0 0 1.614.619c.62-.268.889-1.001.62-1.61a98.323 98.323 0 0 1-.403-.908 1.05 1.05 0 0 0 1.386.526c.527-.237.766-.856.527-1.383l-2.317-5.19 1.49.536a1.222 1.222 0 0 0 1.563-.732 1.222 1.222 0 0 0-.736-1.56l-3.63-1.31c-1.262-4.427-2.535-8.854-3.797-13.281l-7.181-25.016-14.597 6.007 11.504 22.982h.011Zm-64.592-40.878 14.577 21.176 12.332-9.824-18.456-18.39c-3.27-3.251-6.539-6.492-9.809-9.743l.611-3.808a1.222 1.222 0 0 0-1.014-1.393 1.224 1.224 0 0 0-1.396 1.012l-.249 1.558-3.434-4.54a1.064 1.064 0 0 0-1.47-.207 1.058 1.058 0 0 0-.207 1.465 22.773 22.773 0 0 0-.599-.784 1.235 1.235 0 0 0-1.718-.237 1.216 1.216 0 0 0-.238 1.713c.28.36.548.722.828 1.083a1.105 1.105 0 0 0-1.542-.216 1.098 1.098 0 0 0-.217 1.537l.61.815a.95.95 0 0 0-1.304-.185.935.935 0 0 0-.186 1.3 416.343 416.343 0 0 1 5.462 7.224c2.608 3.53 3.787 5.253 6.126 8.679l1.282 1.765h.011Z" />
                    <path stroke="#000" stroke-linecap="round" stroke-linejoin="round"
                        stroke-width=".902"
                        d="M144.675 20.444c-.745-1.021-1.5-2.043-2.255-3.075m-.106 4.013a482.006 482.006 0 0 0-1.614-2.24m-.293 3.25c-.279-.372-.569-.744-.848-1.125" />
                    <path fill="#FFE067"
                        d="M212.24 46.521c6.87-.64 10.718 8.648 14.929 22.766-7.707 2.714-10.138 3.52-17.846 6.233-6.652-14.571-8.256-19.99-4.149-25.81 1.159-1.651 4.004-2.92 7.077-3.199l-.011.01Z" />
                    <path stroke="#000" stroke-linecap="round" stroke-miterlimit="10"
                        stroke-width=".902"
                        d="M205.156 49.72c1.159-1.65 4.004-2.92 7.077-3.199 6.869-.64 10.718 8.648 14.928 22.766-7.707 2.714-10.138 3.52-17.846 6.233-3.331-7.286-5.389-12.28-6.114-16.181" />
                    <path fill="#FFE067"
                        d="M177.018 64.746c-6.094 3.23-13.222-3.86-22.564-15.283 6.062-5.46 7.997-7.142 14.07-12.611 11.763 10.887 15.333 15.273 13.791 22.218-.435 1.971-2.566 4.232-5.297 5.666v.01Z" />
                    <path stroke="#000" stroke-linecap="round" stroke-miterlimit="10"
                        stroke-width=".902"
                        d="M177.018 64.746c-6.094 3.23-13.222-3.86-22.564-15.283 6.062-5.46 7.997-7.142 14.07-12.611 5.825 5.387 9.632 9.184 11.815 12.487" />
                    <path stroke="#000" stroke-linecap="round" stroke-linejoin="round"
                        stroke-width=".902"
                        d="M231.303 99.35c-.537-1.145-1.065-2.301-1.603-3.457m-.773 4.103c-.393-.835-.786-1.66-1.19-2.487m-1.238 2.458c-.197-.424-.383-.857-.58-1.28" />
                    <path fill="#fff" stroke="#000" stroke-linecap="round" stroke-linejoin="round"
                        stroke-width=".902"
                        d="m327.005 58.463 14.721-1.873-1.877-14.685-14.722 1.873 1.878 14.685Z" />
                    <path fill="#FFCC02" stroke="#000" stroke-linecap="round"
                        stroke-linejoin="round" stroke-width=".902"
                        d="m325.036 49.416-.27 6.842a.572.572 0 0 0 .652.601l9.038-1.152.783-.1 9.048-1.152c.352-.04.582-.4.482-.741l-1.978-6.561a.582.582 0 0 0-.633-.411l-7.923 1.012-.783.1-7.923 1.011a.58.58 0 0 0-.513.551h.02Z" />
                    <path fill="#fff"
                        d="M319.582 36.772c-.231.04-2.149.41-3.565-.882-1.205-1.091-1.898-3.195-.783-4.678.843-1.131 2.5-1.562 4.037-1.001" />
                    <path stroke="#000" stroke-linecap="round" stroke-linejoin="round"
                        stroke-width=".902"
                        d="M319.582 36.772c-.231.04-2.149.41-3.565-.882-1.205-1.091-1.898-3.195-.783-4.678.843-1.131 2.5-1.562 4.037-1.001" />
                    <path stroke="#020202" stroke-linecap="round" stroke-linejoin="round"
                        stroke-width=".902"
                        d="M325.363 6.515c2.983-1.994 6.618-2.214 8.716-.762 1.366.922 1.738 2.314 1.859 2.985" />
                    <path fill="#06F" stroke="#000" stroke-linecap="round" stroke-linejoin="round"
                        stroke-width=".902"
                        d="M309.749 127.842c2.902-10.548 5.804-21.096 8.717-31.634l45.942-6.861 11.991 22.027c-22.224 5.489-44.427 10.978-66.65 16.468Z" />
                    <path fill="#FFCC02"
                        d="m312.39 56.132 41.393-5.049 18.849 45.848c-20.657 1.833-41.313 3.656-61.97 5.489.582-15.426 1.155-30.862 1.738-46.288h-.01Z" />
                    <path stroke="#000" stroke-linecap="round" stroke-linejoin="round"
                        stroke-width=".902"
                        d="m312.39 56.132 41.393-5.049 18.849 45.848c-20.657 1.833-41.313 3.656-61.97 5.489.582-15.426 1.155-30.862 1.738-46.288h-.01Z" />
                    <path fill="#06F" stroke="#000" stroke-linecap="round" stroke-linejoin="round"
                        stroke-width=".902"
                        d="M276.551 131.497c-5.604-2.755-8.436-9.116-6.708-15.116l.069-.21c1.728-6.01 7.512-9.907 13.748-9.276l71.791 7.363-7.01 24.371-.07.221-7.009 24.38-64.792-31.714h-.019v-.019Z" />
                    <path stroke="#fff" stroke-linecap="round" stroke-linejoin="round"
                        stroke-width=".902"
                        d="M339.133 137.305c-18.648-5.799-37.315-11.599-55.964-17.389m51.398 32.726 9.811-32.907" />
                    <path fill="#08F8C3" stroke="#000" stroke-linecap="round"
                        stroke-linejoin="round" stroke-width=".902"
                        d="M353.466 163.941h-45.19c.844-11.61 10.635-20.775 22.595-20.775 11.961 0 21.752 9.175 22.595 20.775Zm47.567-5.499h-45.189c.843-11.61 10.634-20.775 22.594-20.775s21.751 9.165 22.595 20.775Z" />
                    <path fill="#06F" stroke="#000" stroke-linecap="round" stroke-linejoin="round"
                        stroke-width=".902"
                        d="M382.682 93.6a12.95 12.95 0 0 1 16.449 1.533l.16.16a12.857 12.857 0 0 1 1.436 16.478l-41.373 58.99-17.935-17.96-.161-.16-17.935-17.96 59.299-41.04s.039-.03.06-.05v.01Z" />
                    <path stroke="#fff" stroke-linecap="round" stroke-linejoin="round"
                        stroke-width=".902"
                        d="M347.095 145.368c14.149-13.433 28.308-26.885 42.457-40.318m-53.677 28.879 24.05 24.551" />
                    <path fill="#fff" stroke="#000" stroke-linecap="round" stroke-linejoin="round"
                        stroke-width=".902"
                        d="m315.174 19.896 4.921 20.715c.833 3.526 4.378 5.7 7.903 4.868l10.936-2.584c3.524-.832 5.714-4.368 4.87-7.884l-4.921-20.715c-.833-3.526-4.378-5.7-7.903-4.868l-10.936 2.584c-3.524.832-5.714 4.368-4.87 7.884Z" />
                    <path fill="#000"
                        d="M333.608 29.954c.622-.15.923-1.152.663-2.244-.262-1.092-.975-1.853-1.597-1.703-.623.15-.914 1.152-.663 2.244.261 1.092.974 1.853 1.597 1.703Zm-1.113-5.157c-1.475-.02-1.275-2.234.171-2.014.984.1 4.148 1.563 3.364 2.755a.672.672 0 0 1-.964.12 4.071 4.071 0 0 0-2.571-.852v-.01Zm-8.635 6.217c.623-.15.924-1.152.663-2.244-.26-1.092-.974-1.853-1.596-1.703-.623.15-.914 1.152-.663 2.244.261 1.091.974 1.853 1.596 1.703Zm-.405-7.603c1.828-.771 2.822 1.903.894 2.374-1.155.24-2.27.852-3.053 1.793-.25.31-.733.411-1.115.23-1.787-1.121 2.049-3.986 3.295-4.397h-.021Z" />
                    <path fill="#fff"
                        d="M331.709 33.632c-.873.18-1.747.35-2.61.541-.202-2.654-.392-5.299-.593-7.953" />
                    <path fill="#000"
                        d="M328.274 26.215c-.021-.31.452-.34.491-.03l.814 7.934-.573-.421 2.612-.541c.602-.11.793.801.19.922l-2.611.54c-.271.07-.563-.14-.572-.42l-.361-7.964.01-.02Z" />
                    <path fill="#fff"
                        d="M341.859 31.326c.231-.02 2.17-.2 3.184-1.833.853-1.373.933-3.596-.543-4.718-1.124-.852-2.842-.812-4.157.15" />
                    <path stroke="#000" stroke-linecap="round" stroke-linejoin="round"
                        stroke-width=".902"
                        d="M341.859 31.326c.231-.02 2.17-.2 3.184-1.833.853-1.373.933-3.596-.543-4.718-1.124-.852-2.842-.812-4.157.15" />
                    <path fill="#fff"
                        d="M318.855 13.898c-1.606-.27-3.153.46-3.776 1.723-.824 1.663.251 3.606 1.627 4.457 1.637 1.012 3.445.3 3.656.22" />
                    <path stroke="#000" stroke-linecap="round" stroke-linejoin="round"
                        stroke-width=".902"
                        d="M318.855 13.898c-1.606-.27-3.153.46-3.776 1.723-.824 1.663.251 3.606 1.627 4.457 1.637 1.012 3.445.3 3.656.22" />
                    <path fill="#020202"
                        d="M333.525 16.05a16.99 16.99 0 0 1-3.193 3.255c-5.162 3.957-11.228 3.687-13.366 3.496.08 1.613.723 4.949.803 6.562l-1.848.84c-.261-.28-5.442-8.233-3.434-14.624.17-.53 2.119-6.41 7.431-7.422 2.33-.451 4.318.23 5.332.67.171-.15 3.806-3.125 7.702-1.662 1.647.621 2.661 1.773 3.144 2.434.1-.09 1.204-.982 2.631-.621 1.034.26 2.52.831 3.132 3.506 1.246 5.49 1.115 7.463.845 11.029-.372.18-1.487.66-1.849.841-.722-.03 0 0-4.348-3.937-2.51-2.754-2.771-3.696-2.952-4.357l-.03-.01Z" />
                    <path fill="#fff"
                        d="m343.825 116.931-3.103 5.098c-.553.892-.261 2.044.633 2.595.893.551 2.058.26 2.601-.631l1.275-2.094" />
                    <path stroke="#000" stroke-linecap="round" stroke-linejoin="round"
                        stroke-width=".902"
                        d="m343.825 116.931-3.103 5.098c-.553.892-.261 2.044.633 2.595.893.551 2.058.26 2.601-.631l1.275-2.094" />
                    <path fill="#fff" stroke="#000" stroke-linecap="round" stroke-linejoin="round"
                        stroke-width=".902"
                        d="m343.099 118.204-.272 7.953c.734 1.242 1.456 2.504 2.18 3.766.129.222.291.401.471.532.402.29 1.186.491 1.758.049.532-.41.692-1.242.291-1.923.472.862.894 1.543 1.195 2.024.12.18.241.37.472.531.421.29 1.175.451 1.747.05.603-.401.824-1.263.472-1.993.542.35 1.235.38 1.757.049.633-.4.914-1.242.613-1.993.372.851 1.366 1.202 2.099.832.632-.321.964-1.102.733-1.853-.382-.701-.753-1.413-1.135-2.104.392-2.284.794-4.568 1.195-6.851 5.031-4.759 10.063-9.506 15.094-14.255l4.488-4.467c.613-.591 2.38-2.455 2.812-5.45a9.383 9.383 0 0 0-.542-4.668l-7.482-25.994-10.474 4.258-10.232 4.157 10.514 19.983c-4.781 7.273-9.54 14.555-14.32 21.838-1.145 1.823-2.27 3.666-3.414 5.489v.04h-.02Z" />
                    <path fill="#fff" d="M345.896 119.597v5.5l1.627 3.445" />
                    <path stroke="#000" stroke-linecap="round" stroke-linejoin="round"
                        stroke-width=".902" d="M345.896 119.597v5.5l1.627 3.445" />
                    <path fill="#fff" d="M349.455 121.067v4.679c.652 1.152 1.315 2.284 1.968 3.425" />
                    <path stroke="#000" stroke-linecap="round" stroke-linejoin="round"
                        stroke-width=".902"
                        d="M349.455 121.067v4.679c.652 1.152 1.315 2.284 1.968 3.425" />
                    <path fill="#fff"
                        d="M352.588 122.039c0 .911.021 1.813.021 2.704.391.821.773 1.653 1.154 2.475" />
                    <path stroke="#000" stroke-linecap="round" stroke-linejoin="round"
                        stroke-width=".902"
                        d="M352.588 122.039c0 .911.021 1.813.021 2.704.391.821.773 1.653 1.154 2.475" />
                    <path fill="#FFCC02"
                        d="M353.066 89.454c9.399-4.307 18.809-8.605 28.208-12.902-3.956-15.666-13.205-26.224-22.675-26.465-1.014-.02-4.78-.07-7.822 2.364-6.809 5.46-6.377 20.455 2.278 37.013l.011-.01Z" />
                    <path stroke="#000" stroke-linecap="round" stroke-linejoin="round"
                        stroke-width=".902"
                        d="M346.411 69.844c.783 5.85 2.982 12.6 6.658 19.623 9.399-4.308 18.809-8.605 28.208-12.902-3.957-15.667-13.205-26.224-22.675-26.465-1.014-.02-4.78-.07-7.823 2.364a10.174 10.174 0 0 0-2.319 2.645" />
                    <path stroke="#020202" stroke-linecap="round" stroke-linejoin="round"
                        stroke-width=".902"
                        d="M335.991 9.23c.261-.19 2.953-2.203 4.82-1.282 1.919.942 2.862 4.939.583 9.236" />
                    <path fill="#06F"
                        d="m337.31 27.33-7.327 1.042.545 3.808 7.327-1.043-.545-3.808Zm-9.906 1.706-7.327 1.043.545 3.808 7.327-1.043-.545-3.808Z"
                        opacity=".6" />
                    <path stroke="#000" stroke-linecap="round" stroke-linejoin="round"
                        stroke-width=".902"
                        d="m341.371 23.31-4.358 4.648m-20.519 1.523 4.428 2.114m5.847-.968a3.6 3.6 0 0 1 1.958-1.392c1.366-.38 2.491.2 2.712.33" />
                    <path fill="#fff" stroke="#000" stroke-linecap="round" stroke-linejoin="round"
                        stroke-width=".902"
                        d="M256.784 65.303c.502-.47 1.315-.45 1.777.04l-.954-.992a1.483 1.483 0 0 1 .05-2.093 1.491 1.491 0 0 1 2.099.05l-1.275-1.332a1.646 1.646 0 0 1 .06-2.334c.653-.632 1.707-.601 2.339.05.313.31.614.65.925.961a1.398 1.398 0 0 1 .05-1.993 1.407 1.407 0 0 1 1.999.05l5.311 5.57.091-2.134a1.65 1.65 0 0 1 1.727-1.573 1.65 1.65 0 0 1 1.577 1.723l-.241 5.199c4.89 3.866 9.781 7.713 14.671 11.58l11.87-10.959 5.764 7.723 5.894 7.893-20.385 11.991a7.262 7.262 0 0 1-9.801-1.713l-3.605-4.187a492.059 492.059 0 0 0-11.548-12.882c-2.832-3.045-5.654-6-8.455-8.855a1.269 1.269 0 0 1 .039-1.773l.021-.02v.01Z" />
                    <path stroke="#000" stroke-linecap="round" stroke-linejoin="round"
                        stroke-width=".902"
                        d="M261.812 59.673c1.416 1.442 2.842 2.885 4.257 4.327m-6.307-1.69c1.034 1.011 2.078 2.023 3.113 3.045m-4.319.002 1.486 1.363" />
                    <path fill="#FFCC02"
                        d="M284.057 70.163c6.637 7.913 13.265 15.837 19.903 23.75 14.12-7.933 21.882-19.613 19.632-28.779-.24-.981-1.185-4.617-4.348-6.901-7.069-5.119-21.47-.752-35.197 11.94l.01-.01Z" />
                    <path stroke="#000" stroke-linecap="round" stroke-linejoin="round"
                        stroke-width=".902"
                        d="M319.244 58.22c-7.069-5.119-21.47-.751-35.197 11.94 6.637 7.913 13.265 15.837 19.903 23.75 6.276-3.526 11.307-7.803 14.752-12.26" />
                    <path stroke="#000" stroke-linecap="round" stroke-linejoin="round"
                        stroke-width=".451"
                        d="M327.696 37.337c1.938-.38 3.866-.751 5.804-1.132.211 1.503-.653 2.905-1.918 3.346-1.516.52-3.384-.42-3.886-2.204v-.01Z" />
                    <path fill="#000"
                        d="m279.461 21.594 1.31-7.81a1.251 1.251 0 0 0-1.03-1.44l-.745-.125a1.254 1.254 0 0 0-1.443 1.03l-1.31 7.81a1.25 1.25 0 0 0 1.029 1.44l.745.124a1.256 1.256 0 0 0 1.444-1.029Z" />
                    <path stroke="#000" stroke-linecap="round" stroke-width=".902"
                        d="m265.12 15.967 1.802 5.886" />
                    <path fill="#FF55EB"
                        d="m263.706 12.165.882-.234c2.091-.555 4.258.677 4.827 2.767l.202.735-8.494 2.255-.202-.735a3.893 3.893 0 0 1 2.785-4.788Z" />
                    <path stroke="#000" stroke-linecap="round" stroke-width=".902"
                        d="m288.243 25.404 3.612-4.987" />
                    <path fill="#FF55EB"
                        d="m295.501 22.714-.422.622-7.288-4.876.422-.622a3.97 3.97 0 0 1 5.468-1.063l.757.51c1.803 1.204 2.283 3.646 1.063 5.429Z" />
                    <path fill="#06F" stroke="#000" stroke-linecap="round" stroke-width=".902"
                        d="M291.912 38.645c1.875-8.95-3.907-17.737-12.915-19.624-9.006-1.887-17.854 3.854-19.731 12.819-1.878 8.965 3.908 17.737 12.914 19.624 9.025 1.875 17.854-3.855 19.732-12.82Z" />
                    <path fill="#fff"
                        d="M286.651 37.545c1.265-6.087-2.65-12.054-8.774-13.332-6.124-1.277-12.118 2.618-13.398 8.702-1.279 6.083 2.65 12.054 8.774 13.332 6.124 1.277 12.119-2.618 13.398-8.702Z" />
                    <path stroke="#000" stroke-linecap="round" stroke-width=".902"
                        d="m276.745 28.117-1.202 7.205m.389 1.097 2.975 3.433" />
                    <path fill="#06F"
                        d="M277.342 35.891a1.853 1.853 0 0 0-1.443-2.192c-1.006-.207-2.004.434-2.212 1.44a1.852 1.852 0 0 0 1.442 2.191 1.873 1.873 0 0 0 2.213-1.439Z" />
                    <path fill="#FF55EB"
                        d="m273.575 12.323 11.287 1.877a1.816 1.816 0 0 0 2.089-1.49l.18-1.072a1.81 1.81 0 0 0-1.49-2.084l-11.286-1.877a1.817 1.817 0 0 0-2.09 1.49l-.179 1.072a1.809 1.809 0 0 0 1.489 2.084Z" />
                    <path fill="#fff" stroke="#000" stroke-width=".902"
                        d="M378.286 24.906c-1.743.444-1.743 2.92 0 3.363l3.489.888c.936.238 1.667.97 1.905 1.905l.889 3.49c.443 1.742 2.919 1.742 3.363 0l.887-3.49a2.638 2.638 0 0 1 1.905-1.905l3.49-.888c1.743-.444 1.743-2.92 0-3.363l-3.49-.889a2.638 2.638 0 0 1-1.905-1.904l-.887-3.49c-.444-1.742-2.92-1.742-3.363 0l-.889 3.49a2.637 2.637 0 0 1-1.905 1.904l-3.489.889Z" />
                    <path stroke="#06F" stroke-linecap="round" stroke-linejoin="round"
                        stroke-width=".902"
                        d="m408.846 40.523-8.101-6.154m8.081-19.803-8.591 5.453m12.057 7.269-10.179.302" />
                    <path fill="#fff" stroke="#000" stroke-width=".902"
                        d="M46.913 79.933c1.742.444 1.742 2.92 0 3.363l-3.49.888a2.637 2.637 0 0 0-1.905 1.905l-.888 3.49c-.444 1.743-2.92 1.743-3.363 0l-.888-3.49a2.637 2.637 0 0 0-1.905-1.904l-3.49-.889c-1.742-.444-1.742-2.92 0-3.363l3.49-.888a2.637 2.637 0 0 0 1.905-1.905l.888-3.49c.444-1.742 2.92-1.742 3.363 0l.888 3.49a2.64 2.64 0 0 0 1.905 1.905l3.49.888Z" />
                    <path stroke="#06F" stroke-linecap="round" stroke-linejoin="round"
                        stroke-width=".902"
                        d="m15.98 93.944 8.1-6.154m-8.082-19.802 8.59 5.453m-12.055 7.268 10.178.301" />
                    <path fill="#FF55EB"
                        d="m41.314 152.503-24.22-22.153c6.183-5.666 15.844-5.73 22.209.085 6.365 5.827 7.136 15.431 2.011 22.068ZM73.32 27.468c2.086-4.493 5.145-4.845 11.008-5.101 6.675-.288 13.051 4.172 15.469 11.044 1.519 8.42 3.038 16.84 4.557 25.27 3.349 1.163 6.933 2.615 6.761 3.543-.139.779-2.781.758-5.926 1.035-9.275.832-11.275 6.883-17.48 6.35-4.815-.417-12.57-3.469-14.39-5.688-3.027-3.693-2.963-7.193-4.557-15.42-1.615-8.345-.963-14.225.556-17.501l4.002-3.532Z" />
                    <path fill="#FF55EB"
                        d="M78.411 55.01h11.896V44.127H78.411v10.885Zm-4.738-13.128c-.193.043-1.904.406-3.21-.725-1.102-.95-1.765-2.839-.791-4.194.749-1.035 2.225-1.452 3.605-.982" />
                    <path fill="#FF55EB"
                        d="M73.673 41.882c-.193.043-1.904.406-3.21-.725-1.102-.95-1.765-2.839-.791-4.194.749-1.035 2.225-1.452 3.605-.982m.402 4.014c0 6.04 4.91 10.927 10.954 10.927 6.056 0 10.956-4.898 10.956-10.927V35.62c0-6.04-4.911-10.928-10.956-10.928-6.044 0-10.954 4.898-10.954 10.928v4.375Z" />
                    <path fill="#FF55EB"
                        d="M89.873 40.903c.042-1.185-.471-2.166-1.145-2.188-.674-.021-1.262.918-1.316 2.102-.043 1.185.631-1.152 1.316-1.13.674.02 1.102 2.411 1.145 1.216Zm-1.609-3.875c-1.316-.16-.93-2.124.342-1.793.888.202 3.552 1.76 2.76 2.774a.614.614 0 0 1-.877 0 3.563 3.563 0 0 0-2.204-1.003v.022h-.021Zm-7.769 2.614c.653-.022 1.305 2.22 1.252 1.077-.043-1.142-.61-2.038-1.263-2.017-.652.022-1.144.972-1.102 2.103.043 1.142.45-1.142 1.102-1.163h.011Zm-.003-3.81c1.295-.395 1.722 1.611.375 1.771a3.615 3.615 0 0 0-2.215 1.003.615.615 0 0 1-.77.064c-1.102-.95 1.744-2.657 2.62-2.849l-.01.01Zm5.11 6.532c-.802.085-1.594.149-2.385.234.535-1.483 1.091-2.966 1.626-4.45" />
                    <path fill="#FF55EB"
                        d="M84.633 38.064c.096-.246.503-.107.417.15l-1.444 4.513-.439-.566 2.386-.234c.545-.054.631.79.085.843l-2.385.234a.411.411 0 0 1-.439-.565l1.819-4.375Zm-1.441 6.798c.3.107.899.288 1.648.182.995-.14 1.626-.705 1.85-.918m-1.308 54.239c3.69-4.46 3.23-11.023-1.038-14.939-4.247-3.895-10.816-3.82-14.967.181-14.4 13.852-28.82 27.693-43.22 41.544l21.129 19.379 38.106-46.154-.01-.01Zm18.371 62.313c-6.954.17-13.896.331-20.85.501l-11.222-1.184c.791-4.108 3.124-7.619 6.333-9.978.738-.544 5.467-3.938 11.575-3.138 6.622.875 12.293 6.361 14.175 13.788l-.011.011Z" />
                    <path fill="#FF55EB"
                        d="M106.986 93.128c.3-5.774-3.979-10.79-9.746-11.397-5.744-.62-10.975 3.35-11.928 9.028-3.316 19.677-6.654 39.355-9.97 59.033l28.542 3.042 3.113-59.706h-.011Z" />
                    <path fill="#FF55EB"
                        d="M68.697 53.813 57.015 95.475c17.427 0 34.982.726 52.388 0-3.21-13.499-6.622-28.15-9.843-41.66H68.697Zm52.527-20.872.256.875c-.16-.565-.075-.853.695-1.173.471-.139.889.277 1.017.747a377.87 377.87 0 0 0 2.386 8.27 354.333 354.333 0 0 0 3.733 11.589l1.263 3.67a5.074 5.074 0 0 1-2.45 6.542l-14.56 8.1-2.707-6.382-2.642-6.242 10.902-3.287c-.61-4.343-1.22-8.676-1.82-13.008l-3.252-1.708a1.161 1.161 0 1 1 1.092-2.049l1.326.694-1.498-5.197a1.015 1.015 0 0 1 .685-1.238 1 1 0 0 1 1.23.683c-.085-.299-.171-.597-.257-.907a1.166 1.166 0 0 1 .792-1.44 1.169 1.169 0 0 1 1.444.79c.118.415.236.82.364 1.237a1.03 1.03 0 0 1 .717-1.28c.556-.16 1.134.16 1.295.715h-.011Z" />
                    <path fill="#FF55EB" d="M121.831 34.401c0 1.206 0 2.423.021 3.618l-.021-3.618Z" />
                    <path fill="#FF55EB"
                        d="M121.831 34.401c0 1.206 0 2.423.021 3.618l-.021-3.618Zm2.322.387.032 2.625-.032-2.625Zm0 0 .032 2.625-.032-2.625Zm2.092.992c0 .448 0 .886-.01 1.334V35.78h.01Z" />
                    <path fill="#FF55EB"
                        d="M126.245 35.78c0 .448 0 .886-.01 1.334l.01-1.334Zm-62.096.767c-5.884 5.25-7.713 6.936-13.597 12.187 9.275 12.4 13.137 16.263 19.984 15.505 1.936-.214 4.332-2.028 6.001-4.493 3.734-5.506-2.364-13.072-12.399-23.2h.01Zm27.163 30.678c2.46 6.179 12.153 5.432 26.199 2.87-1.026-7.81-1.391-10.254-2.417-18.066-15.49.651-20.873 1.654-24.114 7.726-.92 1.718-.77 4.717.332 7.48v-.01Z" />
                    <path fill="#FF55EB"
                        d="M94.733 66.8c.32 1.142.802 2.017 1.348 2.69 3.434 4.257 11.982 4.29 21.428.619-1.026-7.812-1.391-10.266-2.417-18.067-3.157.085-6.526.288-10.099.65-2.921.31-5.691.694-8.291 1.132" />
                    <path fill="#FF55EB"
                        d="M94.733 66.8c.32 1.142.802 2.017 1.348 2.69 3.434 4.257 11.982 4.29 21.428.619-1.026-7.812-1.391-10.266-2.417-18.067-3.157.085-6.526.288-10.099.65-2.921.31-5.691.694-8.291 1.132m-6.996-24.19c.054.65.246 1.718.963 2.785 1.616 2.422 4.493 2.71 4.921 2.742.31-1.398.631-3.884-.502-6.35-2.536-5.474-11.265-8.526-17.032-4.673-3.594 2.4-5.38 7.075-4.782 11.845.856-.992 1.733-1.996 2.61-3.01.867-.981 1.723-1.952 2.59-2.913-1.028 1.9-.75 2.775-.525 3.16 1.049 1.813 5.97 1.59 9.136-.663 1.413-1.003 2.215-2.22 2.621-2.924Z" />
                    <path fill="#FF55EB"
                        d="M96.155 30.997c-3.744-5.592-10.142-8.078-15.405-6.36-4.407 1.44-6.526 5.346-7.071 6.424M63.248 14.778a1.05 1.05 0 0 1 1.401-.47c.514.257.728.886.471 1.399l.578-1.153c.289-.576.984-.81 1.562-.523.577.288.813.982.524 1.558-.14.278-.278.555-.418.843a1 1 0 0 1 1.338-.448.995.995 0 0 1 .45 1.334l-2.419 4.834 1.434-.448c.61-.192 1.262.15 1.455.758.192.608-.15 1.27-.76 1.451l-3.509 1.088c-1.39 4.152-2.77 8.313-4.161 12.464l10.12 5.208-3.744 5.656-3.83 5.784-12.848-10.597a5.084 5.084 0 0 1-1.21-6.883l1.916-3.383a328.74 328.74 0 0 0 5.787-10.724 396.995 396.995 0 0 0 3.852-7.694c.213-.438.706-.758 1.133-.545.696.449.728.747.471 1.281l.407-.811v.021Z" />
                    <path fill="#FF55EB"
                        d="M75.9 50.548c-2.237-4.002-6.44-8.644-11.758-14.001-5.884 5.25-7.713 6.936-13.597 12.187 9.275 12.4 13.137 16.263 19.984 15.505a4.884 4.884 0 0 0 1.52-.448" />
                    <path fill="#FF55EB"
                        d="M75.9 50.548c-2.237-4.002-6.44-8.644-11.758-14.001-5.884 5.25-7.713 6.936-13.597 12.187 9.275 12.4 13.137 16.263 19.984 15.505a4.884 4.884 0 0 0 1.52-.448m8.817 2.988-1.34-4.945a.813.813 0 0 0-.998-.571l-.475.128a.81.81 0 0 0-.572.994l1.34 4.945a.813.813 0 0 0 .997.571l.475-.128a.81.81 0 0 0 .573-.994Zm-11.837-1.313.46-.373c1.08-.886 2.696-.737 3.584.33l.31.374-4.386 3.607-.31-.374a2.523 2.523 0 0 1 .342-3.564Zm21.556-2.348-.084.48-5.607-.907.086-.48a2.56 2.56 0 0 1 2.931-2.092l.589.096a2.525 2.525 0 0 1 2.096 2.903h-.01Z" />
                    <path fill="#FF55EB"
                        d="M92.777 73.473c-1.316-5.773-7.093-9.38-12.902-8.068-5.81 1.313-9.468 7.065-8.152 12.838 1.316 5.773 7.093 9.38 12.902 8.067 5.82-1.312 9.468-7.064 8.152-12.837Z" />
                    <path fill="#FF55EB"
                        d="M89.395 74.23c-.888-3.917-4.814-6.371-8.772-5.475-3.948.896-6.43 4.802-5.53 8.718.887 3.917 4.813 6.371 8.772 5.475 3.958-.897 6.43-4.802 5.53-8.719Z" />
                    <path fill="#FF55EB"
                        d="M83.46 75.754a1.211 1.211 0 0 0-1.444-.907c-.653.139-1.06.79-.91 1.44.15.652.792 1.046 1.445.908a1.195 1.195 0 0 0 .909-1.44Zm-8.57-12.849 7.156-1.93c.622-.168.99-.807.821-1.427l-.187-.69a1.166 1.166 0 0 0-1.43-.82l-7.156 1.93c-.622.169-.99.807-.822 1.427l.187.69c.168.62.809.987 1.43.82Z" />
                    <path fill="#000"
                        d="M80.197 24.766c2.087-4.492 5.146-4.844 11.009-5.1 6.675-.289 13.051 4.172 15.469 11.044 1.519 8.42 3.038 16.84 4.557 25.27 3.349 1.163 6.933 2.614 6.761 3.543-.139.779-2.781.758-5.926 1.035-9.276.832-11.275 6.883-17.48 6.35-4.815-.417-12.57-3.469-14.39-5.689-3.027-3.692-2.963-7.192-4.557-15.42-1.615-8.344-.963-14.224.556-17.5l4.001-3.533Z" />
                    <path fill="#fff" stroke="#000" stroke-linecap="round" stroke-linejoin="round"
                        stroke-width=".902" d="M85.278 54.526h11.897V43.642H85.278v10.884Z" />
                    <path fill="#fff"
                        d="M80.534 41.416c-.193.042-1.904.405-3.21-.726-1.101-.95-1.764-2.839-.791-4.194.749-1.035 2.225-1.451 3.605-.982" />
                    <path stroke="#000" stroke-linecap="round" stroke-linejoin="round"
                        stroke-width=".902"
                        d="M80.534 41.416c-.193.042-1.904.405-3.21-.726-1.101-.95-1.764-2.839-.791-4.194.749-1.035 2.225-1.451 3.605-.982" />
                    <path fill="#fff" stroke="#000" stroke-linecap="round" stroke-linejoin="round"
                        stroke-width=".902"
                        d="M80.55 39.523c0 6.04 4.91 10.928 10.955 10.928 6.055 0 10.955-4.898 10.955-10.928v-4.375c0-6.04-4.911-10.927-10.955-10.927-6.055 0-10.955 4.898-10.955 10.927v4.375Z" />
                    <path fill="#000"
                        d="M96.744 40.42c.043-1.185-.47-2.167-1.145-2.188-.673-.022-1.262.918-1.315 2.102-.043 1.184.63-1.153 1.315-1.131.675.021 1.103 2.412 1.145 1.216Zm-1.612-3.864c-1.315-.16-.931-2.124.343-1.793.887.203 3.551 1.76 2.76 2.775a.614.614 0 0 1-.878 0 3.563 3.563 0 0 0-2.204-1.003v.02h-.021Zm-7.766 2.607c.653-.021 1.305 2.22 1.252 1.078-.043-1.142-.61-2.038-1.262-2.017-.653.021-1.145.971-1.102 2.102.042 1.142.449-1.142 1.102-1.163h.01Zm-.01-3.803c1.295-.394 1.723 1.612.375 1.772a3.614 3.614 0 0 0-2.215 1.004.615.615 0 0 1-.77.063c-1.102-.95 1.744-2.657 2.621-2.849l-.01.01Z" />
                    <path fill="#fff"
                        d="M92.457 41.884c-.802.085-1.594.15-2.386.235.535-1.483 1.091-2.967 1.626-4.45" />
                    <path fill="#000"
                        d="M91.504 37.593c.096-.245.503-.107.417.15l-1.444 4.514-.439-.566 2.386-.235c.545-.053.631.79.085.843l-2.385.235a.411.411 0 0 1-.439-.566l1.819-4.375Z" />
                    <path stroke="#000" stroke-linecap="round" stroke-linejoin="round"
                        stroke-width=".451"
                        d="M90.06 45.458c.3.107.9.288 1.648.181.995-.138 1.626-.704 1.85-.917" />
                    <path fill="#08F8C3" stroke="#000" stroke-linecap="round"
                        stroke-linejoin="round" stroke-width=".902"
                        d="m60.899 158.211-28.072-17.053c4.964-6.754 14.432-8.686 21.814-4.204 7.37 4.482 10.002 13.755 6.258 21.257Z" />
                    <path fill="#FC0" stroke="#000" stroke-linecap="round" stroke-linejoin="round"
                        stroke-width=".902"
                        d="M93.612 96.571c2.75-5.09 1.027-11.44-3.926-14.46-4.922-2.998-11.351-1.653-14.657 3.063-11.436 16.37-22.894 32.74-34.33 49.109l24.499 14.93 28.414-52.642Z" />
                    <path fill="#08F8C3" stroke="#000" stroke-linecap="round"
                        stroke-linejoin="round" stroke-width=".902"
                        d="m115.905 161.36-32.864.31c.642-8.355 7.66-14.982 16.293-15.057 8.634-.075 15.769 6.413 16.571 14.758v-.011Z" />
                    <path fill="#FC0" stroke="#000" stroke-linecap="round" stroke-linejoin="round"
                        stroke-width=".902"
                        d="M110.474 91.205a10.901 10.901 0 0 0-10.988-10.212c-5.777.042-10.516 4.567-10.815 10.32-1.049 19.923-2.108 39.856-3.156 59.779l28.702-.223-3.743-59.664Z" />
                    <path fill="#06F" stroke="#000" stroke-linecap="round" stroke-linejoin="round"
                        stroke-width=".902"
                        d="m75.568 53.343-11.682 41.66c17.427 0 34.982.726 52.388 0-3.21-13.499-6.622-28.15-9.842-41.66H75.568Z" />
                    <path fill="#fff" stroke="#000" stroke-linecap="round" stroke-miterlimit="10"
                        stroke-width=".902"
                        d="M133.11 34.339v.907c0-.587.171-.843.995-.918.481 0 .77.512.76 1.003a371.857 371.857 0 0 0-.097 8.601c0 4.173.097 8.228.247 12.176l.159 3.885c.301 2.7-1.572 5.122-4.225 5.57l-16.272 3.586-.759-6.894-.738-6.734 11.393-.032a4643.62 4643.62 0 0 1 2.001-12.987l-2.622-2.571a1.16 1.16 0 0 1-.01-1.644 1.158 1.158 0 0 1 1.648-.01l1.07 1.045.053-5.41c0-.544.46-.992 1.006-.982.544 0 .994.46.984 1.003v-.939c0-.64.535-1.152 1.176-1.152.642 0 1.156.533 1.156 1.174 0 .427 0 .864-.011 1.29 0-.575.482-1.034 1.059-1.024.578 0 1.038.48 1.038 1.057h-.011Z" />
                    <path fill="#fff" d="M128.691 33.934c0 1.206 0 2.422.022 3.617l-.022-3.617Z" />
                    <path stroke="#000" stroke-linecap="round" stroke-linejoin="round"
                        stroke-width=".902"
                        d="M128.691 33.934c0 1.206 0 2.422.022 3.617m2.311-3.234.033 2.626m2.05-1.633c0 .448 0 .885-.011 1.334" />
                    <path fill="#06F"
                        d="M71.951 36.773c-7.06 3.532-9.254 4.684-16.314 8.216 5.712 14.385 8.419 19.123 15.234 20.18 1.925.299 4.718-.833 6.975-2.775 5.05-4.343 1.145-13.232-5.895-25.621Zm26.215 29.985c2.461 6.18 12.154 5.432 26.2 2.871-1.028-7.811-1.391-10.255-2.418-18.067-15.491.651-20.872 1.655-24.113 7.727-.92 1.718-.77 4.716.33 7.48v-.01Z" />
                    <path fill="#06F"
                        d="M101.604 66.32c.322 1.143.802 2.018 1.348 2.69 3.434 4.258 11.982 4.29 21.428.62-1.026-7.812-1.391-10.267-2.417-18.067a136.65 136.65 0 0 0-10.099.65c-2.921.31-5.691.694-8.291 1.132" />
                    <path stroke="#000" stroke-linecap="round" stroke-linejoin="round"
                        stroke-width=".902"
                        d="M101.604 66.32c.322 1.143.802 2.018 1.348 2.69 3.434 4.258 11.982 4.29 21.428.62-1.026-7.812-1.391-10.267-2.417-18.067a136.65 136.65 0 0 0-10.099.65c-2.921.31-5.691.694-8.291 1.132" />
                    <path fill="#000"
                        d="M96.578 29.15a5.85 5.85 0 0 0 .962 2.785c1.616 2.423 4.493 2.71 4.922 2.743.309-1.398.63-3.884-.504-6.35-2.534-5.474-11.265-8.526-17.03-4.674-3.595 2.401-5.382 7.076-4.783 11.846.856-.993 1.733-1.996 2.61-3.01.867-.982 1.723-1.953 2.59-2.913-1.028 1.9-.75 2.775-.525 3.159 1.049 1.814 5.97 1.59 9.136-.662 1.413-1.003 2.215-2.22 2.621-2.924Z" />
                    <path stroke="#FF55EB" stroke-miterlimit="10" stroke-width=".902"
                        d="M103.026 30.53c-3.743-5.592-10.141-8.078-15.405-6.36-4.407 1.44-6.526 5.346-7.071 6.424" />
                    <path fill="#fff" stroke="#000" stroke-linecap="round" stroke-miterlimit="10"
                        stroke-width=".902"
                        d="M79.876 16.901a1.04 1.04 0 0 1 1.465.16c.364.448.29 1.1-.16 1.462.342-.267.674-.533 1.016-.8a1.172 1.172 0 0 1 1.637.181 1.154 1.154 0 0 1-.182 1.633c-.246.192-.492.395-.738.587a1.003 1.003 0 0 1 1.401.16.997.997 0 0 1-.16 1.398l-4.237 3.372 1.488.192c.641.085 1.08.673.994 1.302a1.16 1.16 0 0 1-1.305 1.003l-3.637-.48c-3.006 3.19-6.023 6.37-9.04 9.561l6.986 8.975-5.777 3.564-5.916 3.64-7.178-15.005c-1.273-2.358-.514-5.325 1.797-6.744l3.167-2.262a322.238 322.238 0 0 0 9.767-7.3 345.781 345.781 0 0 0 6.74-5.367c.385-.299.962-.395 1.262-.021.439.704.353.981-.107 1.355l.706-.566h.01Z" />
                    <path fill="#06F"
                        d="M79.632 53.345c-1.102-4.44-3.958-10.02-7.68-16.572-7.061 3.532-9.255 4.684-16.315 8.216 5.712 14.385 8.419 19.123 15.234 20.18a4.971 4.971 0 0 0 1.583-.032" />
                    <path stroke="#000" stroke-linecap="round" stroke-linejoin="round"
                        stroke-width=".902"
                        d="M79.632 53.345c-1.102-4.44-3.958-10.02-7.68-16.572-7.061 3.532-9.255 4.684-16.315 8.216 5.712 14.385 8.419 19.123 15.234 20.18a4.971 4.971 0 0 0 1.583-.032m7.588-42.793c.952-.737 1.915-1.473 2.878-2.22m-3.83.001c.696-.533 1.402-1.056 2.098-1.59m-3.118-.193c.352-.277.695-.555 1.048-.832" />
                </g>
            </g>
        </g>
    </g>
    <defs>
        <clipPath id="a">
            <path fill="#fff" d="M0 .27h433v170.49H0z" />
        </clipPath>
        <clipPath id="b">
            <path fill="#fff" d="M0 .27h433v170.49H0z" />
        </clipPath>
        <clipPath id="c">
            <path fill="#fff" d="M0 .269h433v170.494H0z" />
        </clipPath>
    </defs>
</svg>